<svg xmlns="http://www.w3.org/2000/svg" width="1080" height="1000" viewBox="0 0 1080 1000"><style>text{font-family:-apple-system,BlinkMacSystemFont,'Segoe UI',sans-serif;fill:#111827}.title{font-size:22px;font-weight:700}.label{font-size:13px;fill:#374151}.tick{font-size:12px;fill:#6b7280}.value{font-size:12px;fill:#111827}</style><rect width="100%" height="100%" fill="#ffffff"/>
<text x="48" y="34" class="title">Throughput First 路由模式：指标生成过程对比曲线</text>
<text x="48" y="58" class="label">按 group/round 顺序绘制每轮指标；曲线展示汇总均值背后的波动过程。</text>
<rect x="48" y="76" width="472" height="245" rx="8" fill="#ffffff" stroke="#dbe3ef"/>
<text x="66" y="104" class="label" font-weight="700">Latency / 请求（含 reasoning）</text>
<rect x="366" y="88" width="136" height="26" rx="13" fill="#fef3c7" stroke="#f59e0b" stroke-width="1.4"/>
<text x="434" y="106" class="tick" font-weight="800" text-anchor="middle" fill="#92400e">均值胜出: OpenRouter</text>
<line x1="106" y1="281.00" x2="496" y2="281.00" stroke="#e5e7eb"/>
<text x="98" y="285.00" class="tick" text-anchor="end">0.0</text>
<line x1="106" y1="228.67" x2="496" y2="228.67" stroke="#e5e7eb"/>
<text x="98" y="232.67" class="tick" text-anchor="end">4037</text>
<line x1="106" y1="176.33" x2="496" y2="176.33" stroke="#e5e7eb"/>
<text x="98" y="180.33" class="tick" text-anchor="end">8074</text>
<line x1="106" y1="124.00" x2="496" y2="124.00" stroke="#e5e7eb"/>
<text x="98" y="128.00" class="tick" text-anchor="end">12110</text>
<polyline points="106.00,254.21 107.96,238.39 109.92,181.22 111.88,252.06 113.84,234.21 115.80,208.53 117.76,248.87 119.72,234.95 121.68,202.64 123.64,257.01 125.60,241.39 127.56,201.70 129.52,255.17 131.48,241.47 133.44,201.33 135.40,252.85 137.36,228.08 139.32,182.57 141.28,253.32 143.24,218.29 145.20,203.92 147.16,250.25 149.12,216.62 151.08,172.41 153.04,224.95 154.99,229.17 156.95,152.91 158.91,246.68 160.87,233.90 162.83,226.39 164.79,247.30 166.75,234.02 168.71,213.76 170.67,256.24 172.63,238.60 174.59,198.85 176.55,255.88 178.51,239.00 180.47,216.28 182.43,255.97 184.39,242.67 186.35,201.85 188.31,253.32 190.27,240.49 192.23,226.06 194.19,256.25 196.15,238.74 198.11,203.03 200.07,252.66 202.03,242.97 203.99,231.60 205.95,217.27 207.91,251.85 209.87,245.47 211.83,201.63 213.79,255.73 215.75,239.78 217.71,227.42 219.67,253.98 221.63,244.19 223.59,214.81 225.55,254.67 227.51,240.93 229.47,228.62 231.43,255.37 233.39,238.54 235.35,188.44 237.31,257.75 239.27,227.51 241.23,207.32 243.19,233.27 245.15,235.12 247.11,220.27 249.07,240.52 251.03,231.42 252.98,232.97 254.94,251.96 256.90,242.72 258.86,178.28 260.82,257.41 262.78,242.62 264.74,140.82 266.70,252.72 268.66,243.79 270.62,159.75 272.58,198.14 274.54,213.26 276.50,222.01 278.46,246.56 280.42,232.86 282.38,192.32 284.34,257.49 286.30,236.21 288.26,198.90 290.22,254.93 292.18,238.72 294.14,206.70 296.10,252.07 298.06,237.98 300.02,193.84 301.98,192.65 303.94,255.60 305.90,233.41 307.86,192.51 309.82,254.42 311.78,237.58 313.74,219.06 315.70,252.66 317.66,242.08 319.62,211.50 321.58,249.48 323.54,245.20 325.50,210.15 327.46,255.69 329.42,245.90 331.38,222.77 333.34,249.17 335.30,239.32 337.26,229.25 339.22,250.88 341.18,246.31 343.14,229.37 345.10,252.62 347.06,239.55 349.02,228.90 350.97,256.13 352.93,241.08 354.89,201.27 356.85,252.13 358.81,245.73 360.77,227.80 362.73,253.97 364.69,246.68 366.65,232.77 368.61,250.77 370.57,242.59 372.53,226.75 374.49,257.14 376.45,243.24 378.41,227.95 380.37,254.82 382.33,245.52 384.29,224.43 386.25,251.33 388.21,241.86 390.17,233.11 392.13,252.33 394.09,243.91 396.05,209.69 398.01,257.90 399.97,235.49 401.93,246.48 403.89,229.76 405.85,248.36 407.81,243.41 409.77,227.74 411.73,245.66 413.69,240.73 415.65,197.92 417.61,254.79 419.57,240.04 421.53,211.13 423.49,251.93 425.45,231.90 427.41,218.09 429.37,252.60 431.33,231.42 433.29,193.93 435.25,254.05 437.21,233.61 439.17,229.58 441.13,256.26 443.09,239.97 445.05,199.24 447.01,254.35 448.96,241.65 450.92,208.34 452.88,253.74 454.84,233.34 456.80,217.15 458.76,255.21 460.72,242.12 462.68,231.50 464.64,254.95 466.60,240.60 468.56,227.16 470.52,256.26 472.48,241.34 474.44,235.54 476.40,250.35 478.36,242.63 480.32,224.40 482.28,252.57 484.24,241.19 486.20,231.64 488.16,262.35 490.12,239.58 492.08,234.60 494.04,251.31 496.00,252.48" fill="none" stroke="#2563eb" stroke-width="1.8" stroke-opacity="0.45" stroke-linejoin="round" stroke-linecap="round"/>
<circle cx="106.00" cy="254.21" r="1.8" fill="#2563eb" fill-opacity="0.55"/>
<circle cx="127.56" cy="201.70" r="1.8" fill="#2563eb" fill-opacity="0.55"/>
<circle cx="149.12" cy="216.62" r="1.8" fill="#2563eb" fill-opacity="0.55"/>
<circle cx="170.67" cy="256.24" r="1.8" fill="#2563eb" fill-opacity="0.55"/>
<circle cx="192.23" cy="226.06" r="1.8" fill="#2563eb" fill-opacity="0.55"/>
<circle cx="213.79" cy="255.73" r="1.8" fill="#2563eb" fill-opacity="0.55"/>
<circle cx="235.35" cy="188.44" r="1.8" fill="#2563eb" fill-opacity="0.55"/>
<circle cx="256.90" cy="242.72" r="1.8" fill="#2563eb" fill-opacity="0.55"/>
<circle cx="278.46" cy="246.56" r="1.8" fill="#2563eb" fill-opacity="0.55"/>
<circle cx="300.02" cy="193.84" r="1.8" fill="#2563eb" fill-opacity="0.55"/>
<circle cx="321.58" cy="249.48" r="1.8" fill="#2563eb" fill-opacity="0.55"/>
<circle cx="343.14" cy="229.37" r="1.8" fill="#2563eb" fill-opacity="0.55"/>
<circle cx="364.69" cy="246.68" r="1.8" fill="#2563eb" fill-opacity="0.55"/>
<circle cx="386.25" cy="251.33" r="1.8" fill="#2563eb" fill-opacity="0.55"/>
<circle cx="407.81" cy="243.41" r="1.8" fill="#2563eb" fill-opacity="0.55"/>
<circle cx="429.37" cy="252.60" r="1.8" fill="#2563eb" fill-opacity="0.55"/>
<circle cx="450.92" cy="208.34" r="1.8" fill="#2563eb" fill-opacity="0.55"/>
<circle cx="472.48" cy="241.34" r="1.8" fill="#2563eb" fill-opacity="0.55"/>
<circle cx="494.04" cy="251.31" r="1.8" fill="#2563eb" fill-opacity="0.55"/>
<polyline points="106.00,261.89 107.96,254.09 109.92,235.77 111.88,262.36 113.84,254.39 115.80,239.12 117.76,263.40 119.72,252.35 121.68,237.58 123.64,261.62 125.60,252.49 127.56,246.66 129.52,261.56 131.48,255.78 133.44,227.46 135.40,263.80 137.36,246.77 139.32,235.52 141.28,258.21 143.24,253.82 145.20,241.57 147.16,259.46 149.12,250.36 151.08,238.13 153.04,257.87 154.99,255.19 156.95,238.02 158.91,262.53 160.87,252.34 162.83,249.27 164.79,262.09 166.75,251.14 168.71,239.36 170.67,260.92 172.63,253.99 174.59,243.06 176.55,263.68 178.51,253.86 180.47,238.42 182.43,258.37 184.39,249.31 186.35,238.98 188.31,259.58 190.27,257.00 192.23,240.58 194.19,260.98 196.15,251.83 198.11,234.42 200.07,261.32 202.03,250.17 203.99,253.64 205.95,239.44 207.91,262.26 209.87,254.52 211.83,244.85 213.79,260.28 215.75,249.70 217.71,232.16 219.67,259.10 221.63,249.74 223.59,241.47 225.55,256.97 227.51,252.09 229.47,236.39 231.43,260.10 233.39,248.08 235.35,227.93 237.31,258.27 239.27,248.17 241.23,232.91 243.19,253.08 245.15,248.68 247.11,236.35 249.07,259.58 251.03,247.86 252.98,244.69 254.94,256.34 256.90,248.18 258.86,240.06 260.82,260.95 262.78,247.68 264.74,238.83 266.70,259.30 268.66,244.35 270.62,240.37 272.58,261.41 274.54,248.71 276.50,242.20 278.46,257.81 280.42,243.96 282.38,245.39 284.34,258.22 286.30,253.92 288.26,242.95 290.22,254.08 292.18,250.35 294.14,228.64 296.10,258.47 298.06,249.56 300.02,241.11 301.98,243.56 303.94,258.73 305.90,255.19 307.86,244.37 309.82,261.43 311.78,247.69 313.74,227.12 315.70,258.94 317.66,255.72 319.62,238.64 321.58,261.61 323.54,256.36 325.50,240.33 327.46,261.67 329.42,247.14 331.38,245.62 333.34,259.75 335.30,253.02 337.26,240.28 339.22,257.82 341.18,251.52 343.14,238.45 345.10,258.96 347.06,253.52 349.02,247.63 350.97,260.71 352.93,249.95 354.89,225.56 356.85,261.15 358.81,254.84 360.77,243.92 362.73,245.11 364.69,252.30 366.65,226.76 368.61,257.52 370.57,252.00 372.53,237.69 374.49,256.28 376.45,250.99 378.41,244.46 380.37,260.78 382.33,250.47 384.29,239.68 386.25,259.54 388.21,250.72 390.17,249.30 392.13,261.85 394.09,254.12 396.05,239.89 398.01,262.31 399.97,258.82 401.93,250.63 403.89,231.55 405.85,258.15 407.81,251.51 409.77,240.70 411.73,259.14 413.69,240.87 415.65,242.52 417.61,261.75 419.57,248.29 421.53,238.66 423.49,259.20 425.45,250.35 427.41,244.18 429.37,258.53 431.33,254.86 433.29,240.84 435.25,260.23 437.21,252.74 439.17,237.28 441.13,260.77 443.09,251.05 445.05,244.96 447.01,260.42 448.96,254.09 450.92,240.78 452.88,258.86 454.84,253.21 456.80,239.86 458.76,258.48 460.72,251.58 462.68,246.79 464.64,262.12 466.60,254.47 468.56,241.56 470.52,258.16 472.48,250.49 474.44,246.97 476.40,259.29 478.36,251.11 480.32,244.14 482.28,261.75 484.24,254.21 486.20,240.60 488.16,261.79 490.12,251.41 492.08,226.16 494.04,261.48 496.00,250.68" fill="none" stroke="#f97316" stroke-width="3.8" stroke-opacity="1" stroke-linejoin="round" stroke-linecap="round"/>
<circle cx="106.00" cy="261.89" r="3.0" fill="#f97316" fill-opacity="1"/>
<circle cx="127.56" cy="246.66" r="3.0" fill="#f97316" fill-opacity="1"/>
<circle cx="149.12" cy="250.36" r="3.0" fill="#f97316" fill-opacity="1"/>
<circle cx="170.67" cy="260.92" r="3.0" fill="#f97316" fill-opacity="1"/>
<circle cx="192.23" cy="240.58" r="3.0" fill="#f97316" fill-opacity="1"/>
<circle cx="213.79" cy="260.28" r="3.0" fill="#f97316" fill-opacity="1"/>
<circle cx="235.35" cy="227.93" r="3.0" fill="#f97316" fill-opacity="1"/>
<circle cx="256.90" cy="248.18" r="3.0" fill="#f97316" fill-opacity="1"/>
<circle cx="278.46" cy="257.81" r="3.0" fill="#f97316" fill-opacity="1"/>
<circle cx="300.02" cy="241.11" r="3.0" fill="#f97316" fill-opacity="1"/>
<circle cx="321.58" cy="261.61" r="3.0" fill="#f97316" fill-opacity="1"/>
<circle cx="343.14" cy="238.45" r="3.0" fill="#f97316" fill-opacity="1"/>
<circle cx="364.69" cy="252.30" r="3.0" fill="#f97316" fill-opacity="1"/>
<circle cx="386.25" cy="259.54" r="3.0" fill="#f97316" fill-opacity="1"/>
<circle cx="407.81" cy="251.51" r="3.0" fill="#f97316" fill-opacity="1"/>
<circle cx="429.37" cy="258.53" r="3.0" fill="#f97316" fill-opacity="1"/>
<circle cx="450.92" cy="240.78" r="3.0" fill="#f97316" fill-opacity="1"/>
<circle cx="472.48" cy="250.49" r="3.0" fill="#f97316" fill-opacity="1"/>
<circle cx="494.04" cy="261.48" r="3.0" fill="#f97316" fill-opacity="1"/>
<text x="496" y="306" class="tick" text-anchor="end">Round 序列；越低越好</text>
<rect x="560" y="76" width="472" height="245" rx="8" fill="#ffffff" stroke="#dbe3ef"/>
<text x="578" y="104" class="label" font-weight="700">TTFT / 首包响应</text>
<rect x="878" y="88" width="136" height="26" rx="13" fill="#fef3c7" stroke="#f59e0b" stroke-width="1.4"/>
<text x="946" y="106" class="tick" font-weight="800" text-anchor="middle" fill="#92400e">均值胜出: OpenRouter</text>
<line x1="618" y1="281.00" x2="1008" y2="281.00" stroke="#e5e7eb"/>
<text x="610" y="285.00" class="tick" text-anchor="end">0.0</text>
<line x1="618" y1="228.67" x2="1008" y2="228.67" stroke="#e5e7eb"/>
<text x="610" y="232.67" class="tick" text-anchor="end">3481</text>
<line x1="618" y1="176.33" x2="1008" y2="176.33" stroke="#e5e7eb"/>
<text x="610" y="180.33" class="tick" text-anchor="end">6963</text>
<line x1="618" y1="124.00" x2="1008" y2="124.00" stroke="#e5e7eb"/>
<text x="610" y="128.00" class="tick" text-anchor="end">10444</text>
<polyline points="618.00,252.40 619.96,233.08 621.92,179.28 623.88,250.78 625.84,229.87 627.80,199.14 629.76,248.77 631.72,230.65 633.68,193.45 635.64,254.83 637.60,237.82 639.56,192.08 641.52,253.97 643.48,236.58 645.44,192.41 647.40,252.21 649.36,224.40 651.32,176.28 653.28,252.45 655.24,238.57 657.20,200.62 659.16,247.72 661.12,229.39 663.08,178.05 665.04,251.95 666.99,229.23 668.95,140.82 670.91,249.71 672.87,231.83 674.83,220.26 676.79,248.49 678.75,232.10 680.71,205.81 682.67,253.56 684.63,235.28 686.59,188.89 688.55,254.51 690.51,233.87 692.47,209.87 694.43,255.21 696.39,239.53 698.35,196.90 700.31,255.54 702.27,237.49 704.23,219.99 706.19,254.27 708.15,234.79 710.11,193.63 712.07,251.17 714.03,238.55 715.99,226.55 717.95,209.31 719.91,254.57 721.87,242.89 723.83,192.38 725.79,253.24 727.75,236.25 729.71,221.47 731.67,252.62 733.63,240.32 735.59,209.01 737.55,254.39 739.51,240.80 741.47,222.83 743.43,255.14 745.39,245.10 747.35,183.10 749.31,254.96 751.27,227.03 753.23,221.90 755.19,235.31 757.15,230.17 759.11,219.12 761.07,240.94 763.03,238.66 764.98,227.57 766.94,254.34 768.90,241.46 770.86,186.55 772.82,254.93 774.78,241.45 776.74,142.03 778.70,252.82 780.66,240.45 782.62,162.80 784.58,208.00 786.54,207.62 788.50,214.85 790.46,249.82 792.42,234.29 794.38,206.03 796.34,255.49 798.30,233.05 800.26,189.19 802.22,255.25 804.18,233.69 806.14,205.62 808.10,250.91 810.06,235.95 812.02,187.44 813.98,181.51 815.94,253.12 817.90,228.92 819.86,188.58 821.82,254.95 823.78,232.48 825.74,212.68 827.70,253.06 829.66,238.86 831.62,208.06 833.58,250.38 835.54,242.36 837.50,203.40 839.46,253.80 841.42,243.14 843.38,218.78 845.34,247.74 847.30,236.84 849.26,225.94 851.22,252.00 853.18,245.04 855.14,224.81 857.10,253.03 859.06,238.73 861.02,225.82 862.97,253.45 864.93,240.42 866.89,196.42 868.85,252.66 870.81,241.13 872.77,228.17 874.73,253.62 876.69,246.31 878.65,227.50 880.61,252.59 882.57,242.24 884.53,226.66 886.49,253.97 888.45,243.81 890.41,226.97 892.37,256.04 894.33,241.69 896.29,221.28 898.25,256.12 900.21,242.06 902.17,228.08 904.13,252.43 906.09,242.40 908.05,207.34 910.01,255.32 911.97,238.05 913.93,243.09 915.89,229.76 917.85,252.43 919.81,243.08 921.77,226.09 923.73,249.14 925.69,239.53 927.65,188.57 929.61,252.47 931.57,236.22 933.53,203.74 935.49,252.04 937.45,225.69 939.41,211.61 941.37,251.48 943.33,226.27 945.29,182.55 947.25,254.55 949.21,229.42 951.17,224.55 953.13,254.55 955.09,236.84 957.05,189.54 959.01,253.10 960.96,236.94 962.92,200.35 964.88,254.08 966.84,229.91 968.80,209.48 970.76,255.20 972.72,238.55 974.68,227.83 976.64,252.64 978.60,237.80 980.56,224.61 982.52,256.87 984.48,238.07 986.44,233.54 988.40,255.07 990.36,242.71 992.32,218.20 994.28,254.29 996.24,241.49 998.20,232.10 1000.16,261.09 1002.12,240.77 1004.08,238.91 1006.04,255.43 1008.00,249.73" fill="none" stroke="#2563eb" stroke-width="1.8" stroke-opacity="0.45" stroke-linejoin="round" stroke-linecap="round"/>
<circle cx="618.00" cy="252.40" r="1.8" fill="#2563eb" fill-opacity="0.55"/>
<circle cx="639.56" cy="192.08" r="1.8" fill="#2563eb" fill-opacity="0.55"/>
<circle cx="661.12" cy="229.39" r="1.8" fill="#2563eb" fill-opacity="0.55"/>
<circle cx="682.67" cy="253.56" r="1.8" fill="#2563eb" fill-opacity="0.55"/>
<circle cx="704.23" cy="219.99" r="1.8" fill="#2563eb" fill-opacity="0.55"/>
<circle cx="725.79" cy="253.24" r="1.8" fill="#2563eb" fill-opacity="0.55"/>
<circle cx="747.35" cy="183.10" r="1.8" fill="#2563eb" fill-opacity="0.55"/>
<circle cx="768.90" cy="241.46" r="1.8" fill="#2563eb" fill-opacity="0.55"/>
<circle cx="790.46" cy="249.82" r="1.8" fill="#2563eb" fill-opacity="0.55"/>
<circle cx="812.02" cy="187.44" r="1.8" fill="#2563eb" fill-opacity="0.55"/>
<circle cx="833.58" cy="250.38" r="1.8" fill="#2563eb" fill-opacity="0.55"/>
<circle cx="855.14" cy="224.81" r="1.8" fill="#2563eb" fill-opacity="0.55"/>
<circle cx="876.69" cy="246.31" r="1.8" fill="#2563eb" fill-opacity="0.55"/>
<circle cx="898.25" cy="256.12" r="1.8" fill="#2563eb" fill-opacity="0.55"/>
<circle cx="919.81" cy="243.08" r="1.8" fill="#2563eb" fill-opacity="0.55"/>
<circle cx="941.37" cy="251.48" r="1.8" fill="#2563eb" fill-opacity="0.55"/>
<circle cx="962.92" cy="200.35" r="1.8" fill="#2563eb" fill-opacity="0.55"/>
<circle cx="984.48" cy="238.07" r="1.8" fill="#2563eb" fill-opacity="0.55"/>
<circle cx="1006.04" cy="255.43" r="1.8" fill="#2563eb" fill-opacity="0.55"/>
<polyline points="618.00,260.87 619.96,252.13 621.92,229.71 623.88,261.87 625.84,252.60 627.80,233.60 629.76,263.61 631.72,250.90 633.68,233.42 635.64,260.50 637.60,252.27 639.56,242.95 641.52,261.93 643.48,252.96 645.44,221.97 647.40,264.38 649.36,244.15 651.32,232.30 653.28,259.32 655.24,253.55 657.20,237.40 659.16,257.86 661.12,249.35 663.08,234.78 665.04,259.72 666.99,253.50 668.95,234.59 670.91,263.03 672.87,251.52 674.83,246.73 676.79,262.55 678.75,249.30 680.71,236.38 682.67,261.67 684.63,253.40 686.59,240.31 688.55,263.38 690.51,251.12 692.47,235.41 694.43,257.90 696.39,248.74 698.35,234.33 700.31,259.27 702.27,255.36 704.23,236.36 706.19,261.60 708.15,251.39 710.11,229.30 712.07,260.50 714.03,249.67 715.99,252.23 717.95,235.14 719.91,262.40 721.87,254.36 723.83,240.68 725.79,261.86 727.75,248.53 729.71,228.04 731.67,259.04 733.63,248.09 735.59,238.14 737.55,259.66 739.51,251.69 741.47,232.21 743.43,260.89 745.39,247.85 747.35,224.98 749.31,259.63 751.27,247.32 753.23,229.23 755.19,252.30 757.15,247.32 759.11,232.32 761.07,258.61 763.03,246.18 764.98,241.59 766.94,255.88 768.90,246.87 770.86,237.10 772.82,262.56 774.78,247.02 776.74,236.52 778.70,259.74 780.66,242.04 782.62,237.53 784.58,260.72 786.54,247.79 788.50,239.01 790.46,258.53 792.42,241.93 794.38,243.90 796.34,258.91 798.30,252.24 800.26,239.21 802.22,253.44 804.18,250.73 806.14,222.44 808.10,258.43 810.06,248.10 812.02,239.59 813.98,240.33 815.94,258.84 817.90,254.67 819.86,244.73 821.82,261.88 823.78,246.11 825.74,220.64 827.70,258.68 829.66,254.93 831.62,237.00 833.58,261.73 835.54,255.56 837.50,237.10 839.46,262.26 841.42,245.10 843.38,243.33 845.34,260.57 847.30,253.93 849.26,237.83 851.22,257.25 853.18,248.98 855.14,235.44 857.10,259.94 859.06,252.91 861.02,245.81 862.97,261.62 864.93,250.22 866.89,224.62 868.85,261.65 870.81,254.20 872.77,241.67 874.73,244.43 876.69,252.16 878.65,221.99 880.61,257.22 882.57,250.65 884.53,234.83 886.49,260.65 888.45,249.85 890.41,242.15 892.37,261.87 894.33,250.29 896.29,236.74 898.25,260.45 900.21,249.33 902.17,246.53 904.13,262.58 906.09,252.99 908.05,236.93 910.01,262.60 911.97,258.94 913.93,249.13 915.89,226.88 917.85,258.71 919.81,250.16 921.77,239.45 923.73,259.48 925.69,239.41 927.65,241.25 929.61,262.38 931.57,247.35 933.53,237.63 935.49,257.85 937.45,247.54 939.41,241.05 941.37,257.79 943.33,254.10 945.29,240.28 947.25,259.97 949.21,251.48 951.17,234.32 953.13,259.27 955.09,249.15 957.05,243.51 959.01,260.57 960.96,253.35 962.92,238.16 964.88,260.40 966.84,252.87 968.80,236.75 970.76,259.89 972.72,251.04 974.68,245.06 976.64,262.18 978.60,253.77 980.56,238.92 982.52,258.27 984.48,249.62 986.44,245.63 988.40,259.46 990.36,250.00 992.32,242.75 994.28,262.18 996.24,253.47 998.20,238.05 1000.16,262.35 1002.12,250.49 1004.08,221.47 1006.04,262.02 1008.00,249.38" fill="none" stroke="#f97316" stroke-width="3.8" stroke-opacity="1" stroke-linejoin="round" stroke-linecap="round"/>
<circle cx="618.00" cy="260.87" r="3.0" fill="#f97316" fill-opacity="1"/>
<circle cx="639.56" cy="242.95" r="3.0" fill="#f97316" fill-opacity="1"/>
<circle cx="661.12" cy="249.35" r="3.0" fill="#f97316" fill-opacity="1"/>
<circle cx="682.67" cy="261.67" r="3.0" fill="#f97316" fill-opacity="1"/>
<circle cx="704.23" cy="236.36" r="3.0" fill="#f97316" fill-opacity="1"/>
<circle cx="725.79" cy="261.86" r="3.0" fill="#f97316" fill-opacity="1"/>
<circle cx="747.35" cy="224.98" r="3.0" fill="#f97316" fill-opacity="1"/>
<circle cx="768.90" cy="246.87" r="3.0" fill="#f97316" fill-opacity="1"/>
<circle cx="790.46" cy="258.53" r="3.0" fill="#f97316" fill-opacity="1"/>
<circle cx="812.02" cy="239.59" r="3.0" fill="#f97316" fill-opacity="1"/>
<circle cx="833.58" cy="261.73" r="3.0" fill="#f97316" fill-opacity="1"/>
<circle cx="855.14" cy="235.44" r="3.0" fill="#f97316" fill-opacity="1"/>
<circle cx="876.69" cy="252.16" r="3.0" fill="#f97316" fill-opacity="1"/>
<circle cx="898.25" cy="260.45" r="3.0" fill="#f97316" fill-opacity="1"/>
<circle cx="919.81" cy="250.16" r="3.0" fill="#f97316" fill-opacity="1"/>
<circle cx="941.37" cy="257.79" r="3.0" fill="#f97316" fill-opacity="1"/>
<circle cx="962.92" cy="238.16" r="3.0" fill="#f97316" fill-opacity="1"/>
<circle cx="984.48" cy="249.62" r="3.0" fill="#f97316" fill-opacity="1"/>
<circle cx="1006.04" cy="262.02" r="3.0" fill="#f97316" fill-opacity="1"/>
<text x="1008" y="306" class="tick" text-anchor="end">Round 序列；越低越好</text>
<rect x="48" y="379" width="472" height="245" rx="8" fill="#ffffff" stroke="#dbe3ef"/>
<text x="66" y="407" class="label" font-weight="700">Response Throughput（含 reasoning）</text>
<rect x="366" y="391" width="136" height="26" rx="13" fill="#fef3c7" stroke="#f59e0b" stroke-width="1.4"/>
<text x="434" y="409" class="tick" font-weight="800" text-anchor="middle" fill="#92400e">均值胜出: OpenRouter</text>
<line x1="106" y1="584.00" x2="496" y2="584.00" stroke="#e5e7eb"/>
<text x="98" y="588.00" class="tick" text-anchor="end">0.0</text>
<line x1="106" y1="531.67" x2="496" y2="531.67" stroke="#e5e7eb"/>
<text x="98" y="535.67" class="tick" text-anchor="end">4.5</text>
<line x1="106" y1="479.33" x2="496" y2="479.33" stroke="#e5e7eb"/>
<text x="98" y="483.33" class="tick" text-anchor="end">9.0</text>
<line x1="106" y1="427.00" x2="496" y2="427.00" stroke="#e5e7eb"/>
<text x="98" y="431.00" class="tick" text-anchor="end">13.5</text>
<polyline points="106.00,494.01 107.96,573.39 109.92,559.84 111.88,500.70 113.84,532.47 115.80,577.76 117.76,508.95 119.72,531.64 121.68,553.23 123.64,565.15 125.60,523.14 127.56,553.59 129.52,490.67 131.48,572.56 133.44,553.74 135.40,498.35 137.36,538.44 139.32,578.64 141.28,496.89 143.24,545.55 145.20,552.72 147.16,571.75 149.12,546.55 151.08,561.80 153.04,540.98 154.99,572.37 156.95,565.18 158.91,513.75 160.87,532.81 162.83,574.34 164.79,512.46 166.75,532.68 168.71,548.14 170.67,565.74 172.63,527.14 174.59,554.65 176.55,488.03 178.51,573.24 180.47,546.75 182.43,487.69 184.39,521.10 186.35,578.29 188.31,496.90 190.27,524.48 192.23,540.12 194.19,565.73 196.15,526.95 198.11,553.08 200.07,498.93 202.03,572.11 203.99,535.19 205.95,576.91 207.91,501.30 209.87,516.15 211.83,553.62 213.79,566.11 215.75,525.50 217.71,539.00 219.67,494.78 221.63,571.72 223.59,547.57 225.55,492.42 227.51,523.83 229.47,573.93 231.43,489.94 233.39,527.21 235.35,557.95 237.31,571.04 239.27,538.93 241.23,551.28 243.19,533.49 245.15,570.86 247.11,544.30 249.07,524.44 251.03,535.37 252.98,571.45 254.94,500.98 256.90,521.02 258.86,560.53 260.82,571.22 262.78,521.18 264.74,566.80 266.70,498.76 268.66,567.80 270.62,564.11 272.58,554.90 274.54,548.41 276.50,573.78 278.46,513.99 280.42,533.92 282.38,556.81 284.34,567.98 286.30,530.17 288.26,554.63 290.22,491.52 292.18,573.31 294.14,551.55 296.10,500.67 298.06,527.96 300.02,578.81 301.98,556.71 303.94,566.20 305.90,533.34 307.86,556.75 309.82,493.29 311.78,573.59 313.74,545.07 315.70,498.92 317.66,522.06 319.62,577.50 321.58,507.52 323.54,516.65 325.50,549.97 327.46,566.14 329.42,515.31 331.38,542.59 333.34,508.25 335.30,571.35 337.26,537.41 339.22,503.95 341.18,514.49 343.14,572.33 345.10,499.04 347.06,525.83 349.02,537.73 350.97,571.88 352.93,523.61 354.89,553.76 356.85,500.47 358.81,566.91 360.77,538.68 362.73,494.80 364.69,513.76 366.65,571.50 368.61,504.25 370.57,521.24 372.53,539.56 374.49,571.37 376.45,520.15 378.41,538.55 380.37,491.90 382.33,567.01 384.29,541.38 386.25,502.73 388.21,522.40 390.17,571.41 392.13,499.91 394.09,519.00 396.05,550.19 398.01,570.96 399.97,531.02 401.93,566.54 403.89,536.95 405.85,510.12 407.81,519.86 409.77,572.68 411.73,515.77 413.69,524.13 415.65,554.98 417.61,566.75 419.57,525.14 421.53,549.49 423.49,501.06 425.45,574.79 427.41,545.68 429.37,499.11 431.33,535.37 433.29,578.81 435.25,494.53 437.21,533.13 439.17,537.11 441.13,565.73 443.09,525.24 445.05,554.51 447.01,493.52 448.96,572.51 450.92,550.82 452.88,495.54 454.84,533.41 456.80,575.74 458.76,490.51 460.72,521.98 462.68,535.29 464.64,566.65 466.60,524.32 468.56,539.22 470.52,486.55 472.48,568.80 474.44,530.96 476.40,505.35 478.36,521.16 480.32,573.35 482.28,499.20 484.24,523.44 486.20,535.15 488.16,567.84 490.12,525.78 492.08,532.04 494.04,502.78 496.00,562.87" fill="none" stroke="#2563eb" stroke-width="1.8" stroke-opacity="0.45" stroke-linejoin="round" stroke-linecap="round"/>
<circle cx="106.00" cy="494.01" r="1.8" fill="#2563eb" fill-opacity="0.55"/>
<circle cx="127.56" cy="553.59" r="1.8" fill="#2563eb" fill-opacity="0.55"/>
<circle cx="149.12" cy="546.55" r="1.8" fill="#2563eb" fill-opacity="0.55"/>
<circle cx="170.67" cy="565.74" r="1.8" fill="#2563eb" fill-opacity="0.55"/>
<circle cx="192.23" cy="540.12" r="1.8" fill="#2563eb" fill-opacity="0.55"/>
<circle cx="213.79" cy="566.11" r="1.8" fill="#2563eb" fill-opacity="0.55"/>
<circle cx="235.35" cy="557.95" r="1.8" fill="#2563eb" fill-opacity="0.55"/>
<circle cx="256.90" cy="521.02" r="1.8" fill="#2563eb" fill-opacity="0.55"/>
<circle cx="278.46" cy="513.99" r="1.8" fill="#2563eb" fill-opacity="0.55"/>
<circle cx="300.02" cy="578.81" r="1.8" fill="#2563eb" fill-opacity="0.55"/>
<circle cx="321.58" cy="507.52" r="1.8" fill="#2563eb" fill-opacity="0.55"/>
<circle cx="343.14" cy="572.33" r="1.8" fill="#2563eb" fill-opacity="0.55"/>
<circle cx="364.69" cy="513.76" r="1.8" fill="#2563eb" fill-opacity="0.55"/>
<circle cx="386.25" cy="502.73" r="1.8" fill="#2563eb" fill-opacity="0.55"/>
<circle cx="407.81" cy="519.86" r="1.8" fill="#2563eb" fill-opacity="0.55"/>
<circle cx="429.37" cy="499.11" r="1.8" fill="#2563eb" fill-opacity="0.55"/>
<circle cx="450.92" cy="550.82" r="1.8" fill="#2563eb" fill-opacity="0.55"/>
<circle cx="472.48" cy="568.80" r="1.8" fill="#2563eb" fill-opacity="0.55"/>
<circle cx="494.04" cy="502.78" r="1.8" fill="#2563eb" fill-opacity="0.55"/>
<polyline points="106.00,457.83 107.96,494.39 109.92,530.69 111.88,454.63 113.84,493.39 115.80,526.43 117.76,447.00 119.72,499.85 121.68,528.48 123.64,459.58 125.60,499.42 127.56,513.78 129.52,460.00 131.48,488.42 133.44,538.97 135.40,443.82 137.36,513.57 139.32,530.99 141.28,478.19 143.24,495.30 145.20,522.85 147.16,472.07 149.12,505.31 151.08,527.76 153.04,479.78 154.99,490.59 156.95,527.90 158.91,453.48 160.87,499.88 162.83,508.01 164.79,456.49 166.75,503.26 168.71,526.10 170.67,463.96 172.63,494.73 174.59,520.45 176.55,444.77 178.51,495.16 180.47,527.38 182.43,477.44 184.39,507.92 186.35,526.62 188.31,471.43 190.27,483.54 192.23,524.36 194.19,463.55 196.15,501.34 198.11,532.24 200.07,461.46 202.03,505.80 203.99,495.86 205.95,525.99 207.91,455.37 209.87,492.95 211.83,517.30 213.79,467.62 215.75,506.98 217.71,534.64 219.67,473.90 221.63,506.88 223.59,523.00 225.55,483.68 227.51,500.61 229.47,529.95 231.43,468.65 233.39,510.76 235.35,538.57 237.31,477.95 239.27,510.56 241.23,533.87 243.19,497.66 245.15,509.40 247.11,530.00 249.07,471.45 251.03,511.24 252.98,517.61 254.94,486.22 256.90,510.54 258.86,525.11 260.82,463.77 262.78,511.63 264.74,526.82 266.70,472.89 268.66,518.22 270.62,524.66 272.58,460.92 274.54,509.34 276.50,521.87 278.46,480.04 280.42,518.90 282.38,516.29 284.34,478.18 286.30,494.96 288.26,520.64 290.22,494.43 292.18,505.34 294.14,537.95 296.10,477.00 298.06,507.31 300.02,523.55 301.98,519.60 303.94,475.73 305.90,490.58 307.86,518.18 309.82,460.80 311.78,511.63 313.74,539.25 315.70,474.73 317.66,488.61 319.62,527.08 321.58,459.68 323.54,486.13 325.50,524.71 327.46,459.28 329.42,512.79 331.38,515.86 333.34,470.55 335.30,497.84 337.26,524.79 339.22,479.99 341.18,502.20 343.14,527.34 345.10,474.62 347.06,496.25 349.02,511.75 350.97,465.19 352.93,506.35 354.89,540.51 356.85,462.53 358.81,491.84 360.77,518.99 362.73,516.82 364.69,499.98 366.65,539.55 368.61,481.33 370.57,500.87 372.53,528.34 374.49,486.48 376.45,503.66 378.41,518.02 380.37,464.75 382.33,505.03 384.29,525.65 386.25,471.64 388.21,504.37 390.17,507.94 392.13,458.07 394.09,494.30 396.05,525.35 398.01,455.01 399.97,475.32 401.93,504.62 403.89,535.24 405.85,478.46 407.81,502.25 409.77,524.18 411.73,473.70 413.69,523.93 415.65,521.34 417.61,458.74 419.57,510.30 421.53,527.06 423.49,473.41 425.45,505.33 427.41,518.52 429.37,476.69 431.33,491.77 433.29,523.96 435.25,467.92 437.21,498.70 439.17,528.85 441.13,464.85 443.09,503.51 445.05,517.10 447.01,466.85 448.96,494.42 450.92,524.06 452.88,475.08 454.84,497.25 456.80,525.40 458.76,476.93 460.72,502.05 462.68,513.52 464.64,456.30 466.60,493.11 468.56,522.87 470.52,478.42 472.48,504.98 474.44,513.15 476.40,472.95 478.36,503.33 480.32,518.58 482.28,458.78 484.24,494.02 486.20,524.32 488.16,458.52 490.12,502.53 492.08,540.03 494.04,460.50 496.00,504.49" fill="none" stroke="#f97316" stroke-width="3.8" stroke-opacity="1" stroke-linejoin="round" stroke-linecap="round"/>
<circle cx="106.00" cy="457.83" r="3.0" fill="#f97316" fill-opacity="1"/>
<circle cx="127.56" cy="513.78" r="3.0" fill="#f97316" fill-opacity="1"/>
<circle cx="149.12" cy="505.31" r="3.0" fill="#f97316" fill-opacity="1"/>
<circle cx="170.67" cy="463.96" r="3.0" fill="#f97316" fill-opacity="1"/>
<circle cx="192.23" cy="524.36" r="3.0" fill="#f97316" fill-opacity="1"/>
<circle cx="213.79" cy="467.62" r="3.0" fill="#f97316" fill-opacity="1"/>
<circle cx="235.35" cy="538.57" r="3.0" fill="#f97316" fill-opacity="1"/>
<circle cx="256.90" cy="510.54" r="3.0" fill="#f97316" fill-opacity="1"/>
<circle cx="278.46" cy="480.04" r="3.0" fill="#f97316" fill-opacity="1"/>
<circle cx="300.02" cy="523.55" r="3.0" fill="#f97316" fill-opacity="1"/>
<circle cx="321.58" cy="459.68" r="3.0" fill="#f97316" fill-opacity="1"/>
<circle cx="343.14" cy="527.34" r="3.0" fill="#f97316" fill-opacity="1"/>
<circle cx="364.69" cy="499.98" r="3.0" fill="#f97316" fill-opacity="1"/>
<circle cx="386.25" cy="471.64" r="3.0" fill="#f97316" fill-opacity="1"/>
<circle cx="407.81" cy="502.25" r="3.0" fill="#f97316" fill-opacity="1"/>
<circle cx="429.37" cy="476.69" r="3.0" fill="#f97316" fill-opacity="1"/>
<circle cx="450.92" cy="524.06" r="3.0" fill="#f97316" fill-opacity="1"/>
<circle cx="472.48" cy="504.98" r="3.0" fill="#f97316" fill-opacity="1"/>
<circle cx="494.04" cy="460.50" r="3.0" fill="#f97316" fill-opacity="1"/>
<text x="496" y="609" class="tick" text-anchor="end">Round 序列；越高越好</text>
<rect x="560" y="379" width="472" height="245" rx="8" fill="#ffffff" stroke="#dbe3ef"/>
<text x="578" y="407" class="label" font-weight="700">Actual Cost / 轮</text>
<rect x="878" y="391" width="136" height="26" rx="13" fill="#fef3c7" stroke="#f59e0b" stroke-width="1.4"/>
<text x="946" y="409" class="tick" font-weight="800" text-anchor="middle" fill="#92400e">均值胜出: Infron</text>
<line x1="618" y1="584.00" x2="1008" y2="584.00" stroke="#e5e7eb"/>
<text x="610" y="588.00" class="tick" text-anchor="end">$0.0000</text>
<line x1="618" y1="531.67" x2="1008" y2="531.67" stroke="#e5e7eb"/>
<text x="610" y="535.67" class="tick" text-anchor="end">$0.0077</text>
<line x1="618" y1="479.33" x2="1008" y2="479.33" stroke="#e5e7eb"/>
<text x="610" y="483.33" class="tick" text-anchor="end">$0.0154</text>
<line x1="618" y1="427.00" x2="1008" y2="427.00" stroke="#e5e7eb"/>
<text x="610" y="431.00" class="tick" text-anchor="end">$0.0231</text>
<polyline points="618.00,580.47 619.96,566.53 621.92,514.44 623.88,580.47 625.84,566.41 627.80,514.57 629.76,580.46 631.72,566.41 633.68,514.45 635.64,580.60 637.60,566.40 639.56,514.45 641.52,580.47 643.48,566.53 645.44,514.44 647.40,580.47 649.36,566.41 651.32,507.29 653.28,580.46 655.24,564.56 657.20,507.16 659.16,580.25 661.12,562.70 663.08,507.16 665.04,579.73 666.99,562.86 668.95,507.14 670.91,579.73 672.87,564.56 674.83,507.29 676.79,580.09 678.75,564.56 680.71,514.45 682.67,580.60 684.63,566.40 686.59,514.45 688.55,580.47 690.51,566.53 692.47,514.44 694.43,580.47 696.39,566.41 698.35,514.57 700.31,580.46 702.27,566.41 704.23,514.45 706.19,580.60 708.15,566.40 710.11,514.45 712.07,580.47 714.03,566.53 715.99,566.41 717.95,514.57 719.91,580.46 721.87,566.41 723.83,514.45 725.79,580.60 727.75,566.40 729.71,514.45 731.67,580.47 733.63,566.53 735.59,507.14 737.55,580.47 739.51,566.41 741.47,507.29 743.43,580.46 745.39,562.71 747.35,499.86 749.31,579.90 751.27,562.70 753.23,499.86 755.19,579.73 757.15,562.86 759.11,499.85 761.07,579.73 763.03,562.71 764.98,500.01 766.94,579.71 768.90,562.71 770.86,499.86 772.82,579.90 774.78,562.70 776.74,507.16 778.70,579.73 780.66,562.86 782.62,507.14 784.58,579.73 786.54,562.71 788.50,500.01 790.46,579.71 792.42,562.71 794.38,507.16 796.34,580.25 798.30,564.55 800.26,514.45 802.22,580.10 804.18,566.53 806.14,514.44 808.10,580.47 810.06,566.41 812.02,514.57 813.98,514.45 815.94,580.60 817.90,566.40 819.86,514.45 821.82,580.47 823.78,566.53 825.74,514.44 827.70,580.47 829.66,566.41 831.62,514.57 833.58,580.46 835.54,566.41 837.50,507.16 839.46,580.60 841.42,566.40 843.38,499.86 845.34,580.10 847.30,564.70 849.26,499.85 851.22,579.73 853.18,562.71 855.14,500.01 857.10,579.71 859.06,562.71 861.02,499.86 862.97,579.90 864.93,562.70 866.89,499.86 868.85,579.73 870.81,562.86 872.77,499.85 874.73,579.73 876.69,562.71 878.65,500.01 880.61,579.71 882.57,562.71 884.53,499.86 886.49,579.90 888.45,562.70 890.41,499.86 892.37,579.73 894.33,562.86 896.29,499.85 898.25,579.73 900.21,562.71 902.17,500.01 904.13,579.71 906.09,562.71 908.05,499.86 910.01,579.90 911.97,579.73 913.93,562.86 915.89,499.85 917.85,579.73 919.81,562.71 921.77,500.01 923.73,579.71 925.69,562.71 927.65,514.45 929.61,579.89 931.57,564.55 933.53,514.45 935.49,580.10 937.45,566.53 939.41,514.44 941.37,580.47 943.33,566.41 945.29,514.57 947.25,580.46 949.21,566.41 951.17,514.45 953.13,580.60 955.09,566.40 957.05,514.45 959.01,580.47 960.96,566.53 962.92,514.44 964.88,580.47 966.84,566.41 968.80,507.29 970.76,580.46 972.72,566.41 974.68,507.16 976.64,580.60 978.60,564.55 980.56,499.86 982.52,580.10 984.48,562.86 986.44,499.85 988.40,579.73 990.36,562.71 992.32,500.01 994.28,579.71 996.24,562.71 998.20,499.86 1000.16,579.90 1002.12,562.70 1004.08,499.86 1006.04,579.73 1008.00,562.86" fill="none" stroke="#2563eb" stroke-width="3.8" stroke-opacity="1" stroke-linejoin="round" stroke-linecap="round"/>
<circle cx="618.00" cy="580.47" r="3.0" fill="#2563eb" fill-opacity="1"/>
<circle cx="639.56" cy="514.45" r="3.0" fill="#2563eb" fill-opacity="1"/>
<circle cx="661.12" cy="562.70" r="3.0" fill="#2563eb" fill-opacity="1"/>
<circle cx="682.67" cy="580.60" r="3.0" fill="#2563eb" fill-opacity="1"/>
<circle cx="704.23" cy="514.45" r="3.0" fill="#2563eb" fill-opacity="1"/>
<circle cx="725.79" cy="580.60" r="3.0" fill="#2563eb" fill-opacity="1"/>
<circle cx="747.35" cy="499.86" r="3.0" fill="#2563eb" fill-opacity="1"/>
<circle cx="768.90" cy="562.71" r="3.0" fill="#2563eb" fill-opacity="1"/>
<circle cx="790.46" cy="579.71" r="3.0" fill="#2563eb" fill-opacity="1"/>
<circle cx="812.02" cy="514.57" r="3.0" fill="#2563eb" fill-opacity="1"/>
<circle cx="833.58" cy="580.46" r="3.0" fill="#2563eb" fill-opacity="1"/>
<circle cx="855.14" cy="500.01" r="3.0" fill="#2563eb" fill-opacity="1"/>
<circle cx="876.69" cy="562.71" r="3.0" fill="#2563eb" fill-opacity="1"/>
<circle cx="898.25" cy="579.73" r="3.0" fill="#2563eb" fill-opacity="1"/>
<circle cx="919.81" cy="562.71" r="3.0" fill="#2563eb" fill-opacity="1"/>
<circle cx="941.37" cy="580.47" r="3.0" fill="#2563eb" fill-opacity="1"/>
<circle cx="962.92" cy="514.44" r="3.0" fill="#2563eb" fill-opacity="1"/>
<circle cx="984.48" cy="562.86" r="3.0" fill="#2563eb" fill-opacity="1"/>
<circle cx="1006.04" cy="579.73" r="3.0" fill="#2563eb" fill-opacity="1"/>
<polyline points="618.00,576.96 619.96,548.58 621.92,443.82 623.88,576.97 625.84,548.59 627.80,443.83 629.76,576.93 631.72,548.60 633.68,443.85 635.64,576.95 637.60,548.57 639.56,443.85 641.52,576.96 643.48,548.58 645.44,443.82 647.40,576.97 649.36,548.59 651.32,443.83 653.28,576.93 655.24,548.60 657.20,443.85 659.16,576.95 661.12,548.57 663.08,443.85 665.04,576.96 666.99,548.58 668.95,443.82 670.91,576.97 672.87,548.59 674.83,443.83 676.79,576.93 678.75,548.60 680.71,443.85 682.67,576.95 684.63,548.57 686.59,443.85 688.55,576.96 690.51,548.58 692.47,443.82 694.43,576.97 696.39,548.59 698.35,443.83 700.31,576.93 702.27,548.60 704.23,443.85 706.19,576.95 708.15,548.57 710.11,443.85 712.07,576.96 714.03,548.58 715.99,548.59 717.95,443.83 719.91,576.93 721.87,548.60 723.83,443.85 725.79,576.95 727.75,548.57 729.71,443.85 731.67,576.96 733.63,548.58 735.59,443.82 737.55,576.97 739.51,548.59 741.47,443.83 743.43,576.93 745.39,548.60 747.35,443.85 749.31,576.95 751.27,548.57 753.23,443.85 755.19,576.96 757.15,548.58 759.11,443.82 761.07,576.97 763.03,548.59 764.98,443.83 766.94,576.93 768.90,548.60 770.86,443.85 772.82,576.95 774.78,548.57 776.74,443.85 778.70,576.96 780.66,548.58 782.62,443.82 784.58,576.97 786.54,548.59 788.50,443.83 790.46,576.93 792.42,548.60 794.38,443.85 796.34,576.95 798.30,548.57 800.26,443.85 802.22,576.96 804.18,548.58 806.14,443.82 808.10,576.97 810.06,548.59 812.02,443.83 813.98,443.85 815.94,576.95 817.90,548.57 819.86,443.85 821.82,576.96 823.78,548.58 825.74,443.82 827.70,576.97 829.66,548.59 831.62,443.83 833.58,576.93 835.54,548.60 837.50,443.85 839.46,576.95 841.42,548.57 843.38,443.85 845.34,576.96 847.30,548.58 849.26,443.82 851.22,576.97 853.18,548.59 855.14,443.83 857.10,576.93 859.06,548.60 861.02,443.85 862.97,576.95 864.93,548.57 866.89,443.85 868.85,576.96 870.81,548.58 872.77,443.82 874.73,576.97 876.69,548.59 878.65,443.83 880.61,576.93 882.57,548.60 884.53,443.85 886.49,576.95 888.45,548.57 890.41,443.85 892.37,576.96 894.33,548.58 896.29,443.82 898.25,576.97 900.21,548.59 902.17,443.83 904.13,576.93 906.09,548.60 908.05,443.85 910.01,576.95 911.97,576.96 913.93,548.58 915.89,443.82 917.85,576.97 919.81,548.59 921.77,443.83 923.73,576.93 925.69,548.60 927.65,443.85 929.61,576.95 931.57,548.57 933.53,443.85 935.49,576.96 937.45,548.58 939.41,443.82 941.37,576.97 943.33,548.59 945.29,443.83 947.25,576.93 949.21,548.60 951.17,443.85 953.13,576.95 955.09,548.57 957.05,443.85 959.01,576.96 960.96,548.58 962.92,443.82 964.88,576.97 966.84,548.59 968.80,443.83 970.76,576.93 972.72,548.60 974.68,443.85 976.64,576.95 978.60,548.57 980.56,443.85 982.52,576.96 984.48,548.58 986.44,443.82 988.40,576.97 990.36,548.59 992.32,443.83 994.28,576.93 996.24,548.60 998.20,443.85 1000.16,576.95 1002.12,548.57 1004.08,443.85 1006.04,576.96 1008.00,548.58" fill="none" stroke="#f97316" stroke-width="1.8" stroke-opacity="0.45" stroke-linejoin="round" stroke-linecap="round"/>
<circle cx="618.00" cy="576.96" r="1.8" fill="#f97316" fill-opacity="0.55"/>
<circle cx="639.56" cy="443.85" r="1.8" fill="#f97316" fill-opacity="0.55"/>
<circle cx="661.12" cy="548.57" r="1.8" fill="#f97316" fill-opacity="0.55"/>
<circle cx="682.67" cy="576.95" r="1.8" fill="#f97316" fill-opacity="0.55"/>
<circle cx="704.23" cy="443.85" r="1.8" fill="#f97316" fill-opacity="0.55"/>
<circle cx="725.79" cy="576.95" r="1.8" fill="#f97316" fill-opacity="0.55"/>
<circle cx="747.35" cy="443.85" r="1.8" fill="#f97316" fill-opacity="0.55"/>
<circle cx="768.90" cy="548.60" r="1.8" fill="#f97316" fill-opacity="0.55"/>
<circle cx="790.46" cy="576.93" r="1.8" fill="#f97316" fill-opacity="0.55"/>
<circle cx="812.02" cy="443.83" r="1.8" fill="#f97316" fill-opacity="0.55"/>
<circle cx="833.58" cy="576.93" r="1.8" fill="#f97316" fill-opacity="0.55"/>
<circle cx="855.14" cy="443.83" r="1.8" fill="#f97316" fill-opacity="0.55"/>
<circle cx="876.69" cy="548.59" r="1.8" fill="#f97316" fill-opacity="0.55"/>
<circle cx="898.25" cy="576.97" r="1.8" fill="#f97316" fill-opacity="0.55"/>
<circle cx="919.81" cy="548.59" r="1.8" fill="#f97316" fill-opacity="0.55"/>
<circle cx="941.37" cy="576.97" r="1.8" fill="#f97316" fill-opacity="0.55"/>
<circle cx="962.92" cy="443.82" r="1.8" fill="#f97316" fill-opacity="0.55"/>
<circle cx="984.48" cy="548.58" r="1.8" fill="#f97316" fill-opacity="0.55"/>
<circle cx="1006.04" cy="576.96" r="1.8" fill="#f97316" fill-opacity="0.55"/>
<text x="1008" y="609" class="tick" text-anchor="end">Round 序列；越低越好</text>
<rect x="48" y="682" width="472" height="245" rx="8" fill="#ffffff" stroke="#dbe3ef"/>
<text x="66" y="710" class="label" font-weight="700">Token Cache Hit Rate</text>
<rect x="366" y="694" width="136" height="26" rx="13" fill="#fef3c7" stroke="#f59e0b" stroke-width="1.4"/>
<text x="434" y="712" class="tick" font-weight="800" text-anchor="middle" fill="#92400e">均值胜出: OpenRouter</text>
<line x1="106" y1="887.00" x2="496" y2="887.00" stroke="#e5e7eb"/>
<text x="98" y="891.00" class="tick" text-anchor="end">0%</text>
<line x1="106" y1="834.67" x2="496" y2="834.67" stroke="#e5e7eb"/>
<text x="98" y="838.67" class="tick" text-anchor="end">36%</text>
<line x1="106" y1="782.33" x2="496" y2="782.33" stroke="#e5e7eb"/>
<text x="98" y="786.33" class="tick" text-anchor="end">73%</text>
<line x1="106" y1="730.00" x2="496" y2="730.00" stroke="#e5e7eb"/>
<text x="98" y="734.00" class="tick" text-anchor="end">109%</text>
<polyline points="106.00,887.00 107.96,887.00 109.92,887.00 111.88,887.00 113.84,887.00 115.80,887.00 117.76,887.00 119.72,887.00 121.68,887.00 123.64,887.00 125.60,887.00 127.56,887.00 129.52,887.00 131.48,887.00 133.44,887.00 135.40,887.00 137.36,887.00 139.32,887.00 141.28,887.00 143.24,887.00 145.20,887.00 147.16,887.00 149.12,887.00 151.08,887.00 153.04,887.00 154.99,887.00 156.95,887.00 158.91,887.00 160.87,887.00 162.83,887.00 164.79,887.00 166.75,887.00 168.71,887.00 170.67,887.00 172.63,887.00 174.59,887.00 176.55,887.00 178.51,887.00 180.47,887.00 182.43,887.00 184.39,887.00 186.35,887.00 188.31,887.00 190.27,887.00 192.23,887.00 194.19,887.00 196.15,887.00 198.11,887.00 200.07,887.00 202.03,887.00 203.99,887.00 205.95,887.00 207.91,887.00 209.87,887.00 211.83,887.00 213.79,887.00 215.75,887.00 217.71,887.00 219.67,887.00 221.63,887.00 223.59,887.00 225.55,887.00 227.51,887.00 229.47,887.00 231.43,887.00 233.39,887.00 235.35,887.00 237.31,887.00 239.27,887.00 241.23,887.00 243.19,887.00 245.15,887.00 247.11,887.00 249.07,887.00 251.03,887.00 252.98,887.00 254.94,887.00 256.90,887.00 258.86,887.00 260.82,887.00 262.78,887.00 264.74,887.00 266.70,887.00 268.66,887.00 270.62,887.00 272.58,887.00 274.54,887.00 276.50,887.00 278.46,887.00 280.42,887.00 282.38,887.00 284.34,887.00 286.30,887.00 288.26,887.00 290.22,887.00 292.18,887.00 294.14,887.00 296.10,887.00 298.06,887.00 300.02,887.00 301.98,887.00 303.94,887.00 305.90,887.00 307.86,887.00 309.82,887.00 311.78,887.00 313.74,887.00 315.70,887.00 317.66,887.00 319.62,887.00 321.58,887.00 323.54,887.00 325.50,887.00 327.46,887.00 329.42,887.00 331.38,887.00 333.34,887.00 335.30,887.00 337.26,887.00 339.22,887.00 341.18,887.00 343.14,887.00 345.10,887.00 347.06,887.00 349.02,887.00 350.97,887.00 352.93,887.00 354.89,887.00 356.85,887.00 358.81,887.00 360.77,887.00 362.73,887.00 364.69,887.00 366.65,887.00 368.61,887.00 370.57,887.00 372.53,887.00 374.49,887.00 376.45,887.00 378.41,887.00 380.37,887.00 382.33,887.00 384.29,887.00 386.25,887.00 388.21,887.00 390.17,887.00 392.13,887.00 394.09,887.00 396.05,887.00 398.01,887.00 399.97,887.00 401.93,887.00 403.89,887.00 405.85,887.00 407.81,887.00 409.77,887.00 411.73,887.00 413.69,887.00 415.65,887.00 417.61,887.00 419.57,887.00 421.53,887.00 423.49,887.00 425.45,887.00 427.41,887.00 429.37,887.00 431.33,887.00 433.29,887.00 435.25,887.00 437.21,887.00 439.17,887.00 441.13,887.00 443.09,887.00 445.05,887.00 447.01,887.00 448.96,887.00 450.92,887.00 452.88,887.00 454.84,887.00 456.80,887.00 458.76,887.00 460.72,887.00 462.68,887.00 464.64,887.00 466.60,887.00 468.56,887.00 470.52,887.00 472.48,887.00 474.44,887.00 476.40,887.00 478.36,887.00 480.32,887.00 482.28,887.00 484.24,887.00 486.20,887.00 488.16,887.00 490.12,887.00 492.08,887.00 494.04,887.00 496.00,887.00" fill="none" stroke="#2563eb" stroke-width="1.8" stroke-opacity="0.45" stroke-linejoin="round" stroke-linecap="round"/>
<circle cx="106.00" cy="887.00" r="1.8" fill="#2563eb" fill-opacity="0.55"/>
<circle cx="127.56" cy="887.00" r="1.8" fill="#2563eb" fill-opacity="0.55"/>
<circle cx="149.12" cy="887.00" r="1.8" fill="#2563eb" fill-opacity="0.55"/>
<circle cx="170.67" cy="887.00" r="1.8" fill="#2563eb" fill-opacity="0.55"/>
<circle cx="192.23" cy="887.00" r="1.8" fill="#2563eb" fill-opacity="0.55"/>
<circle cx="213.79" cy="887.00" r="1.8" fill="#2563eb" fill-opacity="0.55"/>
<circle cx="235.35" cy="887.00" r="1.8" fill="#2563eb" fill-opacity="0.55"/>
<circle cx="256.90" cy="887.00" r="1.8" fill="#2563eb" fill-opacity="0.55"/>
<circle cx="278.46" cy="887.00" r="1.8" fill="#2563eb" fill-opacity="0.55"/>
<circle cx="300.02" cy="887.00" r="1.8" fill="#2563eb" fill-opacity="0.55"/>
<circle cx="321.58" cy="887.00" r="1.8" fill="#2563eb" fill-opacity="0.55"/>
<circle cx="343.14" cy="887.00" r="1.8" fill="#2563eb" fill-opacity="0.55"/>
<circle cx="364.69" cy="887.00" r="1.8" fill="#2563eb" fill-opacity="0.55"/>
<circle cx="386.25" cy="887.00" r="1.8" fill="#2563eb" fill-opacity="0.55"/>
<circle cx="407.81" cy="887.00" r="1.8" fill="#2563eb" fill-opacity="0.55"/>
<circle cx="429.37" cy="887.00" r="1.8" fill="#2563eb" fill-opacity="0.55"/>
<circle cx="450.92" cy="887.00" r="1.8" fill="#2563eb" fill-opacity="0.55"/>
<circle cx="472.48" cy="887.00" r="1.8" fill="#2563eb" fill-opacity="0.55"/>
<circle cx="494.04" cy="887.00" r="1.8" fill="#2563eb" fill-opacity="0.55"/>
<polyline points="106.00,887.00 107.96,754.88 109.92,887.00 111.88,810.70 113.84,754.83 115.80,887.00 117.76,887.00 119.72,887.00 121.68,887.00 123.64,887.00 125.60,887.00 127.56,746.82 129.52,887.00 131.48,887.00 133.44,887.00 135.40,887.00 137.36,887.00 139.32,887.00 141.28,887.00 143.24,754.80 145.20,746.83 147.16,887.00 149.12,754.92 151.08,746.82 153.04,810.77 154.99,754.88 156.95,746.85 158.91,810.70 160.87,754.83 162.83,746.84 164.79,811.04 166.75,887.00 168.71,746.83 170.67,887.00 172.63,754.92 174.59,746.82 176.55,810.77 178.51,754.88 180.47,746.85 182.43,887.00 184.39,754.83 186.35,887.00 188.31,811.04 190.27,754.80 192.23,746.83 194.19,810.92 196.15,754.92 198.11,746.82 200.07,887.00 202.03,754.88 203.99,754.83 205.95,746.84 207.91,811.04 209.87,754.80 211.83,746.83 213.79,810.92 215.75,754.92 217.71,887.00 219.67,810.77 221.63,754.88 223.59,746.85 225.55,810.70 227.51,754.83 229.47,746.84 231.43,811.04 233.39,887.00 235.35,746.83 237.31,810.92 239.27,754.92 241.23,887.00 243.19,810.77 245.15,887.00 247.11,746.85 249.07,810.70 251.03,754.83 252.98,746.84 254.94,811.04 256.90,754.80 258.86,746.83 260.82,810.92 262.78,754.92 264.74,746.82 266.70,810.77 268.66,754.88 270.62,746.85 272.58,810.70 274.54,754.83 276.50,746.84 278.46,887.00 280.42,754.80 282.38,746.83 284.34,810.92 286.30,754.92 288.26,887.00 290.22,810.77 292.18,754.88 294.14,746.85 296.10,810.70 298.06,754.83 300.02,746.84 301.98,746.83 303.94,810.92 305.90,754.92 307.86,746.82 309.82,810.77 311.78,754.88 313.74,887.00 315.70,887.00 317.66,754.83 319.62,746.84 321.58,811.04 323.54,754.80 325.50,746.83 327.46,810.92 329.42,754.92 331.38,746.82 333.34,810.77 335.30,754.88 337.26,746.85 339.22,810.70 341.18,754.83 343.14,746.84 345.10,811.04 347.06,754.80 349.02,746.83 350.97,810.92 352.93,754.92 354.89,746.82 356.85,810.77 358.81,754.88 360.77,746.85 362.73,810.70 364.69,887.00 366.65,746.84 368.61,811.04 370.57,754.80 372.53,746.83 374.49,810.92 376.45,754.92 378.41,746.82 380.37,810.77 382.33,754.88 384.29,746.85 386.25,810.70 388.21,754.83 390.17,746.84 392.13,811.04 394.09,754.80 396.05,746.83 398.01,810.92 399.97,810.77 401.93,754.88 403.89,746.85 405.85,810.70 407.81,754.83 409.77,746.84 411.73,811.04 413.69,754.80 415.65,746.83 417.61,810.92 419.57,887.00 421.53,746.82 423.49,810.77 425.45,754.88 427.41,746.85 429.37,810.70 431.33,754.83 433.29,746.84 435.25,811.04 437.21,754.80 439.17,746.83 441.13,810.92 443.09,754.92 445.05,746.82 447.01,810.77 448.96,754.88 450.92,746.85 452.88,810.70 454.84,754.83 456.80,746.84 458.76,811.04 460.72,754.80 462.68,746.83 464.64,810.92 466.60,754.92 468.56,746.82 470.52,810.77 472.48,754.88 474.44,746.85 476.40,810.70 478.36,754.83 480.32,746.84 482.28,811.04 484.24,754.80 486.20,746.83 488.16,810.92 490.12,754.92 492.08,746.82 494.04,810.77 496.00,754.88" fill="none" stroke="#f97316" stroke-width="3.8" stroke-opacity="1" stroke-linejoin="round" stroke-linecap="round"/>
<circle cx="106.00" cy="887.00" r="3.0" fill="#f97316" fill-opacity="1"/>
<circle cx="127.56" cy="746.82" r="3.0" fill="#f97316" fill-opacity="1"/>
<circle cx="149.12" cy="754.92" r="3.0" fill="#f97316" fill-opacity="1"/>
<circle cx="170.67" cy="887.00" r="3.0" fill="#f97316" fill-opacity="1"/>
<circle cx="192.23" cy="746.83" r="3.0" fill="#f97316" fill-opacity="1"/>
<circle cx="213.79" cy="810.92" r="3.0" fill="#f97316" fill-opacity="1"/>
<circle cx="235.35" cy="746.83" r="3.0" fill="#f97316" fill-opacity="1"/>
<circle cx="256.90" cy="754.80" r="3.0" fill="#f97316" fill-opacity="1"/>
<circle cx="278.46" cy="887.00" r="3.0" fill="#f97316" fill-opacity="1"/>
<circle cx="300.02" cy="746.84" r="3.0" fill="#f97316" fill-opacity="1"/>
<circle cx="321.58" cy="811.04" r="3.0" fill="#f97316" fill-opacity="1"/>
<circle cx="343.14" cy="746.84" r="3.0" fill="#f97316" fill-opacity="1"/>
<circle cx="364.69" cy="887.00" r="3.0" fill="#f97316" fill-opacity="1"/>
<circle cx="386.25" cy="810.70" r="3.0" fill="#f97316" fill-opacity="1"/>
<circle cx="407.81" cy="754.83" r="3.0" fill="#f97316" fill-opacity="1"/>
<circle cx="429.37" cy="810.70" r="3.0" fill="#f97316" fill-opacity="1"/>
<circle cx="450.92" cy="746.85" r="3.0" fill="#f97316" fill-opacity="1"/>
<circle cx="472.48" cy="754.88" r="3.0" fill="#f97316" fill-opacity="1"/>
<circle cx="494.04" cy="810.77" r="3.0" fill="#f97316" fill-opacity="1"/>
<text x="496" y="912" class="tick" text-anchor="end">Round 序列；越高越好</text>
<rect x="830" y="28" width="14" height="14" rx="3" fill="#2563eb"/>
<text x="852" y="40" class="label">Infron</text>
<rect x="830" y="52" width="14" height="14" rx="3" fill="#f97316"/>
<text x="852" y="64" class="label">OpenRouter</text>
</svg>