<svg xmlns="http://www.w3.org/2000/svg" width="1080" height="1000" viewBox="0 0 1080 1000"><style>text{font-family:-apple-system,BlinkMacSystemFont,'Segoe UI',sans-serif;fill:#111827}.title{font-size:22px;font-weight:700}.label{font-size:13px;fill:#374151}.tick{font-size:12px;fill:#6b7280}.value{font-size:12px;fill:#111827}</style><rect width="100%" height="100%" fill="#ffffff"/>
<text x="48" y="34" class="title">Price First 路由模式：指标生成过程对比曲线</text>
<text x="48" y="58" class="label">按 group/round 顺序绘制每轮指标；曲线展示汇总均值背后的波动过程。</text>
<rect x="48" y="76" width="472" height="245" rx="8" fill="#ffffff" stroke="#dbe3ef"/>
<text x="66" y="104" class="label" font-weight="700">Latency / 请求（含 reasoning）</text>
<rect x="366" y="88" width="136" height="26" rx="13" fill="#fef3c7" stroke="#f59e0b" stroke-width="1.4"/>
<text x="434" y="106" class="tick" font-weight="800" text-anchor="middle" fill="#92400e">均值胜出: OpenRouter</text>
<line x1="106" y1="281.00" x2="496" y2="281.00" stroke="#e5e7eb"/>
<text x="98" y="285.00" class="tick" text-anchor="end">0.0</text>
<line x1="106" y1="228.67" x2="496" y2="228.67" stroke="#e5e7eb"/>
<text x="98" y="232.67" class="tick" text-anchor="end">10338</text>
<line x1="106" y1="176.33" x2="496" y2="176.33" stroke="#e5e7eb"/>
<text x="98" y="180.33" class="tick" text-anchor="end">20677</text>
<line x1="106" y1="124.00" x2="496" y2="124.00" stroke="#e5e7eb"/>
<text x="98" y="128.00" class="tick" text-anchor="end">31015</text>
<polyline points="106.00,265.36 107.96,267.71 109.92,235.15 111.88,268.36 113.84,265.70 115.80,251.18 117.76,270.50 119.72,261.48 121.68,253.92 123.64,262.90 125.60,259.47 127.56,256.53 129.52,270.68 131.48,258.62 133.44,254.46 135.40,257.12 137.36,265.58 139.32,258.84 141.28,266.02 143.24,263.19 145.20,254.76 147.16,262.60 149.12,257.93 151.08,258.12 153.04,263.51 154.99,263.94 156.95,222.37 158.91,269.86 160.87,267.49 162.83,260.39 164.79,264.83 166.75,266.14 168.71,251.88 170.67,265.63 172.63,261.99 174.59,260.64 176.55,270.98 178.51,267.14 180.47,263.25 182.43,255.75 184.39,265.09 186.35,257.16 188.31,266.11 190.27,249.70 192.23,257.99 194.19,261.48 196.15,258.24 198.11,258.98 200.07,270.51 202.03,263.02 203.99,265.53 205.95,259.52 207.91,268.85 209.87,266.99 211.83,258.48 213.79,267.61 215.75,267.78 217.71,254.81 219.67,262.04 221.63,262.88 223.59,140.82 225.55,253.34 227.51,261.84 229.47,261.75 231.43,268.43 233.39,266.55 235.35,261.97 237.31,268.91 239.27,251.71 241.23,250.91 243.19,265.73 245.15,265.17 247.11,257.10 249.07,268.62 251.03,266.26 252.98,260.34 254.94,255.71 256.90,263.95 258.86,258.51 260.82,270.40 262.78,266.01 264.74,256.52 266.70,257.42 268.66,265.02 270.62,257.30 272.58,265.86 274.54,254.95 276.50,260.42 278.46,269.73 280.42,264.01 282.38,242.25 284.34,262.93 286.30,265.13 288.26,258.65 290.22,267.41 292.18,235.45 294.14,256.74 296.10,267.21 298.06,258.76 300.02,257.17 301.98,259.98 303.94,262.74 305.90,262.48 307.86,257.87 309.82,262.96 311.78,267.41 313.74,254.55 315.70,268.96 317.66,260.40 319.62,243.76 321.58,270.51 323.54,265.49 325.50,258.28 327.46,267.58 329.42,259.13 331.38,236.43 333.34,212.18 335.30,250.07 337.26,260.44 339.22,260.13 341.18,264.75 343.14,253.68 345.10,265.59 347.06,267.50 349.02,256.71 350.97,253.74 352.93,261.03 354.89,259.90 356.85,262.00 358.81,265.19 360.77,248.34 362.73,268.28 364.69,220.83 366.65,253.28 368.61,269.42 370.57,257.57 372.53,262.51 374.49,269.58 376.45,258.15 378.41,257.48 380.37,266.15 382.33,214.83 384.29,257.93 386.25,259.22 388.21,242.92 390.17,258.84 392.13,269.29 394.09,264.54 396.05,238.90 398.01,265.11 399.97,269.98 401.93,266.22 403.89,252.75 405.85,254.69 407.81,261.62 409.77,260.09 411.73,258.21 413.69,260.76 415.65,255.13 417.61,260.58 419.57,249.17 421.53,255.56 423.49,266.07 425.45,265.76 427.41,253.78 429.37,268.23 431.33,260.02 433.29,259.08 435.25,266.92 437.21,262.47 439.17,261.02 441.13,265.81 443.09,264.41 445.05,258.81 447.01,267.20 448.96,264.14 450.92,255.82 452.88,266.31 454.84,261.81 456.80,260.19 458.76,269.46 460.72,263.34 462.68,260.04 464.64,267.94 466.60,266.46 468.56,259.18 470.52,266.89 472.48,267.52 474.44,261.60 476.40,268.34 478.36,264.40 480.32,261.72 482.28,264.63 484.24,265.66 486.20,248.59 488.16,263.49 490.12,265.02 492.08,253.96 494.04,270.58 496.00,264.87" fill="none" stroke="#2563eb" stroke-width="1.8" stroke-opacity="0.45" stroke-linejoin="round" stroke-linecap="round"/>
<circle cx="106.00" cy="265.36" r="1.8" fill="#2563eb" fill-opacity="0.55"/>
<circle cx="127.56" cy="256.53" r="1.8" fill="#2563eb" fill-opacity="0.55"/>
<circle cx="149.12" cy="257.93" r="1.8" fill="#2563eb" fill-opacity="0.55"/>
<circle cx="170.67" cy="265.63" r="1.8" fill="#2563eb" fill-opacity="0.55"/>
<circle cx="192.23" cy="257.99" r="1.8" fill="#2563eb" fill-opacity="0.55"/>
<circle cx="213.79" cy="267.61" r="1.8" fill="#2563eb" fill-opacity="0.55"/>
<circle cx="235.35" cy="261.97" r="1.8" fill="#2563eb" fill-opacity="0.55"/>
<circle cx="256.90" cy="263.95" r="1.8" fill="#2563eb" fill-opacity="0.55"/>
<circle cx="278.46" cy="269.73" r="1.8" fill="#2563eb" fill-opacity="0.55"/>
<circle cx="300.02" cy="257.17" r="1.8" fill="#2563eb" fill-opacity="0.55"/>
<circle cx="321.58" cy="270.51" r="1.8" fill="#2563eb" fill-opacity="0.55"/>
<circle cx="343.14" cy="253.68" r="1.8" fill="#2563eb" fill-opacity="0.55"/>
<circle cx="364.69" cy="220.83" r="1.8" fill="#2563eb" fill-opacity="0.55"/>
<circle cx="386.25" cy="259.22" r="1.8" fill="#2563eb" fill-opacity="0.55"/>
<circle cx="407.81" cy="261.62" r="1.8" fill="#2563eb" fill-opacity="0.55"/>
<circle cx="429.37" cy="268.23" r="1.8" fill="#2563eb" fill-opacity="0.55"/>
<circle cx="450.92" cy="255.82" r="1.8" fill="#2563eb" fill-opacity="0.55"/>
<circle cx="472.48" cy="267.52" r="1.8" fill="#2563eb" fill-opacity="0.55"/>
<circle cx="494.04" cy="270.58" r="1.8" fill="#2563eb" fill-opacity="0.55"/>
<polyline points="106.00,271.26 107.96,268.10 109.92,260.43 111.88,269.30 113.84,265.68 115.80,265.10 117.76,268.07 119.72,265.73 121.68,258.29 123.64,270.76 125.60,268.15 127.56,258.45 129.52,264.69 131.48,264.85 133.44,263.26 135.40,268.63 137.36,266.62 139.32,257.98 141.28,264.85 143.24,266.73 145.20,259.46 147.16,272.52 149.12,268.30 151.08,263.53 153.04,269.37 154.99,265.64 156.95,262.06 158.91,270.56 160.87,266.71 162.83,211.64 164.79,271.45 166.75,264.20 168.71,259.79 170.67,256.38 172.63,266.30 174.59,258.57 176.55,266.96 178.51,267.08 180.47,263.59 182.43,270.03 184.39,269.75 186.35,262.01 188.31,268.67 190.27,267.23 192.23,259.99 194.19,269.48 196.15,268.95 198.11,262.84 200.07,272.15 202.03,262.21 203.99,265.68 205.95,262.18 207.91,271.48 209.87,267.29 211.83,254.96 213.79,270.34 215.75,269.46 217.71,256.95 219.67,272.42 221.63,268.92 223.59,261.17 225.55,271.17 227.51,265.98 229.47,260.91 231.43,267.18 233.39,267.10 235.35,261.54 237.31,269.13 239.27,269.01 241.23,263.29 243.19,268.48 245.15,268.23 247.11,258.74 249.07,270.59 251.03,266.85 252.98,260.82 254.94,272.18 256.90,265.03 258.86,263.35 260.82,270.57 262.78,269.00 264.74,257.80 266.70,269.32 268.66,266.27 270.62,252.76 272.58,271.57 274.54,265.64 276.50,259.76 278.46,271.71 280.42,268.62 282.38,261.17 284.34,266.07 286.30,264.60 288.26,261.49 290.22,269.74 292.18,261.24 294.14,255.62 296.10,270.47 298.06,270.79 300.02,256.28 301.98,260.27 303.94,270.40 305.90,267.18 307.86,260.42 309.82,272.48 311.78,266.01 313.74,260.11 315.70,271.54 317.66,269.06 319.62,258.66 321.58,271.13 323.54,267.32 325.50,260.99 327.46,267.44 329.42,264.33 331.38,258.35 333.34,271.02 335.30,262.02 337.26,260.58 339.22,270.30 341.18,265.81 343.14,259.17 345.10,270.69 347.06,263.76 349.02,257.57 350.97,270.39 352.93,270.05 354.89,260.27 356.85,267.84 358.81,269.41 360.77,257.47 362.73,271.92 364.69,268.32 366.65,258.79 368.61,271.94 370.57,266.75 372.53,262.75 374.49,271.35 376.45,263.96 378.41,261.71 380.37,264.86 382.33,249.76 384.29,260.83 386.25,266.60 388.21,267.28 390.17,263.07 392.13,269.02 394.09,267.31 396.05,263.53 398.01,267.76 399.97,272.02 401.93,262.79 403.89,263.32 405.85,267.41 407.81,266.87 409.77,264.20 411.73,268.23 413.69,268.47 415.65,255.80 417.61,269.48 419.57,263.44 421.53,251.85 423.49,272.43 425.45,218.10 427.41,258.52 429.37,271.06 431.33,267.68 433.29,264.28 435.25,270.00 437.21,267.80 439.17,261.06 441.13,267.77 443.09,263.86 445.05,252.58 447.01,271.77 448.96,267.83 450.92,257.01 452.88,268.49 454.84,268.38 456.80,260.29 458.76,270.36 460.72,268.13 462.68,256.34 464.64,272.21 466.60,265.01 468.56,257.44 470.52,266.11 472.48,268.10 474.44,260.54 476.40,270.33 478.36,268.61 480.32,262.70 482.28,268.88 484.24,265.25 486.20,265.74 488.16,268.21 490.12,267.22 492.08,264.05 494.04,266.71 496.00,267.22" fill="none" stroke="#f97316" stroke-width="3.8" stroke-opacity="1" stroke-linejoin="round" stroke-linecap="round"/>
<circle cx="106.00" cy="271.26" r="3.0" fill="#f97316" fill-opacity="1"/>
<circle cx="127.56" cy="258.45" r="3.0" fill="#f97316" fill-opacity="1"/>
<circle cx="149.12" cy="268.30" r="3.0" fill="#f97316" fill-opacity="1"/>
<circle cx="170.67" cy="256.38" r="3.0" fill="#f97316" fill-opacity="1"/>
<circle cx="192.23" cy="259.99" r="3.0" fill="#f97316" fill-opacity="1"/>
<circle cx="213.79" cy="270.34" r="3.0" fill="#f97316" fill-opacity="1"/>
<circle cx="235.35" cy="261.54" r="3.0" fill="#f97316" fill-opacity="1"/>
<circle cx="256.90" cy="265.03" r="3.0" fill="#f97316" fill-opacity="1"/>
<circle cx="278.46" cy="271.71" r="3.0" fill="#f97316" fill-opacity="1"/>
<circle cx="300.02" cy="256.28" r="3.0" fill="#f97316" fill-opacity="1"/>
<circle cx="321.58" cy="271.13" r="3.0" fill="#f97316" fill-opacity="1"/>
<circle cx="343.14" cy="259.17" r="3.0" fill="#f97316" fill-opacity="1"/>
<circle cx="364.69" cy="268.32" r="3.0" fill="#f97316" fill-opacity="1"/>
<circle cx="386.25" cy="266.60" r="3.0" fill="#f97316" fill-opacity="1"/>
<circle cx="407.81" cy="266.87" r="3.0" fill="#f97316" fill-opacity="1"/>
<circle cx="429.37" cy="271.06" r="3.0" fill="#f97316" fill-opacity="1"/>
<circle cx="450.92" cy="257.01" r="3.0" fill="#f97316" fill-opacity="1"/>
<circle cx="472.48" cy="268.10" r="3.0" fill="#f97316" fill-opacity="1"/>
<circle cx="494.04" cy="266.71" r="3.0" fill="#f97316" fill-opacity="1"/>
<text x="496" y="306" class="tick" text-anchor="end">Round 序列；越低越好</text>
<rect x="560" y="76" width="472" height="245" rx="8" fill="#ffffff" stroke="#dbe3ef"/>
<text x="578" y="104" class="label" font-weight="700">TTFT / 首包响应</text>
<rect x="878" y="88" width="136" height="26" rx="13" fill="#fef3c7" stroke="#f59e0b" stroke-width="1.4"/>
<text x="946" y="106" class="tick" font-weight="800" text-anchor="middle" fill="#92400e">均值胜出: OpenRouter</text>
<line x1="618" y1="281.00" x2="1008" y2="281.00" stroke="#e5e7eb"/>
<text x="610" y="285.00" class="tick" text-anchor="end">0.0</text>
<line x1="618" y1="228.67" x2="1008" y2="228.67" stroke="#e5e7eb"/>
<text x="610" y="232.67" class="tick" text-anchor="end">10236</text>
<line x1="618" y1="176.33" x2="1008" y2="176.33" stroke="#e5e7eb"/>
<text x="610" y="180.33" class="tick" text-anchor="end">20473</text>
<line x1="618" y1="124.00" x2="1008" y2="124.00" stroke="#e5e7eb"/>
<text x="610" y="128.00" class="tick" text-anchor="end">30709</text>
<polyline points="618.00,268.42 619.96,268.27 621.92,240.27 623.88,270.15 625.84,266.11 627.80,252.45 629.76,270.73 631.72,261.48 633.68,254.44 635.64,263.19 637.60,259.94 639.56,258.67 641.52,271.52 643.48,259.42 645.44,254.61 647.40,258.14 649.36,266.69 651.32,260.20 653.28,266.15 655.24,263.66 657.20,255.30 659.16,262.86 661.12,258.22 663.08,259.22 665.04,266.66 666.99,264.11 668.95,228.47 670.91,269.95 672.87,267.81 674.83,261.33 676.79,268.17 678.75,266.40 680.71,255.36 682.67,266.58 684.63,265.24 686.59,261.21 688.55,271.86 690.51,267.55 692.47,263.60 694.43,258.29 696.39,265.94 698.35,257.85 700.31,266.57 702.27,252.88 704.23,258.09 706.19,266.82 708.15,259.04 710.11,259.49 712.07,270.82 714.03,263.45 715.99,266.58 717.95,259.68 719.91,269.10 721.87,267.32 723.83,261.25 725.79,270.35 727.75,268.01 729.71,255.30 731.67,262.30 733.63,262.97 735.59,140.82 737.55,254.48 739.51,262.21 741.47,261.57 743.43,268.62 745.39,267.30 747.35,262.58 749.31,271.79 751.27,252.07 753.23,251.28 755.19,266.04 757.15,266.08 759.11,257.35 761.07,268.85 763.03,266.51 764.98,260.88 766.94,258.79 768.90,266.37 770.86,259.34 772.82,270.77 774.78,266.35 776.74,257.88 778.70,258.31 780.66,265.90 782.62,257.86 784.58,266.88 786.54,255.33 788.50,261.58 790.46,269.95 792.42,264.68 794.38,242.21 796.34,262.98 798.30,267.71 800.26,261.91 802.22,267.73 804.18,236.24 806.14,257.44 808.10,268.26 810.06,259.04 812.02,258.10 813.98,261.21 815.94,263.53 817.90,262.66 819.86,258.05 821.82,265.58 823.78,268.37 825.74,255.05 827.70,269.20 829.66,263.66 831.62,244.74 833.58,270.82 835.54,265.63 837.50,258.06 839.46,270.21 841.42,260.05 843.38,237.45 845.34,212.63 847.30,250.85 849.26,261.16 851.22,265.00 853.18,265.12 855.14,254.64 857.10,265.91 859.06,268.53 861.02,257.80 862.97,254.62 864.93,261.28 866.89,260.44 868.85,265.14 870.81,266.30 872.77,250.94 874.73,269.27 876.69,220.81 878.65,253.85 880.61,269.72 882.57,257.41 884.53,263.08 886.49,270.59 888.45,260.43 890.41,257.55 892.37,268.79 894.33,215.29 896.29,259.54 898.25,259.56 900.21,243.33 902.17,259.39 904.13,269.64 906.09,264.90 908.05,239.34 910.01,266.19 911.97,270.20 913.93,267.18 915.89,252.85 917.85,259.67 919.81,264.75 921.77,261.05 923.73,258.37 925.69,260.56 927.65,255.56 929.61,263.24 931.57,249.23 933.53,256.47 935.49,266.23 937.45,265.93 939.41,258.17 941.37,269.40 943.33,260.09 945.29,259.29 947.25,267.99 949.21,262.70 951.17,261.25 953.13,266.82 955.09,265.43 957.05,259.40 959.01,267.50 960.96,265.10 962.92,258.87 964.88,266.42 966.84,264.68 968.80,260.78 970.76,269.64 972.72,263.26 974.68,261.28 976.64,268.15 978.60,267.33 980.56,260.51 982.52,269.46 984.48,267.90 986.44,262.63 988.40,268.50 990.36,265.46 992.32,262.76 994.28,267.22 996.24,265.75 998.20,253.81 1000.16,264.49 1002.12,266.28 1004.08,254.95 1006.04,270.85 1008.00,265.21" fill="none" stroke="#2563eb" stroke-width="1.8" stroke-opacity="0.45" stroke-linejoin="round" stroke-linecap="round"/>
<circle cx="618.00" cy="268.42" r="1.8" fill="#2563eb" fill-opacity="0.55"/>
<circle cx="639.56" cy="258.67" r="1.8" fill="#2563eb" fill-opacity="0.55"/>
<circle cx="661.12" cy="258.22" r="1.8" fill="#2563eb" fill-opacity="0.55"/>
<circle cx="682.67" cy="266.58" r="1.8" fill="#2563eb" fill-opacity="0.55"/>
<circle cx="704.23" cy="258.09" r="1.8" fill="#2563eb" fill-opacity="0.55"/>
<circle cx="725.79" cy="270.35" r="1.8" fill="#2563eb" fill-opacity="0.55"/>
<circle cx="747.35" cy="262.58" r="1.8" fill="#2563eb" fill-opacity="0.55"/>
<circle cx="768.90" cy="266.37" r="1.8" fill="#2563eb" fill-opacity="0.55"/>
<circle cx="790.46" cy="269.95" r="1.8" fill="#2563eb" fill-opacity="0.55"/>
<circle cx="812.02" cy="258.10" r="1.8" fill="#2563eb" fill-opacity="0.55"/>
<circle cx="833.58" cy="270.82" r="1.8" fill="#2563eb" fill-opacity="0.55"/>
<circle cx="855.14" cy="254.64" r="1.8" fill="#2563eb" fill-opacity="0.55"/>
<circle cx="876.69" cy="220.81" r="1.8" fill="#2563eb" fill-opacity="0.55"/>
<circle cx="898.25" cy="259.56" r="1.8" fill="#2563eb" fill-opacity="0.55"/>
<circle cx="919.81" cy="264.75" r="1.8" fill="#2563eb" fill-opacity="0.55"/>
<circle cx="941.37" cy="269.40" r="1.8" fill="#2563eb" fill-opacity="0.55"/>
<circle cx="962.92" cy="258.87" r="1.8" fill="#2563eb" fill-opacity="0.55"/>
<circle cx="984.48" cy="267.90" r="1.8" fill="#2563eb" fill-opacity="0.55"/>
<circle cx="1006.04" cy="270.85" r="1.8" fill="#2563eb" fill-opacity="0.55"/>
<polyline points="618.00,271.89 619.96,268.54 621.92,261.24 623.88,269.41 625.84,267.07 627.80,265.54 629.76,270.78 631.72,267.33 633.68,259.67 635.64,270.91 637.60,268.11 639.56,261.39 641.52,265.65 643.48,266.76 645.44,263.36 647.40,268.55 649.36,267.13 651.32,258.59 653.28,266.17 655.24,269.46 657.20,259.94 659.16,272.44 661.12,268.52 663.08,264.64 665.04,272.01 666.99,268.37 668.95,262.49 670.91,270.54 672.87,268.10 674.83,212.74 676.79,272.04 678.75,266.51 680.71,262.56 682.67,256.26 684.63,268.75 686.59,259.03 688.55,267.88 690.51,267.36 692.47,264.24 694.43,273.37 696.39,269.77 698.35,263.88 700.31,268.82 702.27,267.66 704.23,259.80 706.19,272.12 708.15,269.17 710.11,263.28 712.07,272.27 714.03,263.80 715.99,266.98 717.95,262.41 719.91,271.84 721.87,267.49 723.83,255.06 725.79,272.28 727.75,269.90 729.71,257.38 731.67,272.60 733.63,269.81 735.59,261.71 737.55,271.25 739.51,266.25 741.47,262.05 743.43,268.57 745.39,267.82 747.35,262.70 749.31,269.07 751.27,269.09 753.23,264.40 755.19,272.23 757.15,268.13 759.11,259.06 761.07,271.40 763.03,267.35 764.98,264.17 766.94,272.20 768.90,265.52 770.86,263.40 772.82,270.99 774.78,269.02 776.74,257.74 778.70,270.24 780.66,266.94 782.62,252.90 784.58,271.57 786.54,268.47 788.50,260.54 790.46,271.68 792.42,269.71 794.38,261.26 796.34,266.15 798.30,264.70 800.26,261.57 802.22,270.84 804.18,261.52 806.14,259.05 808.10,270.37 810.06,270.70 812.02,256.16 813.98,260.78 815.94,271.06 817.90,267.56 819.86,261.68 821.82,273.39 823.78,265.93 825.74,261.22 827.70,272.59 829.66,269.91 831.62,259.59 833.58,272.13 835.54,268.37 837.50,262.18 839.46,267.67 841.42,265.17 843.38,259.20 845.34,271.07 847.30,263.91 849.26,260.75 851.22,271.42 853.18,266.93 855.14,263.31 857.10,271.48 859.06,264.00 861.02,257.82 862.97,271.16 864.93,270.05 866.89,260.46 868.85,269.20 870.81,270.30 872.77,259.71 874.73,271.90 876.69,268.58 878.65,259.39 880.61,272.39 882.57,267.64 884.53,262.60 886.49,271.39 888.45,265.56 890.41,261.72 892.37,264.78 894.33,249.76 896.29,264.58 898.25,266.54 900.21,267.22 902.17,263.52 904.13,269.50 906.09,269.72 908.05,264.76 910.01,269.08 911.97,272.45 913.93,262.62 915.89,263.73 917.85,267.31 919.81,267.85 921.77,264.95 923.73,269.03 925.69,268.55 927.65,259.55 929.61,270.88 931.57,266.03 933.53,251.85 935.49,272.85 937.45,219.05 939.41,259.55 941.37,271.79 943.33,267.74 945.29,264.59 947.25,270.46 949.21,267.91 951.17,260.88 953.13,268.18 955.09,263.90 957.05,255.13 959.01,271.87 960.96,268.26 962.92,260.28 964.88,269.69 966.84,268.27 968.80,260.72 970.76,270.81 972.72,268.13 974.68,259.31 976.64,272.36 978.60,266.59 980.56,257.32 982.52,266.61 984.48,268.45 986.44,260.40 988.40,271.41 990.36,269.33 992.32,264.69 994.28,269.93 996.24,268.30 998.20,266.98 1000.16,270.20 1002.12,267.41 1004.08,264.25 1006.04,267.32 1008.00,268.18" fill="none" stroke="#f97316" stroke-width="3.8" stroke-opacity="1" stroke-linejoin="round" stroke-linecap="round"/>
<circle cx="618.00" cy="271.89" r="3.0" fill="#f97316" fill-opacity="1"/>
<circle cx="639.56" cy="261.39" r="3.0" fill="#f97316" fill-opacity="1"/>
<circle cx="661.12" cy="268.52" r="3.0" fill="#f97316" fill-opacity="1"/>
<circle cx="682.67" cy="256.26" r="3.0" fill="#f97316" fill-opacity="1"/>
<circle cx="704.23" cy="259.80" r="3.0" fill="#f97316" fill-opacity="1"/>
<circle cx="725.79" cy="272.28" r="3.0" fill="#f97316" fill-opacity="1"/>
<circle cx="747.35" cy="262.70" r="3.0" fill="#f97316" fill-opacity="1"/>
<circle cx="768.90" cy="265.52" r="3.0" fill="#f97316" fill-opacity="1"/>
<circle cx="790.46" cy="271.68" r="3.0" fill="#f97316" fill-opacity="1"/>
<circle cx="812.02" cy="256.16" r="3.0" fill="#f97316" fill-opacity="1"/>
<circle cx="833.58" cy="272.13" r="3.0" fill="#f97316" fill-opacity="1"/>
<circle cx="855.14" cy="263.31" r="3.0" fill="#f97316" fill-opacity="1"/>
<circle cx="876.69" cy="268.58" r="3.0" fill="#f97316" fill-opacity="1"/>
<circle cx="898.25" cy="266.54" r="3.0" fill="#f97316" fill-opacity="1"/>
<circle cx="919.81" cy="267.85" r="3.0" fill="#f97316" fill-opacity="1"/>
<circle cx="941.37" cy="271.79" r="3.0" fill="#f97316" fill-opacity="1"/>
<circle cx="962.92" cy="260.28" r="3.0" fill="#f97316" fill-opacity="1"/>
<circle cx="984.48" cy="268.45" r="3.0" fill="#f97316" fill-opacity="1"/>
<circle cx="1006.04" cy="267.32" r="3.0" fill="#f97316" fill-opacity="1"/>
<text x="1008" y="306" class="tick" text-anchor="end">Round 序列；越低越好</text>
<rect x="48" y="379" width="472" height="245" rx="8" fill="#ffffff" stroke="#dbe3ef"/>
<text x="66" y="407" class="label" font-weight="700">Response Throughput（含 reasoning）</text>
<rect x="366" y="391" width="136" height="26" rx="13" fill="#fef3c7" stroke="#f59e0b" stroke-width="1.4"/>
<text x="434" y="409" class="tick" font-weight="800" text-anchor="middle" fill="#92400e">均值胜出: Infron</text>
<line x1="106" y1="584.00" x2="496" y2="584.00" stroke="#e5e7eb"/>
<text x="98" y="588.00" class="tick" text-anchor="end">0.0</text>
<line x1="106" y1="531.67" x2="496" y2="531.67" stroke="#e5e7eb"/>
<text x="98" y="535.67" class="tick" text-anchor="end">5.7</text>
<line x1="106" y1="479.33" x2="496" y2="479.33" stroke="#e5e7eb"/>
<text x="98" y="483.33" class="tick" text-anchor="end">11.5</text>
<line x1="106" y1="427.00" x2="496" y2="427.00" stroke="#e5e7eb"/>
<text x="98" y="431.00" class="tick" text-anchor="end">17.2</text>
<polyline points="106.00,486.53 107.96,528.35 109.92,550.74 111.88,525.51 113.84,535.68 115.80,532.86 117.76,513.57 119.72,546.12 121.68,542.20 123.64,499.74 125.60,549.65 127.56,521.69 129.52,512.36 131.48,511.72 133.44,556.14 135.40,538.52 137.36,536.06 139.32,550.63 141.28,534.66 143.24,494.49 145.20,540.85 147.16,501.14 149.12,551.95 151.08,551.68 153.04,541.72 154.99,540.66 156.95,557.60 158.91,517.60 160.87,500.21 162.83,529.07 164.79,488.28 166.75,507.83 168.71,545.12 170.67,510.34 172.63,545.10 174.59,528.40 176.55,470.97 178.51,502.34 180.47,498.10 182.43,523.61 184.39,512.86 186.35,536.51 188.31,481.62 190.27,547.83 192.23,534.80 194.19,526.01 196.15,516.99 198.11,550.42 200.07,476.05 202.03,542.88 203.99,483.90 205.95,549.58 207.91,523.14 209.87,470.17 211.83,551.16 213.79,528.80 215.75,468.64 217.71,525.78 219.67,501.11 221.63,499.85 223.59,574.93 225.55,542.23 227.51,524.90 229.47,545.58 231.43,525.20 233.39,478.46 235.35,545.16 237.31,522.85 239.27,529.57 241.23,533.33 243.19,535.59 245.15,537.28 247.11,553.06 249.07,524.26 251.03,533.85 252.98,506.83 254.94,522.80 256.90,540.62 258.86,551.12 260.82,514.25 262.78,534.67 264.74,553.79 266.70,519.32 268.66,537.74 270.62,552.81 272.58,535.17 274.54,525.46 276.50,548.08 278.46,518.39 280.42,540.49 282.38,564.92 284.34,499.60 286.30,537.41 288.26,515.76 290.22,529.58 292.18,567.77 294.14,518.30 296.10,473.43 298.06,515.44 300.02,520.00 301.98,548.83 303.94,543.51 305.90,544.08 307.86,552.03 309.82,543.02 311.78,529.61 313.74,526.35 315.70,455.45 317.66,509.96 319.62,541.19 321.58,513.54 323.54,536.33 325.50,551.46 327.46,528.89 329.42,550.20 331.38,558.60 333.34,561.17 335.30,560.10 337.26,548.03 339.22,535.29 341.18,538.49 343.14,556.94 345.10,536.01 347.06,529.22 349.02,535.48 350.97,556.88 352.93,507.64 354.89,548.96 356.85,496.44 358.81,537.24 360.77,561.36 362.73,525.89 364.69,557.12 366.65,526.49 368.61,520.13 370.57,552.45 372.53,544.01 374.49,450.41 376.45,551.64 378.41,552.57 380.37,481.34 382.33,560.25 384.29,551.95 386.25,513.98 388.21,543.95 390.17,550.63 392.13,520.86 394.09,539.09 396.05,546.68 398.01,537.48 399.97,516.91 401.93,533.98 403.89,557.83 405.85,555.90 407.81,545.85 409.77,511.08 411.73,534.32 413.69,547.48 415.65,555.42 417.61,528.56 419.57,560.77 421.53,537.68 423.49,508.19 425.45,535.47 427.41,540.71 429.37,526.11 431.33,527.83 433.29,530.25 435.25,531.47 437.21,520.40 439.17,503.05 441.13,477.53 443.09,486.52 445.05,511.11 447.01,461.74 448.96,485.31 450.92,537.19 452.88,472.32 454.84,499.74 456.80,527.38 458.76,443.82 460.72,512.02 462.68,506.84 464.64,493.74 466.60,472.74 468.56,509.88 470.52,469.40 472.48,496.60 474.44,497.06 476.40,456.26 478.36,480.99 480.32,522.88 482.28,485.20 484.24,507.16 486.20,533.39 488.16,516.68 490.12,510.28 492.08,524.19 494.04,470.92 496.00,483.75" fill="none" stroke="#2563eb" stroke-width="3.8" stroke-opacity="1" stroke-linejoin="round" stroke-linecap="round"/>
<circle cx="106.00" cy="486.53" r="3.0" fill="#2563eb" fill-opacity="1"/>
<circle cx="127.56" cy="521.69" r="3.0" fill="#2563eb" fill-opacity="1"/>
<circle cx="149.12" cy="551.95" r="3.0" fill="#2563eb" fill-opacity="1"/>
<circle cx="170.67" cy="510.34" r="3.0" fill="#2563eb" fill-opacity="1"/>
<circle cx="192.23" cy="534.80" r="3.0" fill="#2563eb" fill-opacity="1"/>
<circle cx="213.79" cy="528.80" r="3.0" fill="#2563eb" fill-opacity="1"/>
<circle cx="235.35" cy="545.16" r="3.0" fill="#2563eb" fill-opacity="1"/>
<circle cx="256.90" cy="540.62" r="3.0" fill="#2563eb" fill-opacity="1"/>
<circle cx="278.46" cy="518.39" r="3.0" fill="#2563eb" fill-opacity="1"/>
<circle cx="300.02" cy="520.00" r="3.0" fill="#2563eb" fill-opacity="1"/>
<circle cx="321.58" cy="513.54" r="3.0" fill="#2563eb" fill-opacity="1"/>
<circle cx="343.14" cy="556.94" r="3.0" fill="#2563eb" fill-opacity="1"/>
<circle cx="364.69" cy="557.12" r="3.0" fill="#2563eb" fill-opacity="1"/>
<circle cx="386.25" cy="513.98" r="3.0" fill="#2563eb" fill-opacity="1"/>
<circle cx="407.81" cy="545.85" r="3.0" fill="#2563eb" fill-opacity="1"/>
<circle cx="429.37" cy="526.11" r="3.0" fill="#2563eb" fill-opacity="1"/>
<circle cx="450.92" cy="537.19" r="3.0" fill="#2563eb" fill-opacity="1"/>
<circle cx="472.48" cy="496.60" r="3.0" fill="#2563eb" fill-opacity="1"/>
<circle cx="494.04" cy="470.92" r="3.0" fill="#2563eb" fill-opacity="1"/>
<polyline points="106.00,508.12 107.96,526.68 109.92,548.06 111.88,520.80 113.84,535.75 115.80,537.49 117.76,526.82 119.72,535.58 121.68,551.44 123.64,511.83 125.60,526.44 127.56,551.22 129.52,538.67 131.48,538.23 133.44,542.32 135.40,524.23 137.36,532.57 139.32,551.88 141.28,538.21 143.24,532.20 145.20,549.67 147.16,496.83 149.12,525.80 151.08,541.68 153.04,520.44 154.99,535.87 156.95,544.97 158.91,513.17 160.87,532.26 162.83,573.34 164.79,506.54 166.75,539.99 168.71,549.14 170.67,553.97 172.63,533.69 174.59,551.03 176.55,531.33 178.51,530.88 180.47,541.53 182.43,516.62 184.39,518.28 186.35,545.06 188.31,524.03 190.27,530.31 192.23,548.81 194.19,519.80 196.15,522.63 198.11,543.28 200.07,500.45 202.03,544.66 203.99,535.74 205.95,544.72 207.91,506.36 209.87,530.06 211.83,555.61 213.79,514.66 215.75,519.92 217.71,553.25 219.67,497.84 221.63,522.79 223.59,546.72 225.55,508.78 227.51,534.77 229.47,547.19 231.43,530.51 233.39,530.82 235.35,546.00 237.31,521.71 239.27,522.33 241.23,542.25 243.19,524.93 245.15,526.10 247.11,550.79 249.07,512.97 251.03,531.74 252.98,547.36 254.94,500.13 256.90,537.69 258.86,542.10 260.82,513.15 262.78,522.37 264.74,552.13 266.70,520.69 268.66,533.81 270.62,557.82 272.58,505.59 274.54,535.86 276.50,549.19 278.46,504.45 280.42,524.26 282.38,546.71 284.34,534.47 286.30,538.91 288.26,546.10 290.22,518.33 292.18,546.58 294.14,554.87 296.10,513.80 298.06,511.58 300.02,554.10 301.98,548.33 303.94,514.25 305.90,530.51 307.86,548.07 309.82,497.25 311.78,534.69 313.74,548.61 315.70,505.86 317.66,522.09 319.62,550.90 321.58,509.06 323.54,529.97 325.50,547.05 327.46,529.49 329.42,539.65 331.38,551.36 333.34,509.90 335.30,545.04 337.26,547.79 339.22,514.90 341.18,535.32 343.14,550.13 345.10,512.27 347.06,541.10 349.02,552.44 350.97,514.31 352.93,516.46 354.89,548.33 356.85,527.81 358.81,520.18 360.77,552.58 362.73,502.55 364.69,525.68 366.65,550.72 368.61,502.41 370.57,532.13 372.53,543.49 374.49,507.38 376.45,540.61 378.41,545.67 380.37,538.18 382.33,560.33 384.29,547.35 386.25,532.67 388.21,530.13 390.17,542.77 392.13,522.27 394.09,529.99 396.05,541.68 398.01,528.14 399.97,501.69 401.93,543.40 403.89,542.19 405.85,529.60 407.81,531.66 409.77,539.98 411.73,526.10 413.69,524.99 415.65,554.66 417.61,519.82 419.57,541.89 421.53,558.63 423.49,497.73 425.45,572.25 427.41,551.11 429.37,509.58 431.33,528.47 433.29,539.78 435.25,516.76 437.21,527.97 439.17,546.91 441.13,528.12 443.09,540.87 445.05,557.99 447.01,503.86 448.96,527.86 450.92,553.18 452.88,524.90 454.84,525.40 456.80,548.30 458.76,514.50 460.72,526.55 462.68,554.01 464.64,499.88 466.60,537.75 468.56,552.62 470.52,534.34 472.48,526.70 474.44,547.86 476.40,514.72 478.36,524.32 480.32,543.60 482.28,523.01 484.24,537.05 486.20,535.54 488.16,526.18 490.12,530.36 492.08,540.38 494.04,532.25 496.00,530.34" fill="none" stroke="#f97316" stroke-width="1.8" stroke-opacity="0.45" stroke-linejoin="round" stroke-linecap="round"/>
<circle cx="106.00" cy="508.12" r="1.8" fill="#f97316" fill-opacity="0.55"/>
<circle cx="127.56" cy="551.22" r="1.8" fill="#f97316" fill-opacity="0.55"/>
<circle cx="149.12" cy="525.80" r="1.8" fill="#f97316" fill-opacity="0.55"/>
<circle cx="170.67" cy="553.97" r="1.8" fill="#f97316" fill-opacity="0.55"/>
<circle cx="192.23" cy="548.81" r="1.8" fill="#f97316" fill-opacity="0.55"/>
<circle cx="213.79" cy="514.66" r="1.8" fill="#f97316" fill-opacity="0.55"/>
<circle cx="235.35" cy="546.00" r="1.8" fill="#f97316" fill-opacity="0.55"/>
<circle cx="256.90" cy="537.69" r="1.8" fill="#f97316" fill-opacity="0.55"/>
<circle cx="278.46" cy="504.45" r="1.8" fill="#f97316" fill-opacity="0.55"/>
<circle cx="300.02" cy="554.10" r="1.8" fill="#f97316" fill-opacity="0.55"/>
<circle cx="321.58" cy="509.06" r="1.8" fill="#f97316" fill-opacity="0.55"/>
<circle cx="343.14" cy="550.13" r="1.8" fill="#f97316" fill-opacity="0.55"/>
<circle cx="364.69" cy="525.68" r="1.8" fill="#f97316" fill-opacity="0.55"/>
<circle cx="386.25" cy="532.67" r="1.8" fill="#f97316" fill-opacity="0.55"/>
<circle cx="407.81" cy="531.66" r="1.8" fill="#f97316" fill-opacity="0.55"/>
<circle cx="429.37" cy="509.58" r="1.8" fill="#f97316" fill-opacity="0.55"/>
<circle cx="450.92" cy="553.18" r="1.8" fill="#f97316" fill-opacity="0.55"/>
<circle cx="472.48" cy="526.70" r="1.8" fill="#f97316" fill-opacity="0.55"/>
<circle cx="494.04" cy="532.25" r="1.8" fill="#f97316" fill-opacity="0.55"/>
<text x="496" y="609" class="tick" text-anchor="end">Round 序列；越高越好</text>
<rect x="560" y="379" width="472" height="245" rx="8" fill="#ffffff" stroke="#dbe3ef"/>
<text x="578" y="407" class="label" font-weight="700">Actual Cost / 轮</text>
<rect x="878" y="391" width="136" height="26" rx="13" fill="#fef3c7" stroke="#f59e0b" stroke-width="1.4"/>
<text x="946" y="409" class="tick" font-weight="800" text-anchor="middle" fill="#92400e">均值胜出: OpenRouter</text>
<line x1="618" y1="584.00" x2="1008" y2="584.00" stroke="#e5e7eb"/>
<text x="610" y="588.00" class="tick" text-anchor="end">$0.0000</text>
<line x1="618" y1="531.67" x2="1008" y2="531.67" stroke="#e5e7eb"/>
<text x="610" y="535.67" class="tick" text-anchor="end">$0.0069</text>
<line x1="618" y1="479.33" x2="1008" y2="479.33" stroke="#e5e7eb"/>
<text x="610" y="483.33" class="tick" text-anchor="end">$0.0138</text>
<line x1="618" y1="427.00" x2="1008" y2="427.00" stroke="#e5e7eb"/>
<text x="610" y="431.00" class="tick" text-anchor="end">$0.0207</text>
<polyline points="618.00,581.62 619.96,562.35 621.92,499.57 623.88,579.35 625.84,562.35 627.80,499.57 629.76,579.35 631.72,562.35 633.68,443.82 635.64,579.25 637.60,562.35 639.56,499.57 641.52,579.35 643.48,562.25 645.44,499.67 647.40,579.41 649.36,562.35 651.32,499.67 653.28,579.35 655.24,562.25 657.20,443.82 659.16,579.25 661.12,562.35 663.08,499.67 665.04,579.35 666.99,562.35 668.95,499.56 670.91,579.35 672.87,548.34 674.83,499.68 676.79,579.22 678.75,562.39 680.71,499.51 682.67,579.19 684.63,548.47 686.59,499.68 688.55,579.37 690.51,562.39 692.47,555.41 694.43,579.23 696.39,562.19 698.35,499.68 700.31,579.06 702.27,562.39 704.23,499.68 706.19,579.37 708.15,562.06 710.11,499.67 712.07,579.19 714.03,562.35 715.99,562.31 717.95,499.67 719.91,579.35 721.87,576.09 723.83,499.67 725.79,579.35 727.75,562.28 729.71,499.57 731.67,579.24 733.63,562.28 735.59,499.58 737.55,579.38 739.51,576.45 741.47,499.67 743.43,579.35 745.39,562.32 747.35,499.67 749.31,579.35 751.27,562.25 753.23,499.57 755.19,581.92 757.15,562.35 759.11,499.67 761.07,579.35 763.03,562.35 764.98,499.55 766.94,579.25 768.90,562.35 770.86,499.67 772.82,579.35 774.78,562.35 776.74,499.67 778.70,581.98 780.66,562.35 782.62,499.67 784.58,579.35 786.54,562.28 788.50,499.67 790.46,579.35 792.42,562.35 794.38,499.67 796.34,579.25 798.30,562.35 800.26,499.01 802.22,579.35 804.18,562.35 806.14,499.55 808.10,579.25 810.06,562.28 812.02,499.57 813.98,555.38 815.94,579.35 817.90,562.35 819.86,499.67 821.82,579.35 823.78,562.35 825.74,499.57 827.70,579.25 829.66,562.28 831.62,499.55 833.58,579.35 835.54,562.35 837.50,499.67 839.46,579.35 841.42,562.35 843.38,499.75 845.34,579.25 847.30,562.35 849.26,499.67 851.22,579.42 853.18,562.35 855.14,555.38 857.10,579.35 859.06,562.35 861.02,499.69 862.97,579.35 864.93,576.32 866.89,499.67 868.85,579.21 870.81,562.35 872.77,499.67 874.73,579.35 876.69,576.32 878.65,555.40 880.61,579.35 882.57,562.35 884.53,499.67 886.49,579.25 888.45,562.35 890.41,499.67 892.37,579.25 894.33,562.26 896.29,499.67 898.25,581.98 900.21,562.28 902.17,499.67 904.13,579.35 906.09,562.35 908.05,499.67 910.01,579.35 911.97,579.35 913.93,562.35 915.89,443.96 917.85,576.77 919.81,562.35 921.77,555.41 923.73,576.63 925.69,562.35 927.65,443.96 929.61,576.63 931.57,562.35 933.53,499.81 935.49,579.36 937.45,548.47 939.41,499.81 941.37,579.35 943.33,562.39 945.29,499.81 947.25,579.35 949.21,576.27 951.17,555.47 953.13,581.90 955.09,576.10 957.05,555.47 959.01,581.48 960.96,576.30 962.92,553.10 964.88,581.50 966.84,576.32 968.80,487.33 970.76,581.90 972.72,575.66 974.68,555.66 976.64,581.84 978.60,576.32 980.56,555.66 982.52,581.90 984.48,575.69 986.44,555.63 988.40,581.90 990.36,576.28 992.32,553.10 994.28,581.90 996.24,575.69 998.20,555.46 1000.16,581.84 1002.12,575.69 1004.08,555.66 1006.04,581.84 1008.00,576.32" fill="none" stroke="#2563eb" stroke-width="1.8" stroke-opacity="0.45" stroke-linejoin="round" stroke-linecap="round"/>
<circle cx="618.00" cy="581.62" r="1.8" fill="#2563eb" fill-opacity="0.55"/>
<circle cx="639.56" cy="499.57" r="1.8" fill="#2563eb" fill-opacity="0.55"/>
<circle cx="661.12" cy="562.35" r="1.8" fill="#2563eb" fill-opacity="0.55"/>
<circle cx="682.67" cy="579.19" r="1.8" fill="#2563eb" fill-opacity="0.55"/>
<circle cx="704.23" cy="499.68" r="1.8" fill="#2563eb" fill-opacity="0.55"/>
<circle cx="725.79" cy="579.35" r="1.8" fill="#2563eb" fill-opacity="0.55"/>
<circle cx="747.35" cy="499.67" r="1.8" fill="#2563eb" fill-opacity="0.55"/>
<circle cx="768.90" cy="562.35" r="1.8" fill="#2563eb" fill-opacity="0.55"/>
<circle cx="790.46" cy="579.35" r="1.8" fill="#2563eb" fill-opacity="0.55"/>
<circle cx="812.02" cy="499.57" r="1.8" fill="#2563eb" fill-opacity="0.55"/>
<circle cx="833.58" cy="579.35" r="1.8" fill="#2563eb" fill-opacity="0.55"/>
<circle cx="855.14" cy="555.38" r="1.8" fill="#2563eb" fill-opacity="0.55"/>
<circle cx="876.69" cy="576.32" r="1.8" fill="#2563eb" fill-opacity="0.55"/>
<circle cx="898.25" cy="581.98" r="1.8" fill="#2563eb" fill-opacity="0.55"/>
<circle cx="919.81" cy="562.35" r="1.8" fill="#2563eb" fill-opacity="0.55"/>
<circle cx="941.37" cy="579.35" r="1.8" fill="#2563eb" fill-opacity="0.55"/>
<circle cx="962.92" cy="553.10" r="1.8" fill="#2563eb" fill-opacity="0.55"/>
<circle cx="984.48" cy="575.69" r="1.8" fill="#2563eb" fill-opacity="0.55"/>
<circle cx="1006.04" cy="581.84" r="1.8" fill="#2563eb" fill-opacity="0.55"/>
<polyline points="618.00,581.71 619.96,575.26 621.92,550.27 623.88,581.64 625.84,575.26 627.80,550.47 629.76,581.78 631.72,575.07 633.68,550.67 635.64,581.78 637.60,574.94 639.56,550.67 641.52,581.78 643.48,575.26 645.44,550.27 647.40,581.78 649.36,575.26 651.32,550.47 653.28,581.50 655.24,575.26 657.20,550.27 659.16,581.78 661.12,574.94 663.08,550.47 665.04,581.78 666.99,575.26 668.95,550.67 670.91,581.85 672.87,575.26 674.83,550.47 676.79,581.78 678.75,575.03 680.71,550.27 682.67,581.64 684.63,575.07 686.59,550.27 688.55,581.78 690.51,575.26 692.47,550.67 694.43,581.78 696.39,575.07 698.35,550.47 700.31,581.78 702.27,575.26 704.23,550.47 706.19,581.78 708.15,575.17 710.11,550.47 712.07,581.64 714.03,575.26 715.99,575.17 717.95,550.47 719.91,581.92 721.87,575.07 723.83,550.47 725.79,581.85 727.75,575.26 729.71,550.47 731.67,581.78 733.63,575.03 735.59,550.67 737.55,581.64 739.51,575.26 741.47,550.47 743.43,581.71 745.39,575.26 747.35,550.47 749.31,581.78 751.27,575.07 753.23,550.47 755.19,581.85 757.15,575.26 759.11,550.47 761.07,581.78 763.03,575.26 764.98,550.47 766.94,581.78 768.90,575.03 770.86,550.47 772.82,581.92 774.78,575.07 776.74,550.47 778.70,581.92 780.66,575.26 782.62,550.47 784.58,581.78 786.54,575.26 788.50,550.67 790.46,581.78 792.42,575.03 794.38,550.67 796.34,581.92 798.30,575.03 800.26,550.67 802.22,581.71 804.18,575.03 806.14,550.47 808.10,581.78 810.06,575.07 812.02,550.47 813.98,550.47 815.94,581.78 817.90,574.94 819.86,550.47 821.82,581.78 823.78,575.26 825.74,550.47 827.70,581.78 829.66,574.94 831.62,550.47 833.58,581.78 835.54,575.26 837.50,550.47 839.46,581.92 841.42,575.03 843.38,550.47 845.34,581.78 847.30,575.03 849.26,550.47 851.22,581.78 853.18,575.03 855.14,550.47 857.10,581.78 859.06,574.94 861.02,550.47 862.97,581.78 864.93,575.07 866.89,550.47 868.85,581.92 870.81,575.07 872.77,550.27 874.73,581.78 876.69,575.07 878.65,550.47 880.61,581.92 882.57,575.26 884.53,550.67 886.49,581.78 888.45,575.03 890.41,550.47 892.37,581.78 894.33,575.07 896.29,550.47 898.25,581.78 900.21,575.07 902.17,550.47 904.13,581.92 906.09,575.07 908.05,550.27 910.01,581.92 911.97,581.64 913.93,575.03 915.89,550.47 917.85,581.50 919.81,575.07 921.77,550.47 923.73,581.92 925.69,575.03 927.65,550.47 929.61,581.50 931.57,575.26 933.53,550.47 935.49,581.92 937.45,575.07 939.41,550.47 941.37,581.78 943.33,575.03 945.29,550.67 947.25,581.50 949.21,575.26 951.17,550.67 953.13,581.92 955.09,575.07 957.05,550.67 959.01,581.78 960.96,575.26 962.92,550.47 964.88,581.92 966.84,575.07 968.80,550.47 970.76,581.92 972.72,575.07 974.68,550.47 976.64,581.78 978.60,575.26 980.56,550.47 982.52,581.92 984.48,575.17 986.44,550.47 988.40,581.92 990.36,575.07 992.32,550.67 994.28,581.85 996.24,575.26 998.20,550.47 1000.16,581.71 1002.12,575.26 1004.08,550.47 1006.04,581.78 1008.00,575.07" fill="none" stroke="#f97316" stroke-width="3.8" stroke-opacity="1" stroke-linejoin="round" stroke-linecap="round"/>
<circle cx="618.00" cy="581.71" r="3.0" fill="#f97316" fill-opacity="1"/>
<circle cx="639.56" cy="550.67" r="3.0" fill="#f97316" fill-opacity="1"/>
<circle cx="661.12" cy="574.94" r="3.0" fill="#f97316" fill-opacity="1"/>
<circle cx="682.67" cy="581.64" r="3.0" fill="#f97316" fill-opacity="1"/>
<circle cx="704.23" cy="550.47" r="3.0" fill="#f97316" fill-opacity="1"/>
<circle cx="725.79" cy="581.85" r="3.0" fill="#f97316" fill-opacity="1"/>
<circle cx="747.35" cy="550.47" r="3.0" fill="#f97316" fill-opacity="1"/>
<circle cx="768.90" cy="575.03" r="3.0" fill="#f97316" fill-opacity="1"/>
<circle cx="790.46" cy="581.78" r="3.0" fill="#f97316" fill-opacity="1"/>
<circle cx="812.02" cy="550.47" r="3.0" fill="#f97316" fill-opacity="1"/>
<circle cx="833.58" cy="581.78" r="3.0" fill="#f97316" fill-opacity="1"/>
<circle cx="855.14" cy="550.47" r="3.0" fill="#f97316" fill-opacity="1"/>
<circle cx="876.69" cy="575.07" r="3.0" fill="#f97316" fill-opacity="1"/>
<circle cx="898.25" cy="581.78" r="3.0" fill="#f97316" fill-opacity="1"/>
<circle cx="919.81" cy="575.07" r="3.0" fill="#f97316" fill-opacity="1"/>
<circle cx="941.37" cy="581.78" r="3.0" fill="#f97316" fill-opacity="1"/>
<circle cx="962.92" cy="550.47" r="3.0" fill="#f97316" fill-opacity="1"/>
<circle cx="984.48" cy="575.17" r="3.0" fill="#f97316" fill-opacity="1"/>
<circle cx="1006.04" cy="581.78" r="3.0" fill="#f97316" fill-opacity="1"/>
<text x="1008" y="609" class="tick" text-anchor="end">Round 序列；越低越好</text>
<rect x="48" y="682" width="472" height="245" rx="8" fill="#ffffff" stroke="#dbe3ef"/>
<text x="66" y="710" class="label" font-weight="700">Token Cache Hit Rate</text>
<rect x="366" y="694" width="136" height="26" rx="13" fill="#fef3c7" stroke="#f59e0b" stroke-width="1.4"/>
<text x="434" y="712" class="tick" font-weight="800" text-anchor="middle" fill="#92400e">均值胜出: OpenRouter</text>
<line x1="106" y1="887.00" x2="496" y2="887.00" stroke="#e5e7eb"/>
<text x="98" y="891.00" class="tick" text-anchor="end">0%</text>
<line x1="106" y1="834.67" x2="496" y2="834.67" stroke="#e5e7eb"/>
<text x="98" y="838.67" class="tick" text-anchor="end">37%</text>
<line x1="106" y1="782.33" x2="496" y2="782.33" stroke="#e5e7eb"/>
<text x="98" y="786.33" class="tick" text-anchor="end">75%</text>
<line x1="106" y1="730.00" x2="496" y2="730.00" stroke="#e5e7eb"/>
<text x="98" y="734.00" class="tick" text-anchor="end">112%</text>
<polyline points="106.00,756.30 107.96,748.75 109.92,746.82 111.88,755.27 113.84,748.75 115.80,746.82 117.76,755.27 119.72,748.75 121.68,886.50 123.64,746.89 125.60,748.75 127.56,746.82 129.52,755.27 131.48,746.83 133.44,747.24 135.40,746.89 137.36,748.75 139.32,747.24 141.28,755.27 143.24,746.83 145.20,886.50 147.16,746.89 149.12,748.75 151.08,747.24 153.04,755.27 154.99,748.75 156.95,746.82 158.91,755.27 160.87,885.05 162.83,746.87 164.79,747.85 166.75,747.03 168.71,886.50 170.67,756.30 172.63,885.05 174.59,886.50 176.55,747.85 178.51,747.03 180.47,746.87 182.43,877.59 184.39,885.05 186.35,886.50 188.31,877.59 190.27,885.05 192.23,886.50 194.19,877.59 196.15,885.05 198.11,747.24 200.07,877.59 202.03,748.75 203.99,746.83 205.95,747.24 207.91,755.27 209.87,747.03 211.83,747.24 213.79,755.27 215.75,746.83 217.71,746.82 219.67,746.89 221.63,746.83 223.59,747.29 225.55,746.89 227.51,746.83 229.47,747.24 231.43,755.27 233.39,746.83 235.35,747.24 237.31,755.27 239.27,746.83 241.23,746.82 243.19,755.27 245.15,748.75 247.11,747.24 249.07,755.27 251.03,748.75 252.98,746.82 254.94,746.89 256.90,748.75 258.86,747.24 260.82,755.27 262.78,748.75 264.74,747.24 266.70,746.89 268.66,748.75 270.62,747.24 272.58,755.27 274.54,746.83 276.50,747.24 278.46,755.27 280.42,748.75 282.38,747.24 284.34,746.89 286.30,748.75 288.26,747.74 290.22,755.27 292.18,748.75 294.14,746.82 296.10,746.89 298.06,746.83 300.02,746.82 301.98,747.24 303.94,755.27 305.90,748.75 307.86,747.24 309.82,755.27 311.78,748.75 313.74,746.82 315.70,746.89 317.66,746.83 319.62,746.82 321.58,755.27 323.54,748.75 325.50,747.24 327.46,755.27 329.42,748.75 331.38,746.82 333.34,747.85 335.30,748.75 337.26,747.24 339.22,746.89 341.18,748.75 343.14,747.24 345.10,755.27 347.06,748.75 349.02,746.82 350.97,755.27 352.93,746.83 354.89,747.24 356.85,746.89 358.81,748.75 360.77,747.24 362.73,755.27 364.69,747.03 366.65,746.82 368.61,755.27 370.57,748.75 372.53,747.24 374.49,746.89 376.45,748.75 378.41,747.24 380.37,746.89 382.33,747.03 384.29,747.24 386.25,746.89 388.21,746.83 390.17,747.24 392.13,755.27 394.09,748.75 396.05,746.87 398.01,755.27 399.97,755.27 401.93,748.75 403.89,886.50 405.85,877.59 407.81,748.75 409.77,746.87 411.73,877.59 413.69,748.75 415.65,886.50 417.61,877.59 419.57,748.75 421.53,746.87 423.49,877.59 425.45,885.05 427.41,746.87 429.37,755.27 431.33,747.03 433.29,746.87 435.25,755.27 437.21,747.03 439.17,746.87 441.13,747.85 443.09,747.03 445.05,746.87 447.01,756.30 448.96,747.03 450.92,747.05 452.88,756.30 454.84,747.03 456.80,887.00 458.76,747.85 460.72,748.01 462.68,746.87 464.64,751.80 466.60,747.03 468.56,746.87 470.52,747.85 472.48,748.01 474.44,746.87 476.40,747.85 478.36,747.03 480.32,746.87 482.28,747.85 484.24,747.03 486.20,747.29 488.16,747.85 490.12,747.03 492.08,746.87 494.04,747.85 496.00,747.03" fill="none" stroke="#2563eb" stroke-width="1.8" stroke-opacity="0.45" stroke-linejoin="round" stroke-linecap="round"/>
<circle cx="106.00" cy="756.30" r="1.8" fill="#2563eb" fill-opacity="0.55"/>
<circle cx="127.56" cy="746.82" r="1.8" fill="#2563eb" fill-opacity="0.55"/>
<circle cx="149.12" cy="748.75" r="1.8" fill="#2563eb" fill-opacity="0.55"/>
<circle cx="170.67" cy="756.30" r="1.8" fill="#2563eb" fill-opacity="0.55"/>
<circle cx="192.23" cy="886.50" r="1.8" fill="#2563eb" fill-opacity="0.55"/>
<circle cx="213.79" cy="755.27" r="1.8" fill="#2563eb" fill-opacity="0.55"/>
<circle cx="235.35" cy="747.24" r="1.8" fill="#2563eb" fill-opacity="0.55"/>
<circle cx="256.90" cy="748.75" r="1.8" fill="#2563eb" fill-opacity="0.55"/>
<circle cx="278.46" cy="755.27" r="1.8" fill="#2563eb" fill-opacity="0.55"/>
<circle cx="300.02" cy="746.82" r="1.8" fill="#2563eb" fill-opacity="0.55"/>
<circle cx="321.58" cy="755.27" r="1.8" fill="#2563eb" fill-opacity="0.55"/>
<circle cx="343.14" cy="747.24" r="1.8" fill="#2563eb" fill-opacity="0.55"/>
<circle cx="364.69" cy="747.03" r="1.8" fill="#2563eb" fill-opacity="0.55"/>
<circle cx="386.25" cy="746.89" r="1.8" fill="#2563eb" fill-opacity="0.55"/>
<circle cx="407.81" cy="748.75" r="1.8" fill="#2563eb" fill-opacity="0.55"/>
<circle cx="429.37" cy="755.27" r="1.8" fill="#2563eb" fill-opacity="0.55"/>
<circle cx="450.92" cy="747.05" r="1.8" fill="#2563eb" fill-opacity="0.55"/>
<circle cx="472.48" cy="748.01" r="1.8" fill="#2563eb" fill-opacity="0.55"/>
<circle cx="494.04" cy="747.85" r="1.8" fill="#2563eb" fill-opacity="0.55"/>
<polyline points="106.00,756.30 107.96,747.03 109.92,747.29 111.88,756.30 113.84,747.03 115.80,746.87 117.76,751.80 119.72,748.01 121.68,746.87 123.64,751.80 125.60,748.96 127.56,746.87 129.52,751.80 131.48,747.03 133.44,747.29 135.40,751.80 137.36,747.03 139.32,746.87 141.28,756.30 143.24,747.03 145.20,747.29 147.16,751.80 149.12,748.96 151.08,746.87 153.04,751.80 154.99,747.03 156.95,746.87 158.91,747.85 160.87,747.03 162.83,746.87 164.79,751.80 166.75,747.03 168.71,747.29 170.67,756.30 172.63,748.01 174.59,747.29 176.55,751.80 178.51,747.03 180.47,746.87 182.43,751.80 184.39,748.01 186.35,747.29 188.31,751.80 190.27,747.03 192.23,746.87 194.19,751.80 196.15,747.03 198.11,746.87 200.07,756.30 202.03,747.03 203.99,747.03 205.95,746.87 207.91,747.85 209.87,748.01 211.83,746.87 213.79,747.85 215.75,747.03 217.71,746.87 219.67,751.80 221.63,747.03 223.59,746.87 225.55,756.30 227.51,747.03 229.47,746.87 231.43,747.85 233.39,747.03 235.35,746.87 237.31,751.80 239.27,748.01 241.23,746.87 243.19,747.85 245.15,747.03 247.11,746.87 249.07,751.80 251.03,747.03 252.98,746.87 254.94,751.80 256.90,747.03 258.86,746.87 260.82,747.85 262.78,748.01 264.74,746.87 266.70,747.85 268.66,747.03 270.62,746.87 272.58,751.80 274.54,747.03 276.50,746.87 278.46,751.80 280.42,747.03 282.38,746.87 284.34,747.85 286.30,747.03 288.26,746.87 290.22,747.85 292.18,747.03 294.14,746.87 296.10,751.80 298.06,748.01 300.02,746.87 301.98,746.87 303.94,751.80 305.90,748.96 307.86,746.87 309.82,751.80 311.78,747.03 313.74,746.87 315.70,751.80 317.66,748.96 319.62,746.87 321.58,751.80 323.54,747.03 325.50,746.87 327.46,747.85 329.42,747.03 331.38,747.29 333.34,751.80 335.30,747.03 337.26,747.29 339.22,751.80 341.18,747.03 343.14,747.29 345.10,751.80 347.06,748.96 349.02,746.87 350.97,751.80 352.93,748.01 354.89,746.87 356.85,747.85 358.81,748.01 360.77,747.29 362.73,751.80 364.69,748.01 366.65,746.87 368.61,747.85 370.57,747.03 372.53,746.87 374.49,751.80 376.45,747.03 378.41,747.29 380.37,751.80 382.33,748.01 384.29,746.87 386.25,751.80 388.21,748.01 390.17,746.87 392.13,747.85 394.09,748.01 396.05,747.29 398.01,747.85 399.97,756.30 401.93,747.03 403.89,746.87 405.85,756.30 407.81,748.01 409.77,746.87 411.73,747.85 413.69,747.03 415.65,746.87 417.61,756.30 419.57,747.03 421.53,746.87 423.49,747.85 425.45,748.01 427.41,747.29 429.37,751.80 431.33,747.03 433.29,746.87 435.25,756.30 437.21,747.03 439.17,746.87 441.13,747.85 443.09,748.01 445.05,746.87 447.01,751.80 448.96,747.03 450.92,746.87 452.88,747.85 454.84,748.01 456.80,746.87 458.76,747.85 460.72,748.01 462.68,746.87 464.64,751.80 466.60,747.03 468.56,746.87 470.52,747.85 472.48,747.03 474.44,746.87 476.40,747.85 478.36,748.01 480.32,746.87 482.28,747.85 484.24,747.03 486.20,746.87 488.16,747.85 490.12,747.03 492.08,746.87 494.04,751.80 496.00,748.01" fill="none" stroke="#f97316" stroke-width="3.8" stroke-opacity="1" stroke-linejoin="round" stroke-linecap="round"/>
<circle cx="106.00" cy="756.30" r="3.0" fill="#f97316" fill-opacity="1"/>
<circle cx="127.56" cy="746.87" r="3.0" fill="#f97316" fill-opacity="1"/>
<circle cx="149.12" cy="748.96" r="3.0" fill="#f97316" fill-opacity="1"/>
<circle cx="170.67" cy="756.30" r="3.0" fill="#f97316" fill-opacity="1"/>
<circle cx="192.23" cy="746.87" r="3.0" fill="#f97316" fill-opacity="1"/>
<circle cx="213.79" cy="747.85" r="3.0" fill="#f97316" fill-opacity="1"/>
<circle cx="235.35" cy="746.87" r="3.0" fill="#f97316" fill-opacity="1"/>
<circle cx="256.90" cy="747.03" r="3.0" fill="#f97316" fill-opacity="1"/>
<circle cx="278.46" cy="751.80" r="3.0" fill="#f97316" fill-opacity="1"/>
<circle cx="300.02" cy="746.87" r="3.0" fill="#f97316" fill-opacity="1"/>
<circle cx="321.58" cy="751.80" r="3.0" fill="#f97316" fill-opacity="1"/>
<circle cx="343.14" cy="747.29" r="3.0" fill="#f97316" fill-opacity="1"/>
<circle cx="364.69" cy="748.01" r="3.0" fill="#f97316" fill-opacity="1"/>
<circle cx="386.25" cy="751.80" r="3.0" fill="#f97316" fill-opacity="1"/>
<circle cx="407.81" cy="748.01" r="3.0" fill="#f97316" fill-opacity="1"/>
<circle cx="429.37" cy="751.80" r="3.0" fill="#f97316" fill-opacity="1"/>
<circle cx="450.92" cy="746.87" r="3.0" fill="#f97316" fill-opacity="1"/>
<circle cx="472.48" cy="747.03" r="3.0" fill="#f97316" fill-opacity="1"/>
<circle cx="494.04" cy="751.80" r="3.0" fill="#f97316" fill-opacity="1"/>
<text x="496" y="912" class="tick" text-anchor="end">Round 序列；越高越好</text>
<rect x="830" y="28" width="14" height="14" rx="3" fill="#2563eb"/>
<text x="852" y="40" class="label">Infron</text>
<rect x="830" y="52" width="14" height="14" rx="3" fill="#f97316"/>
<text x="852" y="64" class="label">OpenRouter</text>
</svg>