<svg xmlns="http://www.w3.org/2000/svg" width="1080" height="960" viewBox="0 0 1080 960"><style>text{font-family:-apple-system,BlinkMacSystemFont,'Segoe UI',sans-serif;fill:#111827}.title{font-size:22px;font-weight:700}.label{font-size:13px;fill:#374151}.tick{font-size:12px;fill:#6b7280}.value{font-size:12px;fill:#111827}</style><rect width="100%" height="100%" fill="#ffffff"/>
<text x="48" y="34" class="title">Latency First Routing Mode: Core Metric A/B Comparison</text>
<text x="48" y="58" class="label">Each panel compares Infron and OpenRouter; the winner uses a highlight background, bold outline, and corner label.</text>
<rect x="48" y="76" width="472" height="230" rx="8" fill="#f8fafc" stroke="#dbe3ef"/>
<text x="66" y="104" class="label" font-weight="700">E2E Latency / request (incl. reasoning)</text>
<rect x="366" y="88" width="136" height="26" rx="13" fill="#fef3c7" stroke="#f59e0b" stroke-width="1.4"/>
<text x="434" y="106" class="tick" font-weight="800" text-anchor="middle" fill="#92400e">Winner: Infron</text>
<line x1="106" y1="264.00" x2="494" y2="264.00" stroke="#e5e7eb"/>
<text x="98" y="268.00" class="tick" text-anchor="end">0.0</text>
<line x1="106" y1="217.33" x2="494" y2="217.33" stroke="#e5e7eb"/>
<text x="98" y="221.33" class="tick" text-anchor="end">1375</text>
<line x1="106" y1="170.67" x2="494" y2="170.67" stroke="#e5e7eb"/>
<text x="98" y="174.67" class="tick" text-anchor="end">2750</text>
<line x1="106" y1="124.00" x2="494" y2="124.00" stroke="#e5e7eb"/>
<text x="98" y="128.00" class="tick" text-anchor="end">4125</text>
<rect x="163.33" y="114.00" width="144" height="168.00" rx="10" fill="#fef3c7" stroke="#f59e0b" stroke-width="1.6"/>
<rect x="206.33" y="195.62" width="58" height="68.38" rx="5" fill="#2563eb" fill-opacity="1" stroke="#111827" stroke-width="3"/>
<text x="235.33" y="187.62" class="value" font-weight="800" text-anchor="middle">2014.82</text>
<text x="235.33" y="288.00" class="tick" text-anchor="middle">Infron</text>
<rect x="335.67" y="145.36" width="58" height="118.64" rx="5" fill="#f97316" fill-opacity="0.52" stroke="none" stroke-width="3"/>
<text x="364.67" y="137.36" class="value" font-weight="500" text-anchor="middle">3496.01</text>
<text x="364.67" y="288.00" class="tick" text-anchor="middle">OpenRouter</text>
<rect x="560" y="76" width="472" height="230" rx="8" fill="#f8fafc" stroke="#dbe3ef"/>
<text x="578" y="104" class="label" font-weight="700">Response throughput (incl. reasoning)</text>
<rect x="878" y="88" width="136" height="26" rx="13" fill="#fef3c7" stroke="#f59e0b" stroke-width="1.4"/>
<text x="946" y="106" class="tick" font-weight="800" text-anchor="middle" fill="#92400e">Winner: OpenRouter</text>
<line x1="618" y1="264.00" x2="1006" y2="264.00" stroke="#e5e7eb"/>
<text x="610" y="268.00" class="tick" text-anchor="end">0.0</text>
<line x1="618" y1="217.33" x2="1006" y2="217.33" stroke="#e5e7eb"/>
<text x="610" y="221.33" class="tick" text-anchor="end">7.3</text>
<line x1="618" y1="170.67" x2="1006" y2="170.67" stroke="#e5e7eb"/>
<text x="610" y="174.67" class="tick" text-anchor="end">14.5</text>
<line x1="618" y1="124.00" x2="1006" y2="124.00" stroke="#e5e7eb"/>
<text x="610" y="128.00" class="tick" text-anchor="end">21.8</text>
<rect x="718.33" y="213.02" width="58" height="50.98" rx="5" fill="#2563eb" fill-opacity="0.52" stroke="none" stroke-width="3"/>
<text x="747.33" y="205.02" class="value" font-weight="500" text-anchor="middle">7.94</text>
<text x="747.33" y="288.00" class="tick" text-anchor="middle">Infron</text>
<rect x="804.67" y="114.00" width="144" height="168.00" rx="10" fill="#fef3c7" stroke="#f59e0b" stroke-width="1.6"/>
<rect x="847.67" y="145.36" width="58" height="118.64" rx="5" fill="#f97316" fill-opacity="1" stroke="#111827" stroke-width="3"/>
<text x="876.67" y="137.36" class="value" font-weight="800" text-anchor="middle">18.48</text>
<text x="876.67" y="288.00" class="tick" text-anchor="middle">OpenRouter</text>
<rect x="48" y="360" width="472" height="230" rx="8" fill="#f8fafc" stroke="#dbe3ef"/>
<text x="66" y="388" class="label" font-weight="700">Observed cost</text>
<rect x="366" y="372" width="136" height="26" rx="13" fill="#fef3c7" stroke="#f59e0b" stroke-width="1.4"/>
<text x="434" y="390" class="tick" font-weight="800" text-anchor="middle" fill="#92400e">Winner: Infron</text>
<line x1="106" y1="548.00" x2="494" y2="548.00" stroke="#e5e7eb"/>
<text x="98" y="552.00" class="tick" text-anchor="end">$0.0000</text>
<line x1="106" y1="501.33" x2="494" y2="501.33" stroke="#e5e7eb"/>
<text x="98" y="505.33" class="tick" text-anchor="end">$0.0068</text>
<line x1="106" y1="454.67" x2="494" y2="454.67" stroke="#e5e7eb"/>
<text x="98" y="458.67" class="tick" text-anchor="end">$0.0137</text>
<line x1="106" y1="408.00" x2="494" y2="408.00" stroke="#e5e7eb"/>
<text x="98" y="412.00" class="tick" text-anchor="end">$0.0205</text>
<rect x="163.33" y="398.00" width="144" height="168.00" rx="10" fill="#fef3c7" stroke="#f59e0b" stroke-width="1.6"/>
<rect x="206.33" y="469.28" width="58" height="78.72" rx="5" fill="#2563eb" fill-opacity="1" stroke="#111827" stroke-width="3"/>
<text x="235.33" y="461.28" class="value" font-weight="800" text-anchor="middle">$0.01152800</text>
<text x="235.33" y="572.00" class="tick" text-anchor="middle">Infron</text>
<rect x="335.67" y="429.36" width="58" height="118.64" rx="5" fill="#f97316" fill-opacity="0.52" stroke="none" stroke-width="3"/>
<text x="364.67" y="421.36" class="value" font-weight="500" text-anchor="middle">$0.01737505</text>
<text x="364.67" y="572.00" class="tick" text-anchor="middle">OpenRouter</text>
<rect x="560" y="360" width="472" height="230" rx="8" fill="#f8fafc" stroke="#dbe3ef"/>
<text x="578" y="388" class="label" font-weight="700">Streaming TTFT / first byte</text>
<rect x="878" y="372" width="136" height="26" rx="13" fill="#fef3c7" stroke="#f59e0b" stroke-width="1.4"/>
<text x="946" y="390" class="tick" font-weight="800" text-anchor="middle" fill="#92400e">Winner: Infron</text>
<line x1="618" y1="548.00" x2="1006" y2="548.00" stroke="#e5e7eb"/>
<text x="610" y="552.00" class="tick" text-anchor="end">0.0</text>
<line x1="618" y1="501.33" x2="1006" y2="501.33" stroke="#e5e7eb"/>
<text x="610" y="505.33" class="tick" text-anchor="end">1050</text>
<line x1="618" y1="454.67" x2="1006" y2="454.67" stroke="#e5e7eb"/>
<text x="610" y="458.67" class="tick" text-anchor="end">2099</text>
<line x1="618" y1="408.00" x2="1006" y2="408.00" stroke="#e5e7eb"/>
<text x="610" y="412.00" class="tick" text-anchor="end">3149</text>
<rect x="675.33" y="398.00" width="144" height="168.00" rx="10" fill="#fef3c7" stroke="#f59e0b" stroke-width="1.6"/>
<rect x="718.33" y="478.70" width="58" height="69.30" rx="5" fill="#2563eb" fill-opacity="1" stroke="#111827" stroke-width="3"/>
<text x="747.33" y="470.70" class="value" font-weight="800" text-anchor="middle">1558.68</text>
<text x="747.33" y="572.00" class="tick" text-anchor="middle">Infron</text>
<rect x="847.67" y="429.36" width="58" height="118.64" rx="5" fill="#f97316" fill-opacity="0.52" stroke="none" stroke-width="3"/>
<text x="876.67" y="421.36" class="value" font-weight="500" text-anchor="middle">2668.49</text>
<text x="876.67" y="572.00" class="tick" text-anchor="middle">OpenRouter</text>
<rect x="48" y="644" width="472" height="230" rx="8" fill="#f8fafc" stroke="#dbe3ef"/>
<text x="66" y="672" class="label" font-weight="700">Token cache hit rate</text>
<rect x="366" y="656" width="136" height="26" rx="13" fill="#fef3c7" stroke="#f59e0b" stroke-width="1.4"/>
<text x="434" y="674" class="tick" font-weight="800" text-anchor="middle" fill="#92400e">Winner: Infron</text>
<line x1="106" y1="832.00" x2="494" y2="832.00" stroke="#e5e7eb"/>
<text x="98" y="836.00" class="tick" text-anchor="end">0%</text>
<line x1="106" y1="785.33" x2="494" y2="785.33" stroke="#e5e7eb"/>
<text x="98" y="789.33" class="tick" text-anchor="end">38%</text>
<line x1="106" y1="738.67" x2="494" y2="738.67" stroke="#e5e7eb"/>
<text x="98" y="742.67" class="tick" text-anchor="end">76%</text>
<line x1="106" y1="692.00" x2="494" y2="692.00" stroke="#e5e7eb"/>
<text x="98" y="696.00" class="tick" text-anchor="end">114%</text>
<rect x="163.33" y="682.00" width="144" height="168.00" rx="10" fill="#fef3c7" stroke="#f59e0b" stroke-width="1.6"/>
<rect x="206.33" y="713.36" width="58" height="118.64" rx="5" fill="#2563eb" fill-opacity="1" stroke="#111827" stroke-width="3"/>
<text x="235.33" y="705.36" class="value" font-weight="800" text-anchor="middle">96.78%</text>
<text x="235.33" y="856.00" class="tick" text-anchor="middle">Infron</text>
<rect x="335.67" y="735.81" width="58" height="96.19" rx="5" fill="#f97316" fill-opacity="0.52" stroke="none" stroke-width="3"/>
<text x="364.67" y="727.81" class="value" font-weight="500" text-anchor="middle">78.46%</text>
<text x="364.67" y="856.00" class="tick" text-anchor="middle">OpenRouter</text>
<rect x="830" y="28" width="14" height="14" rx="3" fill="#2563eb"/>
<text x="852" y="40" class="label">Infron</text>
<rect x="830" y="52" width="14" height="14" rx="3" fill="#f97316"/>
<text x="852" y="64" class="label">OpenRouter</text>
</svg>