<svg xmlns="http://www.w3.org/2000/svg" width="1080" height="1000" viewBox="0 0 1080 1000"><style>text{font-family:-apple-system,BlinkMacSystemFont,'Segoe UI',sans-serif;fill:#111827}.title{font-size:22px;font-weight:700}.label{font-size:13px;fill:#374151}.tick{font-size:12px;fill:#6b7280}.value{font-size:12px;fill:#111827}</style><rect width="100%" height="100%" fill="#ffffff"/>
<text x="48" y="34" class="title">端到端 E2E 时延优先路由模式：指标生成过程对比曲线</text>
<text x="48" y="58" class="label">按 group/round 顺序绘制每轮指标；曲线展示汇总均值背后的波动过程。</text>
<rect x="48" y="76" width="472" height="245" rx="8" fill="#ffffff" stroke="#dbe3ef"/>
<text x="66" y="104" class="label" font-weight="700">端到端 E2E 时延 / 请求（含 reasoning）</text>
<rect x="366" y="88" width="136" height="26" rx="13" fill="#fef3c7" stroke="#f59e0b" stroke-width="1.4"/>
<text x="434" y="106" class="tick" font-weight="800" text-anchor="middle" fill="#92400e">均值胜出: Infron</text>
<line x1="106" y1="281.00" x2="496" y2="281.00" stroke="#e5e7eb"/>
<text x="98" y="285.00" class="tick" text-anchor="end">0.0</text>
<line x1="106" y1="228.67" x2="496" y2="228.67" stroke="#e5e7eb"/>
<text x="98" y="232.67" class="tick" text-anchor="end">4329</text>
<line x1="106" y1="176.33" x2="496" y2="176.33" stroke="#e5e7eb"/>
<text x="98" y="180.33" class="tick" text-anchor="end">8658</text>
<line x1="106" y1="124.00" x2="496" y2="124.00" stroke="#e5e7eb"/>
<text x="98" y="128.00" class="tick" text-anchor="end">12988</text>
<polyline points="106.00,250.61 110.15,255.71 114.30,260.47 118.45,219.61 122.60,256.12 126.74,243.43 130.89,261.57 135.04,259.21 139.19,237.30 143.34,229.46 147.49,257.53 151.64,243.28 155.79,253.63 159.94,237.39 164.09,249.45 168.23,253.67 172.38,256.99 176.53,246.86 180.68,256.17 184.83,254.52 188.98,248.81 193.13,264.30 197.28,259.18 201.43,261.47 205.57,259.14 209.72,265.88 213.87,260.61 218.02,258.55 222.17,247.30 226.32,254.85 230.47,263.78 234.62,261.75 238.77,250.65 242.91,254.68 247.06,261.22 251.21,263.05 255.36,262.11 259.51,265.99 263.66,267.17 267.81,256.71 271.96,239.84 276.11,262.28 280.26,267.01 284.40,259.11 288.55,248.43 292.70,263.67 296.85,263.32 301.00,265.30 305.15,267.32 309.30,266.99 313.45,253.97 317.60,257.53 321.74,265.39 325.89,246.89 330.04,265.30 334.19,258.38 338.34,259.02 342.49,259.42 346.64,259.38 350.79,257.82 354.94,263.24 359.09,260.18 363.23,264.86 367.38,258.66 371.53,262.30 375.68,245.53 379.83,262.22 383.98,263.85 388.13,266.04 392.28,251.11 396.43,243.32 400.57,259.05 404.72,262.54 408.87,262.12 413.02,247.24 417.17,264.26 421.32,257.74 425.47,263.72 429.62,255.63 433.77,260.59 437.91,265.97 442.06,261.81 446.21,264.86 450.36,265.34 454.51,258.54 458.66,261.50 462.81,262.47 466.96,257.07 471.11,264.85 475.26,259.04 479.40,251.71 483.55,246.83 487.70,213.41 491.85,259.48 496.00,257.56" fill="none" stroke="#2563eb" stroke-width="3.8" stroke-opacity="1" stroke-linejoin="round" stroke-linecap="round"/>
<circle cx="106.00" cy="250.61" r="3.0" fill="#2563eb" fill-opacity="1"/>
<circle cx="126.74" cy="243.43" r="3.0" fill="#2563eb" fill-opacity="1"/>
<circle cx="147.49" cy="257.53" r="3.0" fill="#2563eb" fill-opacity="1"/>
<circle cx="168.23" cy="253.67" r="3.0" fill="#2563eb" fill-opacity="1"/>
<circle cx="188.98" cy="248.81" r="3.0" fill="#2563eb" fill-opacity="1"/>
<circle cx="209.72" cy="265.88" r="3.0" fill="#2563eb" fill-opacity="1"/>
<circle cx="230.47" cy="263.78" r="3.0" fill="#2563eb" fill-opacity="1"/>
<circle cx="251.21" cy="263.05" r="3.0" fill="#2563eb" fill-opacity="1"/>
<circle cx="271.96" cy="239.84" r="3.0" fill="#2563eb" fill-opacity="1"/>
<circle cx="292.70" cy="263.67" r="3.0" fill="#2563eb" fill-opacity="1"/>
<circle cx="313.45" cy="253.97" r="3.0" fill="#2563eb" fill-opacity="1"/>
<circle cx="334.19" cy="258.38" r="3.0" fill="#2563eb" fill-opacity="1"/>
<circle cx="354.94" cy="263.24" r="3.0" fill="#2563eb" fill-opacity="1"/>
<circle cx="375.68" cy="245.53" r="3.0" fill="#2563eb" fill-opacity="1"/>
<circle cx="396.43" cy="243.32" r="3.0" fill="#2563eb" fill-opacity="1"/>
<circle cx="417.17" cy="264.26" r="3.0" fill="#2563eb" fill-opacity="1"/>
<circle cx="437.91" cy="265.97" r="3.0" fill="#2563eb" fill-opacity="1"/>
<circle cx="458.66" cy="261.50" r="3.0" fill="#2563eb" fill-opacity="1"/>
<circle cx="479.40" cy="251.71" r="3.0" fill="#2563eb" fill-opacity="1"/>
<polyline points="106.00,219.72 110.15,185.49 114.30,212.92 118.45,209.19 122.60,229.34 126.74,187.93 130.89,195.29 135.04,237.81 139.19,214.94 143.34,219.12 147.49,248.80 151.64,194.51 155.79,227.73 159.94,219.47 164.09,140.82 168.23,178.45 172.38,173.80 176.53,146.34 180.68,180.91 184.83,264.95 188.98,263.97 193.13,262.83 197.28,264.49 201.43,207.23 205.57,268.61 209.72,258.94 213.87,262.28 218.02,183.85 222.17,266.24 226.32,254.55 230.47,263.45 234.62,191.71 238.77,264.77 242.91,262.12 247.06,267.06 251.21,258.48 255.36,265.75 259.51,265.02 263.66,181.79 267.81,261.87 271.96,266.62 276.11,265.88 280.26,247.09 284.40,268.29 288.55,266.89 292.70,267.64 296.85,205.36 301.00,267.74 305.15,206.45 309.30,267.15 313.45,265.17 317.60,262.33 321.74,213.82 325.89,264.03 330.04,263.84 334.19,249.82 338.34,184.25 342.49,267.73 346.64,266.10 350.79,255.96 354.94,190.57 359.09,251.86 363.23,266.47 367.38,259.24 371.53,233.59 375.68,263.06 379.83,263.22 383.98,265.20 388.13,215.81 392.28,258.03 396.43,256.52 400.57,251.76 404.72,234.01 408.87,248.37 413.02,242.47 417.17,248.42 421.32,248.77 425.47,247.86 429.62,239.88 433.77,224.23 437.91,243.60 442.06,250.00 446.21,244.94 450.36,212.88 454.51,256.51 458.66,255.21 462.81,254.54 466.96,244.70 471.11,246.27 475.26,244.38 479.40,254.07 483.55,248.77 487.70,254.35 491.85,226.83 496.00,249.15" fill="none" stroke="#f97316" stroke-width="1.8" stroke-opacity="0.45" stroke-linejoin="round" stroke-linecap="round"/>
<circle cx="106.00" cy="219.72" r="1.8" fill="#f97316" fill-opacity="0.55"/>
<circle cx="126.74" cy="187.93" r="1.8" fill="#f97316" fill-opacity="0.55"/>
<circle cx="147.49" cy="248.80" r="1.8" fill="#f97316" fill-opacity="0.55"/>
<circle cx="168.23" cy="178.45" r="1.8" fill="#f97316" fill-opacity="0.55"/>
<circle cx="188.98" cy="263.97" r="1.8" fill="#f97316" fill-opacity="0.55"/>
<circle cx="209.72" cy="258.94" r="1.8" fill="#f97316" fill-opacity="0.55"/>
<circle cx="230.47" cy="263.45" r="1.8" fill="#f97316" fill-opacity="0.55"/>
<circle cx="251.21" cy="258.48" r="1.8" fill="#f97316" fill-opacity="0.55"/>
<circle cx="271.96" cy="266.62" r="1.8" fill="#f97316" fill-opacity="0.55"/>
<circle cx="292.70" cy="267.64" r="1.8" fill="#f97316" fill-opacity="0.55"/>
<circle cx="313.45" cy="265.17" r="1.8" fill="#f97316" fill-opacity="0.55"/>
<circle cx="334.19" cy="249.82" r="1.8" fill="#f97316" fill-opacity="0.55"/>
<circle cx="354.94" cy="190.57" r="1.8" fill="#f97316" fill-opacity="0.55"/>
<circle cx="375.68" cy="263.06" r="1.8" fill="#f97316" fill-opacity="0.55"/>
<circle cx="396.43" cy="256.52" r="1.8" fill="#f97316" fill-opacity="0.55"/>
<circle cx="417.17" cy="248.42" r="1.8" fill="#f97316" fill-opacity="0.55"/>
<circle cx="437.91" cy="243.60" r="1.8" fill="#f97316" fill-opacity="0.55"/>
<circle cx="458.66" cy="255.21" r="1.8" fill="#f97316" fill-opacity="0.55"/>
<circle cx="479.40" cy="254.07" r="1.8" fill="#f97316" fill-opacity="0.55"/>
<text x="496" y="306" class="tick" text-anchor="end">Round 序列；越低越好</text>
<rect x="560" y="76" width="472" height="245" rx="8" fill="#ffffff" stroke="#dbe3ef"/>
<text x="578" y="104" class="label" font-weight="700">流式 TTFT / 首包响应</text>
<rect x="878" y="88" width="136" height="26" rx="13" fill="#fef3c7" stroke="#f59e0b" stroke-width="1.4"/>
<text x="946" y="106" class="tick" font-weight="800" text-anchor="middle" fill="#92400e">均值胜出: Infron</text>
<line x1="618" y1="281.00" x2="1008" y2="281.00" stroke="#e5e7eb"/>
<text x="610" y="285.00" class="tick" text-anchor="end">0.0</text>
<line x1="618" y1="228.67" x2="1008" y2="228.67" stroke="#e5e7eb"/>
<text x="610" y="232.67" class="tick" text-anchor="end">3018</text>
<line x1="618" y1="176.33" x2="1008" y2="176.33" stroke="#e5e7eb"/>
<text x="610" y="180.33" class="tick" text-anchor="end">6037</text>
<line x1="618" y1="124.00" x2="1008" y2="124.00" stroke="#e5e7eb"/>
<text x="610" y="128.00" class="tick" text-anchor="end">9055</text>
<polyline points="618.00,250.72 622.15,257.94 626.30,256.33 630.45,202.65 634.60,251.41 638.74,231.60 642.89,258.77 647.04,252.94 651.19,224.76 655.34,218.26 659.49,256.09 663.64,240.08 667.79,253.53 671.94,231.20 676.09,253.31 680.23,247.18 684.38,250.42 688.53,245.23 692.68,255.07 696.83,252.33 700.98,240.36 705.13,263.02 709.28,262.05 713.43,259.17 717.57,254.67 721.72,264.05 725.87,264.19 730.02,259.60 734.17,251.41 738.32,250.92 742.47,258.61 746.62,261.07 750.77,245.71 754.91,250.32 759.06,260.87 763.21,259.17 767.36,260.48 771.51,262.91 775.66,264.78 779.81,256.90 783.96,243.91 788.11,263.04 792.26,264.83 796.40,257.22 800.55,252.49 804.70,262.07 808.85,263.29 813.00,265.13 817.15,265.11 821.30,265.41 825.45,251.89 829.60,252.93 833.74,262.59 837.89,241.60 842.04,264.63 846.19,259.34 850.34,253.07 854.49,256.21 858.64,255.27 862.79,257.61 866.94,258.24 871.09,259.09 875.23,262.17 879.38,255.44 883.53,262.80 887.68,243.04 891.83,263.69 895.98,262.41 900.13,263.81 904.28,248.96 908.43,235.47 912.57,256.55 916.72,260.87 920.87,262.37 925.02,253.05 929.17,261.78 933.32,256.52 937.47,260.07 941.62,254.57 945.77,259.45 949.91,264.79 954.06,255.75 958.21,263.33 962.36,265.56 966.51,256.19 970.66,259.75 974.81,261.84 978.96,255.61 983.11,263.10 987.26,255.32 991.40,247.69 995.55,237.75 999.70,192.62 1003.85,257.42 1008.00,252.94" fill="none" stroke="#2563eb" stroke-width="3.8" stroke-opacity="1" stroke-linejoin="round" stroke-linecap="round"/>
<circle cx="618.00" cy="250.72" r="3.0" fill="#2563eb" fill-opacity="1"/>
<circle cx="638.74" cy="231.60" r="3.0" fill="#2563eb" fill-opacity="1"/>
<circle cx="659.49" cy="256.09" r="3.0" fill="#2563eb" fill-opacity="1"/>
<circle cx="680.23" cy="247.18" r="3.0" fill="#2563eb" fill-opacity="1"/>
<circle cx="700.98" cy="240.36" r="3.0" fill="#2563eb" fill-opacity="1"/>
<circle cx="721.72" cy="264.05" r="3.0" fill="#2563eb" fill-opacity="1"/>
<circle cx="742.47" cy="258.61" r="3.0" fill="#2563eb" fill-opacity="1"/>
<circle cx="763.21" cy="259.17" r="3.0" fill="#2563eb" fill-opacity="1"/>
<circle cx="783.96" cy="243.91" r="3.0" fill="#2563eb" fill-opacity="1"/>
<circle cx="804.70" cy="262.07" r="3.0" fill="#2563eb" fill-opacity="1"/>
<circle cx="825.45" cy="251.89" r="3.0" fill="#2563eb" fill-opacity="1"/>
<circle cx="846.19" cy="259.34" r="3.0" fill="#2563eb" fill-opacity="1"/>
<circle cx="866.94" cy="258.24" r="3.0" fill="#2563eb" fill-opacity="1"/>
<circle cx="887.68" cy="243.04" r="3.0" fill="#2563eb" fill-opacity="1"/>
<circle cx="908.43" cy="235.47" r="3.0" fill="#2563eb" fill-opacity="1"/>
<circle cx="929.17" cy="261.78" r="3.0" fill="#2563eb" fill-opacity="1"/>
<circle cx="949.91" cy="264.79" r="3.0" fill="#2563eb" fill-opacity="1"/>
<circle cx="970.66" cy="259.75" r="3.0" fill="#2563eb" fill-opacity="1"/>
<circle cx="991.40" cy="247.69" r="3.0" fill="#2563eb" fill-opacity="1"/>
<polyline points="618.00,215.75 622.15,215.64 626.30,233.71 630.45,222.30 634.60,237.12 638.74,233.78 642.89,200.79 647.04,230.64 651.19,219.85 655.34,249.52 659.49,239.03 663.64,166.61 667.79,239.99 671.94,232.56 676.09,188.51 680.23,146.08 684.38,203.13 688.53,161.86 692.68,140.82 696.83,259.78 700.98,256.95 705.13,260.02 709.28,259.75 713.43,220.45 717.57,263.54 721.72,254.72 725.87,261.17 730.02,147.87 734.17,260.20 738.32,253.39 742.47,257.45 746.62,203.84 750.77,258.17 754.91,255.00 759.06,262.82 763.21,249.66 767.36,262.00 771.51,259.84 775.66,162.21 779.81,258.94 783.96,262.60 788.11,261.26 792.26,238.94 796.40,263.17 800.55,263.45 804.70,263.89 808.85,181.99 813.00,262.69 817.15,231.87 821.30,261.53 825.45,260.57 829.60,262.73 833.74,226.47 837.89,256.88 842.04,259.24 846.19,240.52 850.34,162.81 854.49,262.27 858.64,261.84 862.79,247.72 866.94,221.98 871.09,239.65 875.23,261.93 879.38,252.27 883.53,222.97 887.68,256.17 891.83,257.65 895.98,263.92 900.13,196.12 904.28,248.58 908.43,248.61 912.57,241.14 916.72,219.64 920.87,234.68 925.02,228.41 929.17,236.36 933.32,234.94 937.47,234.35 941.62,224.83 945.77,209.57 949.91,227.94 954.06,238.49 958.21,232.65 962.36,208.65 966.51,249.28 970.66,247.18 974.81,246.30 978.96,229.60 983.11,236.56 987.26,232.04 991.40,243.66 995.55,237.95 999.70,248.68 1003.85,213.32 1008.00,235.79" fill="none" stroke="#f97316" stroke-width="1.8" stroke-opacity="0.45" stroke-linejoin="round" stroke-linecap="round"/>
<circle cx="618.00" cy="215.75" r="1.8" fill="#f97316" fill-opacity="0.55"/>
<circle cx="638.74" cy="233.78" r="1.8" fill="#f97316" fill-opacity="0.55"/>
<circle cx="659.49" cy="239.03" r="1.8" fill="#f97316" fill-opacity="0.55"/>
<circle cx="680.23" cy="146.08" r="1.8" fill="#f97316" fill-opacity="0.55"/>
<circle cx="700.98" cy="256.95" r="1.8" fill="#f97316" fill-opacity="0.55"/>
<circle cx="721.72" cy="254.72" r="1.8" fill="#f97316" fill-opacity="0.55"/>
<circle cx="742.47" cy="257.45" r="1.8" fill="#f97316" fill-opacity="0.55"/>
<circle cx="763.21" cy="249.66" r="1.8" fill="#f97316" fill-opacity="0.55"/>
<circle cx="783.96" cy="262.60" r="1.8" fill="#f97316" fill-opacity="0.55"/>
<circle cx="804.70" cy="263.89" r="1.8" fill="#f97316" fill-opacity="0.55"/>
<circle cx="825.45" cy="260.57" r="1.8" fill="#f97316" fill-opacity="0.55"/>
<circle cx="846.19" cy="240.52" r="1.8" fill="#f97316" fill-opacity="0.55"/>
<circle cx="866.94" cy="221.98" r="1.8" fill="#f97316" fill-opacity="0.55"/>
<circle cx="887.68" cy="256.17" r="1.8" fill="#f97316" fill-opacity="0.55"/>
<circle cx="908.43" cy="248.61" r="1.8" fill="#f97316" fill-opacity="0.55"/>
<circle cx="929.17" cy="236.36" r="1.8" fill="#f97316" fill-opacity="0.55"/>
<circle cx="949.91" cy="227.94" r="1.8" fill="#f97316" fill-opacity="0.55"/>
<circle cx="970.66" cy="247.18" r="1.8" fill="#f97316" fill-opacity="0.55"/>
<circle cx="991.40" cy="243.66" r="1.8" fill="#f97316" fill-opacity="0.55"/>
<text x="1008" y="306" class="tick" text-anchor="end">Round 序列；越低越好</text>
<rect x="48" y="379" width="472" height="245" rx="8" fill="#ffffff" stroke="#dbe3ef"/>
<text x="66" y="407" class="label" font-weight="700">响应吞吐量（含 reasoning）</text>
<rect x="366" y="391" width="136" height="26" rx="13" fill="#fef3c7" stroke="#f59e0b" stroke-width="1.4"/>
<text x="434" y="409" class="tick" font-weight="800" text-anchor="middle" fill="#92400e">均值胜出: OpenRouter</text>
<line x1="106" y1="584.00" x2="496" y2="584.00" stroke="#e5e7eb"/>
<text x="98" y="588.00" class="tick" text-anchor="end">0.0</text>
<line x1="106" y1="531.67" x2="496" y2="531.67" stroke="#e5e7eb"/>
<text x="98" y="535.67" class="tick" text-anchor="end">26.4</text>
<line x1="106" y1="479.33" x2="496" y2="479.33" stroke="#e5e7eb"/>
<text x="98" y="483.33" class="tick" text-anchor="end">52.8</text>
<line x1="106" y1="427.00" x2="496" y2="427.00" stroke="#e5e7eb"/>
<text x="98" y="431.00" class="tick" text-anchor="end">79.2</text>
<polyline points="106.00,571.39 110.15,568.85 114.30,565.33 118.45,577.76 122.60,568.59 126.74,573.80 130.89,564.27 135.04,566.41 139.19,575.23 143.34,576.56 147.49,567.67 151.64,573.84 155.79,569.99 159.94,575.21 164.09,571.85 168.23,569.98 172.38,568.04 176.53,572.77 180.68,568.56 184.83,569.52 188.98,572.09 193.13,561.04 197.28,566.43 201.43,564.37 205.57,566.47 209.72,558.65 213.87,565.20 218.02,566.93 222.17,572.63 226.32,569.34 230.47,561.74 234.62,564.09 238.77,571.37 242.91,569.44 247.06,564.62 251.21,562.64 255.36,563.71 259.51,558.46 263.66,556.28 267.81,568.22 271.96,574.69 276.11,563.53 280.26,556.61 284.40,566.49 288.55,572.23 292.70,561.88 296.85,562.33 301.00,559.59 305.15,555.98 309.30,556.64 313.45,569.82 317.60,567.67 321.74,559.45 325.89,572.76 330.04,559.58 334.19,567.06 338.34,566.56 342.49,566.24 346.64,566.27 350.79,567.46 354.94,562.41 359.09,565.59 363.23,560.25 367.38,566.85 371.53,563.50 375.68,573.20 379.83,563.59 383.98,561.65 388.13,558.38 392.28,571.18 396.43,573.83 400.57,566.54 404.72,563.23 408.87,563.70 413.02,572.65 417.17,561.11 421.32,567.52 425.47,561.82 429.62,568.89 433.77,565.22 437.91,558.50 442.06,564.03 446.21,560.26 450.36,559.52 454.51,566.94 458.66,564.35 462.81,563.32 466.96,567.99 471.11,560.27 475.26,566.55 479.40,570.91 483.55,572.78 487.70,578.33 491.85,566.19 496.00,567.65" fill="none" stroke="#2563eb" stroke-width="1.8" stroke-opacity="0.45" stroke-linejoin="round" stroke-linecap="round"/>
<circle cx="106.00" cy="571.39" r="1.8" fill="#2563eb" fill-opacity="0.55"/>
<circle cx="126.74" cy="573.80" r="1.8" fill="#2563eb" fill-opacity="0.55"/>
<circle cx="147.49" cy="567.67" r="1.8" fill="#2563eb" fill-opacity="0.55"/>
<circle cx="168.23" cy="569.98" r="1.8" fill="#2563eb" fill-opacity="0.55"/>
<circle cx="188.98" cy="572.09" r="1.8" fill="#2563eb" fill-opacity="0.55"/>
<circle cx="209.72" cy="558.65" r="1.8" fill="#2563eb" fill-opacity="0.55"/>
<circle cx="230.47" cy="561.74" r="1.8" fill="#2563eb" fill-opacity="0.55"/>
<circle cx="251.21" cy="562.64" r="1.8" fill="#2563eb" fill-opacity="0.55"/>
<circle cx="271.96" cy="574.69" r="1.8" fill="#2563eb" fill-opacity="0.55"/>
<circle cx="292.70" cy="561.88" r="1.8" fill="#2563eb" fill-opacity="0.55"/>
<circle cx="313.45" cy="569.82" r="1.8" fill="#2563eb" fill-opacity="0.55"/>
<circle cx="334.19" cy="567.06" r="1.8" fill="#2563eb" fill-opacity="0.55"/>
<circle cx="354.94" cy="562.41" r="1.8" fill="#2563eb" fill-opacity="0.55"/>
<circle cx="375.68" cy="573.20" r="1.8" fill="#2563eb" fill-opacity="0.55"/>
<circle cx="396.43" cy="573.83" r="1.8" fill="#2563eb" fill-opacity="0.55"/>
<circle cx="417.17" cy="561.11" r="1.8" fill="#2563eb" fill-opacity="0.55"/>
<circle cx="437.91" cy="558.50" r="1.8" fill="#2563eb" fill-opacity="0.55"/>
<circle cx="458.66" cy="564.35" r="1.8" fill="#2563eb" fill-opacity="0.55"/>
<circle cx="479.40" cy="570.91" r="1.8" fill="#2563eb" fill-opacity="0.55"/>
<polyline points="106.00,547.06 110.15,535.60 114.30,500.78 118.45,532.46 122.60,513.06 126.74,455.18 130.89,548.64 135.04,548.78 139.19,529.06 143.34,465.94 147.49,572.10 151.64,562.40 155.79,513.17 159.94,492.12 164.09,510.69 168.23,571.74 172.38,524.11 176.53,550.11 180.68,580.29 184.83,560.12 188.98,578.37 193.13,564.22 197.28,560.79 201.43,517.76 205.57,576.26 209.72,567.71 213.87,563.53 218.02,580.05 222.17,577.51 226.32,571.77 230.47,562.17 234.62,443.82 238.77,578.10 242.91,564.97 247.06,556.50 251.21,579.75 255.36,561.22 259.51,560.02 263.66,557.44 267.81,578.99 271.96,559.02 276.11,558.65 280.26,572.70 284.40,576.46 288.55,561.07 292.70,555.30 296.85,578.93 301.00,576.77 305.15,480.38 309.30,577.08 313.45,561.30 317.60,563.47 321.74,510.37 325.89,578.35 330.04,565.15 334.19,571.71 338.34,565.55 342.49,576.78 346.64,561.49 350.79,568.69 354.94,479.49 359.09,580.71 363.23,560.92 367.38,566.39 371.53,575.92 375.68,578.66 379.83,563.79 383.98,559.75 388.13,578.12 392.28,579.83 396.43,569.32 400.57,570.89 404.72,575.84 408.87,581.06 413.02,574.67 417.17,572.24 421.32,581.03 425.47,573.16 429.62,574.68 433.77,577.25 437.91,581.44 442.06,573.57 446.21,573.37 450.36,557.63 454.51,580.09 458.66,570.53 462.81,569.52 466.96,581.36 471.11,573.65 475.26,573.53 479.40,580.44 483.55,573.97 487.70,569.62 491.85,576.92 496.00,580.99" fill="none" stroke="#f97316" stroke-width="3.8" stroke-opacity="1" stroke-linejoin="round" stroke-linecap="round"/>
<circle cx="106.00" cy="547.06" r="3.0" fill="#f97316" fill-opacity="1"/>
<circle cx="126.74" cy="455.18" r="3.0" fill="#f97316" fill-opacity="1"/>
<circle cx="147.49" cy="572.10" r="3.0" fill="#f97316" fill-opacity="1"/>
<circle cx="168.23" cy="571.74" r="3.0" fill="#f97316" fill-opacity="1"/>
<circle cx="188.98" cy="578.37" r="3.0" fill="#f97316" fill-opacity="1"/>
<circle cx="209.72" cy="567.71" r="3.0" fill="#f97316" fill-opacity="1"/>
<circle cx="230.47" cy="562.17" r="3.0" fill="#f97316" fill-opacity="1"/>
<circle cx="251.21" cy="579.75" r="3.0" fill="#f97316" fill-opacity="1"/>
<circle cx="271.96" cy="559.02" r="3.0" fill="#f97316" fill-opacity="1"/>
<circle cx="292.70" cy="555.30" r="3.0" fill="#f97316" fill-opacity="1"/>
<circle cx="313.45" cy="561.30" r="3.0" fill="#f97316" fill-opacity="1"/>
<circle cx="334.19" cy="571.71" r="3.0" fill="#f97316" fill-opacity="1"/>
<circle cx="354.94" cy="479.49" r="3.0" fill="#f97316" fill-opacity="1"/>
<circle cx="375.68" cy="578.66" r="3.0" fill="#f97316" fill-opacity="1"/>
<circle cx="396.43" cy="569.32" r="3.0" fill="#f97316" fill-opacity="1"/>
<circle cx="417.17" cy="572.24" r="3.0" fill="#f97316" fill-opacity="1"/>
<circle cx="437.91" cy="581.44" r="3.0" fill="#f97316" fill-opacity="1"/>
<circle cx="458.66" cy="570.53" r="3.0" fill="#f97316" fill-opacity="1"/>
<circle cx="479.40" cy="580.44" r="3.0" fill="#f97316" fill-opacity="1"/>
<text x="496" y="609" class="tick" text-anchor="end">Round 序列；越高越好</text>
<rect x="560" y="379" width="472" height="245" rx="8" fill="#ffffff" stroke="#dbe3ef"/>
<text x="578" y="407" class="label" font-weight="700">实际成本 / 轮</text>
<rect x="878" y="391" width="136" height="26" rx="13" fill="#fef3c7" stroke="#f59e0b" stroke-width="1.4"/>
<text x="946" y="409" class="tick" font-weight="800" text-anchor="middle" fill="#92400e">均值胜出: Infron</text>
<line x1="618" y1="584.00" x2="1008" y2="584.00" stroke="#e5e7eb"/>
<text x="610" y="588.00" class="tick" text-anchor="end">$0.0000</text>
<line x1="618" y1="531.67" x2="1008" y2="531.67" stroke="#e5e7eb"/>
<text x="610" y="535.67" class="tick" text-anchor="end">$0.0002</text>
<line x1="618" y1="479.33" x2="1008" y2="479.33" stroke="#e5e7eb"/>
<text x="610" y="483.33" class="tick" text-anchor="end">$0.0004</text>
<line x1="618" y1="427.00" x2="1008" y2="427.00" stroke="#e5e7eb"/>
<text x="610" y="431.00" class="tick" text-anchor="end">$0.0005</text>
<polyline points="618.00,497.72 622.15,551.16 626.30,497.43 630.45,497.72 634.60,551.16 638.74,551.16 642.89,551.16 647.04,551.16 651.19,551.16 655.34,551.16 659.49,551.16 663.64,551.16 667.79,551.16 671.94,551.16 676.09,551.16 680.23,551.16 684.38,551.16 688.53,551.16 692.68,551.16 696.83,551.16 700.98,551.16 705.13,551.16 709.28,551.16 713.43,551.16 717.57,497.43 721.72,551.16 725.87,551.16 730.02,551.16 734.17,551.16 738.32,551.16 742.47,551.16 746.62,551.16 750.77,551.16 754.91,551.16 759.06,551.16 763.21,551.16 767.36,497.43 771.51,551.16 775.66,551.16 779.81,551.16 783.96,551.16 788.11,551.16 792.26,551.16 796.40,551.16 800.55,551.16 804.70,551.16 808.85,551.16 813.00,551.16 817.15,551.16 821.30,551.16 825.45,551.16 829.60,551.16 833.74,551.16 837.89,551.16 842.04,551.16 846.19,551.16 850.34,551.16 854.49,551.16 858.64,551.16 862.79,551.16 866.94,551.16 871.09,551.16 875.23,551.16 879.38,551.16 883.53,551.16 887.68,551.16 891.83,551.16 895.98,551.16 900.13,551.16 904.28,551.16 908.43,551.16 912.57,551.16 916.72,551.16 920.87,551.16 925.02,551.16 929.17,551.16 933.32,551.16 937.47,551.16 941.62,551.16 945.77,551.16 949.91,551.16 954.06,497.43 958.21,551.16 962.36,551.16 966.51,551.16 970.66,551.16 974.81,551.16 978.96,551.16 983.11,551.16 987.26,551.16 991.40,551.16 995.55,551.16 999.70,551.16 1003.85,551.16 1008.00,551.16" fill="none" stroke="#2563eb" stroke-width="3.8" stroke-opacity="1" stroke-linejoin="round" stroke-linecap="round"/>
<circle cx="618.00" cy="497.72" r="3.0" fill="#2563eb" fill-opacity="1"/>
<circle cx="638.74" cy="551.16" r="3.0" fill="#2563eb" fill-opacity="1"/>
<circle cx="659.49" cy="551.16" r="3.0" fill="#2563eb" fill-opacity="1"/>
<circle cx="680.23" cy="551.16" r="3.0" fill="#2563eb" fill-opacity="1"/>
<circle cx="700.98" cy="551.16" r="3.0" fill="#2563eb" fill-opacity="1"/>
<circle cx="721.72" cy="551.16" r="3.0" fill="#2563eb" fill-opacity="1"/>
<circle cx="742.47" cy="551.16" r="3.0" fill="#2563eb" fill-opacity="1"/>
<circle cx="763.21" cy="551.16" r="3.0" fill="#2563eb" fill-opacity="1"/>
<circle cx="783.96" cy="551.16" r="3.0" fill="#2563eb" fill-opacity="1"/>
<circle cx="804.70" cy="551.16" r="3.0" fill="#2563eb" fill-opacity="1"/>
<circle cx="825.45" cy="551.16" r="3.0" fill="#2563eb" fill-opacity="1"/>
<circle cx="846.19" cy="551.16" r="3.0" fill="#2563eb" fill-opacity="1"/>
<circle cx="866.94" cy="551.16" r="3.0" fill="#2563eb" fill-opacity="1"/>
<circle cx="887.68" cy="551.16" r="3.0" fill="#2563eb" fill-opacity="1"/>
<circle cx="908.43" cy="551.16" r="3.0" fill="#2563eb" fill-opacity="1"/>
<circle cx="929.17" cy="551.16" r="3.0" fill="#2563eb" fill-opacity="1"/>
<circle cx="949.91" cy="551.16" r="3.0" fill="#2563eb" fill-opacity="1"/>
<circle cx="970.66" cy="551.16" r="3.0" fill="#2563eb" fill-opacity="1"/>
<circle cx="991.40" cy="551.16" r="3.0" fill="#2563eb" fill-opacity="1"/>
<polyline points="618.00,512.63 622.15,500.87 626.30,459.95 630.45,505.84 634.60,526.65 638.74,461.90 642.89,538.40 647.04,516.49 651.19,538.75 655.34,464.04 659.49,557.29 663.64,547.58 667.79,535.06 671.94,528.62 676.09,503.00 680.23,493.86 684.38,525.11 688.53,533.95 692.68,500.56 696.83,495.76 700.98,548.46 705.13,546.54 709.28,547.12 713.43,529.62 717.57,548.46 721.72,546.54 725.87,547.12 730.02,444.07 734.17,548.46 738.32,546.79 742.47,495.76 746.62,495.33 750.77,497.10 754.91,443.82 759.06,495.76 763.21,497.10 767.36,443.91 771.51,444.41 775.66,543.60 779.81,497.10 783.96,546.54 788.11,547.12 792.26,557.58 796.40,548.46 800.55,546.79 804.70,547.12 808.85,557.58 813.00,548.46 817.15,518.73 821.30,548.46 825.45,546.54 829.60,547.12 833.74,532.31 837.89,548.46 842.04,546.79 846.19,547.12 850.34,547.76 854.49,548.46 858.64,546.70 862.79,547.12 866.94,507.33 871.09,548.46 875.23,546.70 879.38,547.12 883.53,557.58 887.68,548.46 891.83,546.54 895.98,547.12 900.13,557.58 904.28,548.46 908.43,546.54 912.57,547.12 916.72,557.58 920.87,548.46 925.02,546.54 929.17,547.12 933.32,548.46 937.47,546.54 941.62,547.12 945.77,557.58 949.91,548.46 954.06,546.79 958.21,547.12 962.36,547.70 966.51,548.46 970.66,546.62 974.81,547.12 978.96,497.10 983.11,495.18 987.26,495.76 991.40,548.46 995.55,546.79 999.70,495.76 1003.85,557.58 1008.00,497.10" fill="none" stroke="#f97316" stroke-width="1.8" stroke-opacity="0.45" stroke-linejoin="round" stroke-linecap="round"/>
<circle cx="618.00" cy="512.63" r="1.8" fill="#f97316" fill-opacity="0.55"/>
<circle cx="638.74" cy="461.90" r="1.8" fill="#f97316" fill-opacity="0.55"/>
<circle cx="659.49" cy="557.29" r="1.8" fill="#f97316" fill-opacity="0.55"/>
<circle cx="680.23" cy="493.86" r="1.8" fill="#f97316" fill-opacity="0.55"/>
<circle cx="700.98" cy="548.46" r="1.8" fill="#f97316" fill-opacity="0.55"/>
<circle cx="721.72" cy="546.54" r="1.8" fill="#f97316" fill-opacity="0.55"/>
<circle cx="742.47" cy="495.76" r="1.8" fill="#f97316" fill-opacity="0.55"/>
<circle cx="763.21" cy="497.10" r="1.8" fill="#f97316" fill-opacity="0.55"/>
<circle cx="783.96" cy="546.54" r="1.8" fill="#f97316" fill-opacity="0.55"/>
<circle cx="804.70" cy="547.12" r="1.8" fill="#f97316" fill-opacity="0.55"/>
<circle cx="825.45" cy="546.54" r="1.8" fill="#f97316" fill-opacity="0.55"/>
<circle cx="846.19" cy="547.12" r="1.8" fill="#f97316" fill-opacity="0.55"/>
<circle cx="866.94" cy="507.33" r="1.8" fill="#f97316" fill-opacity="0.55"/>
<circle cx="887.68" cy="548.46" r="1.8" fill="#f97316" fill-opacity="0.55"/>
<circle cx="908.43" cy="546.54" r="1.8" fill="#f97316" fill-opacity="0.55"/>
<circle cx="929.17" cy="547.12" r="1.8" fill="#f97316" fill-opacity="0.55"/>
<circle cx="949.91" cy="548.46" r="1.8" fill="#f97316" fill-opacity="0.55"/>
<circle cx="970.66" cy="546.62" r="1.8" fill="#f97316" fill-opacity="0.55"/>
<circle cx="991.40" cy="548.46" r="1.8" fill="#f97316" fill-opacity="0.55"/>
<text x="1008" y="609" class="tick" text-anchor="end">Round 序列；越低越好</text>
<rect x="48" y="682" width="472" height="245" rx="8" fill="#ffffff" stroke="#dbe3ef"/>
<text x="66" y="710" class="label" font-weight="700">Token 级缓存命中率</text>
<rect x="366" y="694" width="136" height="26" rx="13" fill="#fef3c7" stroke="#f59e0b" stroke-width="1.4"/>
<text x="434" y="712" class="tick" font-weight="800" text-anchor="middle" fill="#92400e">均值胜出: Infron</text>
<line x1="106" y1="887.00" x2="496" y2="887.00" stroke="#e5e7eb"/>
<text x="98" y="891.00" class="tick" text-anchor="end">0%</text>
<line x1="106" y1="834.67" x2="496" y2="834.67" stroke="#e5e7eb"/>
<text x="98" y="838.67" class="tick" text-anchor="end">37%</text>
<line x1="106" y1="782.33" x2="496" y2="782.33" stroke="#e5e7eb"/>
<text x="98" y="786.33" class="tick" text-anchor="end">75%</text>
<line x1="106" y1="730.00" x2="496" y2="730.00" stroke="#e5e7eb"/>
<text x="98" y="734.00" class="tick" text-anchor="end">112%</text>
<polyline points="106.00,746.82 110.15,746.82 114.30,746.82 118.45,746.82 122.60,746.82 126.74,746.82 130.89,746.82 135.04,746.82 139.19,746.82 143.34,746.82 147.49,746.82 151.64,746.82 155.79,746.82 159.94,746.82 164.09,746.82 168.23,746.82 172.38,746.82 176.53,746.82 180.68,746.82 184.83,746.82 188.98,746.82 193.13,746.82 197.28,746.82 201.43,746.82 205.57,887.00 209.72,746.82 213.87,746.82 218.02,746.82 222.17,746.82 226.32,746.82 230.47,746.82 234.62,746.82 238.77,746.82 242.91,746.82 247.06,746.82 251.21,746.82 255.36,887.00 259.51,746.82 263.66,746.82 267.81,746.82 271.96,746.82 276.11,746.82 280.26,746.82 284.40,746.82 288.55,746.82 292.70,746.82 296.85,746.82 301.00,746.82 305.15,746.82 309.30,746.82 313.45,746.82 317.60,746.82 321.74,746.82 325.89,746.82 330.04,746.82 334.19,746.82 338.34,746.82 342.49,746.82 346.64,746.82 350.79,746.82 354.94,746.82 359.09,746.82 363.23,746.82 367.38,746.82 371.53,746.82 375.68,746.82 379.83,746.82 383.98,746.82 388.13,746.82 392.28,746.82 396.43,746.82 400.57,746.82 404.72,746.82 408.87,746.82 413.02,746.82 417.17,746.82 421.32,746.82 425.47,746.82 429.62,746.82 433.77,746.82 437.91,746.82 442.06,887.00 446.21,746.82 450.36,746.82 454.51,746.82 458.66,746.82 462.81,746.82 466.96,746.82 471.11,746.82 475.26,746.82 479.40,746.82 483.55,746.82 487.70,746.82 491.85,746.82 496.00,746.82" fill="none" stroke="#2563eb" stroke-width="3.8" stroke-opacity="1" stroke-linejoin="round" stroke-linecap="round"/>
<circle cx="106.00" cy="746.82" r="3.0" fill="#2563eb" fill-opacity="1"/>
<circle cx="126.74" cy="746.82" r="3.0" fill="#2563eb" fill-opacity="1"/>
<circle cx="147.49" cy="746.82" r="3.0" fill="#2563eb" fill-opacity="1"/>
<circle cx="168.23" cy="746.82" r="3.0" fill="#2563eb" fill-opacity="1"/>
<circle cx="188.98" cy="746.82" r="3.0" fill="#2563eb" fill-opacity="1"/>
<circle cx="209.72" cy="746.82" r="3.0" fill="#2563eb" fill-opacity="1"/>
<circle cx="230.47" cy="746.82" r="3.0" fill="#2563eb" fill-opacity="1"/>
<circle cx="251.21" cy="746.82" r="3.0" fill="#2563eb" fill-opacity="1"/>
<circle cx="271.96" cy="746.82" r="3.0" fill="#2563eb" fill-opacity="1"/>
<circle cx="292.70" cy="746.82" r="3.0" fill="#2563eb" fill-opacity="1"/>
<circle cx="313.45" cy="746.82" r="3.0" fill="#2563eb" fill-opacity="1"/>
<circle cx="334.19" cy="746.82" r="3.0" fill="#2563eb" fill-opacity="1"/>
<circle cx="354.94" cy="746.82" r="3.0" fill="#2563eb" fill-opacity="1"/>
<circle cx="375.68" cy="746.82" r="3.0" fill="#2563eb" fill-opacity="1"/>
<circle cx="396.43" cy="746.82" r="3.0" fill="#2563eb" fill-opacity="1"/>
<circle cx="417.17" cy="746.82" r="3.0" fill="#2563eb" fill-opacity="1"/>
<circle cx="437.91" cy="746.82" r="3.0" fill="#2563eb" fill-opacity="1"/>
<circle cx="458.66" cy="746.82" r="3.0" fill="#2563eb" fill-opacity="1"/>
<circle cx="479.40" cy="746.82" r="3.0" fill="#2563eb" fill-opacity="1"/>
<polyline points="106.00,755.79 110.15,887.00 114.30,887.00 118.45,755.47 122.60,766.73 126.74,767.02 130.89,767.09 135.04,755.47 139.19,755.79 143.34,887.00 147.49,756.19 151.64,766.43 155.79,766.73 159.94,767.02 164.09,767.09 168.23,887.00 172.38,755.79 176.53,767.02 180.68,887.00 184.83,755.47 188.98,756.11 193.13,756.19 197.28,755.47 201.43,766.73 205.57,756.11 209.72,756.19 213.87,755.47 218.02,887.00 222.17,756.11 226.32,756.19 230.47,887.00 234.62,766.73 238.77,756.11 242.91,887.00 247.06,887.00 251.21,756.11 255.36,887.00 259.51,887.00 263.66,766.73 267.81,756.11 271.96,756.19 276.11,755.47 280.26,755.79 284.40,756.11 288.55,756.19 292.70,755.47 296.85,755.79 301.00,756.11 305.15,766.73 309.30,756.11 313.45,756.19 317.60,755.47 321.74,766.73 325.89,756.11 330.04,756.19 334.19,755.47 338.34,766.73 342.49,756.11 346.64,756.19 350.79,755.47 354.94,766.73 359.09,756.11 363.23,756.19 367.38,755.47 371.53,755.79 375.68,756.11 379.83,756.19 383.98,755.47 388.13,755.79 392.28,756.11 396.43,756.19 400.57,755.47 404.72,755.79 408.87,756.11 413.02,756.19 417.17,755.47 421.32,756.11 425.47,756.19 429.62,755.47 433.77,755.79 437.91,756.11 442.06,756.19 446.21,755.47 450.36,755.79 454.51,756.11 458.66,756.19 462.81,755.47 466.96,887.00 471.11,887.00 475.26,755.47 479.40,756.11 483.55,756.19 487.70,887.00 491.85,755.79 496.00,756.11" fill="none" stroke="#f97316" stroke-width="1.8" stroke-opacity="0.45" stroke-linejoin="round" stroke-linecap="round"/>
<circle cx="106.00" cy="755.79" r="1.8" fill="#f97316" fill-opacity="0.55"/>
<circle cx="126.74" cy="767.02" r="1.8" fill="#f97316" fill-opacity="0.55"/>
<circle cx="147.49" cy="756.19" r="1.8" fill="#f97316" fill-opacity="0.55"/>
<circle cx="168.23" cy="887.00" r="1.8" fill="#f97316" fill-opacity="0.55"/>
<circle cx="188.98" cy="756.11" r="1.8" fill="#f97316" fill-opacity="0.55"/>
<circle cx="209.72" cy="756.19" r="1.8" fill="#f97316" fill-opacity="0.55"/>
<circle cx="230.47" cy="887.00" r="1.8" fill="#f97316" fill-opacity="0.55"/>
<circle cx="251.21" cy="756.11" r="1.8" fill="#f97316" fill-opacity="0.55"/>
<circle cx="271.96" cy="756.19" r="1.8" fill="#f97316" fill-opacity="0.55"/>
<circle cx="292.70" cy="755.47" r="1.8" fill="#f97316" fill-opacity="0.55"/>
<circle cx="313.45" cy="756.19" r="1.8" fill="#f97316" fill-opacity="0.55"/>
<circle cx="334.19" cy="755.47" r="1.8" fill="#f97316" fill-opacity="0.55"/>
<circle cx="354.94" cy="766.73" r="1.8" fill="#f97316" fill-opacity="0.55"/>
<circle cx="375.68" cy="756.11" r="1.8" fill="#f97316" fill-opacity="0.55"/>
<circle cx="396.43" cy="756.19" r="1.8" fill="#f97316" fill-opacity="0.55"/>
<circle cx="417.17" cy="755.47" r="1.8" fill="#f97316" fill-opacity="0.55"/>
<circle cx="437.91" cy="756.11" r="1.8" fill="#f97316" fill-opacity="0.55"/>
<circle cx="458.66" cy="756.19" r="1.8" fill="#f97316" fill-opacity="0.55"/>
<circle cx="479.40" cy="756.11" r="1.8" fill="#f97316" fill-opacity="0.55"/>
<text x="496" y="912" class="tick" text-anchor="end">Round 序列；越高越好</text>
<rect x="830" y="28" width="14" height="14" rx="3" fill="#2563eb"/>
<text x="852" y="40" class="label">Infron</text>
<rect x="830" y="52" width="14" height="14" rx="3" fill="#f97316"/>
<text x="852" y="64" class="label">OpenRouter</text>
</svg>