<svg xmlns="http://www.w3.org/2000/svg" width="1080" height="1000" viewBox="0 0 1080 1000"><style>text{font-family:-apple-system,BlinkMacSystemFont,'Segoe UI',sans-serif;fill:#111827}.title{font-size:22px;font-weight:700}.label{font-size:13px;fill:#374151}.tick{font-size:12px;fill:#6b7280}.value{font-size:12px;fill:#111827}</style><rect width="100%" height="100%" fill="#ffffff"/>
<text x="48" y="34" class="title">Throughput First Routing Mode：Metric-generation Comparison Curves</text>
<text x="48" y="58" class="label">Metrics are plotted by group/round sequence; curves show the variation behind aggregate means.</text>
<rect x="48" y="76" width="472" height="245" rx="8" fill="#ffffff" stroke="#dbe3ef"/>
<text x="66" y="104" class="label" font-weight="700">E2E Latency / request (incl. reasoning)</text>
<rect x="366" y="88" width="136" height="26" rx="13" fill="#fef3c7" stroke="#f59e0b" stroke-width="1.4"/>
<text x="434" y="106" class="tick" font-weight="800" text-anchor="middle" fill="#92400e">Average winner: OpenRouter</text>
<line x1="106" y1="281.00" x2="496" y2="281.00" stroke="#e5e7eb"/>
<text x="98" y="285.00" class="tick" text-anchor="end">0.0</text>
<line x1="106" y1="228.67" x2="496" y2="228.67" stroke="#e5e7eb"/>
<text x="98" y="232.67" class="tick" text-anchor="end">7740</text>
<line x1="106" y1="176.33" x2="496" y2="176.33" stroke="#e5e7eb"/>
<text x="98" y="180.33" class="tick" text-anchor="end">15481</text>
<line x1="106" y1="124.00" x2="496" y2="124.00" stroke="#e5e7eb"/>
<text x="98" y="128.00" class="tick" text-anchor="end">23221</text>
<polyline points="106.00,265.54 108.09,268.73 110.17,266.82 112.26,265.47 114.34,264.65 116.43,269.00 118.51,269.37 120.60,268.15 122.68,270.36 124.77,265.84 126.86,246.52 128.94,268.23 131.03,267.79 133.11,265.34 135.20,270.53 137.28,267.15 139.37,271.20 141.45,267.25 143.54,264.76 145.63,269.15 147.71,269.02 149.80,263.48 151.88,264.28 153.97,269.84 156.05,266.66 158.14,266.23 160.22,260.74 162.31,269.01 164.40,268.01 166.48,266.92 168.57,267.48 170.65,264.78 172.74,265.43 174.82,269.09 176.91,269.13 178.99,268.75 181.08,268.69 183.17,267.40 185.25,268.21 187.34,269.59 189.42,260.47 191.51,268.25 193.59,267.81 195.68,261.10 197.76,266.43 199.85,263.99 201.94,267.42 204.02,267.32 206.11,270.25 208.19,268.33 210.28,267.38 212.36,269.64 214.45,267.92 216.53,268.68 218.62,266.35 220.71,258.42 222.79,250.71 224.88,269.25 226.96,267.77 229.05,269.61 231.13,268.03 233.22,268.48 235.30,241.63 237.39,194.29 239.48,240.23 241.56,248.23 243.65,214.16 245.73,184.54 247.82,242.56 249.90,253.74 251.99,212.76 254.07,179.87 256.16,248.98 258.25,254.18 260.33,219.90 262.42,168.28 264.50,251.09 266.59,255.82 268.67,225.39 270.76,188.42 272.84,251.70 274.93,248.12 277.02,212.67 279.10,204.27 281.19,258.69 283.27,251.64 285.36,209.89 287.44,198.81 289.53,244.21 291.61,244.60 293.70,201.84 295.79,192.68 297.87,244.15 299.96,256.19 302.04,208.36 304.13,191.32 306.21,229.52 308.30,247.54 310.39,202.12 312.47,140.82 314.56,206.76 316.64,171.60 318.73,228.43 320.81,254.73 322.90,227.03 324.98,190.59 327.07,243.34 329.16,250.54 331.24,195.12 333.33,180.76 335.41,242.19 337.50,252.62 339.58,227.52 341.67,175.08 343.75,254.24 345.84,250.47 347.93,211.16 350.01,198.75 352.10,247.86 354.18,251.46 356.27,234.63 358.35,193.17 360.44,252.34 362.52,250.86 364.61,254.35 366.70,188.39 368.78,235.38 370.87,252.03 372.95,226.32 375.04,210.28 377.12,251.98 379.21,260.19 381.29,205.02 383.38,208.82 385.47,243.44 387.55,258.43 389.64,209.26 391.72,198.62 393.81,253.08 395.89,254.96 397.98,230.86 400.06,211.45 402.15,257.02 404.24,249.57 406.32,192.29 408.41,179.18 410.49,255.62 412.58,249.31 414.66,203.09 416.75,178.32 418.83,197.65 420.92,167.25 423.01,238.09 425.09,254.61 427.18,225.60 429.26,209.13 431.35,247.64 433.43,250.03 435.52,216.24 437.60,198.19 439.69,238.86 441.78,256.34 443.86,225.30 445.95,231.03 448.03,251.39 450.12,246.45 452.20,208.74 454.29,198.76 456.37,243.16 458.46,255.65 460.55,208.34 462.63,191.38 464.72,258.03 466.80,250.86 468.89,187.11 470.97,198.05 473.06,248.02 475.14,250.88 477.23,231.01 479.32,162.87 481.40,251.21 483.49,252.40 485.57,215.47 487.66,217.18 489.74,249.73 491.83,251.48 493.91,225.10 496.00,181.79" fill="none" stroke="#2563eb" stroke-width="1.8" stroke-opacity="0.45" stroke-linejoin="round" stroke-linecap="round"/>
<circle cx="106.00" cy="265.54" r="1.8" fill="#2563eb" fill-opacity="0.55"/>
<circle cx="126.86" cy="246.52" r="1.8" fill="#2563eb" fill-opacity="0.55"/>
<circle cx="147.71" cy="269.02" r="1.8" fill="#2563eb" fill-opacity="0.55"/>
<circle cx="168.57" cy="267.48" r="1.8" fill="#2563eb" fill-opacity="0.55"/>
<circle cx="189.42" cy="260.47" r="1.8" fill="#2563eb" fill-opacity="0.55"/>
<circle cx="210.28" cy="267.38" r="1.8" fill="#2563eb" fill-opacity="0.55"/>
<circle cx="231.13" cy="268.03" r="1.8" fill="#2563eb" fill-opacity="0.55"/>
<circle cx="251.99" cy="212.76" r="1.8" fill="#2563eb" fill-opacity="0.55"/>
<circle cx="272.84" cy="251.70" r="1.8" fill="#2563eb" fill-opacity="0.55"/>
<circle cx="293.70" cy="201.84" r="1.8" fill="#2563eb" fill-opacity="0.55"/>
<circle cx="314.56" cy="206.76" r="1.8" fill="#2563eb" fill-opacity="0.55"/>
<circle cx="335.41" cy="242.19" r="1.8" fill="#2563eb" fill-opacity="0.55"/>
<circle cx="356.27" cy="234.63" r="1.8" fill="#2563eb" fill-opacity="0.55"/>
<circle cx="377.12" cy="251.98" r="1.8" fill="#2563eb" fill-opacity="0.55"/>
<circle cx="397.98" cy="230.86" r="1.8" fill="#2563eb" fill-opacity="0.55"/>
<circle cx="418.83" cy="197.65" r="1.8" fill="#2563eb" fill-opacity="0.55"/>
<circle cx="439.69" cy="238.86" r="1.8" fill="#2563eb" fill-opacity="0.55"/>
<circle cx="460.55" cy="208.34" r="1.8" fill="#2563eb" fill-opacity="0.55"/>
<circle cx="481.40" cy="251.21" r="1.8" fill="#2563eb" fill-opacity="0.55"/>
<polyline points="106.00,244.40 108.09,265.05 110.17,255.60 112.26,264.46 114.34,258.46 116.43,262.55 118.51,262.62 120.60,237.80 122.68,262.69 124.77,220.71 126.86,268.30 128.94,261.36 131.03,258.44 133.11,267.34 135.20,259.84 137.28,256.79 139.37,265.19 141.45,268.10 143.54,265.92 145.63,260.61 147.71,265.49 149.80,263.22 151.88,268.97 153.97,270.46 156.05,266.48 158.14,267.03 160.22,267.91 162.31,265.35 164.40,264.42 166.48,267.16 168.57,267.27 170.65,266.54 172.74,262.56 174.82,267.14 176.91,265.17 178.99,267.72 181.08,262.72 183.17,266.96 185.25,267.38 187.34,262.98 189.42,266.11 191.51,269.50 193.59,264.85 195.68,263.07 197.76,268.58 199.85,266.88 201.94,260.12 204.02,258.86 206.11,265.92 208.19,263.26 210.28,266.34 212.36,266.80 214.45,266.10 216.53,268.89 218.62,266.75 220.71,267.48 222.79,265.14 224.88,262.19 226.96,257.74 229.05,266.27 231.13,268.60 233.22,267.11 235.30,265.76 237.39,268.36 239.48,267.88 241.56,267.58 243.65,265.25 245.73,267.01 247.82,267.02 249.90,258.09 251.99,262.26 254.07,264.46 256.16,265.62 258.25,264.84 260.33,263.57 262.42,260.48 264.50,265.40 266.59,261.72 268.67,265.21 270.76,267.35 272.84,267.55 274.93,258.36 277.02,263.35 279.10,261.61 281.19,264.51 283.27,265.83 285.36,266.99 287.44,266.56 289.53,268.29 291.61,268.57 293.70,260.46 295.79,267.65 297.87,266.30 299.96,266.67 302.04,261.04 304.13,263.99 306.21,266.36 308.30,265.25 310.39,267.66 312.47,262.64 314.56,267.48 316.64,260.51 318.73,268.09 320.81,266.23 322.90,261.38 324.98,262.52 327.07,262.18 329.16,263.43 331.24,263.16 333.33,265.90 335.41,268.55 337.50,263.10 339.58,261.96 341.67,248.02 343.75,265.83 345.84,266.61 347.93,262.46 350.01,266.47 352.10,258.81 354.18,263.06 356.27,264.13 358.35,268.16 360.44,268.11 362.52,265.89 364.61,263.74 366.70,267.71 368.78,263.65 370.87,263.29 372.95,265.78 375.04,264.45 377.12,261.25 379.21,268.40 381.29,259.05 383.38,263.69 385.47,267.13 387.55,265.44 389.64,265.20 391.72,263.12 393.81,267.52 395.89,265.73 397.98,263.24 400.06,264.42 402.15,263.04 404.24,266.15 406.32,266.47 408.41,264.50 410.49,266.89 412.58,268.37 414.66,268.53 416.75,266.92 418.83,261.71 420.92,267.48 423.01,261.68 425.09,265.16 427.18,265.14 429.26,265.47 431.35,260.35 433.43,266.12 435.52,266.71 437.60,266.99 439.69,266.29 441.78,259.32 443.86,264.84 445.95,266.68 448.03,267.34 450.12,258.75 452.20,263.12 454.29,259.38 456.37,263.43 458.46,264.87 460.55,265.42 462.63,264.51 464.72,265.87 466.80,263.56 468.89,263.51 470.97,263.97 473.06,261.19 475.14,262.91 477.23,265.96 479.32,266.71 481.40,264.04 483.49,266.67 485.57,262.65 487.66,266.15 489.74,267.40 491.83,267.70 493.91,268.35 496.00,264.79" fill="none" stroke="#f97316" stroke-width="3.8" stroke-opacity="1" stroke-linejoin="round" stroke-linecap="round"/>
<circle cx="106.00" cy="244.40" r="3.0" fill="#f97316" fill-opacity="1"/>
<circle cx="126.86" cy="268.30" r="3.0" fill="#f97316" fill-opacity="1"/>
<circle cx="147.71" cy="265.49" r="3.0" fill="#f97316" fill-opacity="1"/>
<circle cx="168.57" cy="267.27" r="3.0" fill="#f97316" fill-opacity="1"/>
<circle cx="189.42" cy="266.11" r="3.0" fill="#f97316" fill-opacity="1"/>
<circle cx="210.28" cy="266.34" r="3.0" fill="#f97316" fill-opacity="1"/>
<circle cx="231.13" cy="268.60" r="3.0" fill="#f97316" fill-opacity="1"/>
<circle cx="251.99" cy="262.26" r="3.0" fill="#f97316" fill-opacity="1"/>
<circle cx="272.84" cy="267.55" r="3.0" fill="#f97316" fill-opacity="1"/>
<circle cx="293.70" cy="260.46" r="3.0" fill="#f97316" fill-opacity="1"/>
<circle cx="314.56" cy="267.48" r="3.0" fill="#f97316" fill-opacity="1"/>
<circle cx="335.41" cy="268.55" r="3.0" fill="#f97316" fill-opacity="1"/>
<circle cx="356.27" cy="264.13" r="3.0" fill="#f97316" fill-opacity="1"/>
<circle cx="377.12" cy="261.25" r="3.0" fill="#f97316" fill-opacity="1"/>
<circle cx="397.98" cy="263.24" r="3.0" fill="#f97316" fill-opacity="1"/>
<circle cx="418.83" cy="261.71" r="3.0" fill="#f97316" fill-opacity="1"/>
<circle cx="439.69" cy="266.29" r="3.0" fill="#f97316" fill-opacity="1"/>
<circle cx="460.55" cy="265.42" r="3.0" fill="#f97316" fill-opacity="1"/>
<circle cx="481.40" cy="264.04" r="3.0" fill="#f97316" fill-opacity="1"/>
<text x="496" y="306" class="tick" text-anchor="end">Round sequence; lower is better</text>
<rect x="560" y="76" width="472" height="245" rx="8" fill="#ffffff" stroke="#dbe3ef"/>
<text x="578" y="104" class="label" font-weight="700">Streaming TTFT / first byte</text>
<rect x="878" y="88" width="136" height="26" rx="13" fill="#fef3c7" stroke="#f59e0b" stroke-width="1.4"/>
<text x="946" y="106" class="tick" font-weight="800" text-anchor="middle" fill="#92400e">Average winner: OpenRouter</text>
<line x1="618" y1="281.00" x2="1008" y2="281.00" stroke="#e5e7eb"/>
<text x="610" y="285.00" class="tick" text-anchor="end">0.0</text>
<line x1="618" y1="228.67" x2="1008" y2="228.67" stroke="#e5e7eb"/>
<text x="610" y="232.67" class="tick" text-anchor="end">6383</text>
<line x1="618" y1="176.33" x2="1008" y2="176.33" stroke="#e5e7eb"/>
<text x="610" y="180.33" class="tick" text-anchor="end">12766</text>
<line x1="618" y1="124.00" x2="1008" y2="124.00" stroke="#e5e7eb"/>
<text x="610" y="128.00" class="tick" text-anchor="end">19149</text>
<polyline points="618.00,264.99 620.09,269.26 622.17,266.58 624.26,267.66 626.34,266.36 628.43,269.53 630.51,270.85 632.60,269.44 634.68,270.22 636.77,264.67 638.86,243.17 640.94,266.47 643.03,266.76 645.11,264.42 647.20,269.99 649.28,267.96 651.37,271.59 653.45,266.89 655.54,267.79 657.63,269.37 659.71,268.37 661.80,266.39 663.88,264.94 665.97,270.72 668.05,267.28 670.14,265.36 672.22,260.23 674.31,269.12 676.40,269.52 678.48,267.43 680.57,266.43 682.65,265.40 684.74,268.58 686.82,270.36 688.91,269.20 690.99,268.86 693.08,269.97 695.17,266.12 697.25,268.93 699.34,270.42 701.42,262.59 703.51,267.97 705.59,266.81 707.68,264.03 709.76,265.81 711.85,264.43 713.94,268.73 716.02,265.33 718.11,270.08 720.19,268.42 722.28,265.16 724.36,270.19 726.45,268.11 728.53,268.45 730.62,264.34 732.71,263.38 734.79,247.66 736.88,268.86 738.96,269.75 741.05,269.01 743.13,268.66 745.22,271.02 747.30,241.29 749.39,206.29 751.48,262.46 753.56,257.51 755.65,209.55 757.73,200.99 759.82,262.21 761.90,257.04 763.99,217.91 766.07,198.03 768.16,249.52 770.25,259.45 772.33,217.41 774.42,190.78 776.50,265.76 778.59,256.49 780.67,220.41 782.76,205.29 784.84,263.19 786.93,256.66 789.02,210.57 791.10,202.46 793.19,265.08 795.27,257.39 797.36,211.50 799.44,213.80 801.53,253.89 803.61,249.93 805.70,194.79 807.79,200.53 809.87,260.02 811.96,260.87 814.04,203.26 816.13,200.82 818.21,256.47 820.30,254.61 822.39,204.99 824.47,140.82 826.56,205.91 828.64,195.87 830.73,247.58 832.81,260.86 834.90,236.80 836.98,194.42 839.07,258.58 841.16,257.25 843.24,215.97 845.33,191.55 847.41,252.43 849.50,259.81 851.58,238.16 853.67,203.12 855.75,262.35 857.84,262.68 859.93,216.23 862.01,219.73 864.10,260.85 866.18,255.07 868.27,238.73 870.35,194.32 872.44,258.23 874.52,257.60 876.61,265.43 878.70,204.06 880.78,266.61 882.87,259.09 884.95,229.25 887.04,235.27 889.12,258.39 891.21,261.05 893.29,201.21 895.38,229.41 897.47,255.20 899.55,263.71 901.64,204.69 903.72,198.81 905.81,260.71 907.89,261.25 909.98,234.79 912.06,235.64 914.15,260.38 916.24,259.07 918.32,202.95 920.41,191.03 922.49,263.93 924.58,256.74 926.66,196.97 928.75,189.11 930.83,197.45 932.92,196.10 935.01,260.35 937.09,256.86 939.18,239.59 941.26,237.34 943.35,261.64 945.43,257.32 947.52,208.74 949.60,207.32 951.69,258.97 953.78,255.46 955.86,231.07 957.95,261.69 960.03,259.56 962.12,259.04 964.20,209.01 966.29,199.52 968.37,258.61 970.46,258.70 972.55,202.38 974.63,205.72 976.72,264.18 978.80,254.15 980.89,186.11 982.97,230.22 985.06,259.26 987.14,262.30 989.23,234.47 991.32,174.02 993.40,257.25 995.49,258.97 997.57,227.87 999.66,265.28 1001.74,261.49 1003.83,254.86 1005.91,229.99 1008.00,185.36" fill="none" stroke="#2563eb" stroke-width="1.8" stroke-opacity="0.45" stroke-linejoin="round" stroke-linecap="round"/>
<circle cx="618.00" cy="264.99" r="1.8" fill="#2563eb" fill-opacity="0.55"/>
<circle cx="638.86" cy="243.17" r="1.8" fill="#2563eb" fill-opacity="0.55"/>
<circle cx="659.71" cy="268.37" r="1.8" fill="#2563eb" fill-opacity="0.55"/>
<circle cx="680.57" cy="266.43" r="1.8" fill="#2563eb" fill-opacity="0.55"/>
<circle cx="701.42" cy="262.59" r="1.8" fill="#2563eb" fill-opacity="0.55"/>
<circle cx="722.28" cy="265.16" r="1.8" fill="#2563eb" fill-opacity="0.55"/>
<circle cx="743.13" cy="268.66" r="1.8" fill="#2563eb" fill-opacity="0.55"/>
<circle cx="763.99" cy="217.91" r="1.8" fill="#2563eb" fill-opacity="0.55"/>
<circle cx="784.84" cy="263.19" r="1.8" fill="#2563eb" fill-opacity="0.55"/>
<circle cx="805.70" cy="194.79" r="1.8" fill="#2563eb" fill-opacity="0.55"/>
<circle cx="826.56" cy="205.91" r="1.8" fill="#2563eb" fill-opacity="0.55"/>
<circle cx="847.41" cy="252.43" r="1.8" fill="#2563eb" fill-opacity="0.55"/>
<circle cx="868.27" cy="238.73" r="1.8" fill="#2563eb" fill-opacity="0.55"/>
<circle cx="889.12" cy="258.39" r="1.8" fill="#2563eb" fill-opacity="0.55"/>
<circle cx="909.98" cy="234.79" r="1.8" fill="#2563eb" fill-opacity="0.55"/>
<circle cx="930.83" cy="197.45" r="1.8" fill="#2563eb" fill-opacity="0.55"/>
<circle cx="951.69" cy="258.97" r="1.8" fill="#2563eb" fill-opacity="0.55"/>
<circle cx="972.55" cy="202.38" r="1.8" fill="#2563eb" fill-opacity="0.55"/>
<circle cx="993.40" cy="257.25" r="1.8" fill="#2563eb" fill-opacity="0.55"/>
<polyline points="618.00,248.97 620.09,262.54 622.17,258.07 624.26,265.00 626.34,255.26 628.43,263.25 630.51,266.69 632.60,232.96 634.68,268.91 636.77,259.26 638.86,267.41 640.94,261.59 643.03,262.21 645.11,266.47 647.20,258.49 649.28,266.82 651.37,261.85 653.45,268.33 655.54,266.45 657.63,261.86 659.71,266.18 661.80,267.01 663.88,267.49 665.97,269.94 668.05,266.47 670.14,267.93 672.22,269.15 674.31,265.38 676.40,263.80 678.48,266.50 680.57,268.12 682.65,265.47 684.74,267.75 686.82,267.27 688.91,265.59 690.99,267.19 693.08,266.25 695.17,265.46 697.25,267.54 699.34,263.60 701.42,266.83 703.51,268.44 705.59,262.82 707.68,262.61 709.76,267.97 711.85,266.37 713.94,256.39 716.02,261.14 718.11,264.79 720.19,262.37 722.28,266.25 724.36,264.48 726.45,265.57 728.53,269.86 730.62,268.06 732.71,267.46 734.79,266.08 736.88,260.20 738.96,259.78 741.05,265.21 743.13,267.41 745.22,267.87 747.30,266.90 749.39,268.30 751.48,266.60 753.56,266.96 755.65,265.78 757.73,266.68 759.82,264.93 761.90,263.02 763.99,259.62 766.07,264.03 768.16,264.09 770.25,266.39 772.33,262.50 774.42,257.39 776.50,265.11 778.59,264.61 780.67,264.09 782.76,265.67 784.84,267.92 786.93,260.82 789.02,265.26 791.10,263.70 793.19,267.57 795.27,265.43 797.36,266.15 799.44,265.64 801.53,269.48 803.61,268.45 805.70,259.05 807.79,265.66 809.87,265.33 811.96,266.98 814.04,264.04 816.13,266.23 818.21,265.66 820.30,265.54 822.39,268.48 824.47,259.42 826.56,267.78 828.64,266.18 830.73,267.47 832.81,264.90 834.90,261.48 836.98,263.21 839.07,266.70 841.16,261.36 843.24,262.64 845.33,266.24 847.41,267.89 849.50,261.65 851.58,259.64 853.67,250.46 855.75,266.57 857.84,265.61 859.93,262.49 862.01,266.32 864.10,257.48 866.18,264.75 868.27,263.54 870.35,267.90 872.44,266.55 874.52,264.96 876.61,263.30 878.70,266.45 880.78,265.13 882.87,268.00 884.95,266.31 887.04,262.80 889.12,260.95 891.21,268.54 893.29,256.65 895.38,260.09 897.47,265.84 899.55,264.87 901.64,265.91 903.72,268.67 905.81,267.39 907.89,265.80 909.98,262.70 912.06,264.29 914.15,262.80 916.24,267.28 918.32,267.61 920.41,266.17 922.49,265.45 924.58,268.53 926.66,268.45 928.75,266.80 930.83,261.71 932.92,265.72 935.01,258.97 937.09,264.92 939.18,265.89 941.26,268.47 943.35,257.38 945.43,265.77 947.52,267.12 949.60,266.84 951.69,267.24 953.78,255.77 955.86,264.33 957.95,266.07 960.03,266.24 962.12,257.97 964.20,266.53 966.29,262.67 968.37,261.34 970.46,263.95 972.55,265.27 974.63,264.46 976.72,268.48 978.80,264.31 980.89,266.67 982.97,263.94 985.06,259.43 987.14,261.74 989.23,265.13 991.32,264.94 993.40,263.09 995.49,267.96 997.57,261.57 999.66,264.78 1001.74,267.59 1003.83,266.90 1005.91,267.37 1008.00,262.15" fill="none" stroke="#f97316" stroke-width="3.8" stroke-opacity="1" stroke-linejoin="round" stroke-linecap="round"/>
<circle cx="618.00" cy="248.97" r="3.0" fill="#f97316" fill-opacity="1"/>
<circle cx="638.86" cy="267.41" r="3.0" fill="#f97316" fill-opacity="1"/>
<circle cx="659.71" cy="266.18" r="3.0" fill="#f97316" fill-opacity="1"/>
<circle cx="680.57" cy="268.12" r="3.0" fill="#f97316" fill-opacity="1"/>
<circle cx="701.42" cy="266.83" r="3.0" fill="#f97316" fill-opacity="1"/>
<circle cx="722.28" cy="266.25" r="3.0" fill="#f97316" fill-opacity="1"/>
<circle cx="743.13" cy="267.41" r="3.0" fill="#f97316" fill-opacity="1"/>
<circle cx="763.99" cy="259.62" r="3.0" fill="#f97316" fill-opacity="1"/>
<circle cx="784.84" cy="267.92" r="3.0" fill="#f97316" fill-opacity="1"/>
<circle cx="805.70" cy="259.05" r="3.0" fill="#f97316" fill-opacity="1"/>
<circle cx="826.56" cy="267.78" r="3.0" fill="#f97316" fill-opacity="1"/>
<circle cx="847.41" cy="267.89" r="3.0" fill="#f97316" fill-opacity="1"/>
<circle cx="868.27" cy="263.54" r="3.0" fill="#f97316" fill-opacity="1"/>
<circle cx="889.12" cy="260.95" r="3.0" fill="#f97316" fill-opacity="1"/>
<circle cx="909.98" cy="262.70" r="3.0" fill="#f97316" fill-opacity="1"/>
<circle cx="930.83" cy="261.71" r="3.0" fill="#f97316" fill-opacity="1"/>
<circle cx="951.69" cy="267.24" r="3.0" fill="#f97316" fill-opacity="1"/>
<circle cx="972.55" cy="265.27" r="3.0" fill="#f97316" fill-opacity="1"/>
<circle cx="993.40" cy="263.09" r="3.0" fill="#f97316" fill-opacity="1"/>
<text x="1008" y="306" class="tick" text-anchor="end">Round sequence; lower is better</text>
<rect x="48" y="379" width="472" height="245" rx="8" fill="#ffffff" stroke="#dbe3ef"/>
<text x="66" y="407" class="label" font-weight="700">Response throughput (incl. reasoning)</text>
<rect x="366" y="391" width="136" height="26" rx="13" fill="#fef3c7" stroke="#f59e0b" stroke-width="1.4"/>
<text x="434" y="409" class="tick" font-weight="800" text-anchor="middle" fill="#92400e">Average winner: Infron</text>
<line x1="106" y1="584.00" x2="496" y2="584.00" stroke="#e5e7eb"/>
<text x="98" y="588.00" class="tick" text-anchor="end">0.0</text>
<line x1="106" y1="531.67" x2="496" y2="531.67" stroke="#e5e7eb"/>
<text x="98" y="535.67" class="tick" text-anchor="end">26.9</text>
<line x1="106" y1="479.33" x2="496" y2="479.33" stroke="#e5e7eb"/>
<text x="98" y="483.33" class="tick" text-anchor="end">53.7</text>
<line x1="106" y1="427.00" x2="496" y2="427.00" stroke="#e5e7eb"/>
<text x="98" y="431.00" class="tick" text-anchor="end">80.6</text>
<polyline points="106.00,570.37 108.09,566.83 110.17,569.15 112.26,570.44 114.34,571.12 116.43,566.44 118.51,565.89 120.60,567.60 122.68,564.21 124.77,570.10 126.86,577.89 128.94,567.51 131.03,568.05 133.11,570.54 135.20,563.88 137.28,568.79 139.37,562.50 141.45,568.68 143.54,571.02 145.63,566.22 147.71,566.41 149.80,571.97 151.88,571.40 153.97,565.12 156.05,569.31 158.14,569.73 160.22,573.60 162.31,566.42 164.40,567.78 166.48,569.03 168.57,568.42 170.65,571.01 172.74,570.47 174.82,566.31 176.91,566.24 178.99,566.80 181.08,566.88 183.17,568.50 185.25,567.53 187.34,565.53 189.42,573.74 191.51,567.47 193.59,568.02 195.68,573.41 197.76,569.54 199.85,571.62 201.94,568.48 204.02,568.60 206.11,564.40 208.19,567.38 210.28,568.53 212.36,565.46 214.45,567.89 216.53,566.90 218.62,569.62 220.71,574.67 222.79,577.04 224.88,566.06 226.96,568.07 229.05,565.50 231.13,567.75 233.22,567.17 235.30,555.57 237.39,514.98 239.48,443.82 241.56,523.32 243.65,564.10 245.73,515.40 247.82,497.85 249.90,531.34 251.99,532.38 254.07,515.90 256.16,531.78 258.25,535.88 260.33,558.57 262.42,516.89 264.50,461.83 266.59,536.15 268.67,560.91 270.76,514.09 272.84,481.74 274.93,509.31 277.02,564.15 279.10,542.64 281.19,495.75 283.27,525.91 285.36,548.08 287.44,504.45 289.53,514.56 291.61,538.41 293.70,565.29 295.79,527.49 297.87,510.56 299.96,532.52 302.04,557.90 304.13,519.98 306.21,487.95 308.30,513.55 310.39,538.93 312.47,546.38 314.56,550.57 316.64,498.96 318.73,502.34 320.81,519.83 322.90,518.61 324.98,528.80 327.07,502.35 329.16,528.89 331.24,517.22 333.33,526.07 335.41,521.57 337.50,524.37 339.58,532.78 341.67,495.92 343.75,520.28 345.84,527.50 347.93,543.18 350.01,496.43 352.10,488.83 354.18,540.76 356.27,535.44 358.35,544.27 360.44,521.96 362.52,527.63 364.61,507.66 366.70,508.85 368.78,465.07 370.87,518.32 372.95,535.48 375.04,514.17 377.12,531.36 379.21,540.66 381.29,549.43 383.38,518.96 385.47,507.92 387.55,516.03 389.64,562.06 391.72,540.28 393.81,532.59 395.89,523.82 397.98,531.21 400.06,500.97 402.15,521.95 404.24,514.23 406.32,520.54 408.41,522.57 410.49,512.40 412.58,521.04 414.66,563.89 416.75,513.02 418.83,553.74 420.92,488.72 423.01,493.16 425.09,546.57 427.18,512.81 429.26,493.03 431.35,460.83 433.43,545.95 435.52,566.41 437.60,539.32 439.69,482.14 441.78,533.80 443.86,543.33 445.95,466.34 448.03,532.19 450.12,503.58 452.20,543.45 454.29,538.36 456.37,503.10 458.46,537.77 460.55,560.62 462.63,510.17 464.72,501.73 466.80,534.20 468.89,557.42 470.97,489.30 473.06,511.13 475.14,515.14 477.23,542.64 479.32,527.93 481.40,525.87 483.49,527.36 485.57,537.78 487.66,469.90 489.74,502.74 491.83,550.10 493.91,538.53 496.00,549.95" fill="none" stroke="#2563eb" stroke-width="3.8" stroke-opacity="1" stroke-linejoin="round" stroke-linecap="round"/>
<circle cx="106.00" cy="570.37" r="3.0" fill="#2563eb" fill-opacity="1"/>
<circle cx="126.86" cy="577.89" r="3.0" fill="#2563eb" fill-opacity="1"/>
<circle cx="147.71" cy="566.41" r="3.0" fill="#2563eb" fill-opacity="1"/>
<circle cx="168.57" cy="568.42" r="3.0" fill="#2563eb" fill-opacity="1"/>
<circle cx="189.42" cy="573.74" r="3.0" fill="#2563eb" fill-opacity="1"/>
<circle cx="210.28" cy="568.53" r="3.0" fill="#2563eb" fill-opacity="1"/>
<circle cx="231.13" cy="567.75" r="3.0" fill="#2563eb" fill-opacity="1"/>
<circle cx="251.99" cy="532.38" r="3.0" fill="#2563eb" fill-opacity="1"/>
<circle cx="272.84" cy="481.74" r="3.0" fill="#2563eb" fill-opacity="1"/>
<circle cx="293.70" cy="565.29" r="3.0" fill="#2563eb" fill-opacity="1"/>
<circle cx="314.56" cy="550.57" r="3.0" fill="#2563eb" fill-opacity="1"/>
<circle cx="335.41" cy="521.57" r="3.0" fill="#2563eb" fill-opacity="1"/>
<circle cx="356.27" cy="535.44" r="3.0" fill="#2563eb" fill-opacity="1"/>
<circle cx="377.12" cy="531.36" r="3.0" fill="#2563eb" fill-opacity="1"/>
<circle cx="397.98" cy="531.21" r="3.0" fill="#2563eb" fill-opacity="1"/>
<circle cx="418.83" cy="553.74" r="3.0" fill="#2563eb" fill-opacity="1"/>
<circle cx="439.69" cy="482.14" r="3.0" fill="#2563eb" fill-opacity="1"/>
<circle cx="460.55" cy="560.62" r="3.0" fill="#2563eb" fill-opacity="1"/>
<circle cx="481.40" cy="525.87" r="3.0" fill="#2563eb" fill-opacity="1"/>
<polyline points="106.00,578.24 108.09,570.79 110.17,575.70 112.26,571.26 114.34,574.65 116.43,572.58 118.51,572.54 120.60,579.12 122.68,572.49 124.77,580.51 126.86,567.41 128.94,573.27 131.03,574.66 133.11,568.58 135.20,574.04 137.28,575.30 139.37,570.67 141.45,567.67 143.54,570.03 145.63,573.67 147.71,570.42 149.80,572.15 151.88,566.49 153.97,564.01 156.05,569.49 158.14,568.92 160.22,567.90 162.31,570.54 164.40,571.29 166.48,568.78 168.57,568.66 170.65,569.43 172.74,572.57 174.82,568.80 176.91,570.69 178.99,568.14 181.08,572.48 183.17,568.99 185.25,568.53 187.34,572.31 189.42,569.85 191.51,565.69 193.59,570.96 195.68,572.25 197.76,567.04 199.85,569.08 201.94,573.91 204.02,574.48 206.11,570.03 208.19,572.12 210.28,569.63 212.36,569.16 214.45,569.86 216.53,566.61 218.62,569.22 220.71,568.42 222.79,570.71 224.88,572.80 226.96,574.94 229.05,569.70 231.13,567.01 233.22,568.83 235.30,570.17 237.39,567.34 239.48,567.95 241.56,568.30 243.65,570.62 245.73,568.94 247.82,568.93 249.90,574.80 251.99,572.75 254.07,571.26 256.16,570.30 258.25,570.96 260.33,571.91 262.42,573.73 264.50,570.49 266.59,573.07 268.67,570.66 270.76,568.57 272.84,568.33 274.93,574.70 277.02,572.06 279.10,573.13 281.19,571.23 283.27,570.11 285.36,568.96 287.44,569.41 289.53,567.42 291.61,567.05 293.70,573.74 295.79,568.22 297.87,569.67 299.96,569.30 302.04,573.45 304.13,571.61 306.21,569.61 308.30,570.62 310.39,568.21 312.47,572.53 314.56,568.42 316.64,573.72 318.73,567.68 320.81,569.74 322.90,573.26 324.98,572.60 327.07,572.80 329.16,572.01 331.24,572.19 333.33,570.05 335.41,567.08 337.50,572.23 339.58,572.93 341.67,577.61 343.75,570.11 345.84,569.35 347.93,572.64 350.01,569.50 352.10,574.51 354.18,572.26 356.27,571.51 358.35,567.59 360.44,567.65 362.52,570.06 364.61,571.79 366.70,568.14 368.78,571.86 370.87,572.10 372.95,570.15 375.04,571.27 377.12,573.33 379.21,567.28 381.29,574.40 383.38,571.83 385.47,568.81 387.55,570.46 389.64,570.67 391.72,572.22 393.81,568.38 395.89,570.20 397.98,572.13 400.06,571.29 402.15,572.27 404.24,569.81 406.32,569.50 408.41,571.23 410.49,569.07 412.58,567.32 414.66,567.11 416.75,569.04 418.83,573.08 420.92,568.41 423.01,573.09 425.09,570.70 427.18,570.71 429.26,570.43 431.35,573.80 433.43,569.84 435.52,569.26 437.60,568.96 439.69,569.67 441.78,574.28 443.86,570.96 445.95,569.29 448.03,568.58 450.12,574.53 452.20,572.22 454.29,574.25 456.37,572.01 458.46,570.94 460.55,570.48 462.63,571.22 464.72,570.08 466.80,571.92 468.89,571.96 470.97,571.63 473.06,573.37 475.14,572.36 477.23,569.99 479.32,569.26 481.40,571.57 483.49,569.30 485.57,572.52 487.66,569.82 489.74,568.50 491.83,568.15 493.91,567.35 496.00,571.00" fill="none" stroke="#f97316" stroke-width="1.8" stroke-opacity="0.45" stroke-linejoin="round" stroke-linecap="round"/>
<circle cx="106.00" cy="578.24" r="1.8" fill="#f97316" fill-opacity="0.55"/>
<circle cx="126.86" cy="567.41" r="1.8" fill="#f97316" fill-opacity="0.55"/>
<circle cx="147.71" cy="570.42" r="1.8" fill="#f97316" fill-opacity="0.55"/>
<circle cx="168.57" cy="568.66" r="1.8" fill="#f97316" fill-opacity="0.55"/>
<circle cx="189.42" cy="569.85" r="1.8" fill="#f97316" fill-opacity="0.55"/>
<circle cx="210.28" cy="569.63" r="1.8" fill="#f97316" fill-opacity="0.55"/>
<circle cx="231.13" cy="567.01" r="1.8" fill="#f97316" fill-opacity="0.55"/>
<circle cx="251.99" cy="572.75" r="1.8" fill="#f97316" fill-opacity="0.55"/>
<circle cx="272.84" cy="568.33" r="1.8" fill="#f97316" fill-opacity="0.55"/>
<circle cx="293.70" cy="573.74" r="1.8" fill="#f97316" fill-opacity="0.55"/>
<circle cx="314.56" cy="568.42" r="1.8" fill="#f97316" fill-opacity="0.55"/>
<circle cx="335.41" cy="567.08" r="1.8" fill="#f97316" fill-opacity="0.55"/>
<circle cx="356.27" cy="571.51" r="1.8" fill="#f97316" fill-opacity="0.55"/>
<circle cx="377.12" cy="573.33" r="1.8" fill="#f97316" fill-opacity="0.55"/>
<circle cx="397.98" cy="572.13" r="1.8" fill="#f97316" fill-opacity="0.55"/>
<circle cx="418.83" cy="573.08" r="1.8" fill="#f97316" fill-opacity="0.55"/>
<circle cx="439.69" cy="569.67" r="1.8" fill="#f97316" fill-opacity="0.55"/>
<circle cx="460.55" cy="570.48" r="1.8" fill="#f97316" fill-opacity="0.55"/>
<circle cx="481.40" cy="571.57" r="1.8" fill="#f97316" fill-opacity="0.55"/>
<text x="496" y="609" class="tick" text-anchor="end">Round sequence; higher is better</text>
<rect x="560" y="379" width="472" height="245" rx="8" fill="#ffffff" stroke="#dbe3ef"/>
<text x="578" y="407" class="label" font-weight="700">Observed cost / round</text>
<rect x="878" y="391" width="136" height="26" rx="13" fill="#fef3c7" stroke="#f59e0b" stroke-width="1.4"/>
<text x="946" y="409" class="tick" font-weight="800" text-anchor="middle" fill="#92400e">Average winner: Infron</text>
<line x1="618" y1="584.00" x2="1008" y2="584.00" stroke="#e5e7eb"/>
<text x="610" y="588.00" class="tick" text-anchor="end">$0.0000</text>
<line x1="618" y1="531.67" x2="1008" y2="531.67" stroke="#e5e7eb"/>
<text x="610" y="535.67" class="tick" text-anchor="end">$0.0001</text>
<line x1="618" y1="479.33" x2="1008" y2="479.33" stroke="#e5e7eb"/>
<text x="610" y="483.33" class="tick" text-anchor="end">$0.0002</text>
<line x1="618" y1="427.00" x2="1008" y2="427.00" stroke="#e5e7eb"/>
<text x="610" y="431.00" class="tick" text-anchor="end">$0.0003</text>
<polyline points="618.00,444.30 620.09,443.82 622.17,443.82 624.26,444.30 626.34,530.83 628.43,530.83 630.51,530.83 632.60,530.83 634.68,530.83 636.77,443.82 638.86,530.83 640.94,444.30 643.03,530.83 645.11,530.83 647.20,530.83 649.28,530.83 651.37,530.83 653.45,530.83 655.54,530.83 657.63,530.83 659.71,530.83 661.80,530.83 663.88,530.83 665.97,530.83 668.05,530.83 670.14,530.83 672.22,530.83 674.31,530.83 676.40,530.83 678.48,530.83 680.57,530.83 682.65,530.83 684.74,530.83 686.82,530.83 688.91,530.83 690.99,530.83 693.08,530.83 695.17,530.83 697.25,530.83 699.34,530.83 701.42,530.83 703.51,530.83 705.59,443.82 707.68,530.83 709.76,530.83 711.85,530.83 713.94,530.83 716.02,530.83 718.11,530.83 720.19,530.83 722.28,444.30 724.36,530.83 726.45,530.83 728.53,530.83 730.62,530.83 732.71,530.83 734.79,530.83 736.88,530.83 738.96,530.83 741.05,530.83 743.13,530.83 745.22,530.83 747.30,492.16 749.39,454.46 751.48,456.87 753.56,495.06 755.65,541.95 757.73,487.81 759.82,521.64 761.90,540.98 763.99,519.71 766.07,485.39 768.16,538.08 770.25,542.91 772.33,540.01 774.42,478.14 776.50,517.78 778.59,543.40 780.67,541.95 782.76,489.26 784.84,511.49 786.93,530.83 789.02,541.46 791.10,523.09 793.19,535.18 795.27,538.56 797.36,529.38 799.44,488.78 801.53,529.38 803.61,525.03 805.70,540.50 807.79,504.73 809.87,527.93 811.96,542.91 814.04,536.15 816.13,496.99 818.21,505.21 820.30,531.80 822.39,519.23 824.47,501.83 826.56,530.35 828.64,460.74 830.73,511.49 832.81,468.47 834.90,506.18 836.98,504.73 839.07,524.06 841.16,538.56 843.24,496.99 845.33,496.51 847.41,530.35 849.50,538.08 851.58,527.45 853.67,460.74 855.75,524.54 857.84,538.08 859.93,526.48 862.01,482.01 864.10,523.09 866.18,542.43 868.27,532.76 870.35,519.71 872.44,536.63 874.52,524.54 876.61,534.70 878.70,484.42 880.78,499.89 882.87,536.15 884.95,528.41 887.04,491.68 889.12,539.53 891.21,532.76 893.29,528.90 895.38,507.63 897.47,526.00 899.55,526.48 901.64,539.05 903.72,518.74 905.81,540.50 907.89,539.53 909.98,528.41 912.06,483.46 914.15,540.01 916.24,533.25 918.32,498.44 920.41,491.68 922.49,536.63 924.58,521.64 926.66,539.53 928.75,481.52 930.83,529.86 932.92,445.27 935.01,515.36 937.09,531.80 939.18,515.36 941.26,475.24 943.35,513.43 945.43,529.86 947.52,543.88 949.60,517.78 951.69,511.98 953.78,529.38 955.86,532.28 957.95,482.49 960.03,539.53 962.12,527.45 964.20,526.00 966.29,517.29 968.37,524.06 970.46,543.88 972.55,538.08 974.63,488.29 976.72,522.61 978.80,526.96 980.89,530.35 982.97,462.19 985.06,530.35 987.14,534.70 989.23,507.14 991.32,488.29 993.40,537.60 995.49,525.51 997.57,525.03 999.66,481.04 1001.74,529.38 1003.83,531.80 1005.91,529.86 1008.00,520.68" fill="none" stroke="#2563eb" stroke-width="3.8" stroke-opacity="1" stroke-linejoin="round" stroke-linecap="round"/>
<circle cx="618.00" cy="444.30" r="3.0" fill="#2563eb" fill-opacity="1"/>
<circle cx="638.86" cy="530.83" r="3.0" fill="#2563eb" fill-opacity="1"/>
<circle cx="659.71" cy="530.83" r="3.0" fill="#2563eb" fill-opacity="1"/>
<circle cx="680.57" cy="530.83" r="3.0" fill="#2563eb" fill-opacity="1"/>
<circle cx="701.42" cy="530.83" r="3.0" fill="#2563eb" fill-opacity="1"/>
<circle cx="722.28" cy="444.30" r="3.0" fill="#2563eb" fill-opacity="1"/>
<circle cx="743.13" cy="530.83" r="3.0" fill="#2563eb" fill-opacity="1"/>
<circle cx="763.99" cy="519.71" r="3.0" fill="#2563eb" fill-opacity="1"/>
<circle cx="784.84" cy="511.49" r="3.0" fill="#2563eb" fill-opacity="1"/>
<circle cx="805.70" cy="540.50" r="3.0" fill="#2563eb" fill-opacity="1"/>
<circle cx="826.56" cy="530.35" r="3.0" fill="#2563eb" fill-opacity="1"/>
<circle cx="847.41" cy="530.35" r="3.0" fill="#2563eb" fill-opacity="1"/>
<circle cx="868.27" cy="532.76" r="3.0" fill="#2563eb" fill-opacity="1"/>
<circle cx="889.12" cy="539.53" r="3.0" fill="#2563eb" fill-opacity="1"/>
<circle cx="909.98" cy="528.41" r="3.0" fill="#2563eb" fill-opacity="1"/>
<circle cx="930.83" cy="529.86" r="3.0" fill="#2563eb" fill-opacity="1"/>
<circle cx="951.69" cy="511.98" r="3.0" fill="#2563eb" fill-opacity="1"/>
<circle cx="972.55" cy="538.08" r="3.0" fill="#2563eb" fill-opacity="1"/>
<circle cx="993.40" cy="537.60" r="3.0" fill="#2563eb" fill-opacity="1"/>
<polyline points="618.00,482.90 620.09,445.95 622.17,445.87 624.26,446.60 626.34,479.13 628.43,535.01 630.51,534.98 632.60,480.01 634.68,484.15 636.77,475.14 638.86,482.61 640.94,481.26 643.03,485.40 645.11,485.82 647.20,482.61 649.28,477.54 651.37,476.66 653.45,480.16 655.54,485.76 657.63,480.05 659.71,486.66 661.80,477.65 663.88,480.71 665.97,485.63 668.05,477.31 670.14,477.04 672.22,481.36 674.31,480.65 676.40,480.43 678.48,480.81 680.57,484.51 682.65,481.91 684.74,481.03 686.82,478.91 688.91,478.20 690.99,476.89 693.08,484.15 695.17,484.57 697.25,478.24 699.34,481.26 701.42,481.68 703.51,485.78 705.59,479.49 707.68,477.54 709.76,483.50 711.85,475.14 713.94,482.61 716.02,479.40 718.11,483.50 720.19,482.67 722.28,484.15 724.36,480.16 726.45,483.26 728.53,484.38 730.62,481.03 732.71,482.67 734.79,477.59 736.88,479.40 738.96,474.76 741.05,487.07 743.13,483.22 745.22,480.62 747.30,476.06 749.39,480.81 751.48,481.36 753.56,481.26 755.65,481.03 757.73,485.82 759.82,476.95 761.90,480.05 763.99,479.17 766.07,484.57 768.16,478.20 770.25,480.01 772.33,480.39 774.42,484.53 776.50,480.10 778.59,483.16 780.67,483.50 782.76,477.65 784.84,478.85 786.93,481.87 789.02,477.27 791.10,477.65 793.19,482.00 795.27,476.28 797.36,478.56 799.44,479.55 801.53,484.51 803.61,477.54 805.70,477.31 807.79,480.16 809.87,479.46 811.96,483.77 814.04,479.78 816.13,478.91 818.21,483.26 820.30,478.15 822.39,484.76 824.47,482.06 826.56,485.40 828.64,477.04 830.73,474.44 832.81,478.79 834.90,477.88 836.98,475.75 839.07,476.95 841.16,480.05 843.24,484.15 845.33,480.16 847.41,479.46 849.50,485.63 851.58,483.54 853.67,479.51 855.75,481.96 857.84,481.26 859.93,482.93 862.01,481.41 864.10,480.75 866.18,481.91 868.27,479.78 870.35,478.26 872.44,483.22 874.52,478.75 876.61,483.54 878.70,482.02 880.78,483.86 882.87,478.18 884.95,482.90 887.04,481.41 889.12,482.00 891.21,481.87 893.29,483.54 895.38,480.16 897.47,483.86 899.55,481.26 901.64,484.76 903.72,478.91 905.81,478.85 907.89,481.26 909.98,481.03 912.06,485.82 914.15,480.10 916.24,481.26 918.32,480.39 920.41,478.26 922.49,477.59 924.58,477.54 926.66,474.76 928.75,483.92 930.83,483.54 932.92,483.31 935.01,483.86 937.09,480.01 939.18,479.78 941.26,477.01 943.35,479.46 945.43,479.40 947.52,477.88 949.60,475.79 951.69,477.59 953.78,479.40 955.86,483.50 957.95,478.91 960.03,483.86 962.12,483.77 964.20,482.29 966.29,482.06 968.37,480.71 970.46,478.15 972.55,484.15 974.63,483.31 976.72,483.22 978.80,481.87 980.89,477.88 982.97,480.81 985.06,481.36 987.14,478.15 989.23,483.50 991.32,476.40 993.40,484.51 995.49,483.12 997.57,487.30 999.66,479.55 1001.74,481.96 1003.83,483.77 1005.91,479.78 1008.00,482.67" fill="none" stroke="#f97316" stroke-width="1.8" stroke-opacity="0.45" stroke-linejoin="round" stroke-linecap="round"/>
<circle cx="618.00" cy="482.90" r="1.8" fill="#f97316" fill-opacity="0.55"/>
<circle cx="638.86" cy="482.61" r="1.8" fill="#f97316" fill-opacity="0.55"/>
<circle cx="659.71" cy="486.66" r="1.8" fill="#f97316" fill-opacity="0.55"/>
<circle cx="680.57" cy="484.51" r="1.8" fill="#f97316" fill-opacity="0.55"/>
<circle cx="701.42" cy="481.68" r="1.8" fill="#f97316" fill-opacity="0.55"/>
<circle cx="722.28" cy="484.15" r="1.8" fill="#f97316" fill-opacity="0.55"/>
<circle cx="743.13" cy="483.22" r="1.8" fill="#f97316" fill-opacity="0.55"/>
<circle cx="763.99" cy="479.17" r="1.8" fill="#f97316" fill-opacity="0.55"/>
<circle cx="784.84" cy="478.85" r="1.8" fill="#f97316" fill-opacity="0.55"/>
<circle cx="805.70" cy="477.31" r="1.8" fill="#f97316" fill-opacity="0.55"/>
<circle cx="826.56" cy="485.40" r="1.8" fill="#f97316" fill-opacity="0.55"/>
<circle cx="847.41" cy="479.46" r="1.8" fill="#f97316" fill-opacity="0.55"/>
<circle cx="868.27" cy="479.78" r="1.8" fill="#f97316" fill-opacity="0.55"/>
<circle cx="889.12" cy="482.00" r="1.8" fill="#f97316" fill-opacity="0.55"/>
<circle cx="909.98" cy="481.03" r="1.8" fill="#f97316" fill-opacity="0.55"/>
<circle cx="930.83" cy="483.54" r="1.8" fill="#f97316" fill-opacity="0.55"/>
<circle cx="951.69" cy="477.59" r="1.8" fill="#f97316" fill-opacity="0.55"/>
<circle cx="972.55" cy="484.15" r="1.8" fill="#f97316" fill-opacity="0.55"/>
<circle cx="993.40" cy="484.51" r="1.8" fill="#f97316" fill-opacity="0.55"/>
<text x="1008" y="609" class="tick" text-anchor="end">Round sequence; lower is better</text>
<rect x="48" y="682" width="472" height="245" rx="8" fill="#ffffff" stroke="#dbe3ef"/>
<text x="66" y="710" class="label" font-weight="700">Token cache hit rate</text>
<rect x="366" y="694" width="136" height="26" rx="13" fill="#fef3c7" stroke="#f59e0b" stroke-width="1.4"/>
<text x="434" y="712" class="tick" font-weight="800" text-anchor="middle" fill="#92400e">Average winner: Infron</text>
<line x1="106" y1="887.00" x2="496" y2="887.00" stroke="#e5e7eb"/>
<text x="98" y="891.00" class="tick" text-anchor="end">0%</text>
<line x1="106" y1="834.67" x2="496" y2="834.67" stroke="#e5e7eb"/>
<text x="98" y="838.67" class="tick" text-anchor="end">37%</text>
<line x1="106" y1="782.33" x2="496" y2="782.33" stroke="#e5e7eb"/>
<text x="98" y="786.33" class="tick" text-anchor="end">75%</text>
<line x1="106" y1="730.00" x2="496" y2="730.00" stroke="#e5e7eb"/>
<text x="98" y="734.00" class="tick" text-anchor="end">112%</text>
<polyline points="106.00,746.82 108.09,746.82 110.17,746.82 112.26,746.82 114.34,746.82 116.43,746.82 118.51,746.82 120.60,746.82 122.68,746.82 124.77,887.00 126.86,746.82 128.94,887.00 131.03,746.82 133.11,746.82 135.20,746.82 137.28,746.82 139.37,746.82 141.45,746.82 143.54,746.82 145.63,746.82 147.71,746.82 149.80,746.82 151.88,746.82 153.97,746.82 156.05,746.82 158.14,746.82 160.22,746.82 162.31,746.82 164.40,746.82 166.48,746.82 168.57,746.82 170.65,746.82 172.74,746.82 174.82,746.82 176.91,746.82 178.99,746.82 181.08,746.82 183.17,746.82 185.25,746.82 187.34,746.82 189.42,746.82 191.51,746.82 193.59,887.00 195.68,746.82 197.76,746.82 199.85,746.82 201.94,746.82 204.02,746.82 206.11,746.82 208.19,746.82 210.28,887.00 212.36,746.82 214.45,746.82 216.53,746.82 218.62,746.82 220.71,746.82 222.79,746.82 224.88,746.82 226.96,746.82 229.05,746.82 231.13,746.82 233.22,746.82 235.30,887.00 237.39,756.11 239.48,756.19 241.56,755.47 243.65,755.79 245.73,756.11 247.82,756.19 249.90,755.47 251.99,755.79 254.07,756.11 256.16,756.19 258.25,755.47 260.33,755.79 262.42,756.11 264.50,756.19 266.59,755.47 268.67,755.79 270.76,756.11 272.84,756.19 274.93,755.47 277.02,755.79 279.10,756.11 281.19,756.19 283.27,755.47 285.36,755.79 287.44,756.11 289.53,756.19 291.61,799.31 293.70,755.79 295.79,756.11 297.87,756.19 299.96,755.47 302.04,755.79 304.13,756.11 306.21,756.19 308.30,755.47 310.39,755.79 312.47,756.11 314.56,755.79 316.64,756.11 318.73,756.19 320.81,755.47 322.90,799.53 324.98,756.11 327.07,756.19 329.16,755.47 331.24,755.79 333.33,756.11 335.41,756.19 337.50,755.47 339.58,755.79 341.67,756.11 343.75,799.79 345.84,755.47 347.93,755.79 350.01,756.11 352.10,756.19 354.18,755.47 356.27,755.79 358.35,756.11 360.44,756.19 362.52,755.47 364.61,755.79 366.70,756.11 368.78,756.19 370.87,755.47 372.95,755.79 375.04,799.74 377.12,756.19 379.21,755.47 381.29,755.79 383.38,756.11 385.47,756.19 387.55,755.47 389.64,755.79 391.72,756.11 393.81,756.19 395.89,755.47 397.98,755.79 400.06,799.74 402.15,756.19 404.24,755.47 406.32,755.79 408.41,756.11 410.49,756.19 412.58,755.47 414.66,755.79 416.75,756.11 418.83,755.79 420.92,756.11 423.01,756.19 425.09,755.47 427.18,755.79 429.26,756.11 431.35,756.19 433.43,755.47 435.52,755.79 437.60,756.11 439.69,756.19 441.78,755.47 443.86,755.79 445.95,756.11 448.03,756.19 450.12,755.47 452.20,755.79 454.29,756.11 456.37,756.19 458.46,755.47 460.55,755.79 462.63,756.11 464.72,756.19 466.80,755.47 468.89,755.79 470.97,756.11 473.06,756.19 475.14,755.47 477.23,799.53 479.32,756.11 481.40,756.19 483.49,755.47 485.57,755.79 487.66,756.11 489.74,756.19 491.83,755.47 493.91,755.79 496.00,756.11" fill="none" stroke="#2563eb" stroke-width="3.8" stroke-opacity="1" stroke-linejoin="round" stroke-linecap="round"/>
<circle cx="106.00" cy="746.82" r="3.0" fill="#2563eb" fill-opacity="1"/>
<circle cx="126.86" cy="746.82" r="3.0" fill="#2563eb" fill-opacity="1"/>
<circle cx="147.71" cy="746.82" r="3.0" fill="#2563eb" fill-opacity="1"/>
<circle cx="168.57" cy="746.82" r="3.0" fill="#2563eb" fill-opacity="1"/>
<circle cx="189.42" cy="746.82" r="3.0" fill="#2563eb" fill-opacity="1"/>
<circle cx="210.28" cy="887.00" r="3.0" fill="#2563eb" fill-opacity="1"/>
<circle cx="231.13" cy="746.82" r="3.0" fill="#2563eb" fill-opacity="1"/>
<circle cx="251.99" cy="755.79" r="3.0" fill="#2563eb" fill-opacity="1"/>
<circle cx="272.84" cy="756.19" r="3.0" fill="#2563eb" fill-opacity="1"/>
<circle cx="293.70" cy="755.79" r="3.0" fill="#2563eb" fill-opacity="1"/>
<circle cx="314.56" cy="755.79" r="3.0" fill="#2563eb" fill-opacity="1"/>
<circle cx="335.41" cy="756.19" r="3.0" fill="#2563eb" fill-opacity="1"/>
<circle cx="356.27" cy="755.79" r="3.0" fill="#2563eb" fill-opacity="1"/>
<circle cx="377.12" cy="756.19" r="3.0" fill="#2563eb" fill-opacity="1"/>
<circle cx="397.98" cy="755.79" r="3.0" fill="#2563eb" fill-opacity="1"/>
<circle cx="418.83" cy="755.79" r="3.0" fill="#2563eb" fill-opacity="1"/>
<circle cx="439.69" cy="756.19" r="3.0" fill="#2563eb" fill-opacity="1"/>
<circle cx="460.55" cy="755.79" r="3.0" fill="#2563eb" fill-opacity="1"/>
<circle cx="481.40" cy="756.19" r="3.0" fill="#2563eb" fill-opacity="1"/>
<polyline points="106.00,818.32 108.09,746.82 110.17,746.82 112.26,746.82 114.34,823.96 116.43,746.82 118.51,746.82 120.60,821.15 122.68,819.69 124.77,829.57 126.86,823.89 128.94,825.35 131.03,819.69 133.11,819.68 135.20,816.91 137.28,826.72 139.37,826.69 141.45,830.93 143.54,818.27 145.63,830.91 147.71,816.87 149.80,825.30 151.88,828.15 153.97,821.15 156.05,826.69 158.14,828.12 160.22,816.91 162.31,825.35 164.40,829.51 166.48,825.30 168.57,821.08 170.65,816.87 172.74,819.69 174.82,826.75 176.91,822.53 178.99,829.54 181.08,818.32 183.17,819.68 185.25,829.51 187.34,825.35 189.42,826.69 191.51,818.32 193.59,829.51 195.68,825.35 197.76,823.96 199.85,829.57 201.94,822.53 204.02,822.52 206.11,823.96 208.19,826.75 210.28,821.14 212.36,823.94 214.45,818.27 216.53,821.15 218.62,830.96 220.71,819.68 222.79,830.96 224.88,828.17 226.96,830.96 229.05,816.87 231.13,822.53 233.22,828.17 235.30,829.51 237.39,819.68 239.48,829.51 241.56,822.52 243.65,825.32 245.73,816.87 247.82,825.34 249.90,830.91 251.99,825.32 254.07,816.87 256.16,830.96 258.25,828.17 260.33,825.32 262.42,821.13 264.50,819.72 266.59,819.69 268.67,821.14 270.76,830.93 272.84,821.08 274.93,818.32 277.02,825.32 279.10,830.93 281.19,821.08 283.27,830.91 285.36,826.69 287.44,822.49 289.53,821.08 291.61,829.54 293.70,826.69 295.79,819.68 297.87,828.15 299.96,819.69 302.04,821.14 304.13,826.75 306.21,821.08 308.30,829.54 310.39,821.14 312.47,822.49 314.56,818.32 316.64,825.30 318.73,830.96 320.81,823.89 322.90,823.96 324.98,829.57 327.07,828.15 329.16,819.69 331.24,822.51 333.33,828.12 335.41,830.96 337.50,816.87 339.58,819.69 341.67,829.57 343.75,819.72 345.84,822.52 347.93,816.87 350.01,826.75 352.10,823.89 354.18,816.87 356.27,822.51 358.35,823.94 360.44,822.53 362.52,828.17 364.61,825.32 366.70,818.32 368.78,821.08 370.87,830.91 372.95,822.51 375.04,819.68 377.12,826.70 379.21,828.17 381.29,822.51 383.38,823.94 385.47,823.89 387.55,829.54 389.64,818.32 391.72,826.75 393.81,826.70 395.89,819.69 397.98,816.87 400.06,819.68 402.15,826.70 404.24,828.17 406.32,818.32 408.41,829.57 410.49,825.34 412.58,826.72 414.66,830.96 416.75,821.13 418.83,819.69 420.92,822.49 423.01,816.91 425.09,829.54 427.18,828.14 429.26,829.57 431.35,828.15 433.43,823.89 435.52,823.96 437.60,828.12 439.69,826.70 441.78,829.54 443.86,818.32 445.95,822.49 448.03,819.72 450.12,818.32 452.20,818.32 454.29,828.12 456.37,819.72 458.46,826.72 460.55,821.14 462.63,819.68 464.72,819.72 466.80,818.32 468.89,823.96 470.97,819.68 473.06,822.53 475.14,828.17 477.23,823.96 479.32,828.12 481.40,818.27 483.49,818.32 485.57,816.87 487.66,822.49 489.74,828.15 491.83,819.69 493.91,826.69 496.00,822.49" fill="none" stroke="#f97316" stroke-width="1.8" stroke-opacity="0.45" stroke-linejoin="round" stroke-linecap="round"/>
<circle cx="106.00" cy="818.32" r="1.8" fill="#f97316" fill-opacity="0.55"/>
<circle cx="126.86" cy="823.89" r="1.8" fill="#f97316" fill-opacity="0.55"/>
<circle cx="147.71" cy="816.87" r="1.8" fill="#f97316" fill-opacity="0.55"/>
<circle cx="168.57" cy="821.08" r="1.8" fill="#f97316" fill-opacity="0.55"/>
<circle cx="189.42" cy="826.69" r="1.8" fill="#f97316" fill-opacity="0.55"/>
<circle cx="210.28" cy="821.14" r="1.8" fill="#f97316" fill-opacity="0.55"/>
<circle cx="231.13" cy="822.53" r="1.8" fill="#f97316" fill-opacity="0.55"/>
<circle cx="251.99" cy="825.32" r="1.8" fill="#f97316" fill-opacity="0.55"/>
<circle cx="272.84" cy="821.08" r="1.8" fill="#f97316" fill-opacity="0.55"/>
<circle cx="293.70" cy="826.69" r="1.8" fill="#f97316" fill-opacity="0.55"/>
<circle cx="314.56" cy="818.32" r="1.8" fill="#f97316" fill-opacity="0.55"/>
<circle cx="335.41" cy="830.96" r="1.8" fill="#f97316" fill-opacity="0.55"/>
<circle cx="356.27" cy="822.51" r="1.8" fill="#f97316" fill-opacity="0.55"/>
<circle cx="377.12" cy="826.70" r="1.8" fill="#f97316" fill-opacity="0.55"/>
<circle cx="397.98" cy="816.87" r="1.8" fill="#f97316" fill-opacity="0.55"/>
<circle cx="418.83" cy="819.69" r="1.8" fill="#f97316" fill-opacity="0.55"/>
<circle cx="439.69" cy="826.70" r="1.8" fill="#f97316" fill-opacity="0.55"/>
<circle cx="460.55" cy="821.14" r="1.8" fill="#f97316" fill-opacity="0.55"/>
<circle cx="481.40" cy="818.27" r="1.8" fill="#f97316" fill-opacity="0.55"/>
<text x="496" y="912" class="tick" text-anchor="end">Round sequence; higher is better</text>
<rect x="830" y="28" width="14" height="14" rx="3" fill="#2563eb"/>
<text x="852" y="40" class="label">Infron</text>
<rect x="830" y="52" width="14" height="14" rx="3" fill="#f97316"/>
<text x="852" y="64" class="label">OpenRouter</text>
</svg>