<svg xmlns="http://www.w3.org/2000/svg" width="1080" height="1000" viewBox="0 0 1080 1000"><style>text{font-family:-apple-system,BlinkMacSystemFont,'Segoe UI',sans-serif;fill:#111827}.title{font-size:22px;font-weight:700}.label{font-size:13px;fill:#374151}.tick{font-size:12px;fill:#6b7280}.value{font-size:12px;fill:#111827}</style><rect width="100%" height="100%" fill="#ffffff"/>
<text x="48" y="34" class="title">流式 TTFT 优先路由模式：指标生成过程对比曲线</text>
<text x="48" y="58" class="label">按 group/round 顺序绘制每轮指标；曲线展示汇总均值背后的波动过程。</text>
<rect x="48" y="76" width="472" height="245" rx="8" fill="#ffffff" stroke="#dbe3ef"/>
<text x="66" y="104" class="label" font-weight="700">端到端 E2E 时延 / 请求（含 reasoning）</text>
<rect x="366" y="88" width="136" height="26" rx="13" fill="#fef3c7" stroke="#f59e0b" stroke-width="1.4"/>
<text x="434" y="106" class="tick" font-weight="800" text-anchor="middle" fill="#92400e">均值胜出: OpenRouter</text>
<line x1="106" y1="281.00" x2="496" y2="281.00" stroke="#e5e7eb"/>
<text x="98" y="285.00" class="tick" text-anchor="end">0.0</text>
<line x1="106" y1="228.67" x2="496" y2="228.67" stroke="#e5e7eb"/>
<text x="98" y="232.67" class="tick" text-anchor="end">10968</text>
<line x1="106" y1="176.33" x2="496" y2="176.33" stroke="#e5e7eb"/>
<text x="98" y="180.33" class="tick" text-anchor="end">21935</text>
<line x1="106" y1="124.00" x2="496" y2="124.00" stroke="#e5e7eb"/>
<text x="98" y="128.00" class="tick" text-anchor="end">32903</text>
<polyline points="106.00,248.03 108.24,235.46 110.48,257.86 112.72,242.74 114.97,244.95 117.21,257.32 119.45,257.17 121.69,236.21 123.93,242.45 126.17,255.67 128.41,260.99 130.66,230.72 132.90,217.12 135.14,254.16 137.38,262.95 139.62,235.27 141.86,231.01 144.10,248.22 146.34,256.42 148.59,233.08 150.83,260.46 153.07,261.81 155.31,227.17 157.55,237.58 159.79,256.99 162.03,262.72 164.28,245.08 166.52,228.01 168.76,246.57 171.00,256.83 173.24,234.37 175.48,214.59 177.72,249.98 179.97,259.20 182.21,224.13 184.45,217.55 186.69,257.26 188.93,263.50 191.17,235.21 193.41,249.99 195.66,242.83 197.90,257.78 200.14,267.98 202.38,223.66 204.62,217.06 206.86,262.61 209.10,270.08 211.34,229.81 213.59,244.94 215.83,257.32 218.07,256.35 220.31,258.77 222.55,194.97 224.79,238.74 227.03,248.82 229.28,231.27 231.52,260.93 233.76,259.52 236.00,241.11 238.24,206.27 240.48,260.03 242.72,239.47 244.97,219.52 247.21,226.54 249.45,250.64 251.69,264.70 253.93,222.91 256.17,252.14 258.41,258.89 260.66,252.41 262.90,227.32 265.14,249.27 267.38,249.13 269.62,234.05 271.86,220.95 274.10,260.35 276.34,256.09 278.59,233.95 280.83,230.65 283.07,239.26 285.31,260.20 287.55,211.93 289.79,232.31 292.03,258.71 294.28,255.37 296.52,230.06 298.76,232.21 301.00,253.84 303.24,254.23 305.48,262.88 307.72,267.90 309.97,231.29 312.21,243.12 314.45,256.05 316.69,262.00 318.93,264.89 321.17,273.64 323.41,275.59 325.66,275.25 327.90,274.72 330.14,275.35 332.38,275.09 334.62,275.46 336.86,172.61 339.10,274.22 341.34,274.00 343.59,180.62 345.83,186.36 348.07,171.37 350.31,274.32 352.55,275.39 354.79,272.62 357.03,273.03 359.28,267.99 361.52,272.80 363.76,268.06 366.00,267.24 368.24,270.12 370.48,271.81 372.72,267.72 374.97,270.03 377.21,270.37 379.45,272.68 381.69,268.00 383.93,268.66 386.17,267.35 388.41,273.20 390.66,269.49 392.90,272.20 395.14,267.56 397.38,265.44 399.62,269.63 401.86,267.92 404.10,268.16 406.34,260.07 408.59,266.29 410.83,268.63 413.07,263.97 415.31,259.96 417.55,269.31 419.79,259.64 422.03,258.33 424.28,259.29 426.52,256.92 428.76,258.70 431.00,264.29 433.24,266.03 435.48,257.59 437.72,256.36 439.97,257.13 442.21,262.74 444.45,247.59 446.69,261.96 448.93,260.63 451.17,254.72 453.41,269.20 455.66,261.84 457.90,248.39 460.14,229.11 462.38,242.88 464.62,260.07 466.86,259.89 469.10,265.12 471.34,264.18 473.59,265.64 475.83,262.46 478.07,268.33 480.31,261.72 482.55,266.86 484.79,263.71 487.03,269.62 489.28,265.83 491.52,258.87 493.76,260.57 496.00,274.07" fill="none" stroke="#2563eb" stroke-width="1.8" stroke-opacity="0.45" stroke-linejoin="round" stroke-linecap="round"/>
<circle cx="106.00" cy="248.03" r="1.8" fill="#2563eb" fill-opacity="0.55"/>
<circle cx="126.17" cy="255.67" r="1.8" fill="#2563eb" fill-opacity="0.55"/>
<circle cx="146.34" cy="256.42" r="1.8" fill="#2563eb" fill-opacity="0.55"/>
<circle cx="166.52" cy="228.01" r="1.8" fill="#2563eb" fill-opacity="0.55"/>
<circle cx="186.69" cy="257.26" r="1.8" fill="#2563eb" fill-opacity="0.55"/>
<circle cx="206.86" cy="262.61" r="1.8" fill="#2563eb" fill-opacity="0.55"/>
<circle cx="227.03" cy="248.82" r="1.8" fill="#2563eb" fill-opacity="0.55"/>
<circle cx="247.21" cy="226.54" r="1.8" fill="#2563eb" fill-opacity="0.55"/>
<circle cx="267.38" cy="249.13" r="1.8" fill="#2563eb" fill-opacity="0.55"/>
<circle cx="287.55" cy="211.93" r="1.8" fill="#2563eb" fill-opacity="0.55"/>
<circle cx="307.72" cy="267.90" r="1.8" fill="#2563eb" fill-opacity="0.55"/>
<circle cx="327.90" cy="274.72" r="1.8" fill="#2563eb" fill-opacity="0.55"/>
<circle cx="348.07" cy="171.37" r="1.8" fill="#2563eb" fill-opacity="0.55"/>
<circle cx="368.24" cy="270.12" r="1.8" fill="#2563eb" fill-opacity="0.55"/>
<circle cx="388.41" cy="273.20" r="1.8" fill="#2563eb" fill-opacity="0.55"/>
<circle cx="408.59" cy="266.29" r="1.8" fill="#2563eb" fill-opacity="0.55"/>
<circle cx="428.76" cy="258.70" r="1.8" fill="#2563eb" fill-opacity="0.55"/>
<circle cx="448.93" cy="260.63" r="1.8" fill="#2563eb" fill-opacity="0.55"/>
<circle cx="469.10" cy="265.12" r="1.8" fill="#2563eb" fill-opacity="0.55"/>
<circle cx="489.28" cy="265.83" r="1.8" fill="#2563eb" fill-opacity="0.55"/>
<polyline points="106.00,267.33 108.24,264.04 110.48,270.25 112.72,270.13 114.97,268.55 117.21,264.57 119.45,270.48 121.69,271.44 123.93,265.35 126.17,275.06 128.41,264.83 130.66,273.96 132.90,263.58 135.14,266.80 137.38,273.11 139.62,270.81 141.86,262.29 144.10,262.18 146.34,271.15 148.59,275.05 150.83,267.53 153.07,270.39 155.31,271.94 157.55,271.63 159.79,267.21 162.03,272.29 164.28,275.62 166.52,265.80 168.76,271.03 171.00,270.49 173.24,274.41 175.48,267.23 177.72,265.11 179.97,273.68 182.21,263.03 184.45,272.21 186.69,271.78 188.93,273.83 191.17,254.12 193.41,259.26 195.66,265.01 197.90,234.35 200.14,258.95 202.38,271.00 204.62,271.34 206.86,250.78 209.10,260.22 211.34,259.90 213.59,250.37 215.83,257.64 218.07,261.44 220.31,251.04 222.55,272.63 224.79,271.16 227.03,271.01 229.28,270.02 231.52,270.79 233.76,270.53 236.00,270.02 238.24,273.81 240.48,268.75 242.72,269.83 244.97,268.24 247.21,269.71 249.45,265.28 251.69,270.13 253.93,268.37 256.17,265.84 258.41,271.58 260.66,268.21 262.90,271.63 265.14,269.45 267.38,268.37 269.62,270.98 271.86,272.60 274.10,269.48 276.34,269.71 278.59,269.69 280.83,269.13 283.07,268.07 285.31,270.38 287.55,268.13 289.79,270.15 292.03,266.65 294.28,266.87 296.52,271.71 298.76,273.78 301.00,270.58 303.24,272.91 305.48,271.69 307.72,268.88 309.97,269.85 312.21,272.57 314.45,266.73 316.69,270.82 318.93,272.50 321.17,272.06 323.41,269.68 325.66,271.47 327.90,268.78 330.14,258.78 332.38,269.05 334.62,272.85 336.86,272.19 339.10,263.98 341.34,266.20 343.59,265.35 345.83,270.47 348.07,270.59 350.31,269.31 352.55,268.90 354.79,269.22 357.03,272.05 359.28,270.37 361.52,271.45 363.76,267.98 366.00,258.00 368.24,269.03 370.48,271.66 372.72,268.48 374.97,271.83 377.21,269.74 379.45,269.64 381.69,269.19 383.93,270.20 386.17,269.72 388.41,272.21 390.66,269.35 392.90,271.43 395.14,271.67 397.38,269.45 399.62,272.66 401.86,271.95 404.10,272.26 406.34,272.34 408.59,254.50 410.83,267.53 413.07,259.68 415.31,255.67 417.55,249.50 419.79,240.76 422.03,265.78 424.28,260.46 426.52,269.48 428.76,262.95 431.00,263.85 433.24,270.07 435.48,267.19 437.72,264.43 439.97,268.94 442.21,263.23 444.45,271.29 446.69,262.83 448.93,265.77 451.17,270.07 453.41,140.82 455.66,269.42 457.90,270.98 460.14,272.24 462.38,265.56 464.62,262.52 466.86,266.46 469.10,270.22 471.34,267.42 473.59,262.12 475.83,263.88 478.07,262.68 480.31,272.40 482.55,270.46 484.79,254.35 487.03,266.61 489.28,266.93 491.52,270.66 493.76,269.46 496.00,271.77" fill="none" stroke="#f97316" stroke-width="3.8" stroke-opacity="1" stroke-linejoin="round" stroke-linecap="round"/>
<circle cx="106.00" cy="267.33" r="3.0" fill="#f97316" fill-opacity="1"/>
<circle cx="126.17" cy="275.06" r="3.0" fill="#f97316" fill-opacity="1"/>
<circle cx="146.34" cy="271.15" r="3.0" fill="#f97316" fill-opacity="1"/>
<circle cx="166.52" cy="265.80" r="3.0" fill="#f97316" fill-opacity="1"/>
<circle cx="186.69" cy="271.78" r="3.0" fill="#f97316" fill-opacity="1"/>
<circle cx="206.86" cy="250.78" r="3.0" fill="#f97316" fill-opacity="1"/>
<circle cx="227.03" cy="271.01" r="3.0" fill="#f97316" fill-opacity="1"/>
<circle cx="247.21" cy="269.71" r="3.0" fill="#f97316" fill-opacity="1"/>
<circle cx="267.38" cy="268.37" r="3.0" fill="#f97316" fill-opacity="1"/>
<circle cx="287.55" cy="268.13" r="3.0" fill="#f97316" fill-opacity="1"/>
<circle cx="307.72" cy="268.88" r="3.0" fill="#f97316" fill-opacity="1"/>
<circle cx="327.90" cy="268.78" r="3.0" fill="#f97316" fill-opacity="1"/>
<circle cx="348.07" cy="270.59" r="3.0" fill="#f97316" fill-opacity="1"/>
<circle cx="368.24" cy="269.03" r="3.0" fill="#f97316" fill-opacity="1"/>
<circle cx="388.41" cy="272.21" r="3.0" fill="#f97316" fill-opacity="1"/>
<circle cx="408.59" cy="254.50" r="3.0" fill="#f97316" fill-opacity="1"/>
<circle cx="428.76" cy="262.95" r="3.0" fill="#f97316" fill-opacity="1"/>
<circle cx="448.93" cy="265.77" r="3.0" fill="#f97316" fill-opacity="1"/>
<circle cx="469.10" cy="270.22" r="3.0" fill="#f97316" fill-opacity="1"/>
<circle cx="489.28" cy="266.93" r="3.0" fill="#f97316" fill-opacity="1"/>
<text x="496" y="306" class="tick" text-anchor="end">Round 序列；越低越好</text>
<rect x="560" y="76" width="472" height="245" rx="8" fill="#ffffff" stroke="#dbe3ef"/>
<text x="578" y="104" class="label" font-weight="700">流式 TTFT / 首包响应</text>
<rect x="878" y="88" width="136" height="26" rx="13" fill="#fef3c7" stroke="#f59e0b" stroke-width="1.4"/>
<text x="946" y="106" class="tick" font-weight="800" text-anchor="middle" fill="#92400e">均值胜出: OpenRouter</text>
<line x1="618" y1="281.00" x2="1008" y2="281.00" stroke="#e5e7eb"/>
<text x="610" y="285.00" class="tick" text-anchor="end">0.0</text>
<line x1="618" y1="228.67" x2="1008" y2="228.67" stroke="#e5e7eb"/>
<text x="610" y="232.67" class="tick" text-anchor="end">6383</text>
<line x1="618" y1="176.33" x2="1008" y2="176.33" stroke="#e5e7eb"/>
<text x="610" y="180.33" class="tick" text-anchor="end">12766</text>
<line x1="618" y1="124.00" x2="1008" y2="124.00" stroke="#e5e7eb"/>
<text x="610" y="128.00" class="tick" text-anchor="end">19149</text>
<polyline points="618.00,232.88 620.24,238.73 622.48,253.83 624.72,223.67 626.97,238.87 629.21,256.03 631.45,248.84 633.69,211.98 635.93,230.57 638.17,254.89 640.41,251.88 642.66,223.87 644.90,230.46 647.14,253.65 649.38,261.01 651.62,213.87 653.86,226.79 656.10,243.86 658.34,252.86 660.59,233.70 662.83,257.52 665.07,260.48 667.31,200.84 669.55,241.19 671.79,255.08 674.03,263.65 676.28,227.62 678.52,225.75 680.76,253.89 683.00,253.92 685.24,229.94 687.48,205.37 689.72,251.11 691.97,266.77 694.21,209.47 696.45,203.25 698.69,263.74 700.93,262.19 703.17,234.84 705.41,245.01 707.66,234.90 709.90,262.33 712.14,265.12 714.38,222.51 716.62,197.40 718.86,266.89 721.10,263.65 723.34,203.24 725.59,256.90 727.83,253.61 730.07,250.68 732.31,260.82 734.55,189.57 736.79,237.53 739.03,236.74 741.28,228.77 743.52,261.44 745.76,251.47 748.00,231.79 750.24,200.17 752.48,265.28 754.72,238.07 756.97,191.87 759.21,227.91 761.45,258.58 763.69,263.11 765.93,228.17 768.17,251.00 770.41,263.58 772.66,249.83 774.90,223.47 777.14,253.28 779.38,250.25 781.62,230.31 783.86,224.77 786.10,261.23 788.34,256.78 790.59,215.29 792.83,222.39 795.07,236.97 797.31,260.64 799.55,176.99 801.79,228.12 804.03,254.08 806.28,257.95 808.52,208.12 810.76,223.39 813.00,265.70 815.24,266.29 817.48,261.59 819.72,267.93 821.97,210.72 824.21,249.43 826.45,265.79 828.69,256.52 830.93,269.87 833.17,270.72 835.41,272.38 837.66,272.66 839.90,270.95 842.14,272.37 844.38,271.94 846.62,272.29 848.86,202.80 851.10,271.74 853.34,271.77 855.59,140.82 857.83,191.51 860.07,185.08 862.31,272.40 864.55,272.16 866.79,267.47 869.03,271.00 871.28,263.71 873.52,268.82 875.76,260.48 878.00,261.76 880.24,265.58 882.48,265.80 884.72,260.90 886.97,263.89 889.21,266.09 891.45,267.21 893.69,261.27 895.93,265.67 898.17,260.85 900.41,267.94 902.66,262.21 904.90,267.73 907.14,259.61 909.38,259.10 911.62,263.17 913.86,260.39 916.10,259.58 918.34,248.96 920.59,257.98 922.83,262.75 925.07,252.23 927.31,252.59 929.55,264.11 931.79,244.39 934.03,243.94 936.28,249.40 938.52,242.50 940.76,243.17 943.00,252.82 945.24,256.06 947.48,262.35 949.72,239.13 951.97,243.73 954.21,254.44 956.45,223.94 958.69,249.88 960.93,251.06 963.17,245.81 965.41,260.89 967.66,250.02 969.90,231.11 972.14,194.97 974.38,215.98 976.62,249.50 978.86,248.49 981.10,254.29 983.34,253.06 985.59,259.26 987.83,252.44 990.07,259.80 992.31,249.32 994.55,259.43 996.79,256.01 999.03,261.91 1001.28,256.34 1003.52,249.75 1005.76,249.73 1008.00,269.47" fill="none" stroke="#2563eb" stroke-width="1.8" stroke-opacity="0.45" stroke-linejoin="round" stroke-linecap="round"/>
<circle cx="618.00" cy="232.88" r="1.8" fill="#2563eb" fill-opacity="0.55"/>
<circle cx="638.17" cy="254.89" r="1.8" fill="#2563eb" fill-opacity="0.55"/>
<circle cx="658.34" cy="252.86" r="1.8" fill="#2563eb" fill-opacity="0.55"/>
<circle cx="678.52" cy="225.75" r="1.8" fill="#2563eb" fill-opacity="0.55"/>
<circle cx="698.69" cy="263.74" r="1.8" fill="#2563eb" fill-opacity="0.55"/>
<circle cx="718.86" cy="266.89" r="1.8" fill="#2563eb" fill-opacity="0.55"/>
<circle cx="739.03" cy="236.74" r="1.8" fill="#2563eb" fill-opacity="0.55"/>
<circle cx="759.21" cy="227.91" r="1.8" fill="#2563eb" fill-opacity="0.55"/>
<circle cx="779.38" cy="250.25" r="1.8" fill="#2563eb" fill-opacity="0.55"/>
<circle cx="799.55" cy="176.99" r="1.8" fill="#2563eb" fill-opacity="0.55"/>
<circle cx="819.72" cy="267.93" r="1.8" fill="#2563eb" fill-opacity="0.55"/>
<circle cx="839.90" cy="270.95" r="1.8" fill="#2563eb" fill-opacity="0.55"/>
<circle cx="860.07" cy="185.08" r="1.8" fill="#2563eb" fill-opacity="0.55"/>
<circle cx="880.24" cy="265.58" r="1.8" fill="#2563eb" fill-opacity="0.55"/>
<circle cx="900.41" cy="267.94" r="1.8" fill="#2563eb" fill-opacity="0.55"/>
<circle cx="920.59" cy="257.98" r="1.8" fill="#2563eb" fill-opacity="0.55"/>
<circle cx="940.76" cy="243.17" r="1.8" fill="#2563eb" fill-opacity="0.55"/>
<circle cx="960.93" cy="251.06" r="1.8" fill="#2563eb" fill-opacity="0.55"/>
<circle cx="981.10" cy="254.29" r="1.8" fill="#2563eb" fill-opacity="0.55"/>
<circle cx="1001.28" cy="256.34" r="1.8" fill="#2563eb" fill-opacity="0.55"/>
<polyline points="618.00,258.41 620.24,253.32 622.48,264.18 624.72,263.42 626.97,259.66 629.21,253.60 631.45,264.37 633.69,265.41 635.93,254.43 638.17,271.78 640.41,254.49 642.66,270.77 644.90,254.86 647.14,257.81 649.38,268.62 651.62,264.60 653.86,250.48 656.10,259.17 658.34,264.89 660.59,271.11 662.83,263.54 665.07,263.81 667.31,270.63 669.55,265.15 671.79,260.10 674.03,268.55 676.28,272.95 678.52,255.17 680.76,264.98 683.00,264.34 685.24,270.73 687.48,257.62 689.72,256.63 691.97,269.57 694.21,252.54 696.45,266.20 698.69,266.46 700.93,271.93 703.17,236.95 705.41,248.63 707.66,253.89 709.90,206.70 712.14,249.76 714.38,266.89 716.62,264.80 718.86,230.47 721.10,248.27 723.34,251.24 725.59,228.77 727.83,246.26 730.07,251.88 732.31,232.23 734.55,267.23 736.79,267.10 739.03,267.12 741.28,262.53 743.52,265.43 745.76,265.59 748.00,264.40 750.24,268.93 752.48,263.19 754.72,263.01 756.97,261.13 759.21,262.07 761.45,257.61 763.69,267.55 765.93,263.14 768.17,259.11 770.41,268.61 772.66,261.19 774.90,267.69 777.14,265.24 779.38,261.47 781.62,266.85 783.86,268.12 786.10,264.13 788.34,263.26 790.59,266.00 792.83,265.16 795.07,262.17 797.31,264.98 799.55,265.68 801.79,262.67 804.03,258.54 806.28,261.33 808.52,267.41 810.76,268.94 813.00,266.13 815.24,267.45 817.48,266.39 819.72,263.12 821.97,263.18 824.21,266.97 826.45,258.90 828.69,265.24 830.93,266.94 833.17,266.29 835.41,263.05 837.66,268.63 839.90,267.21 842.14,243.09 844.38,267.75 846.62,267.76 848.86,268.42 851.10,253.52 853.34,259.07 855.59,255.60 857.83,263.33 860.07,265.95 862.31,263.82 864.55,265.25 866.79,261.82 869.03,266.86 871.28,265.05 873.52,265.69 875.76,259.91 878.00,265.32 880.24,265.87 882.48,266.07 884.72,261.46 886.97,268.06 889.21,266.72 891.45,262.07 893.69,263.80 895.93,265.90 898.17,264.17 900.41,267.60 902.66,264.67 904.90,264.88 907.14,268.83 909.38,267.97 911.62,268.52 913.86,266.90 916.10,267.03 918.34,269.44 920.59,259.77 922.83,264.86 925.07,248.96 927.31,243.50 929.55,233.32 931.79,259.91 934.03,264.05 936.28,248.73 938.52,264.48 940.76,250.26 943.00,253.54 945.24,263.58 947.48,264.40 949.72,253.83 951.97,264.01 954.21,257.06 956.45,265.53 958.69,253.48 960.93,267.67 963.17,266.40 965.41,249.63 967.66,265.15 969.90,266.44 972.14,266.42 974.38,254.75 976.62,249.86 978.86,264.88 981.10,264.04 983.34,262.55 985.59,251.42 987.83,254.46 990.07,250.74 992.31,267.56 994.55,266.34 996.79,240.95 999.03,256.60 1001.28,260.10 1003.52,263.84 1005.76,265.72 1008.00,265.43" fill="none" stroke="#f97316" stroke-width="3.8" stroke-opacity="1" stroke-linejoin="round" stroke-linecap="round"/>
<circle cx="618.00" cy="258.41" r="3.0" fill="#f97316" fill-opacity="1"/>
<circle cx="638.17" cy="271.78" r="3.0" fill="#f97316" fill-opacity="1"/>
<circle cx="658.34" cy="264.89" r="3.0" fill="#f97316" fill-opacity="1"/>
<circle cx="678.52" cy="255.17" r="3.0" fill="#f97316" fill-opacity="1"/>
<circle cx="698.69" cy="266.46" r="3.0" fill="#f97316" fill-opacity="1"/>
<circle cx="718.86" cy="230.47" r="3.0" fill="#f97316" fill-opacity="1"/>
<circle cx="739.03" cy="267.12" r="3.0" fill="#f97316" fill-opacity="1"/>
<circle cx="759.21" cy="262.07" r="3.0" fill="#f97316" fill-opacity="1"/>
<circle cx="779.38" cy="261.47" r="3.0" fill="#f97316" fill-opacity="1"/>
<circle cx="799.55" cy="265.68" r="3.0" fill="#f97316" fill-opacity="1"/>
<circle cx="819.72" cy="263.12" r="3.0" fill="#f97316" fill-opacity="1"/>
<circle cx="839.90" cy="267.21" r="3.0" fill="#f97316" fill-opacity="1"/>
<circle cx="860.07" cy="265.95" r="3.0" fill="#f97316" fill-opacity="1"/>
<circle cx="880.24" cy="265.87" r="3.0" fill="#f97316" fill-opacity="1"/>
<circle cx="900.41" cy="267.60" r="3.0" fill="#f97316" fill-opacity="1"/>
<circle cx="920.59" cy="259.77" r="3.0" fill="#f97316" fill-opacity="1"/>
<circle cx="940.76" cy="250.26" r="3.0" fill="#f97316" fill-opacity="1"/>
<circle cx="960.93" cy="267.67" r="3.0" fill="#f97316" fill-opacity="1"/>
<circle cx="981.10" cy="264.04" r="3.0" fill="#f97316" fill-opacity="1"/>
<circle cx="1001.28" cy="260.10" r="3.0" fill="#f97316" fill-opacity="1"/>
<text x="1008" y="306" class="tick" text-anchor="end">Round 序列；越低越好</text>
<rect x="48" y="379" width="472" height="245" rx="8" fill="#ffffff" stroke="#dbe3ef"/>
<text x="66" y="407" class="label" font-weight="700">响应吞吐量（含 reasoning）</text>
<rect x="366" y="391" width="136" height="26" rx="13" fill="#fef3c7" stroke="#f59e0b" stroke-width="1.4"/>
<text x="434" y="409" class="tick" font-weight="800" text-anchor="middle" fill="#92400e">均值胜出: Infron</text>
<line x1="106" y1="584.00" x2="496" y2="584.00" stroke="#e5e7eb"/>
<text x="98" y="588.00" class="tick" text-anchor="end">0.0</text>
<line x1="106" y1="531.67" x2="496" y2="531.67" stroke="#e5e7eb"/>
<text x="98" y="535.67" class="tick" text-anchor="end">24.6</text>
<line x1="106" y1="479.33" x2="496" y2="479.33" stroke="#e5e7eb"/>
<text x="98" y="483.33" class="tick" text-anchor="end">49.3</text>
<line x1="106" y1="427.00" x2="496" y2="427.00" stroke="#e5e7eb"/>
<text x="98" y="431.00" class="tick" text-anchor="end">73.9</text>
<polyline points="106.00,542.80 108.24,465.36 110.48,528.79 112.72,540.81 114.97,493.74 117.21,507.37 119.45,545.71 121.69,560.69 123.93,542.72 126.17,514.97 128.41,555.37 130.66,515.85 132.90,485.69 135.14,509.21 137.38,529.24 139.62,555.52 141.86,502.37 144.10,528.49 146.34,537.60 148.59,484.14 150.83,518.12 153.07,526.42 155.31,555.56 157.55,488.16 159.79,516.23 162.03,478.33 164.28,546.88 166.52,487.77 168.76,484.46 171.00,513.76 173.24,509.65 175.48,496.69 177.72,502.45 179.97,505.65 182.21,518.58 184.45,503.87 186.69,460.39 188.93,515.92 191.17,487.26 193.41,521.40 195.66,525.04 197.90,497.77 200.14,551.31 202.38,494.19 204.62,519.55 206.86,514.26 209.10,568.22 211.34,561.03 213.59,470.84 215.83,512.72 218.07,527.04 220.31,486.63 222.55,500.75 224.79,503.65 227.03,524.47 229.28,497.05 231.52,488.77 233.76,542.94 236.00,520.09 238.24,516.78 240.48,476.18 242.72,538.72 244.97,551.19 247.21,509.27 249.45,483.33 251.69,515.27 253.93,481.48 256.17,512.00 258.41,500.54 260.66,515.02 262.90,496.94 265.14,488.01 267.38,539.94 269.62,523.97 271.86,490.64 274.10,499.06 276.34,511.37 278.59,553.51 280.83,525.81 283.07,512.36 285.31,527.72 287.55,555.45 289.79,511.23 292.03,533.28 294.28,505.68 296.52,533.45 298.76,503.48 301.00,443.82 303.24,455.99 305.48,516.30 307.72,495.79 309.97,547.49 312.21,462.62 314.45,472.06 316.69,538.64 318.93,465.37 321.17,564.02 323.41,574.63 325.66,560.20 327.90,577.54 330.14,573.23 332.38,566.00 334.62,573.94 336.86,582.74 339.10,560.09 341.34,560.83 343.59,583.60 345.83,582.61 348.07,582.52 350.31,559.73 352.55,574.96 354.79,571.90 357.03,563.65 359.28,571.53 361.52,579.05 363.76,572.64 366.00,572.21 368.24,569.09 370.48,579.59 372.72,572.93 374.97,569.21 377.21,568.73 379.45,579.12 381.69,573.48 383.93,570.86 386.17,572.12 388.41,578.80 390.66,569.91 392.90,579.39 395.14,572.68 397.38,573.58 399.62,569.73 401.86,580.90 404.10,576.89 406.34,576.25 408.59,572.98 410.83,580.72 413.07,576.26 415.31,576.29 417.55,570.12 419.79,582.10 422.03,577.74 424.28,576.53 426.52,577.26 428.76,582.18 431.00,576.41 433.24,573.16 435.48,577.07 437.72,582.35 439.97,578.27 442.21,575.12 444.45,582.79 446.69,578.14 448.93,576.04 451.17,577.83 453.41,580.56 455.66,575.80 457.90,579.03 460.14,583.22 462.38,580.81 464.62,576.25 466.86,576.32 469.10,581.45 471.34,574.96 473.59,573.44 475.83,575.25 478.07,580.80 480.31,576.90 482.55,572.53 484.79,574.62 487.03,580.44 489.28,575.64 491.52,576.67 493.76,576.06 496.00,578.15" fill="none" stroke="#2563eb" stroke-width="3.8" stroke-opacity="1" stroke-linejoin="round" stroke-linecap="round"/>
<circle cx="106.00" cy="542.80" r="3.0" fill="#2563eb" fill-opacity="1"/>
<circle cx="126.17" cy="514.97" r="3.0" fill="#2563eb" fill-opacity="1"/>
<circle cx="146.34" cy="537.60" r="3.0" fill="#2563eb" fill-opacity="1"/>
<circle cx="166.52" cy="487.77" r="3.0" fill="#2563eb" fill-opacity="1"/>
<circle cx="186.69" cy="460.39" r="3.0" fill="#2563eb" fill-opacity="1"/>
<circle cx="206.86" cy="514.26" r="3.0" fill="#2563eb" fill-opacity="1"/>
<circle cx="227.03" cy="524.47" r="3.0" fill="#2563eb" fill-opacity="1"/>
<circle cx="247.21" cy="509.27" r="3.0" fill="#2563eb" fill-opacity="1"/>
<circle cx="267.38" cy="539.94" r="3.0" fill="#2563eb" fill-opacity="1"/>
<circle cx="287.55" cy="555.45" r="3.0" fill="#2563eb" fill-opacity="1"/>
<circle cx="307.72" cy="495.79" r="3.0" fill="#2563eb" fill-opacity="1"/>
<circle cx="327.90" cy="577.54" r="3.0" fill="#2563eb" fill-opacity="1"/>
<circle cx="348.07" cy="582.52" r="3.0" fill="#2563eb" fill-opacity="1"/>
<circle cx="368.24" cy="569.09" r="3.0" fill="#2563eb" fill-opacity="1"/>
<circle cx="388.41" cy="578.80" r="3.0" fill="#2563eb" fill-opacity="1"/>
<circle cx="408.59" cy="572.98" r="3.0" fill="#2563eb" fill-opacity="1"/>
<circle cx="428.76" cy="582.18" r="3.0" fill="#2563eb" fill-opacity="1"/>
<circle cx="448.93" cy="576.04" r="3.0" fill="#2563eb" fill-opacity="1"/>
<circle cx="469.10" cy="581.45" r="3.0" fill="#2563eb" fill-opacity="1"/>
<circle cx="489.28" cy="575.64" r="3.0" fill="#2563eb" fill-opacity="1"/>
<polyline points="106.00,572.14 108.24,581.61 110.48,568.91 112.72,569.08 114.97,580.74 117.21,575.36 119.45,568.58 121.69,567.03 123.93,581.41 126.17,558.42 128.41,573.97 130.66,560.96 132.90,581.67 135.14,574.01 137.38,563.45 139.62,568.09 141.86,581.83 144.10,575.92 146.34,567.53 148.59,577.19 150.83,572.71 153.07,568.71 155.31,566.09 157.55,579.67 159.79,573.34 162.03,565.39 164.28,553.84 166.52,581.33 168.76,568.75 171.00,568.57 173.24,559.39 175.48,581.06 177.72,575.07 179.97,561.84 182.21,574.97 184.45,579.39 186.69,567.51 188.93,561.37 191.17,582.49 193.41,576.54 195.66,581.46 197.90,581.07 200.14,576.64 202.38,567.79 204.62,579.80 206.86,578.97 209.10,576.19 211.34,576.31 213.59,582.68 215.83,577.49 218.07,575.71 220.31,578.59 222.55,579.15 224.79,570.10 227.03,567.77 229.28,580.31 231.52,569.60 233.76,568.51 236.00,569.22 238.24,578.36 240.48,571.59 242.72,569.47 244.97,571.29 247.21,580.41 249.45,575.30 251.69,569.08 253.93,571.15 256.17,573.97 258.41,566.78 260.66,571.32 262.90,579.67 265.14,570.84 267.38,571.16 269.62,567.81 271.86,579.17 274.10,571.68 276.34,569.64 278.59,569.66 280.83,580.58 283.07,572.24 285.31,568.73 287.55,571.40 289.79,580.26 292.03,574.11 294.28,572.52 296.52,566.54 298.76,578.38 301.00,568.43 303.24,578.98 305.48,569.31 307.72,570.61 309.97,569.45 312.21,579.19 314.45,575.47 316.69,568.06 318.93,579.23 321.17,567.00 323.41,580.42 325.66,569.64 327.90,580.68 330.14,582.17 332.38,572.54 334.62,579.03 336.86,566.74 339.10,574.47 341.34,573.04 343.59,581.41 345.83,570.53 348.07,568.41 350.31,570.12 352.55,580.65 354.79,571.95 357.03,565.88 359.28,568.74 361.52,579.76 363.76,573.10 366.00,576.95 368.24,570.45 370.48,579.66 372.72,571.85 374.97,566.31 377.21,569.60 379.45,580.43 381.69,571.98 383.93,568.98 386.17,569.62 388.41,579.39 390.66,570.07 392.90,579.76 395.14,567.69 397.38,569.95 399.62,564.54 401.86,579.52 404.10,568.92 406.34,565.26 408.59,577.88 410.83,580.99 413.07,576.87 415.31,577.60 417.55,578.85 419.79,582.99 422.03,574.01 424.28,576.10 426.52,569.92 428.76,581.75 431.00,576.02 433.24,569.16 435.48,572.26 437.72,581.55 439.97,571.39 442.21,574.87 444.45,579.82 446.69,575.63 448.93,573.35 451.17,569.16 453.41,583.71 455.66,570.87 457.90,567.82 460.14,579.37 462.38,575.14 464.62,575.22 466.86,572.85 469.10,580.24 471.34,572.80 473.59,575.41 475.83,574.52 478.07,581.79 480.31,566.31 482.55,568.61 484.79,577.91 487.03,581.18 489.28,573.19 491.52,568.31 493.76,569.95 496.00,579.61" fill="none" stroke="#f97316" stroke-width="1.8" stroke-opacity="0.45" stroke-linejoin="round" stroke-linecap="round"/>
<circle cx="106.00" cy="572.14" r="1.8" fill="#f97316" fill-opacity="0.55"/>
<circle cx="126.17" cy="558.42" r="1.8" fill="#f97316" fill-opacity="0.55"/>
<circle cx="146.34" cy="567.53" r="1.8" fill="#f97316" fill-opacity="0.55"/>
<circle cx="166.52" cy="581.33" r="1.8" fill="#f97316" fill-opacity="0.55"/>
<circle cx="186.69" cy="567.51" r="1.8" fill="#f97316" fill-opacity="0.55"/>
<circle cx="206.86" cy="578.97" r="1.8" fill="#f97316" fill-opacity="0.55"/>
<circle cx="227.03" cy="567.77" r="1.8" fill="#f97316" fill-opacity="0.55"/>
<circle cx="247.21" cy="580.41" r="1.8" fill="#f97316" fill-opacity="0.55"/>
<circle cx="267.38" cy="571.16" r="1.8" fill="#f97316" fill-opacity="0.55"/>
<circle cx="287.55" cy="571.40" r="1.8" fill="#f97316" fill-opacity="0.55"/>
<circle cx="307.72" cy="570.61" r="1.8" fill="#f97316" fill-opacity="0.55"/>
<circle cx="327.90" cy="580.68" r="1.8" fill="#f97316" fill-opacity="0.55"/>
<circle cx="348.07" cy="568.41" r="1.8" fill="#f97316" fill-opacity="0.55"/>
<circle cx="368.24" cy="570.45" r="1.8" fill="#f97316" fill-opacity="0.55"/>
<circle cx="388.41" cy="579.39" r="1.8" fill="#f97316" fill-opacity="0.55"/>
<circle cx="408.59" cy="577.88" r="1.8" fill="#f97316" fill-opacity="0.55"/>
<circle cx="428.76" cy="581.75" r="1.8" fill="#f97316" fill-opacity="0.55"/>
<circle cx="448.93" cy="573.35" r="1.8" fill="#f97316" fill-opacity="0.55"/>
<circle cx="469.10" cy="580.24" r="1.8" fill="#f97316" fill-opacity="0.55"/>
<circle cx="489.28" cy="573.19" r="1.8" fill="#f97316" fill-opacity="0.55"/>
<text x="496" y="609" class="tick" text-anchor="end">Round 序列；越高越好</text>
<rect x="560" y="379" width="472" height="245" rx="8" fill="#ffffff" stroke="#dbe3ef"/>
<text x="578" y="407" class="label" font-weight="700">实际成本 / 轮</text>
<rect x="878" y="391" width="136" height="26" rx="13" fill="#fef3c7" stroke="#f59e0b" stroke-width="1.4"/>
<text x="946" y="409" class="tick" font-weight="800" text-anchor="middle" fill="#92400e">均值胜出: Infron</text>
<line x1="618" y1="584.00" x2="1008" y2="584.00" stroke="#e5e7eb"/>
<text x="610" y="588.00" class="tick" text-anchor="end">$0.0000</text>
<line x1="618" y1="531.67" x2="1008" y2="531.67" stroke="#e5e7eb"/>
<text x="610" y="535.67" class="tick" text-anchor="end">$0.0002</text>
<line x1="618" y1="479.33" x2="1008" y2="479.33" stroke="#e5e7eb"/>
<text x="610" y="483.33" class="tick" text-anchor="end">$0.0004</text>
<line x1="618" y1="427.00" x2="1008" y2="427.00" stroke="#e5e7eb"/>
<text x="610" y="431.00" class="tick" text-anchor="end">$0.0005</text>
<polyline points="618.00,546.96 620.24,497.37 622.48,547.56 624.72,544.57 626.97,539.49 629.21,551.44 631.45,550.54 633.69,557.71 635.93,553.23 638.17,552.04 640.41,545.17 642.66,530.23 644.90,515.30 647.14,549.65 649.38,558.61 651.62,555.62 653.86,532.92 656.10,543.08 658.34,557.41 660.59,527.25 662.83,555.32 665.07,557.71 667.31,553.83 669.55,532.32 671.79,552.93 674.03,550.84 676.28,555.32 678.52,524.86 680.76,538.30 683.00,552.64 685.24,529.63 687.48,519.18 689.72,545.77 691.97,552.64 694.21,536.21 696.45,524.86 698.69,542.18 700.93,556.82 703.17,530.23 705.41,550.54 707.66,547.86 709.90,549.95 712.14,554.43 714.38,516.19 716.62,532.92 718.86,555.62 721.10,548.15 723.34,556.82 725.59,532.92 727.83,552.34 730.07,555.03 732.31,548.75 734.55,507.83 736.79,538.30 739.03,550.54 741.28,531.13 743.52,550.84 745.76,559.51 748.00,545.47 750.24,525.45 752.48,547.86 754.72,551.14 756.97,549.65 759.21,532.92 761.45,541.28 763.69,557.41 765.93,509.62 768.17,549.05 770.41,551.44 772.66,541.88 774.90,519.78 777.14,541.58 779.38,555.03 781.62,543.67 783.86,520.67 786.10,551.74 788.34,551.74 790.59,546.36 792.83,542.18 795.07,541.88 797.31,557.12 799.55,550.25 801.79,537.40 804.03,556.82 806.28,550.25 808.52,545.17 810.76,534.41 813.00,526.95 815.24,529.93 817.48,547.86 819.72,556.82 821.97,551.44 824.21,528.74 826.45,535.31 828.69,559.51 830.93,491.10 833.17,444.80 835.41,446.59 837.66,445.10 839.90,446.59 842.14,446.29 844.38,445.40 846.62,446.29 848.86,445.10 851.10,445.40 853.34,444.80 855.59,446.59 857.83,445.10 860.07,464.81 862.31,444.80 864.55,446.59 866.79,465.11 869.03,464.81 871.28,464.52 873.52,485.43 875.76,520.37 878.00,520.97 880.24,484.23 882.48,558.31 884.72,520.37 886.97,520.97 889.21,520.67 891.45,521.87 893.69,520.67 895.93,520.97 898.17,520.67 900.41,521.87 902.66,557.12 904.90,521.87 907.14,520.37 909.38,557.71 911.62,557.12 913.86,558.31 916.10,558.01 918.34,557.71 920.59,520.67 922.83,558.31 925.07,557.41 927.31,557.71 929.55,557.12 931.79,558.31 934.03,557.41 936.28,557.71 938.52,557.12 940.76,558.31 943.00,557.41 945.24,557.71 947.48,557.12 949.72,558.31 951.97,557.41 954.21,557.71 956.45,558.31 958.69,557.71 960.93,557.71 963.17,557.12 965.41,558.31 967.66,520.37 969.90,557.12 972.14,558.31 974.38,557.41 976.62,557.71 978.86,557.12 981.10,521.87 983.34,557.12 985.59,557.71 987.83,557.12 990.07,521.87 992.31,557.41 994.55,557.71 996.79,557.12 999.03,558.31 1001.28,557.41 1003.52,557.71 1005.76,557.12 1008.00,558.31" fill="none" stroke="#2563eb" stroke-width="3.8" stroke-opacity="1" stroke-linejoin="round" stroke-linecap="round"/>
<circle cx="618.00" cy="546.96" r="3.0" fill="#2563eb" fill-opacity="1"/>
<circle cx="638.17" cy="552.04" r="3.0" fill="#2563eb" fill-opacity="1"/>
<circle cx="658.34" cy="557.41" r="3.0" fill="#2563eb" fill-opacity="1"/>
<circle cx="678.52" cy="524.86" r="3.0" fill="#2563eb" fill-opacity="1"/>
<circle cx="698.69" cy="542.18" r="3.0" fill="#2563eb" fill-opacity="1"/>
<circle cx="718.86" cy="555.62" r="3.0" fill="#2563eb" fill-opacity="1"/>
<circle cx="739.03" cy="550.54" r="3.0" fill="#2563eb" fill-opacity="1"/>
<circle cx="759.21" cy="532.92" r="3.0" fill="#2563eb" fill-opacity="1"/>
<circle cx="779.38" cy="555.03" r="3.0" fill="#2563eb" fill-opacity="1"/>
<circle cx="799.55" cy="550.25" r="3.0" fill="#2563eb" fill-opacity="1"/>
<circle cx="819.72" cy="556.82" r="3.0" fill="#2563eb" fill-opacity="1"/>
<circle cx="839.90" cy="446.59" r="3.0" fill="#2563eb" fill-opacity="1"/>
<circle cx="860.07" cy="464.81" r="3.0" fill="#2563eb" fill-opacity="1"/>
<circle cx="880.24" cy="484.23" r="3.0" fill="#2563eb" fill-opacity="1"/>
<circle cx="900.41" cy="521.87" r="3.0" fill="#2563eb" fill-opacity="1"/>
<circle cx="920.59" cy="520.67" r="3.0" fill="#2563eb" fill-opacity="1"/>
<circle cx="940.76" cy="558.31" r="3.0" fill="#2563eb" fill-opacity="1"/>
<circle cx="960.93" cy="557.71" r="3.0" fill="#2563eb" fill-opacity="1"/>
<circle cx="981.10" cy="521.87" r="3.0" fill="#2563eb" fill-opacity="1"/>
<circle cx="1001.28" cy="557.41" r="3.0" fill="#2563eb" fill-opacity="1"/>
<polyline points="618.00,495.38 620.24,497.05 622.48,444.32 624.72,495.38 626.97,497.05 629.21,546.68 631.45,495.71 633.69,546.76 635.93,548.44 638.17,546.51 640.41,547.10 642.66,546.76 644.90,548.44 647.14,546.68 649.38,547.10 651.62,495.38 653.86,445.66 656.10,495.13 658.34,495.71 660.59,497.05 662.83,495.13 665.07,495.71 667.31,495.38 669.55,445.66 671.79,546.60 674.03,495.71 676.28,495.38 678.52,548.44 680.76,546.51 683.00,547.10 685.24,546.76 687.48,548.44 689.72,546.68 691.97,547.10 694.21,546.76 696.45,548.44 698.69,546.51 700.93,547.10 703.17,497.05 705.41,546.76 707.66,548.44 709.90,546.76 712.14,547.10 714.38,546.76 716.62,548.44 718.86,495.13 721.10,547.10 723.34,495.38 725.59,497.05 727.83,546.51 730.07,495.71 732.31,546.76 734.55,548.44 736.79,546.76 739.03,495.38 741.28,445.66 743.52,443.82 745.76,495.71 748.00,495.38 750.24,548.44 752.48,546.51 754.72,547.10 756.97,546.76 759.21,548.44 761.45,495.38 763.69,495.71 765.93,495.38 768.17,495.13 770.41,495.71 772.66,495.38 774.90,497.05 777.14,546.51 779.38,547.10 781.62,546.76 783.86,548.44 786.10,546.68 788.34,547.10 790.59,546.76 792.83,548.44 795.07,546.51 797.31,547.10 799.55,546.76 801.79,548.44 804.03,546.68 806.28,547.10 808.52,546.76 810.76,548.44 813.00,546.76 815.24,548.44 817.48,546.76 819.72,547.10 821.97,546.76 824.21,548.44 826.45,547.01 828.69,547.10 830.93,548.44 833.17,546.51 835.41,548.44 837.66,546.76 839.90,548.44 842.14,548.44 844.38,546.76 846.62,548.44 848.86,546.51 851.10,547.10 853.34,546.76 855.59,548.44 857.83,546.68 860.07,547.10 862.31,546.76 864.55,548.44 866.79,546.68 869.03,547.10 871.28,546.76 873.52,548.44 875.76,546.68 878.00,547.10 880.24,546.76 882.48,548.44 884.72,546.51 886.97,547.10 889.21,546.76 891.45,548.44 893.69,546.68 895.93,547.10 898.17,546.76 900.41,548.44 902.66,546.76 904.90,548.44 907.14,546.51 909.38,547.10 911.62,546.76 913.86,548.44 916.10,546.85 918.34,547.10 920.59,546.76 922.83,548.44 925.07,546.51 927.31,495.71 929.55,495.38 931.79,497.05 934.03,495.13 936.28,547.10 938.52,546.76 940.76,548.44 943.00,546.76 945.24,547.10 947.48,546.76 949.72,548.44 951.97,546.51 954.21,547.10 956.45,548.44 958.69,546.51 960.93,547.10 963.17,546.76 965.41,548.44 967.66,546.51 969.90,546.76 972.14,548.44 974.38,546.76 976.62,547.10 978.86,546.76 981.10,497.05 983.34,495.13 985.59,495.71 987.83,495.38 990.07,548.44 992.31,546.51 994.55,547.10 996.79,546.76 999.03,548.44 1001.28,546.51 1003.52,547.10 1005.76,546.76 1008.00,548.44" fill="none" stroke="#f97316" stroke-width="1.8" stroke-opacity="0.45" stroke-linejoin="round" stroke-linecap="round"/>
<circle cx="618.00" cy="495.38" r="1.8" fill="#f97316" fill-opacity="0.55"/>
<circle cx="638.17" cy="546.51" r="1.8" fill="#f97316" fill-opacity="0.55"/>
<circle cx="658.34" cy="495.71" r="1.8" fill="#f97316" fill-opacity="0.55"/>
<circle cx="678.52" cy="548.44" r="1.8" fill="#f97316" fill-opacity="0.55"/>
<circle cx="698.69" cy="546.51" r="1.8" fill="#f97316" fill-opacity="0.55"/>
<circle cx="718.86" cy="495.13" r="1.8" fill="#f97316" fill-opacity="0.55"/>
<circle cx="739.03" cy="495.38" r="1.8" fill="#f97316" fill-opacity="0.55"/>
<circle cx="759.21" cy="548.44" r="1.8" fill="#f97316" fill-opacity="0.55"/>
<circle cx="779.38" cy="547.10" r="1.8" fill="#f97316" fill-opacity="0.55"/>
<circle cx="799.55" cy="546.76" r="1.8" fill="#f97316" fill-opacity="0.55"/>
<circle cx="819.72" cy="547.10" r="1.8" fill="#f97316" fill-opacity="0.55"/>
<circle cx="839.90" cy="548.44" r="1.8" fill="#f97316" fill-opacity="0.55"/>
<circle cx="860.07" cy="547.10" r="1.8" fill="#f97316" fill-opacity="0.55"/>
<circle cx="880.24" cy="546.76" r="1.8" fill="#f97316" fill-opacity="0.55"/>
<circle cx="900.41" cy="548.44" r="1.8" fill="#f97316" fill-opacity="0.55"/>
<circle cx="920.59" cy="546.76" r="1.8" fill="#f97316" fill-opacity="0.55"/>
<circle cx="940.76" cy="548.44" r="1.8" fill="#f97316" fill-opacity="0.55"/>
<circle cx="960.93" cy="547.10" r="1.8" fill="#f97316" fill-opacity="0.55"/>
<circle cx="981.10" cy="497.05" r="1.8" fill="#f97316" fill-opacity="0.55"/>
<circle cx="1001.28" cy="546.51" r="1.8" fill="#f97316" fill-opacity="0.55"/>
<text x="1008" y="609" class="tick" text-anchor="end">Round 序列；越低越好</text>
<rect x="48" y="682" width="472" height="245" rx="8" fill="#ffffff" stroke="#dbe3ef"/>
<text x="66" y="710" class="label" font-weight="700">Token 级缓存命中率</text>
<rect x="366" y="694" width="136" height="26" rx="13" fill="#fef3c7" stroke="#f59e0b" stroke-width="1.4"/>
<text x="434" y="712" class="tick" font-weight="800" text-anchor="middle" fill="#92400e">均值胜出: OpenRouter</text>
<line x1="106" y1="887.00" x2="496" y2="887.00" stroke="#e5e7eb"/>
<text x="98" y="891.00" class="tick" text-anchor="end">0%</text>
<line x1="106" y1="834.67" x2="496" y2="834.67" stroke="#e5e7eb"/>
<text x="98" y="838.67" class="tick" text-anchor="end">35%</text>
<line x1="106" y1="782.33" x2="496" y2="782.33" stroke="#e5e7eb"/>
<text x="98" y="786.33" class="tick" text-anchor="end">70%</text>
<line x1="106" y1="730.00" x2="496" y2="730.00" stroke="#e5e7eb"/>
<text x="98" y="734.00" class="tick" text-anchor="end">105%</text>
<polyline points="106.00,793.78 108.24,747.50 110.48,793.55 112.72,793.78 114.97,747.50 117.21,747.59 119.45,746.82 121.69,747.16 123.93,747.50 126.17,747.59 128.41,793.55 130.66,793.78 132.90,747.50 135.14,747.59 137.38,746.82 139.62,747.16 141.86,747.50 144.10,794.06 146.34,746.82 148.59,747.50 150.83,747.59 153.07,746.82 155.31,747.16 157.55,747.50 159.79,747.59 162.03,746.82 164.28,747.16 166.52,747.50 168.76,747.59 171.00,746.82 173.24,793.78 175.48,747.50 177.72,747.59 179.97,746.82 182.21,747.16 184.45,747.50 186.69,747.59 188.93,746.82 191.17,747.50 193.41,747.16 195.66,747.50 197.90,747.59 200.14,746.82 202.38,793.78 204.62,747.50 206.86,747.59 209.10,793.55 211.34,747.16 213.59,747.50 215.83,747.59 218.07,746.82 220.31,747.16 222.55,747.50 224.79,747.59 227.03,747.16 229.28,747.50 231.52,747.59 233.76,746.82 236.00,747.16 238.24,747.50 240.48,747.59 242.72,746.82 244.97,747.16 247.21,747.50 249.45,747.59 251.69,746.82 253.93,793.78 256.17,747.59 258.41,746.82 260.66,747.16 262.90,794.00 265.14,747.59 267.38,746.82 269.62,747.16 271.86,747.50 274.10,747.59 276.34,746.82 278.59,747.16 280.83,747.50 283.07,747.59 285.31,746.82 287.55,747.16 289.79,747.50 292.03,747.59 294.28,746.82 296.52,747.16 298.76,747.50 301.00,793.78 303.24,747.50 305.48,747.59 307.72,746.82 309.97,747.16 312.21,747.50 314.45,747.59 316.69,746.82 318.93,887.00 321.17,747.59 323.41,747.50 325.66,747.59 327.90,747.50 330.14,747.50 332.38,747.59 334.62,747.50 336.86,887.00 339.10,746.82 341.34,887.00 343.59,747.50 345.83,747.59 348.07,887.00 350.31,747.16 352.55,747.50 354.79,887.00 357.03,887.00 359.28,887.00 361.52,887.00 363.76,747.59 366.00,887.00 368.24,887.00 370.48,747.50 372.72,747.59 374.97,746.82 377.21,747.16 379.45,747.50 381.69,887.00 383.93,746.82 386.17,747.16 388.41,887.00 390.66,747.16 392.90,747.50 395.14,887.00 397.38,746.82 399.62,747.16 401.86,747.50 404.10,747.59 406.34,746.82 408.59,747.16 410.83,747.50 413.07,747.59 415.31,746.82 417.55,747.16 419.79,747.50 422.03,747.59 424.28,746.82 426.52,747.16 428.76,747.50 431.00,747.59 433.24,746.82 435.48,747.16 437.72,747.50 439.97,747.59 442.21,746.82 444.45,747.50 446.69,747.59 448.93,746.82 451.17,747.16 453.41,747.50 455.66,887.00 457.90,747.16 460.14,747.50 462.38,747.59 464.62,746.82 466.86,747.16 469.10,887.00 471.34,747.59 473.59,746.82 475.83,747.16 478.07,747.50 480.31,747.59 482.55,746.82 484.79,747.16 487.03,747.50 489.28,747.59 491.52,746.82 493.76,747.16 496.00,747.50" fill="none" stroke="#2563eb" stroke-width="1.8" stroke-opacity="0.45" stroke-linejoin="round" stroke-linecap="round"/>
<circle cx="106.00" cy="793.78" r="1.8" fill="#2563eb" fill-opacity="0.55"/>
<circle cx="126.17" cy="747.59" r="1.8" fill="#2563eb" fill-opacity="0.55"/>
<circle cx="146.34" cy="746.82" r="1.8" fill="#2563eb" fill-opacity="0.55"/>
<circle cx="166.52" cy="747.50" r="1.8" fill="#2563eb" fill-opacity="0.55"/>
<circle cx="186.69" cy="747.59" r="1.8" fill="#2563eb" fill-opacity="0.55"/>
<circle cx="206.86" cy="747.59" r="1.8" fill="#2563eb" fill-opacity="0.55"/>
<circle cx="227.03" cy="747.16" r="1.8" fill="#2563eb" fill-opacity="0.55"/>
<circle cx="247.21" cy="747.50" r="1.8" fill="#2563eb" fill-opacity="0.55"/>
<circle cx="267.38" cy="746.82" r="1.8" fill="#2563eb" fill-opacity="0.55"/>
<circle cx="287.55" cy="747.16" r="1.8" fill="#2563eb" fill-opacity="0.55"/>
<circle cx="307.72" cy="746.82" r="1.8" fill="#2563eb" fill-opacity="0.55"/>
<circle cx="327.90" cy="747.50" r="1.8" fill="#2563eb" fill-opacity="0.55"/>
<circle cx="348.07" cy="887.00" r="1.8" fill="#2563eb" fill-opacity="0.55"/>
<circle cx="368.24" cy="887.00" r="1.8" fill="#2563eb" fill-opacity="0.55"/>
<circle cx="388.41" cy="887.00" r="1.8" fill="#2563eb" fill-opacity="0.55"/>
<circle cx="408.59" cy="747.16" r="1.8" fill="#2563eb" fill-opacity="0.55"/>
<circle cx="428.76" cy="747.50" r="1.8" fill="#2563eb" fill-opacity="0.55"/>
<circle cx="448.93" cy="746.82" r="1.8" fill="#2563eb" fill-opacity="0.55"/>
<circle cx="469.10" cy="887.00" r="1.8" fill="#2563eb" fill-opacity="0.55"/>
<circle cx="489.28" cy="747.59" r="1.8" fill="#2563eb" fill-opacity="0.55"/>
<polyline points="106.00,747.16 108.24,747.50 110.48,887.00 112.72,887.00 114.97,747.50 117.21,747.59 119.45,746.82 121.69,747.16 123.93,747.50 126.17,747.59 128.41,746.82 130.66,747.16 132.90,747.50 135.14,747.59 137.38,746.82 139.62,887.00 141.86,887.00 144.10,887.00 146.34,746.82 148.59,747.50 150.83,887.00 153.07,887.00 155.31,747.16 157.55,887.00 159.79,747.59 162.03,746.82 164.28,747.16 166.52,747.50 168.76,747.59 171.00,746.82 173.24,747.16 175.48,747.50 177.72,747.59 179.97,746.82 182.21,747.16 184.45,747.50 186.69,747.59 188.93,746.82 191.17,747.50 193.41,747.16 195.66,747.50 197.90,747.59 200.14,746.82 202.38,747.16 204.62,747.50 206.86,887.00 209.10,746.82 211.34,887.00 213.59,747.50 215.83,747.59 218.07,746.82 220.31,747.16 222.55,747.50 224.79,747.59 227.03,747.16 229.28,887.00 231.52,887.00 233.76,887.00 236.00,747.16 238.24,747.50 240.48,747.59 242.72,746.82 244.97,747.16 247.21,747.50 249.45,747.59 251.69,887.00 253.93,887.00 256.17,747.59 258.41,746.82 260.66,747.16 262.90,747.50 265.14,747.59 267.38,746.82 269.62,747.16 271.86,747.50 274.10,747.59 276.34,746.82 278.59,747.16 280.83,747.50 283.07,747.59 285.31,746.82 287.55,747.16 289.79,747.50 292.03,747.59 294.28,746.82 296.52,747.16 298.76,747.50 301.00,747.16 303.24,747.50 305.48,747.59 307.72,746.82 309.97,747.16 312.21,747.50 314.45,747.59 316.69,746.82 318.93,747.50 321.17,747.59 323.41,747.50 325.66,747.59 327.90,747.50 330.14,747.50 332.38,747.59 334.62,747.50 336.86,747.59 339.10,746.82 341.34,747.16 343.59,747.50 345.83,747.59 348.07,746.82 350.31,747.16 352.55,747.50 354.79,747.59 357.03,746.82 359.28,747.16 361.52,747.50 363.76,747.59 366.00,746.82 368.24,747.16 370.48,747.50 372.72,747.59 374.97,746.82 377.21,747.16 379.45,747.50 381.69,747.59 383.93,746.82 386.17,747.16 388.41,747.50 390.66,747.16 392.90,747.50 395.14,747.59 397.38,746.82 399.62,747.16 401.86,747.50 404.10,747.59 406.34,746.82 408.59,747.16 410.83,747.50 413.07,747.59 415.31,887.00 417.55,887.00 419.79,747.50 422.03,747.59 424.28,746.82 426.52,747.16 428.76,747.50 431.00,747.59 433.24,746.82 435.48,747.16 437.72,747.50 439.97,747.59 442.21,746.82 444.45,747.50 446.69,747.59 448.93,746.82 451.17,747.16 453.41,747.50 455.66,747.59 457.90,747.16 460.14,747.50 462.38,747.59 464.62,746.82 466.86,747.16 469.10,887.00 471.34,747.59 473.59,746.82 475.83,747.16 478.07,747.50 480.31,747.59 482.55,746.82 484.79,747.16 487.03,747.50 489.28,747.59 491.52,746.82 493.76,747.16 496.00,747.50" fill="none" stroke="#f97316" stroke-width="3.8" stroke-opacity="1" stroke-linejoin="round" stroke-linecap="round"/>
<circle cx="106.00" cy="747.16" r="3.0" fill="#f97316" fill-opacity="1"/>
<circle cx="126.17" cy="747.59" r="3.0" fill="#f97316" fill-opacity="1"/>
<circle cx="146.34" cy="746.82" r="3.0" fill="#f97316" fill-opacity="1"/>
<circle cx="166.52" cy="747.50" r="3.0" fill="#f97316" fill-opacity="1"/>
<circle cx="186.69" cy="747.59" r="3.0" fill="#f97316" fill-opacity="1"/>
<circle cx="206.86" cy="887.00" r="3.0" fill="#f97316" fill-opacity="1"/>
<circle cx="227.03" cy="747.16" r="3.0" fill="#f97316" fill-opacity="1"/>
<circle cx="247.21" cy="747.50" r="3.0" fill="#f97316" fill-opacity="1"/>
<circle cx="267.38" cy="746.82" r="3.0" fill="#f97316" fill-opacity="1"/>
<circle cx="287.55" cy="747.16" r="3.0" fill="#f97316" fill-opacity="1"/>
<circle cx="307.72" cy="746.82" r="3.0" fill="#f97316" fill-opacity="1"/>
<circle cx="327.90" cy="747.50" r="3.0" fill="#f97316" fill-opacity="1"/>
<circle cx="348.07" cy="746.82" r="3.0" fill="#f97316" fill-opacity="1"/>
<circle cx="368.24" cy="747.16" r="3.0" fill="#f97316" fill-opacity="1"/>
<circle cx="388.41" cy="747.50" r="3.0" fill="#f97316" fill-opacity="1"/>
<circle cx="408.59" cy="747.16" r="3.0" fill="#f97316" fill-opacity="1"/>
<circle cx="428.76" cy="747.50" r="3.0" fill="#f97316" fill-opacity="1"/>
<circle cx="448.93" cy="746.82" r="3.0" fill="#f97316" fill-opacity="1"/>
<circle cx="469.10" cy="887.00" r="3.0" fill="#f97316" fill-opacity="1"/>
<circle cx="489.28" cy="747.59" r="3.0" fill="#f97316" fill-opacity="1"/>
<text x="496" y="912" class="tick" text-anchor="end">Round 序列；越高越好</text>
<rect x="830" y="28" width="14" height="14" rx="3" fill="#2563eb"/>
<text x="852" y="40" class="label">Infron</text>
<rect x="830" y="52" width="14" height="14" rx="3" fill="#f97316"/>
<text x="852" y="64" class="label">OpenRouter</text>
</svg>