<svg xmlns="http://www.w3.org/2000/svg" width="1280" height="720" viewBox="0 0 1280 720"><style>text{font-family:-apple-system,BlinkMacSystemFont,'Segoe UI',sans-serif;fill:#111827}.title{font-size:22px;font-weight:700}.label{font-size:13px;fill:#374151}.tick{font-size:12px;fill:#6b7280}.value{font-size:12px;fill:#111827}</style><rect width="100%" height="100%" fill="#ffffff"/>
<text x="48" y="38" class="title">结论总览：核心指标与路由模式胜出方</text>
<text x="48" y="64" class="label">基于严格 A/B 配对样本；每个单元格显示同一 routing sort 下表现更好的一方。</text>
<rect x="48" y="96" width="208" height="118" rx="10" fill="#f8fafc" stroke="#dbe3ef"/>
<text x="66" y="124" class="label" font-weight="800">缓存命中率</text>
<text x="66" y="148" class="value" font-size="11" font-weight="800" fill="#2563eb">Infron 2/4 胜</text>
<text x="66" y="168" class="value" font-size="11" font-weight="800" fill="#2563eb">最大优势 14.60%</text>
<text x="66" y="200" class="tick">越高越好</text>
<rect x="274" y="96" width="208" height="118" rx="10" fill="#f8fafc" stroke="#dbe3ef"/>
<text x="292" y="124" class="label" font-weight="800">实际成本</text>
<text x="292" y="148" class="value" font-size="11" font-weight="800" fill="#2563eb">Infron 2/4 胜</text>
<text x="292" y="168" class="value" font-size="11" font-weight="800" fill="#2563eb">最大优势 18.32%</text>
<text x="292" y="200" class="tick">越低越好</text>
<rect x="500" y="96" width="208" height="118" rx="10" fill="#f8fafc" stroke="#dbe3ef"/>
<text x="518" y="124" class="label" font-weight="800">吞吐量</text>
<text x="518" y="148" class="value" font-size="11" font-weight="800" fill="#2563eb">Infron 4/4 胜</text>
<text x="518" y="168" class="value" font-size="11" font-weight="800" fill="#2563eb">最大优势 1334.94%</text>
<text x="518" y="200" class="tick">越高越好</text>
<rect x="726" y="96" width="208" height="118" rx="10" fill="#f8fafc" stroke="#dbe3ef"/>
<text x="744" y="124" class="label" font-weight="800">时延</text>
<text x="744" y="148" class="value" font-size="11" font-weight="800" fill="#f97316">OpenRouter 3/4 胜</text>
<text x="744" y="168" class="value" font-size="11" font-weight="800" fill="#f97316">最大优势 48.24%</text>
<text x="744" y="200" class="tick">越低越好</text>
<rect x="952" y="96" width="208" height="118" rx="10" fill="#f8fafc" stroke="#dbe3ef"/>
<text x="970" y="124" class="label" font-weight="800">TTFT</text>
<text x="970" y="148" class="value" font-size="11" font-weight="800" fill="#2563eb">Infron 3/4 胜</text>
<text x="970" y="168" class="value" font-size="11" font-weight="800" fill="#2563eb">最大优势 49.45%</text>
<text x="970" y="200" class="tick">越低越好</text>
<rect x="72" y="284" width="150" height="58" fill="#eef2ff" stroke="#c7d2fe"/>
<text x="147.0" y="320" class="label" font-weight="800" text-anchor="middle">路由模式</text>
<rect x="222" y="284" width="145" height="58" fill="#eef2ff" stroke="#c7d2fe"/>
<text x="294.5" y="320" class="label" font-weight="800" text-anchor="middle">吞吐达成</text>
<rect x="367" y="284" width="145" height="58" fill="#eef2ff" stroke="#c7d2fe"/>
<text x="439.5" y="320" class="label" font-weight="800" text-anchor="middle">成本达成</text>
<rect x="512" y="284" width="145" height="58" fill="#eef2ff" stroke="#c7d2fe"/>
<text x="584.5" y="320" class="label" font-weight="800" text-anchor="middle">时延达成</text>
<rect x="657" y="284" width="145" height="58" fill="#eef2ff" stroke="#c7d2fe"/>
<text x="729.5" y="320" class="label" font-weight="800" text-anchor="middle">TTFT 达成</text>
<rect x="802" y="284" width="145" height="58" fill="#eef2ff" stroke="#c7d2fe"/>
<text x="874.5" y="320" class="label" font-weight="800" text-anchor="middle">缓存命中</text>
<rect x="947" y="284" width="260" height="58" fill="#eef2ff" stroke="#c7d2fe"/>
<text x="1077.0" y="320" class="label" font-weight="800" text-anchor="middle">路由模式达成情况</text>
<rect x="72" y="342" width="150" height="58" fill="#ffffff" stroke="#e5e7eb"/>
<text x="90" y="377" class="label" font-weight="800">吞吐优先</text>
<rect x="225" y="345" width="139" height="52" rx="8" fill="#fef3c7" stroke="#f59e0b" stroke-width="2.4"/>
<rect x="231" y="351" width="127" height="40" rx="6" fill="#eff6ff" stroke="#93c5fd" stroke-width="1.4"/>
<text x="294.5" y="367" class="label" font-weight="900" text-anchor="middle" fill="#2563eb">Infron</text>
<text x="294.5" y="386" class="tick" font-weight="800" text-anchor="middle" fill="#2563eb">高 675.35%</text>
<text x="353" y="358" class="tick" font-size="10" font-weight="900" text-anchor="end" fill="#92400e">目标</text>
<rect x="367" y="342" width="145" height="58" fill="#fff7ed" stroke="#fdba74"/>
<text x="439.5" y="367" class="label" font-weight="900" text-anchor="middle" fill="#f97316">OpenRouter</text>
<text x="439.5" y="386" class="tick" font-weight="800" text-anchor="middle" fill="#f97316">低 18.88%</text>
<rect x="512" y="342" width="145" height="58" fill="#fff7ed" stroke="#fdba74"/>
<text x="584.5" y="367" class="label" font-weight="900" text-anchor="middle" fill="#f97316">OpenRouter</text>
<text x="584.5" y="386" class="tick" font-weight="800" text-anchor="middle" fill="#f97316">低 48.24%</text>
<rect x="657" y="342" width="145" height="58" fill="#eff6ff" stroke="#93c5fd"/>
<text x="729.5" y="367" class="label" font-weight="900" text-anchor="middle" fill="#2563eb">Infron</text>
<text x="729.5" y="386" class="tick" font-weight="800" text-anchor="middle" fill="#2563eb">低 12.05%</text>
<rect x="802" y="342" width="145" height="58" fill="#fff7ed" stroke="#fdba74"/>
<text x="874.5" y="367" class="label" font-weight="900" text-anchor="middle" fill="#f97316">OpenRouter</text>
<text x="874.5" y="386" class="tick" font-weight="800" text-anchor="middle" fill="#f97316">高 13.64%</text>
<rect x="947" y="342" width="260" height="58" fill="#eff6ff" stroke="#93c5fd"/>
<text x="963" y="366" class="label" font-weight="900" fill="#2563eb">吞吐目标: Infron</text>
<text x="963" y="386" class="tick" font-weight="800" fill="#2563eb">高 675.35%</text>
<rect x="72" y="400" width="150" height="58" fill="#ffffff" stroke="#e5e7eb"/>
<text x="90" y="435" class="label" font-weight="800">成本优先</text>
<rect x="222" y="400" width="145" height="58" fill="#eff6ff" stroke="#93c5fd"/>
<text x="294.5" y="425" class="label" font-weight="900" text-anchor="middle" fill="#2563eb">Infron</text>
<text x="294.5" y="444" class="tick" font-weight="800" text-anchor="middle" fill="#2563eb">高 1334.94%</text>
<rect x="370" y="403" width="139" height="52" rx="8" fill="#fef3c7" stroke="#f59e0b" stroke-width="2.4"/>
<rect x="376" y="409" width="127" height="40" rx="6" fill="#fff7ed" stroke="#fdba74" stroke-width="1.4"/>
<text x="439.5" y="425" class="label" font-weight="900" text-anchor="middle" fill="#f97316">OpenRouter</text>
<text x="439.5" y="444" class="tick" font-weight="800" text-anchor="middle" fill="#f97316">低 67.32%</text>
<text x="498" y="416" class="tick" font-size="10" font-weight="900" text-anchor="end" fill="#92400e">目标</text>
<rect x="512" y="400" width="145" height="58" fill="#fff7ed" stroke="#fdba74"/>
<text x="584.5" y="425" class="label" font-weight="900" text-anchor="middle" fill="#f97316">OpenRouter</text>
<text x="584.5" y="444" class="tick" font-weight="800" text-anchor="middle" fill="#f97316">低 38.60%</text>
<rect x="657" y="400" width="145" height="58" fill="#eff6ff" stroke="#93c5fd"/>
<text x="729.5" y="425" class="label" font-weight="900" text-anchor="middle" fill="#2563eb">Infron</text>
<text x="729.5" y="444" class="tick" font-weight="800" text-anchor="middle" fill="#2563eb">低 21.67%</text>
<rect x="802" y="400" width="145" height="58" fill="#fff7ed" stroke="#fdba74"/>
<text x="874.5" y="425" class="label" font-weight="900" text-anchor="middle" fill="#f97316">OpenRouter</text>
<text x="874.5" y="444" class="tick" font-weight="800" text-anchor="middle" fill="#f97316">高 1213.63%</text>
<rect x="947" y="400" width="260" height="58" fill="#fff7ed" stroke="#fdba74"/>
<text x="963" y="424" class="label" font-weight="900" fill="#f97316">成本目标: OpenRouter</text>
<text x="963" y="444" class="tick" font-weight="800" fill="#f97316">低 67.32%</text>
<rect x="72" y="458" width="150" height="58" fill="#ffffff" stroke="#e5e7eb"/>
<text x="90" y="493" class="label" font-weight="800">端到端 E2E 时延优先</text>
<rect x="222" y="458" width="145" height="58" fill="#eff6ff" stroke="#93c5fd"/>
<text x="294.5" y="483" class="label" font-weight="900" text-anchor="middle" fill="#2563eb">Infron</text>
<text x="294.5" y="502" class="tick" font-weight="800" text-anchor="middle" fill="#2563eb">高 152.73%</text>
<rect x="367" y="458" width="145" height="58" fill="#eff6ff" stroke="#93c5fd"/>
<text x="439.5" y="483" class="label" font-weight="900" text-anchor="middle" fill="#2563eb">Infron</text>
<text x="439.5" y="502" class="tick" font-weight="800" text-anchor="middle" fill="#2563eb">低 8.39%</text>
<rect x="515" y="461" width="139" height="52" rx="8" fill="#fef3c7" stroke="#f59e0b" stroke-width="2.4"/>
<rect x="521" y="467" width="127" height="40" rx="6" fill="#eff6ff" stroke="#93c5fd" stroke-width="1.4"/>
<text x="584.5" y="483" class="label" font-weight="900" text-anchor="middle" fill="#2563eb">Infron</text>
<text x="584.5" y="502" class="tick" font-weight="800" text-anchor="middle" fill="#2563eb">低 47.74%</text>
<text x="643" y="474" class="tick" font-size="10" font-weight="900" text-anchor="end" fill="#92400e">目标</text>
<rect x="657" y="458" width="145" height="58" fill="#eff6ff" stroke="#93c5fd"/>
<text x="729.5" y="483" class="label" font-weight="900" text-anchor="middle" fill="#2563eb">Infron</text>
<text x="729.5" y="502" class="tick" font-weight="800" text-anchor="middle" fill="#2563eb">低 49.45%</text>
<rect x="802" y="458" width="145" height="58" fill="#eff6ff" stroke="#93c5fd"/>
<text x="874.5" y="483" class="label" font-weight="900" text-anchor="middle" fill="#2563eb">Infron</text>
<text x="874.5" y="502" class="tick" font-weight="800" text-anchor="middle" fill="#2563eb">高 14.60%</text>
<rect x="947" y="458" width="260" height="58" fill="#eff6ff" stroke="#93c5fd"/>
<text x="963" y="482" class="label" font-weight="900" fill="#2563eb">时延目标: Infron</text>
<text x="963" y="502" class="tick" font-weight="800" fill="#2563eb">低 47.74%</text>
<rect x="72" y="516" width="150" height="58" fill="#ffffff" stroke="#e5e7eb"/>
<text x="90" y="551" class="label" font-weight="800">流式 TTFT 优先</text>
<rect x="222" y="516" width="145" height="58" fill="#eff6ff" stroke="#93c5fd"/>
<text x="294.5" y="541" class="label" font-weight="900" text-anchor="middle" fill="#2563eb">Infron</text>
<text x="294.5" y="560" class="tick" font-weight="800" text-anchor="middle" fill="#2563eb">高 179.67%</text>
<rect x="367" y="516" width="145" height="58" fill="#eff6ff" stroke="#93c5fd"/>
<text x="439.5" y="541" class="label" font-weight="900" text-anchor="middle" fill="#2563eb">Infron</text>
<text x="439.5" y="560" class="tick" font-weight="800" text-anchor="middle" fill="#2563eb">低 18.32%</text>
<rect x="512" y="516" width="145" height="58" fill="#fff7ed" stroke="#fdba74"/>
<text x="584.5" y="541" class="label" font-weight="900" text-anchor="middle" fill="#f97316">OpenRouter</text>
<text x="584.5" y="560" class="tick" font-weight="800" text-anchor="middle" fill="#f97316">低 38.28%</text>
<rect x="660" y="519" width="139" height="52" rx="8" fill="#fef3c7" stroke="#f59e0b" stroke-width="2.4"/>
<rect x="666" y="525" width="127" height="40" rx="6" fill="#fff7ed" stroke="#fdba74" stroke-width="1.4"/>
<text x="729.5" y="541" class="label" font-weight="900" text-anchor="middle" fill="#f97316">OpenRouter</text>
<text x="729.5" y="560" class="tick" font-weight="800" text-anchor="middle" fill="#f97316">低 29.94%</text>
<text x="788" y="532" class="tick" font-size="10" font-weight="900" text-anchor="end" fill="#92400e">目标</text>
<rect x="802" y="516" width="145" height="58" fill="#eff6ff" stroke="#93c5fd"/>
<text x="874.5" y="541" class="label" font-weight="900" text-anchor="middle" fill="#2563eb">Infron</text>
<text x="874.5" y="560" class="tick" font-weight="800" text-anchor="middle" fill="#2563eb">高 0.97%</text>
<rect x="947" y="516" width="260" height="58" fill="#fff7ed" stroke="#fdba74"/>
<text x="963" y="540" class="label" font-weight="900" fill="#f97316">TTFT 目标: OpenRouter</text>
<text x="963" y="560" class="tick" font-weight="800" fill="#f97316">低 29.94%</text>
<text x="72" y="600" class="label">读法：前四列与四种路由模式顺序对齐；金色对角线表示该路由模式目标指标的胜出方。</text>
<text x="72" y="624" class="label">缓存和吞吐越高越好，成本、时延和 TTFT 越低越好；缓存命中作为跨模式辅助指标单独放在最后一列。</text>
<rect x="940" y="642" width="14" height="14" rx="3" fill="#2563eb"/>
<text x="962" y="654" class="label">Infron</text>
<rect x="940" y="666" width="14" height="14" rx="3" fill="#f97316"/>
<text x="962" y="678" class="label">OpenRouter</text>
</svg>