<svg xmlns="http://www.w3.org/2000/svg" width="1080" height="1000" viewBox="0 0 1080 1000"><style>text{font-family:-apple-system,BlinkMacSystemFont,'Segoe UI',sans-serif;fill:#111827}.title{font-size:22px;font-weight:700}.label{font-size:13px;fill:#374151}.tick{font-size:12px;fill:#6b7280}.value{font-size:12px;fill:#111827}</style><rect width="100%" height="100%" fill="#ffffff"/>
<text x="48" y="34" class="title">端到端 E2E 时延优先路由模式：指标生成过程对比曲线</text>
<text x="48" y="58" class="label">按 group/round 顺序绘制每轮指标；曲线展示汇总均值背后的波动过程。</text>
<rect x="48" y="76" width="472" height="245" rx="8" fill="#ffffff" stroke="#dbe3ef"/>
<text x="66" y="104" class="label" font-weight="700">端到端 E2E 时延 / 请求（含 reasoning）</text>
<rect x="366" y="88" width="136" height="26" rx="13" fill="#fef3c7" stroke="#f59e0b" stroke-width="1.4"/>
<text x="434" y="106" class="tick" font-weight="800" text-anchor="middle" fill="#92400e">均值胜出: Infron</text>
<line x1="106" y1="281.00" x2="496" y2="281.00" stroke="#e5e7eb"/>
<text x="98" y="285.00" class="tick" text-anchor="end">0.0</text>
<line x1="106" y1="228.67" x2="496" y2="228.67" stroke="#e5e7eb"/>
<text x="98" y="232.67" class="tick" text-anchor="end">5379</text>
<line x1="106" y1="176.33" x2="496" y2="176.33" stroke="#e5e7eb"/>
<text x="98" y="180.33" class="tick" text-anchor="end">10758</text>
<line x1="106" y1="124.00" x2="496" y2="124.00" stroke="#e5e7eb"/>
<text x="98" y="128.00" class="tick" text-anchor="end">16138</text>
<polyline points="106.00,261.77 107.96,262.53 109.92,261.58 111.88,264.72 113.84,265.38 115.80,264.11 117.76,264.63 119.72,266.21 121.68,264.31 123.64,264.05 125.60,262.25 127.56,264.56 129.52,259.87 131.48,263.75 133.44,262.94 135.40,257.30 137.36,261.06 139.32,260.86 141.28,262.14 143.24,249.50 145.20,264.49 147.16,263.40 149.12,265.89 151.08,252.41 153.04,262.78 154.99,260.98 156.95,264.10 158.91,264.12 160.87,266.57 162.83,262.90 164.79,266.53 166.75,263.98 168.71,263.82 170.67,263.36 172.63,262.74 174.59,264.99 176.55,264.25 178.51,263.89 180.47,262.63 182.43,264.16 184.39,264.96 186.35,257.95 188.31,260.01 190.27,264.16 192.23,261.21 194.19,253.69 196.15,254.72 198.11,248.18 200.07,262.91 202.03,254.18 203.99,261.26 205.95,255.03 207.91,254.72 209.87,251.80 211.83,256.69 213.79,259.36 215.75,261.04 217.71,262.24 219.67,258.13 221.63,266.53 223.59,263.99 225.55,221.42 227.51,264.20 229.47,263.31 231.43,264.91 233.39,222.68 235.35,264.34 237.31,262.41 239.27,262.97 241.23,243.73 243.19,253.25 245.15,259.28 247.11,261.60 249.07,240.79 251.03,262.97 252.98,264.39 254.94,265.66 256.90,256.81 258.86,265.61 260.82,255.71 262.78,256.43 264.74,264.26 266.70,265.27 268.66,265.48 270.62,266.64 272.58,262.41 274.54,263.21 276.50,261.50 278.46,260.62 280.42,258.55 282.38,261.05 284.34,259.95 286.30,262.21 288.26,257.18 290.22,262.60 292.18,266.30 294.14,265.73 296.10,252.32 298.06,264.64 300.02,261.17 301.98,262.09 303.94,260.60 305.90,262.19 307.86,246.72 309.82,266.63 311.78,264.42 313.74,265.43 315.70,247.98 317.66,263.34 319.62,256.09 321.58,260.44 323.54,262.99 325.50,260.06 327.46,262.75 329.42,266.74 331.38,261.50 333.34,263.12 335.30,266.59 337.26,261.86 339.22,256.22 341.18,264.00 343.14,267.39 345.10,264.37 347.06,256.06 349.02,264.53 350.97,264.37 352.93,266.17 354.89,233.31 356.85,263.11 358.81,261.89 360.77,264.73 362.73,248.04 364.69,264.64 366.65,258.88 368.61,265.14 370.57,253.04 372.53,264.60 374.49,266.56 376.45,263.17 378.41,263.30 380.37,261.28 382.33,263.00 384.29,262.33 386.25,261.82 388.21,261.77 390.17,264.45 392.13,265.47 394.09,258.81 396.05,260.81 398.01,263.67 399.97,263.77 401.93,265.06 403.89,261.79 405.85,241.36 407.81,263.20 409.77,263.47 411.73,265.64 413.69,243.42 415.65,265.14 417.61,263.14 419.57,263.01 421.53,252.28 423.49,265.42 425.45,260.30 427.41,259.85 429.37,259.93 431.33,265.02 433.29,264.93 435.25,263.56 437.21,264.38 439.17,262.08 441.13,260.79 443.09,262.14 445.05,263.63 447.01,266.79 448.96,264.68 450.92,262.54 452.88,265.62 454.84,262.18 456.80,263.48 458.76,264.93 460.72,254.29 462.68,264.31 464.64,265.69 466.60,264.28 468.56,249.93 470.52,264.59 472.48,265.21 474.44,264.77 476.40,252.00 478.36,261.99 480.32,264.24 482.28,222.84 484.24,252.29 486.20,266.51 488.16,265.52 490.12,253.61 492.08,254.19 494.04,261.86 496.00,261.62" fill="none" stroke="#2563eb" stroke-width="3.8" stroke-opacity="1" stroke-linejoin="round" stroke-linecap="round"/>
<circle cx="106.00" cy="261.77" r="3.0" fill="#2563eb" fill-opacity="1"/>
<circle cx="127.56" cy="264.56" r="3.0" fill="#2563eb" fill-opacity="1"/>
<circle cx="149.12" cy="265.89" r="3.0" fill="#2563eb" fill-opacity="1"/>
<circle cx="170.67" cy="263.36" r="3.0" fill="#2563eb" fill-opacity="1"/>
<circle cx="192.23" cy="261.21" r="3.0" fill="#2563eb" fill-opacity="1"/>
<circle cx="213.79" cy="259.36" r="3.0" fill="#2563eb" fill-opacity="1"/>
<circle cx="235.35" cy="264.34" r="3.0" fill="#2563eb" fill-opacity="1"/>
<circle cx="256.90" cy="256.81" r="3.0" fill="#2563eb" fill-opacity="1"/>
<circle cx="278.46" cy="260.62" r="3.0" fill="#2563eb" fill-opacity="1"/>
<circle cx="300.02" cy="261.17" r="3.0" fill="#2563eb" fill-opacity="1"/>
<circle cx="321.58" cy="260.44" r="3.0" fill="#2563eb" fill-opacity="1"/>
<circle cx="343.14" cy="267.39" r="3.0" fill="#2563eb" fill-opacity="1"/>
<circle cx="364.69" cy="264.64" r="3.0" fill="#2563eb" fill-opacity="1"/>
<circle cx="386.25" cy="261.82" r="3.0" fill="#2563eb" fill-opacity="1"/>
<circle cx="407.81" cy="263.20" r="3.0" fill="#2563eb" fill-opacity="1"/>
<circle cx="429.37" cy="259.93" r="3.0" fill="#2563eb" fill-opacity="1"/>
<circle cx="450.92" cy="262.54" r="3.0" fill="#2563eb" fill-opacity="1"/>
<circle cx="472.48" cy="265.21" r="3.0" fill="#2563eb" fill-opacity="1"/>
<circle cx="494.04" cy="261.86" r="3.0" fill="#2563eb" fill-opacity="1"/>
<polyline points="106.00,219.53 107.96,235.01 109.92,254.47 111.88,140.82 113.84,235.87 115.80,250.96 117.76,251.10 119.72,250.75 121.68,253.24 123.64,254.00 125.60,239.16 127.56,264.11 129.52,241.38 131.48,253.15 133.44,244.73 135.40,260.00 137.36,229.72 139.32,217.16 141.28,227.20 143.24,259.10 145.20,251.78 147.16,254.86 149.12,236.56 151.08,263.31 153.04,231.45 154.99,231.29 156.95,241.13 158.91,262.25 160.87,255.12 162.83,253.05 164.79,249.89 166.75,262.16 168.71,237.51 170.67,255.91 172.63,233.82 174.59,263.93 176.55,244.05 178.51,253.65 180.47,251.80 182.43,262.03 184.39,257.18 186.35,254.42 188.31,251.98 190.27,257.80 192.23,249.96 194.19,235.84 196.15,234.19 198.11,262.28 200.07,252.79 202.03,232.35 203.99,235.75 205.95,219.75 207.91,253.92 209.87,253.47 211.83,238.71 213.79,217.15 215.75,224.91 217.71,203.08 219.67,253.84 221.63,235.16 223.59,243.86 225.55,169.86 227.51,246.65 229.47,254.46 231.43,247.70 233.39,203.19 235.35,240.13 237.31,220.61 239.27,249.95 241.23,261.59 243.19,244.12 245.15,238.28 247.11,235.34 249.07,260.40 251.03,240.78 252.98,247.72 254.94,194.89 256.90,261.94 258.86,254.22 260.82,257.87 262.78,203.06 264.74,253.14 266.70,250.46 268.66,232.87 270.62,210.06 272.58,257.56 274.54,249.93 276.50,237.28 278.46,251.13 280.42,262.23 282.38,237.77 284.34,249.12 286.30,185.21 288.26,260.33 290.22,250.58 292.18,228.59 294.14,232.26 296.10,261.73 298.06,230.53 300.02,244.00 301.98,229.69 303.94,239.04 305.90,223.58 307.86,264.89 309.82,209.58 311.78,230.03 313.74,215.16 315.70,254.54 317.66,243.92 319.62,254.70 321.58,245.61 323.54,260.43 325.50,252.08 327.46,254.14 329.42,241.71 331.38,261.40 333.34,246.27 335.30,250.82 337.26,251.87 339.22,260.66 341.18,253.40 343.14,249.20 345.10,219.80 347.06,188.10 349.02,252.12 350.97,221.86 352.93,235.79 354.89,222.83 356.85,170.01 358.81,236.79 360.77,236.12 362.73,263.93 364.69,252.77 366.65,246.14 368.61,210.03 370.57,261.58 372.53,203.88 374.49,251.18 376.45,228.98 378.41,258.12 380.37,228.86 382.33,249.17 384.29,223.92 386.25,264.31 388.21,239.76 390.17,239.06 392.13,219.71 394.09,240.66 396.05,250.41 398.01,250.37 399.97,248.20 401.93,234.36 403.89,243.96 405.85,144.02 407.81,254.42 409.77,248.58 411.73,247.06 413.69,266.12 415.65,246.64 417.61,252.67 419.57,251.58 421.53,262.55 423.49,249.00 425.45,252.93 427.41,254.45 429.37,262.37 431.33,252.67 433.29,254.77 435.25,249.12 437.21,264.14 439.17,247.06 441.13,233.88 443.09,249.23 445.05,258.54 447.01,251.42 448.96,228.81 450.92,230.59 452.88,260.52 454.84,220.99 456.80,213.63 458.76,195.57 460.72,261.54 462.68,236.20 464.64,240.80 466.60,239.99 468.56,263.54 470.52,254.28 472.48,239.39 474.44,230.22 476.40,260.88 478.36,248.33 480.32,252.76 482.28,237.84 484.24,263.37 486.20,243.57 488.16,252.08 490.12,255.41 492.08,258.90 494.04,246.96 496.00,254.51" fill="none" stroke="#f97316" stroke-width="1.8" stroke-opacity="0.45" stroke-linejoin="round" stroke-linecap="round"/>
<circle cx="106.00" cy="219.53" r="1.8" fill="#f97316" fill-opacity="0.55"/>
<circle cx="127.56" cy="264.11" r="1.8" fill="#f97316" fill-opacity="0.55"/>
<circle cx="149.12" cy="236.56" r="1.8" fill="#f97316" fill-opacity="0.55"/>
<circle cx="170.67" cy="255.91" r="1.8" fill="#f97316" fill-opacity="0.55"/>
<circle cx="192.23" cy="249.96" r="1.8" fill="#f97316" fill-opacity="0.55"/>
<circle cx="213.79" cy="217.15" r="1.8" fill="#f97316" fill-opacity="0.55"/>
<circle cx="235.35" cy="240.13" r="1.8" fill="#f97316" fill-opacity="0.55"/>
<circle cx="256.90" cy="261.94" r="1.8" fill="#f97316" fill-opacity="0.55"/>
<circle cx="278.46" cy="251.13" r="1.8" fill="#f97316" fill-opacity="0.55"/>
<circle cx="300.02" cy="244.00" r="1.8" fill="#f97316" fill-opacity="0.55"/>
<circle cx="321.58" cy="245.61" r="1.8" fill="#f97316" fill-opacity="0.55"/>
<circle cx="343.14" cy="249.20" r="1.8" fill="#f97316" fill-opacity="0.55"/>
<circle cx="364.69" cy="252.77" r="1.8" fill="#f97316" fill-opacity="0.55"/>
<circle cx="386.25" cy="264.31" r="1.8" fill="#f97316" fill-opacity="0.55"/>
<circle cx="407.81" cy="254.42" r="1.8" fill="#f97316" fill-opacity="0.55"/>
<circle cx="429.37" cy="262.37" r="1.8" fill="#f97316" fill-opacity="0.55"/>
<circle cx="450.92" cy="230.59" r="1.8" fill="#f97316" fill-opacity="0.55"/>
<circle cx="472.48" cy="239.39" r="1.8" fill="#f97316" fill-opacity="0.55"/>
<circle cx="494.04" cy="246.96" r="1.8" fill="#f97316" fill-opacity="0.55"/>
<text x="496" y="306" class="tick" text-anchor="end">Round 序列；越低越好</text>
<rect x="560" y="76" width="472" height="245" rx="8" fill="#ffffff" stroke="#dbe3ef"/>
<text x="578" y="104" class="label" font-weight="700">流式 TTFT / 首包响应</text>
<rect x="878" y="88" width="136" height="26" rx="13" fill="#fef3c7" stroke="#f59e0b" stroke-width="1.4"/>
<text x="946" y="106" class="tick" font-weight="800" text-anchor="middle" fill="#92400e">均值胜出: Infron</text>
<line x1="618" y1="281.00" x2="1008" y2="281.00" stroke="#e5e7eb"/>
<text x="610" y="285.00" class="tick" text-anchor="end">0.0</text>
<line x1="618" y1="228.67" x2="1008" y2="228.67" stroke="#e5e7eb"/>
<text x="610" y="232.67" class="tick" text-anchor="end">5251</text>
<line x1="618" y1="176.33" x2="1008" y2="176.33" stroke="#e5e7eb"/>
<text x="610" y="180.33" class="tick" text-anchor="end">10502</text>
<line x1="618" y1="124.00" x2="1008" y2="124.00" stroke="#e5e7eb"/>
<text x="610" y="128.00" class="tick" text-anchor="end">15753</text>
<polyline points="618.00,265.66 619.96,263.55 621.92,263.00 623.88,266.37 625.84,267.18 627.80,266.31 629.76,266.38 631.72,268.27 633.68,264.98 635.64,266.70 637.60,264.84 639.56,266.83 641.52,262.00 643.48,265.66 645.44,265.15 647.40,260.79 649.36,263.79 651.32,262.39 653.28,263.64 655.24,254.75 657.20,266.02 659.16,265.23 661.12,268.36 663.08,254.43 665.04,265.61 666.99,264.20 668.95,265.87 670.91,266.04 672.87,268.60 674.83,265.43 676.79,268.76 678.75,265.76 680.71,266.38 682.67,265.86 684.63,265.14 686.59,267.34 688.55,267.57 690.51,267.33 692.47,265.72 694.43,265.62 696.39,266.97 698.35,259.49 700.31,262.73 702.27,265.84 704.23,262.88 706.19,254.91 708.15,255.86 710.11,253.80 712.07,265.64 714.03,256.03 715.99,265.59 717.95,258.57 719.91,258.21 721.87,253.46 723.83,258.82 725.79,263.32 727.75,264.36 729.71,265.39 731.67,261.39 733.63,268.26 735.59,265.80 737.55,223.26 739.51,266.23 741.47,265.22 743.43,267.02 745.39,226.37 747.35,266.24 749.31,265.42 751.27,264.69 753.23,247.47 755.19,254.34 757.15,261.06 759.11,262.99 761.07,252.87 763.03,266.42 764.98,266.87 766.94,267.86 768.90,257.51 770.86,267.44 772.82,259.08 774.78,261.33 776.74,265.71 778.70,266.79 780.66,267.83 782.62,268.64 784.58,264.11 786.54,267.01 788.50,265.49 790.46,264.03 792.42,261.44 794.38,262.94 796.34,260.97 798.30,265.23 800.26,258.17 802.22,265.90 804.18,267.53 806.14,267.11 808.10,257.65 810.06,268.03 812.02,262.24 813.98,265.07 815.94,263.59 817.90,267.04 819.86,250.13 821.82,268.31 823.78,266.37 825.74,267.25 827.70,252.85 829.66,266.65 831.62,258.02 833.58,263.51 835.54,264.78 837.50,262.49 839.46,265.91 841.42,269.24 843.38,265.02 845.34,263.91 847.30,268.71 849.26,264.05 851.22,258.52 853.18,265.99 855.14,269.16 857.10,266.59 859.06,258.53 861.02,266.25 862.97,266.96 864.93,269.08 866.89,236.47 868.85,264.93 870.81,265.67 872.77,266.01 874.73,251.45 876.69,266.51 878.65,260.92 880.61,266.85 882.57,258.05 884.53,266.28 886.49,267.86 888.45,265.49 890.41,266.24 892.37,262.42 894.33,265.06 896.29,264.32 898.25,263.98 900.21,266.05 902.17,266.24 904.13,267.37 906.09,260.33 908.05,263.74 910.01,267.30 911.97,265.11 913.93,266.14 915.89,264.94 917.85,248.01 919.81,265.33 921.77,264.51 923.73,267.68 925.69,249.17 927.65,267.46 929.61,266.17 931.57,266.02 933.53,256.66 935.49,268.18 937.45,263.33 939.41,261.87 941.37,261.96 943.33,267.18 945.29,266.90 947.25,264.85 949.21,266.54 951.17,266.35 953.13,265.64 955.09,263.90 957.05,265.57 959.01,268.50 960.96,266.50 962.92,265.70 964.88,267.75 966.84,263.61 968.80,266.59 970.76,267.03 972.72,258.52 974.68,267.02 976.64,267.94 978.60,266.35 980.56,252.25 982.52,265.87 984.48,267.20 986.44,266.58 988.40,253.57 990.36,265.91 992.32,266.54 994.28,229.23 996.24,253.76 998.20,268.54 1000.16,266.76 1002.12,255.87 1004.08,257.49 1006.04,264.19 1008.00,264.35" fill="none" stroke="#2563eb" stroke-width="3.8" stroke-opacity="1" stroke-linejoin="round" stroke-linecap="round"/>
<circle cx="618.00" cy="265.66" r="3.0" fill="#2563eb" fill-opacity="1"/>
<circle cx="639.56" cy="266.83" r="3.0" fill="#2563eb" fill-opacity="1"/>
<circle cx="661.12" cy="268.36" r="3.0" fill="#2563eb" fill-opacity="1"/>
<circle cx="682.67" cy="265.86" r="3.0" fill="#2563eb" fill-opacity="1"/>
<circle cx="704.23" cy="262.88" r="3.0" fill="#2563eb" fill-opacity="1"/>
<circle cx="725.79" cy="263.32" r="3.0" fill="#2563eb" fill-opacity="1"/>
<circle cx="747.35" cy="266.24" r="3.0" fill="#2563eb" fill-opacity="1"/>
<circle cx="768.90" cy="257.51" r="3.0" fill="#2563eb" fill-opacity="1"/>
<circle cx="790.46" cy="264.03" r="3.0" fill="#2563eb" fill-opacity="1"/>
<circle cx="812.02" cy="262.24" r="3.0" fill="#2563eb" fill-opacity="1"/>
<circle cx="833.58" cy="263.51" r="3.0" fill="#2563eb" fill-opacity="1"/>
<circle cx="855.14" cy="269.16" r="3.0" fill="#2563eb" fill-opacity="1"/>
<circle cx="876.69" cy="266.51" r="3.0" fill="#2563eb" fill-opacity="1"/>
<circle cx="898.25" cy="263.98" r="3.0" fill="#2563eb" fill-opacity="1"/>
<circle cx="919.81" cy="265.33" r="3.0" fill="#2563eb" fill-opacity="1"/>
<circle cx="941.37" cy="261.96" r="3.0" fill="#2563eb" fill-opacity="1"/>
<circle cx="962.92" cy="265.70" r="3.0" fill="#2563eb" fill-opacity="1"/>
<circle cx="984.48" cy="267.20" r="3.0" fill="#2563eb" fill-opacity="1"/>
<circle cx="1006.04" cy="264.19" r="3.0" fill="#2563eb" fill-opacity="1"/>
<polyline points="618.00,221.38 619.96,234.57 621.92,257.39 623.88,140.82 625.84,237.06 627.80,250.66 629.76,253.32 631.72,260.79 633.68,255.89 635.64,254.54 637.60,239.80 639.56,266.98 641.52,242.41 643.48,253.25 645.44,252.32 647.40,261.92 649.36,232.10 651.32,216.75 653.28,228.44 655.24,262.10 657.20,254.14 659.16,254.86 661.12,238.48 663.08,265.84 665.04,234.38 666.99,230.53 668.95,245.51 670.91,264.56 672.87,255.82 674.83,254.79 676.79,253.01 678.75,264.82 680.71,238.89 682.67,255.90 684.63,254.63 686.59,265.98 688.55,243.77 690.51,254.19 692.47,253.21 694.43,264.18 696.39,259.16 698.35,256.01 700.31,252.85 702.27,261.30 704.23,252.21 706.19,234.92 708.15,237.65 710.11,263.30 712.07,256.51 714.03,231.41 715.99,237.26 717.95,221.02 719.91,255.49 721.87,256.55 723.83,241.54 725.79,216.41 727.75,226.02 729.71,204.30 731.67,254.38 733.63,238.44 735.59,244.91 737.55,239.40 739.51,249.14 741.47,255.62 743.43,250.15 745.39,203.55 747.35,243.64 749.31,229.72 751.27,254.87 753.23,265.27 755.19,252.99 757.15,239.38 759.11,235.80 761.07,261.03 763.03,243.99 764.98,247.51 766.94,218.80 768.90,264.23 770.86,255.91 772.82,258.22 774.78,203.83 776.74,259.47 778.70,252.55 780.66,233.49 782.62,212.51 784.58,259.48 786.54,252.81 788.50,238.04 790.46,252.93 792.42,264.40 794.38,238.76 796.34,248.69 798.30,185.42 800.26,262.23 802.22,251.95 804.18,233.30 806.14,233.61 808.10,263.74 810.06,230.08 812.02,244.95 813.98,232.49 815.94,239.20 817.90,225.96 819.86,267.34 821.82,211.19 823.78,230.90 825.74,230.88 827.70,258.52 829.66,244.60 831.62,254.65 833.58,248.72 835.54,262.95 837.50,253.89 839.46,254.38 841.42,241.70 843.38,264.50 845.34,250.02 847.30,253.56 849.26,253.90 851.22,262.11 853.18,255.24 855.14,250.03 857.10,220.76 859.06,209.73 861.02,255.45 862.97,221.70 864.93,239.73 866.89,253.68 868.85,227.50 870.81,237.78 872.77,240.89 874.73,266.09 876.69,254.14 878.65,248.38 880.61,210.27 882.57,262.87 884.53,204.34 886.49,251.47 888.45,236.14 890.41,261.10 892.37,230.15 894.33,248.73 896.29,226.11 898.25,267.22 900.21,240.17 902.17,241.73 904.13,222.69 906.09,242.55 908.05,252.46 910.01,251.77 911.97,251.25 913.93,235.27 915.89,246.64 917.85,229.99 919.81,254.83 921.77,251.34 923.73,250.62 925.69,267.91 927.65,250.02 929.61,254.91 931.57,254.07 933.53,265.34 935.49,251.27 937.45,252.76 939.41,255.81 941.37,264.07 943.33,254.26 945.29,255.18 947.25,253.88 949.21,265.29 951.17,249.54 953.13,238.88 955.09,251.37 957.05,265.23 959.01,252.95 960.96,229.77 962.92,233.52 964.88,261.69 966.84,224.60 968.80,212.72 970.76,213.47 972.72,264.31 974.68,236.26 976.64,240.55 978.60,246.24 980.56,266.46 982.52,255.57 984.48,239.81 986.44,237.21 988.40,263.60 990.36,249.88 992.32,253.82 994.28,240.27 996.24,266.37 998.20,251.34 1000.16,254.04 1002.12,257.19 1004.08,261.73 1006.04,250.51 1008.00,256.64" fill="none" stroke="#f97316" stroke-width="1.8" stroke-opacity="0.45" stroke-linejoin="round" stroke-linecap="round"/>
<circle cx="618.00" cy="221.38" r="1.8" fill="#f97316" fill-opacity="0.55"/>
<circle cx="639.56" cy="266.98" r="1.8" fill="#f97316" fill-opacity="0.55"/>
<circle cx="661.12" cy="238.48" r="1.8" fill="#f97316" fill-opacity="0.55"/>
<circle cx="682.67" cy="255.90" r="1.8" fill="#f97316" fill-opacity="0.55"/>
<circle cx="704.23" cy="252.21" r="1.8" fill="#f97316" fill-opacity="0.55"/>
<circle cx="725.79" cy="216.41" r="1.8" fill="#f97316" fill-opacity="0.55"/>
<circle cx="747.35" cy="243.64" r="1.8" fill="#f97316" fill-opacity="0.55"/>
<circle cx="768.90" cy="264.23" r="1.8" fill="#f97316" fill-opacity="0.55"/>
<circle cx="790.46" cy="252.93" r="1.8" fill="#f97316" fill-opacity="0.55"/>
<circle cx="812.02" cy="244.95" r="1.8" fill="#f97316" fill-opacity="0.55"/>
<circle cx="833.58" cy="248.72" r="1.8" fill="#f97316" fill-opacity="0.55"/>
<circle cx="855.14" cy="250.03" r="1.8" fill="#f97316" fill-opacity="0.55"/>
<circle cx="876.69" cy="254.14" r="1.8" fill="#f97316" fill-opacity="0.55"/>
<circle cx="898.25" cy="267.22" r="1.8" fill="#f97316" fill-opacity="0.55"/>
<circle cx="919.81" cy="254.83" r="1.8" fill="#f97316" fill-opacity="0.55"/>
<circle cx="941.37" cy="264.07" r="1.8" fill="#f97316" fill-opacity="0.55"/>
<circle cx="962.92" cy="233.52" r="1.8" fill="#f97316" fill-opacity="0.55"/>
<circle cx="984.48" cy="239.81" r="1.8" fill="#f97316" fill-opacity="0.55"/>
<circle cx="1006.04" cy="250.51" r="1.8" fill="#f97316" fill-opacity="0.55"/>
<text x="1008" y="306" class="tick" text-anchor="end">Round 序列；越低越好</text>
<rect x="48" y="379" width="472" height="245" rx="8" fill="#ffffff" stroke="#dbe3ef"/>
<text x="66" y="407" class="label" font-weight="700">响应吞吐量（含 reasoning）</text>
<rect x="366" y="391" width="136" height="26" rx="13" fill="#fef3c7" stroke="#f59e0b" stroke-width="1.4"/>
<text x="434" y="409" class="tick" font-weight="800" text-anchor="middle" fill="#92400e">均值胜出: Infron</text>
<line x1="106" y1="584.00" x2="496" y2="584.00" stroke="#e5e7eb"/>
<text x="98" y="588.00" class="tick" text-anchor="end">0.0</text>
<line x1="106" y1="531.67" x2="496" y2="531.67" stroke="#e5e7eb"/>
<text x="98" y="535.67" class="tick" text-anchor="end">4.3</text>
<line x1="106" y1="479.33" x2="496" y2="479.33" stroke="#e5e7eb"/>
<text x="98" y="483.33" class="tick" text-anchor="end">8.5</text>
<line x1="106" y1="427.00" x2="496" y2="427.00" stroke="#e5e7eb"/>
<text x="98" y="431.00" class="tick" text-anchor="end">12.8</text>
<polyline points="106.00,484.82 107.96,480.70 109.92,485.78 111.88,466.86 113.84,461.90 115.80,471.06 117.76,467.47 119.72,455.01 121.68,469.71 123.64,471.50 125.60,482.25 127.56,467.99 129.52,493.74 131.48,473.43 133.44,478.40 135.40,503.52 137.36,488.34 139.32,489.31 141.28,482.86 143.24,523.45 145.20,468.45 147.16,475.61 149.12,457.80 151.08,517.28 153.04,479.30 154.99,488.71 156.95,471.12 158.91,471.01 160.87,451.84 162.83,478.63 164.79,452.17 166.75,471.96 168.71,472.96 170.67,475.86 172.63,479.56 174.59,464.89 176.55,470.13 178.51,472.50 180.47,480.17 182.43,470.76 184.39,465.07 186.35,501.23 188.31,493.15 190.27,470.70 192.23,487.64 194.19,514.15 196.15,511.41 198.11,525.89 200.07,478.54 202.03,512.88 203.99,487.35 205.95,510.54 207.91,511.43 209.87,518.67 211.83,505.55 213.79,495.85 215.75,488.43 217.71,482.32 219.67,500.58 221.63,452.17 223.59,471.86 225.55,551.99 227.51,470.48 229.47,476.20 231.43,465.46 233.39,551.29 235.35,469.52 237.31,481.37 239.27,478.19 241.23,532.82 243.19,515.27 245.15,496.19 247.11,485.70 249.07,536.56 251.03,478.21 252.98,469.15 254.94,459.62 256.90,505.14 258.86,460.04 260.82,508.59 262.78,506.36 264.74,470.07 266.70,462.74 268.66,461.11 270.62,451.20 272.58,481.42 274.54,476.76 276.50,486.16 278.46,490.42 280.42,499.05 282.38,488.40 284.34,493.38 286.30,482.51 288.26,503.91 290.22,480.35 292.18,454.25 294.14,459.06 296.10,517.49 298.06,467.42 300.02,487.80 301.98,483.16 303.94,490.50 305.90,482.60 307.86,528.35 309.82,451.22 311.78,468.96 313.74,461.51 315.70,526.23 317.66,475.97 319.62,507.43 321.58,491.24 323.54,478.09 325.50,492.93 327.46,479.48 329.42,450.26 331.38,486.19 333.34,477.35 335.30,451.67 337.26,484.34 339.22,507.02 341.18,471.81 343.14,443.82 345.10,469.33 347.06,507.54 349.02,468.16 350.97,469.30 352.93,455.39 354.89,544.01 356.85,477.38 358.81,484.19 360.77,466.79 362.73,526.12 364.69,467.41 366.65,497.78 368.61,463.73 370.57,515.77 372.53,467.70 374.49,451.88 376.45,477.05 378.41,476.22 380.37,487.25 382.33,478.03 384.29,481.81 386.25,484.55 388.21,484.79 390.17,468.72 392.13,461.18 394.09,498.06 396.05,489.55 398.01,473.97 399.97,473.30 401.93,464.32 403.89,484.71 405.85,535.88 407.81,476.86 409.77,475.22 411.73,459.78 413.69,533.24 415.65,463.70 417.61,477.21 419.57,477.97 421.53,517.58 423.49,461.58 425.45,491.86 427.41,493.81 429.37,493.49 431.33,464.61 433.29,465.34 435.25,474.66 437.21,469.25 439.17,483.21 441.13,489.60 443.09,482.89 445.05,474.19 447.01,449.79 448.96,467.13 450.92,480.69 452.88,460.02 454.84,482.63 456.80,475.13 458.76,465.32 460.72,512.58 462.68,469.69 464.64,459.41 466.60,469.94 468.56,522.62 470.52,467.75 472.48,463.17 474.44,466.51 476.40,518.23 478.36,483.68 480.32,470.22 482.28,551.21 484.24,517.56 486.20,452.32 488.16,460.76 490.12,514.35 492.08,512.85 494.04,484.33 496.00,485.56" fill="none" stroke="#2563eb" stroke-width="3.8" stroke-opacity="1" stroke-linejoin="round" stroke-linecap="round"/>
<circle cx="106.00" cy="484.82" r="3.0" fill="#2563eb" fill-opacity="1"/>
<circle cx="127.56" cy="467.99" r="3.0" fill="#2563eb" fill-opacity="1"/>
<circle cx="149.12" cy="457.80" r="3.0" fill="#2563eb" fill-opacity="1"/>
<circle cx="170.67" cy="475.86" r="3.0" fill="#2563eb" fill-opacity="1"/>
<circle cx="192.23" cy="487.64" r="3.0" fill="#2563eb" fill-opacity="1"/>
<circle cx="213.79" cy="495.85" r="3.0" fill="#2563eb" fill-opacity="1"/>
<circle cx="235.35" cy="469.52" r="3.0" fill="#2563eb" fill-opacity="1"/>
<circle cx="256.90" cy="505.14" r="3.0" fill="#2563eb" fill-opacity="1"/>
<circle cx="278.46" cy="490.42" r="3.0" fill="#2563eb" fill-opacity="1"/>
<circle cx="300.02" cy="487.80" r="3.0" fill="#2563eb" fill-opacity="1"/>
<circle cx="321.58" cy="491.24" r="3.0" fill="#2563eb" fill-opacity="1"/>
<circle cx="343.14" cy="443.82" r="3.0" fill="#2563eb" fill-opacity="1"/>
<circle cx="364.69" cy="467.41" r="3.0" fill="#2563eb" fill-opacity="1"/>
<circle cx="386.25" cy="484.55" r="3.0" fill="#2563eb" fill-opacity="1"/>
<circle cx="407.81" cy="476.86" r="3.0" fill="#2563eb" fill-opacity="1"/>
<circle cx="429.37" cy="493.49" r="3.0" fill="#2563eb" fill-opacity="1"/>
<circle cx="450.92" cy="480.69" r="3.0" fill="#2563eb" fill-opacity="1"/>
<circle cx="472.48" cy="463.17" r="3.0" fill="#2563eb" fill-opacity="1"/>
<circle cx="494.04" cy="484.33" r="3.0" fill="#2563eb" fill-opacity="1"/>
<polyline points="106.00,552.97 107.96,576.22 109.92,525.58 111.88,570.39 113.84,541.73 115.80,572.09 117.76,528.19 119.72,520.95 121.68,515.29 123.64,570.75 125.60,544.11 127.56,471.05 129.52,535.86 131.48,571.16 133.44,537.99 135.40,493.15 137.36,546.81 139.32,578.40 141.28,550.76 143.24,496.91 145.20,518.72 147.16,570.32 149.12,546.45 151.08,476.19 153.04,545.51 154.99,576.81 156.95,542.14 158.91,482.29 160.87,510.31 162.83,571.20 164.79,530.36 166.75,482.76 168.71,540.14 170.67,567.37 172.63,548.63 174.59,472.25 176.55,532.38 178.51,570.92 180.47,524.80 182.43,483.45 184.39,503.92 186.35,570.54 188.31,526.49 190.27,501.80 192.23,522.55 194.19,576.08 196.15,548.35 198.11,482.11 200.07,516.38 202.03,576.65 203.99,541.85 205.95,578.16 207.91,526.78 209.87,514.73 211.83,538.90 213.79,578.40 215.75,559.56 217.71,559.52 219.67,513.78 221.63,576.20 223.59,540.67 225.55,566.84 227.51,528.47 229.47,570.52 231.43,541.04 233.39,559.49 235.35,537.33 237.31,578.08 239.27,534.09 241.23,485.73 243.19,532.29 245.15,575.63 247.11,547.45 249.07,491.41 251.03,536.58 252.98,573.25 254.94,569.46 256.90,483.95 258.86,512.77 260.82,568.54 262.78,562.59 264.74,515.52 266.70,521.54 268.66,576.57 270.62,563.83 272.58,502.62 274.54,522.60 276.50,575.82 278.46,532.11 280.42,482.39 282.38,539.87 284.34,572.78 286.30,570.93 288.26,491.71 290.22,521.29 292.18,577.18 294.14,552.21 296.10,485.02 298.06,546.21 300.02,574.34 301.98,546.82 303.94,557.01 305.90,564.28 307.86,465.61 309.82,557.29 311.78,576.98 313.74,564.99 315.70,511.91 317.66,532.56 319.62,570.40 321.58,540.20 323.54,491.29 325.50,518.05 327.46,570.68 329.42,541.52 331.38,486.68 333.34,529.08 335.30,552.40 337.26,526.71 339.22,490.22 341.18,514.90 343.14,548.39 345.10,554.78 347.06,563.47 349.02,517.96 350.97,564.85 352.93,552.36 354.89,551.21 356.85,566.81 358.81,575.91 360.77,546.81 362.73,472.26 364.69,516.43 366.65,573.74 368.61,562.16 370.57,485.77 372.53,559.27 374.49,572.01 376.45,551.92 378.41,500.62 380.37,547.42 382.33,572.77 384.29,554.76 386.25,469.75 388.21,537.75 390.17,575.47 392.13,557.74 394.09,536.72 396.05,521.65 398.01,572.32 399.97,525.85 401.93,576.33 403.89,535.72 405.85,570.08 407.81,512.24 409.77,549.07 411.73,531.31 413.69,455.80 415.65,528.49 417.61,571.37 419.57,527.26 421.53,480.60 423.49,524.38 425.45,571.26 427.41,543.58 429.37,481.60 431.33,516.66 433.29,570.37 435.25,535.39 437.21,470.87 439.17,527.80 441.13,559.96 443.09,527.72 445.05,499.08 447.01,519.53 448.96,577.15 450.92,548.52 452.88,490.85 454.84,552.21 456.80,578.69 458.76,567.95 460.72,485.99 462.68,541.43 464.64,575.10 466.60,557.84 468.56,474.75 470.52,512.62 472.48,575.41 474.44,553.48 476.40,489.21 478.36,525.62 480.32,571.33 482.28,555.00 484.24,475.78 486.20,533.04 488.16,571.63 490.12,518.78 492.08,497.69 494.04,527.96 496.00,570.50" fill="none" stroke="#f97316" stroke-width="1.8" stroke-opacity="0.45" stroke-linejoin="round" stroke-linecap="round"/>
<circle cx="106.00" cy="552.97" r="1.8" fill="#f97316" fill-opacity="0.55"/>
<circle cx="127.56" cy="471.05" r="1.8" fill="#f97316" fill-opacity="0.55"/>
<circle cx="149.12" cy="546.45" r="1.8" fill="#f97316" fill-opacity="0.55"/>
<circle cx="170.67" cy="567.37" r="1.8" fill="#f97316" fill-opacity="0.55"/>
<circle cx="192.23" cy="522.55" r="1.8" fill="#f97316" fill-opacity="0.55"/>
<circle cx="213.79" cy="578.40" r="1.8" fill="#f97316" fill-opacity="0.55"/>
<circle cx="235.35" cy="537.33" r="1.8" fill="#f97316" fill-opacity="0.55"/>
<circle cx="256.90" cy="483.95" r="1.8" fill="#f97316" fill-opacity="0.55"/>
<circle cx="278.46" cy="532.11" r="1.8" fill="#f97316" fill-opacity="0.55"/>
<circle cx="300.02" cy="574.34" r="1.8" fill="#f97316" fill-opacity="0.55"/>
<circle cx="321.58" cy="540.20" r="1.8" fill="#f97316" fill-opacity="0.55"/>
<circle cx="343.14" cy="548.39" r="1.8" fill="#f97316" fill-opacity="0.55"/>
<circle cx="364.69" cy="516.43" r="1.8" fill="#f97316" fill-opacity="0.55"/>
<circle cx="386.25" cy="469.75" r="1.8" fill="#f97316" fill-opacity="0.55"/>
<circle cx="407.81" cy="512.24" r="1.8" fill="#f97316" fill-opacity="0.55"/>
<circle cx="429.37" cy="481.60" r="1.8" fill="#f97316" fill-opacity="0.55"/>
<circle cx="450.92" cy="548.52" r="1.8" fill="#f97316" fill-opacity="0.55"/>
<circle cx="472.48" cy="575.41" r="1.8" fill="#f97316" fill-opacity="0.55"/>
<circle cx="494.04" cy="527.96" r="1.8" fill="#f97316" fill-opacity="0.55"/>
<text x="496" y="609" class="tick" text-anchor="end">Round 序列；越高越好</text>
<rect x="560" y="379" width="472" height="245" rx="8" fill="#ffffff" stroke="#dbe3ef"/>
<text x="578" y="407" class="label" font-weight="700">实际成本 / 轮</text>
<rect x="878" y="391" width="136" height="26" rx="13" fill="#fef3c7" stroke="#f59e0b" stroke-width="1.4"/>
<text x="946" y="409" class="tick" font-weight="800" text-anchor="middle" fill="#92400e">均值胜出: Infron</text>
<line x1="618" y1="584.00" x2="1008" y2="584.00" stroke="#e5e7eb"/>
<text x="610" y="588.00" class="tick" text-anchor="end">$0.0000</text>
<line x1="618" y1="531.67" x2="1008" y2="531.67" stroke="#e5e7eb"/>
<text x="610" y="535.67" class="tick" text-anchor="end">$0.0002</text>
<line x1="618" y1="479.33" x2="1008" y2="479.33" stroke="#e5e7eb"/>
<text x="610" y="483.33" class="tick" text-anchor="end">$0.0003</text>
<line x1="618" y1="427.00" x2="1008" y2="427.00" stroke="#e5e7eb"/>
<text x="610" y="431.00" class="tick" text-anchor="end">$0.0005</text>
<polyline points="618.00,497.36 619.96,497.06 621.92,497.06 623.88,497.36 625.84,551.02 627.80,551.02 629.76,551.02 631.72,551.02 633.68,551.02 635.64,551.02 637.60,551.02 639.56,551.02 641.52,551.02 643.48,551.02 645.44,551.02 647.40,551.02 649.36,551.02 651.32,551.02 653.28,551.02 655.24,551.02 657.20,551.02 659.16,551.02 661.12,551.02 663.08,551.02 665.04,551.02 666.99,551.02 668.95,551.02 670.91,551.02 672.87,551.02 674.83,551.02 676.79,551.02 678.75,551.02 680.71,551.02 682.67,551.02 684.63,551.02 686.59,551.02 688.55,551.02 690.51,551.02 692.47,551.02 694.43,497.36 696.39,551.02 698.35,497.06 700.31,497.06 702.27,551.02 704.23,551.02 706.19,551.02 708.15,551.02 710.11,551.02 712.07,551.02 714.03,551.02 715.99,551.02 717.95,551.02 719.91,551.02 721.87,551.02 723.83,551.02 725.79,551.02 727.75,551.02 729.71,551.02 731.67,551.02 733.63,551.02 735.59,551.02 737.55,551.02 739.51,551.02 741.47,551.02 743.43,551.02 745.39,551.02 747.35,551.02 749.31,551.02 751.27,551.02 753.23,551.02 755.19,551.02 757.15,551.02 759.11,551.02 761.07,551.02 763.03,551.02 764.98,551.02 766.94,551.02 768.90,551.02 770.86,551.02 772.82,551.02 774.78,551.02 776.74,551.02 778.70,551.02 780.66,551.02 782.62,551.02 784.58,551.02 786.54,551.02 788.50,551.02 790.46,551.02 792.42,551.02 794.38,551.02 796.34,551.02 798.30,551.02 800.26,551.02 802.22,551.02 804.18,551.02 806.14,551.02 808.10,551.02 810.06,551.02 812.02,551.02 813.98,551.02 815.94,551.02 817.90,551.02 819.86,551.02 821.82,551.02 823.78,551.02 825.74,551.02 827.70,551.02 829.66,551.02 831.62,551.02 833.58,551.02 835.54,551.02 837.50,551.02 839.46,551.02 841.42,551.02 843.38,551.02 845.34,551.02 847.30,551.02 849.26,551.02 851.22,551.02 853.18,551.02 855.14,551.02 857.10,551.02 859.06,551.02 861.02,551.02 862.97,551.02 864.93,551.02 866.89,551.02 868.85,551.02 870.81,551.02 872.77,551.02 874.73,551.02 876.69,551.02 878.65,551.02 880.61,551.02 882.57,551.02 884.53,551.02 886.49,551.02 888.45,551.02 890.41,551.02 892.37,551.02 894.33,551.02 896.29,551.02 898.25,551.02 900.21,551.02 902.17,551.02 904.13,551.02 906.09,551.02 908.05,551.02 910.01,551.02 911.97,551.02 913.93,551.02 915.89,551.02 917.85,551.02 919.81,551.02 921.77,551.02 923.73,551.02 925.69,551.02 927.65,551.02 929.61,551.02 931.57,551.02 933.53,551.02 935.49,551.02 937.45,551.02 939.41,551.02 941.37,551.02 943.33,551.02 945.29,551.02 947.25,551.02 949.21,551.02 951.17,551.02 953.13,551.02 955.09,551.02 957.05,551.02 959.01,551.02 960.96,551.02 962.92,551.02 964.88,551.02 966.84,551.02 968.80,551.02 970.76,551.02 972.72,551.02 974.68,551.02 976.64,551.02 978.60,551.02 980.56,551.02 982.52,551.02 984.48,551.02 986.44,551.02 988.40,551.02 990.36,551.02 992.32,551.02 994.28,551.02 996.24,551.02 998.20,551.02 1000.16,551.02 1002.12,551.02 1004.08,551.02 1006.04,551.02 1008.00,551.02" fill="none" stroke="#2563eb" stroke-width="3.8" stroke-opacity="1" stroke-linejoin="round" stroke-linecap="round"/>
<circle cx="618.00" cy="497.36" r="3.0" fill="#2563eb" fill-opacity="1"/>
<circle cx="639.56" cy="551.02" r="3.0" fill="#2563eb" fill-opacity="1"/>
<circle cx="661.12" cy="551.02" r="3.0" fill="#2563eb" fill-opacity="1"/>
<circle cx="682.67" cy="551.02" r="3.0" fill="#2563eb" fill-opacity="1"/>
<circle cx="704.23" cy="551.02" r="3.0" fill="#2563eb" fill-opacity="1"/>
<circle cx="725.79" cy="551.02" r="3.0" fill="#2563eb" fill-opacity="1"/>
<circle cx="747.35" cy="551.02" r="3.0" fill="#2563eb" fill-opacity="1"/>
<circle cx="768.90" cy="551.02" r="3.0" fill="#2563eb" fill-opacity="1"/>
<circle cx="790.46" cy="551.02" r="3.0" fill="#2563eb" fill-opacity="1"/>
<circle cx="812.02" cy="551.02" r="3.0" fill="#2563eb" fill-opacity="1"/>
<circle cx="833.58" cy="551.02" r="3.0" fill="#2563eb" fill-opacity="1"/>
<circle cx="855.14" cy="551.02" r="3.0" fill="#2563eb" fill-opacity="1"/>
<circle cx="876.69" cy="551.02" r="3.0" fill="#2563eb" fill-opacity="1"/>
<circle cx="898.25" cy="551.02" r="3.0" fill="#2563eb" fill-opacity="1"/>
<circle cx="919.81" cy="551.02" r="3.0" fill="#2563eb" fill-opacity="1"/>
<circle cx="941.37" cy="551.02" r="3.0" fill="#2563eb" fill-opacity="1"/>
<circle cx="962.92" cy="551.02" r="3.0" fill="#2563eb" fill-opacity="1"/>
<circle cx="984.48" cy="551.02" r="3.0" fill="#2563eb" fill-opacity="1"/>
<circle cx="1006.04" cy="551.02" r="3.0" fill="#2563eb" fill-opacity="1"/>
<polyline points="618.00,545.50 619.96,522.85 621.92,521.62 623.88,495.39 625.84,521.56 627.80,558.77 629.76,557.41 631.72,495.39 633.68,545.50 635.64,558.77 637.60,557.41 639.56,546.97 641.52,557.47 643.48,558.77 645.44,557.41 647.40,546.97 649.36,557.47 651.32,558.77 653.28,557.30 655.24,546.97 657.20,557.47 659.16,558.77 661.12,557.41 663.08,546.97 665.04,557.47 666.99,558.77 668.95,557.41 670.91,546.97 672.87,545.50 674.83,558.77 676.79,557.41 678.75,495.39 680.71,557.47 682.67,558.71 684.63,557.41 686.59,546.97 688.55,557.47 690.51,558.77 692.47,557.36 694.43,546.97 696.39,521.56 698.35,558.77 700.31,557.41 702.27,546.97 704.23,557.47 706.19,558.77 708.15,557.41 710.11,495.39 712.07,557.47 714.03,522.85 715.99,557.47 717.95,558.77 719.91,521.62 721.87,495.39 723.83,557.47 725.79,558.77 727.75,557.71 729.71,495.39 731.67,557.47 733.63,558.77 735.59,557.47 737.55,443.82 739.51,557.47 741.47,558.77 743.43,557.65 745.39,495.39 747.35,557.47 749.31,558.77 751.27,557.53 753.23,443.82 755.19,545.50 757.15,558.77 759.11,557.41 761.07,443.82 763.03,557.47 764.98,558.77 766.94,557.83 768.90,546.97 770.86,557.47 772.82,558.77 774.78,557.41 776.74,546.97 778.70,545.50 780.66,558.77 782.62,557.65 784.58,546.97 786.54,557.47 788.50,558.77 790.46,557.53 792.42,546.97 794.38,557.47 796.34,558.77 798.30,557.83 800.26,546.97 802.22,533.53 804.18,558.77 806.14,557.53 808.10,546.97 810.06,557.47 812.02,558.77 813.98,557.47 815.94,558.00 817.90,557.94 819.86,546.97 821.82,557.47 823.78,558.77 825.74,557.83 827.70,495.39 829.66,545.50 831.62,558.77 833.58,557.53 835.54,546.97 837.50,557.47 839.46,558.77 841.42,557.41 843.38,546.97 845.34,545.50 847.30,558.18 849.26,557.41 851.22,546.97 853.18,557.47 855.14,558.00 857.10,557.30 859.06,443.82 861.02,557.47 862.97,558.00 864.93,557.65 866.89,444.32 868.85,500.98 870.81,558.77 872.77,557.41 874.73,546.97 876.69,545.50 878.65,558.77 880.61,557.53 882.57,546.97 884.53,557.47 886.49,546.79 888.45,557.41 890.41,546.97 892.37,521.56 894.33,558.77 896.29,557.41 898.25,495.39 900.21,545.50 902.17,558.77 904.13,557.47 906.09,444.82 908.05,545.50 910.01,558.77 911.97,557.47 913.93,558.77 915.89,557.30 917.85,444.32 919.81,557.47 921.77,558.00 923.73,557.30 925.69,443.82 927.65,557.47 929.61,558.77 931.57,557.41 933.53,495.89 935.49,557.47 937.45,546.79 939.41,558.00 941.37,546.97 943.33,557.47 945.29,558.77 947.25,557.53 949.21,546.97 951.17,557.47 953.13,558.00 955.09,557.30 957.05,546.97 959.01,557.47 960.96,558.77 962.92,557.30 964.88,546.97 966.84,557.47 968.80,558.77 970.76,557.71 972.72,495.39 974.68,557.47 976.64,558.77 978.60,558.00 980.56,546.97 982.52,557.47 984.48,558.77 986.44,557.53 988.40,546.97 990.36,557.47 992.32,558.77 994.28,557.83 996.24,546.97 998.20,557.47 1000.16,558.77 1002.12,557.41 1004.08,546.97 1006.04,557.47 1008.00,558.77" fill="none" stroke="#f97316" stroke-width="1.8" stroke-opacity="0.45" stroke-linejoin="round" stroke-linecap="round"/>
<circle cx="618.00" cy="545.50" r="1.8" fill="#f97316" fill-opacity="0.55"/>
<circle cx="639.56" cy="546.97" r="1.8" fill="#f97316" fill-opacity="0.55"/>
<circle cx="661.12" cy="557.41" r="1.8" fill="#f97316" fill-opacity="0.55"/>
<circle cx="682.67" cy="558.71" r="1.8" fill="#f97316" fill-opacity="0.55"/>
<circle cx="704.23" cy="557.47" r="1.8" fill="#f97316" fill-opacity="0.55"/>
<circle cx="725.79" cy="558.77" r="1.8" fill="#f97316" fill-opacity="0.55"/>
<circle cx="747.35" cy="557.47" r="1.8" fill="#f97316" fill-opacity="0.55"/>
<circle cx="768.90" cy="546.97" r="1.8" fill="#f97316" fill-opacity="0.55"/>
<circle cx="790.46" cy="557.53" r="1.8" fill="#f97316" fill-opacity="0.55"/>
<circle cx="812.02" cy="558.77" r="1.8" fill="#f97316" fill-opacity="0.55"/>
<circle cx="833.58" cy="557.53" r="1.8" fill="#f97316" fill-opacity="0.55"/>
<circle cx="855.14" cy="558.00" r="1.8" fill="#f97316" fill-opacity="0.55"/>
<circle cx="876.69" cy="545.50" r="1.8" fill="#f97316" fill-opacity="0.55"/>
<circle cx="898.25" cy="495.39" r="1.8" fill="#f97316" fill-opacity="0.55"/>
<circle cx="919.81" cy="557.47" r="1.8" fill="#f97316" fill-opacity="0.55"/>
<circle cx="941.37" cy="546.97" r="1.8" fill="#f97316" fill-opacity="0.55"/>
<circle cx="962.92" cy="557.30" r="1.8" fill="#f97316" fill-opacity="0.55"/>
<circle cx="984.48" cy="558.77" r="1.8" fill="#f97316" fill-opacity="0.55"/>
<circle cx="1006.04" cy="557.47" r="1.8" fill="#f97316" fill-opacity="0.55"/>
<text x="1008" y="609" class="tick" text-anchor="end">Round 序列；越低越好</text>
<rect x="48" y="682" width="472" height="245" rx="8" fill="#ffffff" stroke="#dbe3ef"/>
<text x="66" y="710" class="label" font-weight="700">Token 级缓存命中率</text>
<rect x="366" y="694" width="136" height="26" rx="13" fill="#fef3c7" stroke="#f59e0b" stroke-width="1.4"/>
<text x="434" y="712" class="tick" font-weight="800" text-anchor="middle" fill="#92400e">均值胜出: Infron</text>
<line x1="106" y1="887.00" x2="496" y2="887.00" stroke="#e5e7eb"/>
<text x="98" y="891.00" class="tick" text-anchor="end">0%</text>
<line x1="106" y1="834.67" x2="496" y2="834.67" stroke="#e5e7eb"/>
<text x="98" y="838.67" class="tick" text-anchor="end">37%</text>
<line x1="106" y1="782.33" x2="496" y2="782.33" stroke="#e5e7eb"/>
<text x="98" y="786.33" class="tick" text-anchor="end">75%</text>
<line x1="106" y1="730.00" x2="496" y2="730.00" stroke="#e5e7eb"/>
<text x="98" y="734.00" class="tick" text-anchor="end">112%</text>
<polyline points="106.00,746.82 107.96,746.82 109.92,746.82 111.88,746.82 113.84,746.82 115.80,746.82 117.76,746.82 119.72,746.82 121.68,746.82 123.64,746.82 125.60,746.82 127.56,746.82 129.52,746.82 131.48,746.82 133.44,746.82 135.40,746.82 137.36,746.82 139.32,746.82 141.28,746.82 143.24,746.82 145.20,746.82 147.16,746.82 149.12,746.82 151.08,746.82 153.04,746.82 154.99,746.82 156.95,746.82 158.91,746.82 160.87,746.82 162.83,746.82 164.79,746.82 166.75,746.82 168.71,746.82 170.67,746.82 172.63,746.82 174.59,746.82 176.55,746.82 178.51,746.82 180.47,746.82 182.43,887.00 184.39,746.82 186.35,746.82 188.31,746.82 190.27,746.82 192.23,746.82 194.19,746.82 196.15,746.82 198.11,746.82 200.07,746.82 202.03,746.82 203.99,746.82 205.95,746.82 207.91,746.82 209.87,746.82 211.83,746.82 213.79,746.82 215.75,746.82 217.71,746.82 219.67,746.82 221.63,746.82 223.59,746.82 225.55,746.82 227.51,746.82 229.47,746.82 231.43,746.82 233.39,746.82 235.35,746.82 237.31,746.82 239.27,746.82 241.23,746.82 243.19,746.82 245.15,746.82 247.11,746.82 249.07,746.82 251.03,746.82 252.98,746.82 254.94,746.82 256.90,746.82 258.86,746.82 260.82,746.82 262.78,746.82 264.74,746.82 266.70,746.82 268.66,746.82 270.62,746.82 272.58,746.82 274.54,746.82 276.50,746.82 278.46,746.82 280.42,746.82 282.38,746.82 284.34,746.82 286.30,746.82 288.26,746.82 290.22,746.82 292.18,746.82 294.14,746.82 296.10,746.82 298.06,746.82 300.02,746.82 301.98,746.82 303.94,746.82 305.90,746.82 307.86,746.82 309.82,746.82 311.78,746.82 313.74,746.82 315.70,746.82 317.66,746.82 319.62,746.82 321.58,746.82 323.54,746.82 325.50,746.82 327.46,746.82 329.42,746.82 331.38,746.82 333.34,746.82 335.30,746.82 337.26,746.82 339.22,746.82 341.18,746.82 343.14,746.82 345.10,746.82 347.06,746.82 349.02,746.82 350.97,746.82 352.93,746.82 354.89,746.82 356.85,746.82 358.81,746.82 360.77,746.82 362.73,746.82 364.69,746.82 366.65,746.82 368.61,746.82 370.57,746.82 372.53,746.82 374.49,746.82 376.45,746.82 378.41,746.82 380.37,746.82 382.33,746.82 384.29,746.82 386.25,746.82 388.21,746.82 390.17,746.82 392.13,746.82 394.09,746.82 396.05,746.82 398.01,746.82 399.97,746.82 401.93,746.82 403.89,746.82 405.85,746.82 407.81,746.82 409.77,746.82 411.73,746.82 413.69,746.82 415.65,746.82 417.61,746.82 419.57,746.82 421.53,746.82 423.49,746.82 425.45,746.82 427.41,746.82 429.37,746.82 431.33,746.82 433.29,746.82 435.25,746.82 437.21,746.82 439.17,746.82 441.13,746.82 443.09,746.82 445.05,746.82 447.01,746.82 448.96,746.82 450.92,746.82 452.88,746.82 454.84,746.82 456.80,746.82 458.76,746.82 460.72,746.82 462.68,746.82 464.64,746.82 466.60,746.82 468.56,746.82 470.52,746.82 472.48,746.82 474.44,746.82 476.40,746.82 478.36,746.82 480.32,746.82 482.28,746.82 484.24,746.82 486.20,746.82 488.16,746.82 490.12,746.82 492.08,746.82 494.04,746.82 496.00,746.82" fill="none" stroke="#2563eb" stroke-width="3.8" stroke-opacity="1" stroke-linejoin="round" stroke-linecap="round"/>
<circle cx="106.00" cy="746.82" r="3.0" fill="#2563eb" fill-opacity="1"/>
<circle cx="127.56" cy="746.82" r="3.0" fill="#2563eb" fill-opacity="1"/>
<circle cx="149.12" cy="746.82" r="3.0" fill="#2563eb" fill-opacity="1"/>
<circle cx="170.67" cy="746.82" r="3.0" fill="#2563eb" fill-opacity="1"/>
<circle cx="192.23" cy="746.82" r="3.0" fill="#2563eb" fill-opacity="1"/>
<circle cx="213.79" cy="746.82" r="3.0" fill="#2563eb" fill-opacity="1"/>
<circle cx="235.35" cy="746.82" r="3.0" fill="#2563eb" fill-opacity="1"/>
<circle cx="256.90" cy="746.82" r="3.0" fill="#2563eb" fill-opacity="1"/>
<circle cx="278.46" cy="746.82" r="3.0" fill="#2563eb" fill-opacity="1"/>
<circle cx="300.02" cy="746.82" r="3.0" fill="#2563eb" fill-opacity="1"/>
<circle cx="321.58" cy="746.82" r="3.0" fill="#2563eb" fill-opacity="1"/>
<circle cx="343.14" cy="746.82" r="3.0" fill="#2563eb" fill-opacity="1"/>
<circle cx="364.69" cy="746.82" r="3.0" fill="#2563eb" fill-opacity="1"/>
<circle cx="386.25" cy="746.82" r="3.0" fill="#2563eb" fill-opacity="1"/>
<circle cx="407.81" cy="746.82" r="3.0" fill="#2563eb" fill-opacity="1"/>
<circle cx="429.37" cy="746.82" r="3.0" fill="#2563eb" fill-opacity="1"/>
<circle cx="450.92" cy="746.82" r="3.0" fill="#2563eb" fill-opacity="1"/>
<circle cx="472.48" cy="746.82" r="3.0" fill="#2563eb" fill-opacity="1"/>
<circle cx="494.04" cy="746.82" r="3.0" fill="#2563eb" fill-opacity="1"/>
<polyline points="106.00,799.53 107.96,756.11 109.92,887.00 111.88,755.47 113.84,755.79 115.80,756.11 117.76,756.19 119.72,755.47 121.68,799.53 123.64,756.11 125.60,756.19 127.56,755.47 129.52,755.79 131.48,756.11 133.44,756.19 135.40,755.47 137.36,755.79 139.32,756.11 141.28,756.19 143.24,755.47 145.20,755.79 147.16,756.11 149.12,756.19 151.08,755.47 153.04,755.79 154.99,756.11 156.95,756.19 158.91,755.47 160.87,755.79 162.83,756.11 164.79,756.19 166.75,755.47 168.71,755.79 170.67,756.11 172.63,756.19 174.59,755.47 176.55,755.79 178.51,756.11 180.47,756.19 182.43,755.47 184.39,755.79 186.35,756.11 188.31,756.19 190.27,755.47 192.23,755.79 194.19,756.11 196.15,756.19 198.11,755.47 200.07,755.79 202.03,756.11 203.99,755.79 205.95,756.11 207.91,756.19 209.87,755.47 211.83,755.79 213.79,756.11 215.75,756.19 217.71,887.00 219.67,755.79 221.63,756.11 223.59,756.19 225.55,887.00 227.51,755.79 229.47,756.11 231.43,756.19 233.39,755.47 235.35,755.79 237.31,756.11 239.27,756.19 241.23,887.00 243.19,799.53 245.15,756.11 247.11,756.19 249.07,887.00 251.03,755.79 252.98,756.11 254.94,756.19 256.90,755.47 258.86,755.79 260.82,756.11 262.78,756.19 264.74,755.47 266.70,755.79 268.66,756.11 270.62,756.19 272.58,755.47 274.54,755.79 276.50,756.11 278.46,756.19 280.42,755.47 282.38,755.79 284.34,756.11 286.30,756.19 288.26,755.47 290.22,799.53 292.18,756.11 294.14,756.19 296.10,755.47 298.06,755.79 300.02,756.11 301.98,755.79 303.94,756.11 305.90,756.19 307.86,755.47 309.82,755.79 311.78,756.11 313.74,756.19 315.70,755.47 317.66,755.79 319.62,756.11 321.58,756.19 323.54,755.47 325.50,755.79 327.46,756.11 329.42,756.19 331.38,755.47 333.34,799.53 335.30,756.11 337.26,756.19 339.22,755.47 341.18,755.79 343.14,756.11 345.10,756.19 347.06,887.00 349.02,755.79 350.97,756.11 352.93,756.19 354.89,887.00 356.85,755.79 358.81,756.11 360.77,756.19 362.73,755.47 364.69,755.79 366.65,756.11 368.61,756.19 370.57,755.47 372.53,755.79 374.49,756.11 376.45,756.19 378.41,755.47 380.37,887.00 382.33,756.11 384.29,756.19 386.25,755.47 388.21,799.53 390.17,756.11 392.13,756.19 394.09,887.00 396.05,755.79 398.01,756.11 399.97,755.79 401.93,756.11 403.89,756.19 405.85,887.00 407.81,755.79 409.77,756.11 411.73,756.19 413.69,887.00 415.65,755.79 417.61,756.11 419.57,756.19 421.53,755.47 423.49,755.79 425.45,799.74 427.41,756.19 429.37,755.47 431.33,755.79 433.29,756.11 435.25,756.19 437.21,755.47 439.17,755.79 441.13,756.11 443.09,756.19 445.05,755.47 447.01,755.79 448.96,756.11 450.92,756.19 452.88,755.47 454.84,755.79 456.80,756.11 458.76,756.19 460.72,887.00 462.68,755.79 464.64,756.11 466.60,756.19 468.56,755.47 470.52,755.79 472.48,756.11 474.44,756.19 476.40,755.47 478.36,755.79 480.32,756.11 482.28,756.19 484.24,755.47 486.20,755.79 488.16,756.11 490.12,756.19 492.08,755.47 494.04,755.79 496.00,756.11" fill="none" stroke="#f97316" stroke-width="1.8" stroke-opacity="0.45" stroke-linejoin="round" stroke-linecap="round"/>
<circle cx="106.00" cy="799.53" r="1.8" fill="#f97316" fill-opacity="0.55"/>
<circle cx="127.56" cy="755.47" r="1.8" fill="#f97316" fill-opacity="0.55"/>
<circle cx="149.12" cy="756.19" r="1.8" fill="#f97316" fill-opacity="0.55"/>
<circle cx="170.67" cy="756.11" r="1.8" fill="#f97316" fill-opacity="0.55"/>
<circle cx="192.23" cy="755.79" r="1.8" fill="#f97316" fill-opacity="0.55"/>
<circle cx="213.79" cy="756.11" r="1.8" fill="#f97316" fill-opacity="0.55"/>
<circle cx="235.35" cy="755.79" r="1.8" fill="#f97316" fill-opacity="0.55"/>
<circle cx="256.90" cy="755.47" r="1.8" fill="#f97316" fill-opacity="0.55"/>
<circle cx="278.46" cy="756.19" r="1.8" fill="#f97316" fill-opacity="0.55"/>
<circle cx="300.02" cy="756.11" r="1.8" fill="#f97316" fill-opacity="0.55"/>
<circle cx="321.58" cy="756.19" r="1.8" fill="#f97316" fill-opacity="0.55"/>
<circle cx="343.14" cy="756.11" r="1.8" fill="#f97316" fill-opacity="0.55"/>
<circle cx="364.69" cy="755.79" r="1.8" fill="#f97316" fill-opacity="0.55"/>
<circle cx="386.25" cy="755.47" r="1.8" fill="#f97316" fill-opacity="0.55"/>
<circle cx="407.81" cy="755.79" r="1.8" fill="#f97316" fill-opacity="0.55"/>
<circle cx="429.37" cy="755.47" r="1.8" fill="#f97316" fill-opacity="0.55"/>
<circle cx="450.92" cy="756.19" r="1.8" fill="#f97316" fill-opacity="0.55"/>
<circle cx="472.48" cy="756.11" r="1.8" fill="#f97316" fill-opacity="0.55"/>
<circle cx="494.04" cy="755.79" r="1.8" fill="#f97316" fill-opacity="0.55"/>
<text x="496" y="912" class="tick" text-anchor="end">Round 序列；越高越好</text>
<rect x="830" y="28" width="14" height="14" rx="3" fill="#2563eb"/>
<text x="852" y="40" class="label">Infron</text>
<rect x="830" y="52" width="14" height="14" rx="3" fill="#f97316"/>
<text x="852" y="64" class="label">OpenRouter</text>
</svg>