<svg xmlns="http://www.w3.org/2000/svg" width="1080" height="1000" viewBox="0 0 1080 1000"><style>text{font-family:-apple-system,BlinkMacSystemFont,'Segoe UI',sans-serif;fill:#111827}.title{font-size:22px;font-weight:700}.label{font-size:13px;fill:#374151}.tick{font-size:12px;fill:#6b7280}.value{font-size:12px;fill:#111827}</style><rect width="100%" height="100%" fill="#ffffff"/>
<text x="48" y="34" class="title">Price First Routing Mode:Metric-generation Comparison Curves</text>
<text x="48" y="58" class="label">Metrics are plotted by group/round sequence; curves show the variation behind aggregate means.</text>
<rect x="48" y="76" width="472" height="245" rx="8" fill="#ffffff" stroke="#dbe3ef"/>
<text x="66" y="104" class="label" font-weight="700">E2E Latency / request (incl. reasoning)</text>
<rect x="366" y="88" width="136" height="26" rx="13" fill="#fef3c7" stroke="#f59e0b" stroke-width="1.4"/>
<text x="434" y="106" class="tick" font-weight="800" text-anchor="middle" fill="#92400e">Average winner: OpenRouter</text>
<line x1="106" y1="281.00" x2="496" y2="281.00" stroke="#e5e7eb"/>
<text x="98" y="285.00" class="tick" text-anchor="end">0.0</text>
<line x1="106" y1="228.67" x2="496" y2="228.67" stroke="#e5e7eb"/>
<text x="98" y="232.67" class="tick" text-anchor="end">6822</text>
<line x1="106" y1="176.33" x2="496" y2="176.33" stroke="#e5e7eb"/>
<text x="98" y="180.33" class="tick" text-anchor="end">13643</text>
<line x1="106" y1="124.00" x2="496" y2="124.00" stroke="#e5e7eb"/>
<text x="98" y="128.00" class="tick" text-anchor="end">20465</text>
<polyline points="106.00,232.60 107.97,211.48 109.94,211.81 111.91,252.90 113.88,236.30 115.85,208.04 117.82,193.60 119.79,250.24 121.76,218.34 123.73,209.06 125.70,235.91 127.67,256.19 129.64,262.35 131.61,178.43 133.58,230.46 135.55,239.76 137.52,224.21 139.48,207.16 141.45,212.46 143.42,246.86 145.39,242.39 147.36,213.40 149.33,255.16 151.30,260.89 153.27,209.05 155.24,219.34 157.21,244.21 159.18,250.97 161.15,239.72 163.12,213.01 165.09,212.61 167.06,254.76 169.03,235.23 171.00,200.03 172.97,235.84 174.94,255.93 176.91,235.42 178.88,207.03 180.85,252.93 182.82,245.03 184.79,249.60 186.76,192.66 188.73,247.97 190.70,258.78 192.67,217.45 194.64,209.68 196.61,237.89 198.58,254.97 200.55,257.21 202.52,230.19 204.48,250.38 206.45,234.69 208.42,251.80 210.39,222.37 212.36,257.79 214.33,222.41 216.30,218.39 218.27,242.58 220.24,241.98 222.21,213.20 224.18,226.99 226.15,242.27 228.12,253.52 230.09,223.54 232.06,235.24 234.03,252.59 236.00,217.81 237.97,204.91 239.94,247.63 241.91,250.15 243.88,192.97 245.85,204.10 247.82,242.31 249.79,246.49 251.76,241.94 253.73,239.37 255.70,249.84 257.67,253.65 259.64,260.93 261.61,234.17 263.58,233.01 265.55,255.81 267.52,260.32 269.48,222.21 271.45,227.89 273.42,240.63 275.39,214.15 277.36,201.76 279.33,229.42 281.30,232.74 283.27,196.39 285.24,216.26 287.21,232.46 289.18,223.49 291.15,241.60 293.12,221.49 295.09,204.20 297.06,240.49 299.03,233.14 301.00,224.98 302.97,233.64 304.94,241.31 306.91,238.37 308.88,222.49 310.85,227.57 312.82,140.82 314.79,192.83 316.76,256.15 318.73,238.75 320.70,186.97 322.67,211.88 324.64,208.38 326.61,229.15 328.58,182.12 330.55,243.71 332.52,225.93 334.48,212.48 336.45,197.60 338.42,208.49 340.39,236.09 342.36,245.85 344.33,200.19 346.30,237.52 348.27,230.54 350.24,219.84 352.21,198.09 354.18,223.17 356.15,231.70 358.12,193.35 360.09,205.81 362.06,237.58 364.03,252.71 366.00,256.51 367.97,233.97 369.94,246.94 371.91,248.33 373.88,250.19 375.85,195.19 377.82,246.91 379.79,240.14 381.76,251.38 383.73,220.68 385.70,221.41 387.67,245.90 389.64,214.57 391.61,212.18 393.58,253.48 395.55,227.76 397.52,179.88 399.48,242.63 401.45,210.08 403.42,233.28 405.39,210.42 407.36,241.27 409.33,211.88 411.30,224.55 413.27,234.55 415.24,241.41 417.21,203.28 419.18,227.29 421.15,230.06 423.12,247.46 425.09,225.76 427.06,229.64 429.03,256.86 431.00,222.13 432.97,231.59 434.94,238.44 436.91,242.64 438.88,243.23 440.85,189.11 442.82,196.79 444.79,216.73 446.76,195.91 448.73,193.01 450.70,233.32 452.67,240.59 454.64,230.61 456.61,194.87 458.58,230.65 460.55,234.87 462.52,234.08 464.48,221.62 466.45,233.59 468.42,226.11 470.39,232.66 472.36,191.14 474.33,239.54 476.30,223.57 478.27,248.29 480.24,193.09 482.21,238.51 484.18,233.28 486.15,188.39 488.12,212.18 490.09,226.85 492.06,229.41 494.03,240.35 496.00,196.57" fill="none" stroke="#2563eb" stroke-width="1.8" stroke-opacity="0.45" stroke-linejoin="round" stroke-linecap="round"/>
<circle cx="106.00" cy="232.60" r="1.8" fill="#2563eb" fill-opacity="0.55"/>
<circle cx="127.67" cy="256.19" r="1.8" fill="#2563eb" fill-opacity="0.55"/>
<circle cx="149.33" cy="255.16" r="1.8" fill="#2563eb" fill-opacity="0.55"/>
<circle cx="171.00" cy="200.03" r="1.8" fill="#2563eb" fill-opacity="0.55"/>
<circle cx="192.67" cy="217.45" r="1.8" fill="#2563eb" fill-opacity="0.55"/>
<circle cx="214.33" cy="222.41" r="1.8" fill="#2563eb" fill-opacity="0.55"/>
<circle cx="236.00" cy="217.81" r="1.8" fill="#2563eb" fill-opacity="0.55"/>
<circle cx="257.67" cy="253.65" r="1.8" fill="#2563eb" fill-opacity="0.55"/>
<circle cx="279.33" cy="229.42" r="1.8" fill="#2563eb" fill-opacity="0.55"/>
<circle cx="301.00" cy="224.98" r="1.8" fill="#2563eb" fill-opacity="0.55"/>
<circle cx="322.67" cy="211.88" r="1.8" fill="#2563eb" fill-opacity="0.55"/>
<circle cx="344.33" cy="200.19" r="1.8" fill="#2563eb" fill-opacity="0.55"/>
<circle cx="366.00" cy="256.51" r="1.8" fill="#2563eb" fill-opacity="0.55"/>
<circle cx="387.67" cy="245.90" r="1.8" fill="#2563eb" fill-opacity="0.55"/>
<circle cx="409.33" cy="211.88" r="1.8" fill="#2563eb" fill-opacity="0.55"/>
<circle cx="431.00" cy="222.13" r="1.8" fill="#2563eb" fill-opacity="0.55"/>
<circle cx="452.67" cy="240.59" r="1.8" fill="#2563eb" fill-opacity="0.55"/>
<circle cx="474.33" cy="239.54" r="1.8" fill="#2563eb" fill-opacity="0.55"/>
<circle cx="496.00" cy="196.57" r="1.8" fill="#2563eb" fill-opacity="0.55"/>
<polyline points="106.00,218.69 107.97,222.50 109.94,220.90 111.91,213.23 113.88,239.71 115.85,260.52 117.82,244.73 119.79,237.69 121.76,228.50 123.73,248.32 125.70,213.22 127.67,250.61 129.64,244.10 131.61,242.24 133.58,225.15 135.55,248.01 137.52,241.60 139.48,250.43 141.45,250.29 143.42,249.68 145.39,259.39 147.36,228.82 149.33,247.03 151.30,248.32 153.27,253.15 155.24,238.22 157.21,253.36 159.18,240.74 161.15,240.54 163.12,250.27 165.09,246.13 167.06,238.87 169.03,229.41 171.00,237.44 172.97,248.05 174.94,248.09 176.91,250.18 178.88,247.17 180.85,239.16 182.82,242.54 184.79,238.79 186.76,251.40 188.73,236.37 190.70,249.58 192.67,250.81 194.64,251.43 196.61,229.42 198.58,232.23 200.55,228.10 202.52,213.13 204.48,236.47 206.45,252.65 208.42,258.96 210.39,228.09 212.36,253.29 214.33,262.85 216.30,259.81 218.27,259.75 220.24,257.28 222.21,245.32 224.18,256.53 226.15,257.80 228.12,247.91 230.09,260.47 232.06,263.07 234.03,257.05 236.00,259.89 237.97,260.61 239.94,260.55 241.91,257.46 243.88,261.07 245.85,260.21 247.82,241.13 249.79,260.10 251.76,260.49 253.73,258.46 255.70,254.17 257.67,255.99 259.64,257.53 261.61,258.85 263.58,250.97 265.55,243.63 267.52,258.28 269.48,251.11 271.45,258.12 273.42,255.12 275.39,260.45 277.36,261.15 279.33,233.88 281.30,247.97 283.27,250.88 285.24,258.43 287.21,260.09 289.18,236.50 291.15,237.41 293.12,245.36 295.09,243.21 297.06,235.98 299.03,258.07 301.00,259.94 302.97,257.42 304.94,260.97 306.91,254.49 308.88,259.38 310.85,243.96 312.82,218.56 314.79,241.68 316.76,256.80 318.73,257.29 320.70,257.78 322.67,251.93 324.64,256.13 326.61,256.97 328.58,231.97 330.55,260.45 332.52,257.16 334.48,260.48 336.45,259.17 338.42,257.44 340.39,247.75 342.36,263.19 344.33,233.61 346.30,245.09 348.27,246.07 350.24,234.96 352.21,261.94 354.18,260.53 356.15,260.38 358.12,256.31 360.09,256.73 362.06,255.98 364.03,258.86 366.00,243.63 367.97,258.47 369.94,213.15 371.91,247.77 373.88,244.75 375.85,248.05 377.82,248.42 379.79,254.66 381.76,246.71 383.73,259.50 385.70,244.97 387.67,215.85 389.64,259.73 391.61,256.73 393.58,246.86 395.55,254.27 397.52,257.45 399.48,257.33 401.45,260.43 403.42,244.96 405.39,246.11 407.36,246.79 409.33,257.01 411.30,241.18 413.27,256.47 415.24,249.68 417.21,234.20 419.18,241.25 421.15,254.14 423.12,260.69 425.09,242.10 427.06,255.15 429.03,242.12 431.00,248.00 432.97,257.60 434.94,256.83 436.91,237.15 438.88,260.05 440.85,255.55 442.82,253.71 444.79,247.79 446.76,259.77 448.73,257.93 450.70,259.76 452.67,255.29 454.64,259.35 456.61,248.23 458.58,258.25 460.55,255.96 462.52,255.96 464.48,258.67 466.45,259.17 468.42,258.32 470.39,256.36 472.36,246.62 474.33,239.86 476.30,253.94 478.27,255.27 480.24,235.96 482.21,248.24 484.18,259.83 486.15,244.75 488.12,231.96 490.09,215.24 492.06,187.97 494.03,247.73 496.00,246.21" fill="none" stroke="#f97316" stroke-width="3.8" stroke-opacity="1" stroke-linejoin="round" stroke-linecap="round"/>
<circle cx="106.00" cy="218.69" r="3.0" fill="#f97316" fill-opacity="1"/>
<circle cx="127.67" cy="250.61" r="3.0" fill="#f97316" fill-opacity="1"/>
<circle cx="149.33" cy="247.03" r="3.0" fill="#f97316" fill-opacity="1"/>
<circle cx="171.00" cy="237.44" r="3.0" fill="#f97316" fill-opacity="1"/>
<circle cx="192.67" cy="250.81" r="3.0" fill="#f97316" fill-opacity="1"/>
<circle cx="214.33" cy="262.85" r="3.0" fill="#f97316" fill-opacity="1"/>
<circle cx="236.00" cy="259.89" r="3.0" fill="#f97316" fill-opacity="1"/>
<circle cx="257.67" cy="255.99" r="3.0" fill="#f97316" fill-opacity="1"/>
<circle cx="279.33" cy="233.88" r="3.0" fill="#f97316" fill-opacity="1"/>
<circle cx="301.00" cy="259.94" r="3.0" fill="#f97316" fill-opacity="1"/>
<circle cx="322.67" cy="251.93" r="3.0" fill="#f97316" fill-opacity="1"/>
<circle cx="344.33" cy="233.61" r="3.0" fill="#f97316" fill-opacity="1"/>
<circle cx="366.00" cy="243.63" r="3.0" fill="#f97316" fill-opacity="1"/>
<circle cx="387.67" cy="215.85" r="3.0" fill="#f97316" fill-opacity="1"/>
<circle cx="409.33" cy="257.01" r="3.0" fill="#f97316" fill-opacity="1"/>
<circle cx="431.00" cy="248.00" r="3.0" fill="#f97316" fill-opacity="1"/>
<circle cx="452.67" cy="255.29" r="3.0" fill="#f97316" fill-opacity="1"/>
<circle cx="474.33" cy="239.86" r="3.0" fill="#f97316" fill-opacity="1"/>
<circle cx="496.00" cy="246.21" r="3.0" fill="#f97316" fill-opacity="1"/>
<text x="496" y="306" class="tick" text-anchor="end">Round sequence; lower is better</text>
<rect x="560" y="76" width="472" height="245" rx="8" fill="#ffffff" stroke="#dbe3ef"/>
<text x="578" y="104" class="label" font-weight="700">Streaming TTFT / first byte</text>
<rect x="878" y="88" width="136" height="26" rx="13" fill="#fef3c7" stroke="#f59e0b" stroke-width="1.4"/>
<text x="946" y="106" class="tick" font-weight="800" text-anchor="middle" fill="#92400e">Average winner: Infron</text>
<line x1="618" y1="281.00" x2="1008" y2="281.00" stroke="#e5e7eb"/>
<text x="610" y="285.00" class="tick" text-anchor="end">0.0</text>
<line x1="618" y1="228.67" x2="1008" y2="228.67" stroke="#e5e7eb"/>
<text x="610" y="232.67" class="tick" text-anchor="end">4427</text>
<line x1="618" y1="176.33" x2="1008" y2="176.33" stroke="#e5e7eb"/>
<text x="610" y="180.33" class="tick" text-anchor="end">8855</text>
<line x1="618" y1="124.00" x2="1008" y2="124.00" stroke="#e5e7eb"/>
<text x="610" y="128.00" class="tick" text-anchor="end">13282</text>
<polyline points="618.00,255.24 619.97,237.75 621.94,259.94 623.91,255.23 625.88,253.45 627.85,254.88 629.82,256.83 631.79,256.42 633.76,255.82 635.73,260.12 637.70,257.77 639.67,256.48 641.64,254.38 643.61,257.81 645.58,255.72 647.55,259.06 649.52,259.12 651.48,254.33 653.45,256.60 655.42,258.86 657.39,250.74 659.36,257.33 661.33,257.04 663.30,259.42 665.27,255.36 667.24,257.78 669.21,240.00 671.18,257.74 673.15,253.70 675.12,256.19 677.09,246.42 679.06,258.43 681.03,222.60 683.00,258.48 684.97,256.14 686.94,255.97 688.91,257.35 690.88,257.08 692.85,254.54 694.82,240.76 696.79,256.72 698.76,255.89 700.73,256.96 702.70,255.58 704.67,259.94 706.64,257.38 708.61,253.23 710.58,258.04 712.55,253.87 714.52,253.92 716.48,256.65 718.45,258.68 720.42,257.03 722.39,222.23 724.36,256.82 726.33,257.05 728.30,221.97 730.27,256.22 732.24,257.91 734.21,259.00 736.18,257.21 738.15,255.71 740.12,259.19 742.09,259.21 744.06,258.79 746.03,257.86 748.00,253.20 749.97,257.14 751.94,257.66 753.91,256.40 755.88,254.92 757.85,247.86 759.82,255.68 761.79,257.61 763.76,258.78 765.73,257.58 767.70,253.19 769.67,260.39 771.64,252.37 773.61,254.11 775.58,251.73 777.55,255.45 779.52,250.85 781.48,257.66 783.45,258.14 785.42,258.21 787.39,244.53 789.36,228.64 791.33,240.32 793.30,240.92 795.27,228.32 797.24,241.94 799.21,241.07 801.18,212.32 803.15,243.89 805.12,253.66 807.09,243.41 809.06,244.60 811.03,239.64 813.00,240.44 814.97,228.55 816.94,258.36 818.91,237.13 820.88,241.17 822.85,219.46 824.82,241.21 826.79,227.69 828.76,259.69 830.73,233.40 832.70,229.66 834.67,241.31 836.64,227.26 838.61,222.83 840.58,223.62 842.55,242.43 844.52,223.63 846.48,239.39 848.45,222.25 850.42,214.05 852.39,241.71 854.36,241.68 856.33,202.32 858.30,241.53 860.27,244.27 862.24,229.00 864.21,213.96 866.18,226.95 868.15,228.70 870.12,228.39 872.09,228.87 874.06,244.67 876.03,258.18 878.00,255.03 879.97,244.89 881.94,249.46 883.91,254.16 885.88,249.09 887.85,257.05 889.82,257.37 891.79,255.12 893.76,257.11 895.73,237.53 897.70,230.22 899.67,257.71 901.64,243.76 903.61,238.33 905.58,252.59 907.55,209.34 909.52,255.10 911.48,241.78 913.45,243.55 915.42,235.29 917.39,210.77 919.36,254.43 921.33,252.98 923.30,228.80 925.27,240.55 927.24,239.05 929.21,220.23 931.18,227.19 933.15,228.81 935.12,256.95 937.09,228.51 939.06,242.11 941.03,254.53 943.00,207.84 944.97,254.24 946.94,242.75 948.91,240.25 950.88,240.73 952.85,213.68 954.82,229.69 956.79,201.22 958.76,226.24 960.73,229.32 962.70,228.46 964.67,242.43 966.64,226.28 968.61,241.01 970.58,240.66 972.55,227.44 974.52,255.29 976.48,242.73 978.45,228.07 980.42,224.02 982.39,244.13 984.36,226.48 986.33,257.06 988.30,241.36 990.27,256.30 992.24,242.20 994.21,256.55 996.18,226.53 998.15,226.27 1000.12,239.78 1002.09,226.82 1004.06,220.20 1006.03,239.91 1008.00,227.74" fill="none" stroke="#2563eb" stroke-width="3.8" stroke-opacity="1" stroke-linejoin="round" stroke-linecap="round"/>
<circle cx="618.00" cy="255.24" r="3.0" fill="#2563eb" fill-opacity="1"/>
<circle cx="639.67" cy="256.48" r="3.0" fill="#2563eb" fill-opacity="1"/>
<circle cx="661.33" cy="257.04" r="3.0" fill="#2563eb" fill-opacity="1"/>
<circle cx="683.00" cy="258.48" r="3.0" fill="#2563eb" fill-opacity="1"/>
<circle cx="704.67" cy="259.94" r="3.0" fill="#2563eb" fill-opacity="1"/>
<circle cx="726.33" cy="257.05" r="3.0" fill="#2563eb" fill-opacity="1"/>
<circle cx="748.00" cy="253.20" r="3.0" fill="#2563eb" fill-opacity="1"/>
<circle cx="769.67" cy="260.39" r="3.0" fill="#2563eb" fill-opacity="1"/>
<circle cx="791.33" cy="240.32" r="3.0" fill="#2563eb" fill-opacity="1"/>
<circle cx="813.00" cy="240.44" r="3.0" fill="#2563eb" fill-opacity="1"/>
<circle cx="834.67" cy="241.31" r="3.0" fill="#2563eb" fill-opacity="1"/>
<circle cx="856.33" cy="202.32" r="3.0" fill="#2563eb" fill-opacity="1"/>
<circle cx="878.00" cy="255.03" r="3.0" fill="#2563eb" fill-opacity="1"/>
<circle cx="899.67" cy="257.71" r="3.0" fill="#2563eb" fill-opacity="1"/>
<circle cx="921.33" cy="252.98" r="3.0" fill="#2563eb" fill-opacity="1"/>
<circle cx="943.00" cy="207.84" r="3.0" fill="#2563eb" fill-opacity="1"/>
<circle cx="964.67" cy="242.43" r="3.0" fill="#2563eb" fill-opacity="1"/>
<circle cx="986.33" cy="257.06" r="3.0" fill="#2563eb" fill-opacity="1"/>
<circle cx="1008.00" cy="227.74" r="3.0" fill="#2563eb" fill-opacity="1"/>
<polyline points="618.00,189.73 619.97,192.17 621.94,189.14 623.91,182.25 625.88,222.30 627.85,252.08 629.82,231.32 631.79,216.99 633.76,219.54 635.73,231.41 637.70,194.07 639.67,236.95 641.64,226.06 643.61,222.01 645.58,198.09 647.55,233.15 649.52,224.35 651.48,237.46 653.45,236.22 655.42,235.60 657.39,250.19 659.36,202.38 661.33,230.52 663.30,233.75 665.27,240.69 667.24,219.60 669.21,241.79 671.18,221.88 673.15,222.47 675.12,234.47 677.09,230.59 679.06,217.58 681.03,203.95 683.00,214.81 684.97,231.12 686.94,234.59 688.91,236.64 690.88,231.63 692.85,220.13 694.82,227.53 696.79,218.25 698.76,236.39 700.73,214.86 702.70,235.31 704.67,237.17 706.64,236.67 708.61,209.11 710.58,208.96 712.55,200.84 714.52,178.61 716.48,216.64 718.45,238.25 720.42,252.82 722.39,204.07 724.36,240.42 726.33,253.77 728.30,250.23 730.27,252.45 732.24,249.54 734.21,248.38 736.18,248.22 738.15,249.40 740.12,233.08 742.09,251.19 744.06,254.61 746.03,247.01 748.00,250.42 749.97,250.41 751.94,251.21 753.91,246.59 755.88,252.75 757.85,250.64 759.82,226.39 761.79,251.64 763.76,251.27 765.73,249.63 767.70,242.64 769.67,244.03 771.64,247.90 773.61,248.47 775.58,237.41 777.55,228.78 779.52,248.41 781.48,235.45 783.45,251.05 785.42,243.83 787.39,252.11 789.36,252.71 791.33,212.36 793.30,232.85 795.27,238.69 797.24,246.71 799.21,250.52 801.18,213.82 803.15,220.33 805.12,232.32 807.09,225.62 809.06,214.45 811.03,250.17 813.00,250.24 814.97,248.54 816.94,251.23 818.91,243.77 820.88,249.88 822.85,228.10 824.82,187.30 826.79,222.64 828.76,247.00 830.73,246.09 832.70,249.83 834.67,239.24 836.64,245.82 838.61,248.63 840.58,207.84 842.55,252.68 844.52,246.73 846.48,251.88 848.45,250.50 850.42,250.29 852.39,232.56 854.36,255.69 856.33,209.78 858.30,228.52 860.27,231.28 862.24,231.70 864.21,252.02 866.18,251.92 868.15,252.12 870.12,249.18 872.09,246.09 874.06,247.92 876.03,251.48 878.00,226.33 879.97,247.16 881.94,181.73 883.91,235.45 885.88,227.74 887.85,231.15 889.82,232.04 891.79,245.37 893.76,230.18 895.73,248.89 897.70,250.18 899.67,183.65 901.64,250.62 903.61,250.87 905.58,230.84 907.55,243.90 909.52,247.72 911.48,249.70 913.45,250.63 915.42,231.71 917.39,229.80 919.36,250.35 921.33,246.35 923.30,224.30 925.27,246.32 927.24,234.72 929.21,232.40 931.18,221.31 933.15,244.37 935.12,253.74 937.09,221.87 939.06,244.53 941.03,243.88 943.00,232.40 944.97,248.28 946.94,246.38 948.91,215.64 950.88,250.06 952.85,242.58 954.82,241.36 956.79,232.40 958.76,249.36 960.73,245.97 962.70,251.88 964.67,243.51 966.64,249.95 968.61,233.47 970.58,248.64 972.55,251.53 974.52,248.12 976.48,249.52 978.45,248.88 980.42,251.60 982.39,248.03 984.36,229.17 986.33,222.06 988.30,241.56 990.27,249.37 992.24,214.17 994.21,234.04 996.18,249.78 998.15,230.82 1000.12,208.34 1002.09,185.05 1004.06,140.82 1006.03,232.46 1008.00,227.90" fill="none" stroke="#f97316" stroke-width="1.8" stroke-opacity="0.45" stroke-linejoin="round" stroke-linecap="round"/>
<circle cx="618.00" cy="189.73" r="1.8" fill="#f97316" fill-opacity="0.55"/>
<circle cx="639.67" cy="236.95" r="1.8" fill="#f97316" fill-opacity="0.55"/>
<circle cx="661.33" cy="230.52" r="1.8" fill="#f97316" fill-opacity="0.55"/>
<circle cx="683.00" cy="214.81" r="1.8" fill="#f97316" fill-opacity="0.55"/>
<circle cx="704.67" cy="237.17" r="1.8" fill="#f97316" fill-opacity="0.55"/>
<circle cx="726.33" cy="253.77" r="1.8" fill="#f97316" fill-opacity="0.55"/>
<circle cx="748.00" cy="250.42" r="1.8" fill="#f97316" fill-opacity="0.55"/>
<circle cx="769.67" cy="244.03" r="1.8" fill="#f97316" fill-opacity="0.55"/>
<circle cx="791.33" cy="212.36" r="1.8" fill="#f97316" fill-opacity="0.55"/>
<circle cx="813.00" cy="250.24" r="1.8" fill="#f97316" fill-opacity="0.55"/>
<circle cx="834.67" cy="239.24" r="1.8" fill="#f97316" fill-opacity="0.55"/>
<circle cx="856.33" cy="209.78" r="1.8" fill="#f97316" fill-opacity="0.55"/>
<circle cx="878.00" cy="226.33" r="1.8" fill="#f97316" fill-opacity="0.55"/>
<circle cx="899.67" cy="183.65" r="1.8" fill="#f97316" fill-opacity="0.55"/>
<circle cx="921.33" cy="246.35" r="1.8" fill="#f97316" fill-opacity="0.55"/>
<circle cx="943.00" cy="232.40" r="1.8" fill="#f97316" fill-opacity="0.55"/>
<circle cx="964.67" cy="243.51" r="1.8" fill="#f97316" fill-opacity="0.55"/>
<circle cx="986.33" cy="222.06" r="1.8" fill="#f97316" fill-opacity="0.55"/>
<circle cx="1008.00" cy="227.90" r="1.8" fill="#f97316" fill-opacity="0.55"/>
<text x="1008" y="306" class="tick" text-anchor="end">Round sequence; lower is better</text>
<rect x="48" y="379" width="472" height="245" rx="8" fill="#ffffff" stroke="#dbe3ef"/>
<text x="66" y="407" class="label" font-weight="700">Response throughput (incl. reasoning)</text>
<rect x="366" y="391" width="136" height="26" rx="13" fill="#fef3c7" stroke="#f59e0b" stroke-width="1.4"/>
<text x="434" y="409" class="tick" font-weight="800" text-anchor="middle" fill="#92400e">Average winner: Infron</text>
<line x1="106" y1="584.00" x2="496" y2="584.00" stroke="#e5e7eb"/>
<text x="98" y="588.00" class="tick" text-anchor="end">0.0</text>
<line x1="106" y1="531.67" x2="496" y2="531.67" stroke="#e5e7eb"/>
<text x="98" y="535.67" class="tick" text-anchor="end">29.2</text>
<line x1="106" y1="479.33" x2="496" y2="479.33" stroke="#e5e7eb"/>
<text x="98" y="483.33" class="tick" text-anchor="end">58.4</text>
<line x1="106" y1="427.00" x2="496" y2="427.00" stroke="#e5e7eb"/>
<text x="98" y="431.00" class="tick" text-anchor="end">87.7</text>
<polyline points="106.00,491.16 107.97,486.46 109.94,512.21 111.91,517.98 113.88,514.98 115.85,501.79 117.82,512.70 119.79,520.11 121.76,507.58 123.73,474.93 125.70,512.83 127.67,549.39 129.64,571.48 131.61,497.66 133.58,517.53 135.55,521.03 137.52,518.43 139.48,498.31 141.45,516.54 143.42,532.48 145.39,538.26 147.36,518.24 149.33,496.51 151.30,496.19 153.27,443.82 155.24,489.17 157.21,529.28 159.18,533.66 161.15,518.58 163.12,508.22 165.09,522.62 167.06,519.05 169.03,551.57 171.00,500.59 172.97,500.33 174.94,522.33 176.91,519.04 178.88,488.06 180.85,522.33 182.82,540.64 184.79,532.15 186.76,492.69 188.73,477.71 190.70,503.93 192.67,488.21 194.64,493.93 196.61,525.03 198.58,496.38 200.55,518.74 202.52,472.45 204.48,518.70 206.45,470.80 208.42,494.12 210.39,530.33 212.36,520.06 214.33,472.14 216.30,545.92 218.27,533.21 220.24,497.19 222.21,461.28 224.18,516.71 226.15,520.14 228.12,511.00 230.09,468.39 232.06,528.44 234.03,525.72 236.00,492.56 237.97,507.07 239.94,526.76 241.91,520.09 243.88,499.79 245.85,503.77 247.82,509.96 249.79,512.53 251.76,498.16 253.73,532.02 255.70,532.85 257.67,492.31 259.64,572.36 261.61,477.48 263.58,522.15 265.55,514.99 267.52,572.70 269.48,512.25 271.45,499.39 273.42,521.03 275.39,523.26 277.36,519.75 279.33,531.52 281.30,518.80 283.27,522.29 285.24,491.14 287.21,529.08 289.18,546.85 291.15,507.09 293.12,502.14 295.09,491.95 297.06,534.31 299.03,521.56 301.00,490.42 302.97,530.33 304.94,466.11 306.91,529.36 308.88,530.11 310.85,548.12 312.82,510.97 314.79,528.75 316.76,530.93 318.73,542.70 320.70,507.21 322.67,534.40 324.64,542.75 326.61,545.18 328.58,510.28 330.55,512.33 332.52,543.70 334.48,516.62 336.45,499.97 338.42,545.91 340.39,539.48 342.36,540.02 344.33,524.15 346.30,540.87 348.27,531.85 350.24,524.13 352.21,500.72 354.18,547.41 356.15,544.84 358.12,512.75 360.09,460.47 362.06,509.95 364.03,508.73 366.00,551.74 367.97,488.03 369.94,518.45 371.91,497.98 373.88,535.38 375.85,446.05 377.82,499.55 379.79,488.33 381.76,491.22 383.73,495.27 385.70,527.62 387.67,501.39 389.64,506.22 391.61,521.20 393.58,547.31 395.55,557.93 397.52,500.16 399.48,544.25 401.45,517.54 403.42,523.25 405.39,543.70 407.36,534.54 409.33,488.98 411.30,546.51 413.27,537.11 415.24,547.91 417.21,502.49 419.18,552.28 421.15,535.44 423.12,508.42 425.09,522.55 427.06,533.96 429.03,507.74 431.00,541.52 432.97,448.71 434.94,535.89 436.91,535.46 438.88,530.89 440.85,505.65 442.82,517.10 444.79,556.31 446.76,508.51 448.73,469.54 450.70,549.85 452.67,540.31 454.64,555.50 456.61,508.38 458.58,474.96 460.55,533.06 462.52,501.56 464.48,499.42 466.45,546.18 468.42,544.32 470.39,515.06 472.36,501.42 474.33,522.19 476.30,518.80 478.27,526.66 480.24,498.43 482.21,523.85 484.18,543.83 486.15,507.06 488.12,510.23 490.09,517.52 492.06,549.24 494.03,536.00 496.00,499.85" fill="none" stroke="#2563eb" stroke-width="3.8" stroke-opacity="1" stroke-linejoin="round" stroke-linecap="round"/>
<circle cx="106.00" cy="491.16" r="3.0" fill="#2563eb" fill-opacity="1"/>
<circle cx="127.67" cy="549.39" r="3.0" fill="#2563eb" fill-opacity="1"/>
<circle cx="149.33" cy="496.51" r="3.0" fill="#2563eb" fill-opacity="1"/>
<circle cx="171.00" cy="500.59" r="3.0" fill="#2563eb" fill-opacity="1"/>
<circle cx="192.67" cy="488.21" r="3.0" fill="#2563eb" fill-opacity="1"/>
<circle cx="214.33" cy="472.14" r="3.0" fill="#2563eb" fill-opacity="1"/>
<circle cx="236.00" cy="492.56" r="3.0" fill="#2563eb" fill-opacity="1"/>
<circle cx="257.67" cy="492.31" r="3.0" fill="#2563eb" fill-opacity="1"/>
<circle cx="279.33" cy="531.52" r="3.0" fill="#2563eb" fill-opacity="1"/>
<circle cx="301.00" cy="490.42" r="3.0" fill="#2563eb" fill-opacity="1"/>
<circle cx="322.67" cy="534.40" r="3.0" fill="#2563eb" fill-opacity="1"/>
<circle cx="344.33" cy="524.15" r="3.0" fill="#2563eb" fill-opacity="1"/>
<circle cx="366.00" cy="551.74" r="3.0" fill="#2563eb" fill-opacity="1"/>
<circle cx="387.67" cy="501.39" r="3.0" fill="#2563eb" fill-opacity="1"/>
<circle cx="409.33" cy="488.98" r="3.0" fill="#2563eb" fill-opacity="1"/>
<circle cx="431.00" cy="541.52" r="3.0" fill="#2563eb" fill-opacity="1"/>
<circle cx="452.67" cy="540.31" r="3.0" fill="#2563eb" fill-opacity="1"/>
<circle cx="474.33" cy="522.19" r="3.0" fill="#2563eb" fill-opacity="1"/>
<circle cx="496.00" cy="499.85" r="3.0" fill="#2563eb" fill-opacity="1"/>
<polyline points="106.00,580.47 107.97,583.30 109.94,581.94 111.91,580.76 113.88,578.67 115.85,581.99 117.82,578.70 119.79,578.92 121.76,579.81 123.73,582.95 125.70,581.47 127.67,576.77 129.64,578.04 131.61,583.11 133.58,581.91 135.55,577.33 137.52,578.42 139.48,582.65 141.45,578.85 143.42,576.98 145.39,573.82 147.36,583.08 149.33,580.36 151.30,577.27 153.27,576.11 155.24,583.04 157.21,577.29 159.18,578.54 161.15,578.57 163.12,582.66 165.09,578.09 167.06,578.78 169.03,579.74 171.00,583.05 172.97,581.08 174.94,577.32 176.91,576.87 178.88,582.78 180.85,579.90 182.82,578.28 184.79,578.79 186.76,582.38 188.73,581.84 190.70,577.00 192.67,576.72 194.64,582.61 196.61,580.27 198.58,579.49 200.55,579.84 202.52,583.39 204.48,579.06 206.45,583.03 208.42,575.27 210.39,579.84 212.36,576.07 214.33,581.73 216.30,576.54 218.27,573.65 220.24,574.73 222.21,582.84 224.18,577.82 226.15,574.52 228.12,577.36 230.09,581.99 232.06,577.87 234.03,574.82 236.00,573.59 237.97,581.98 239.94,577.95 241.91,574.66 243.88,572.97 245.85,581.69 247.82,580.55 249.79,573.48 251.76,573.28 253.73,582.17 255.70,578.37 257.67,575.21 259.64,574.63 261.61,582.14 263.58,578.05 265.55,578.12 267.52,574.32 269.48,582.62 271.45,575.59 273.42,575.51 275.39,573.30 277.36,581.92 279.33,580.35 281.30,577.34 283.27,576.70 285.24,582.17 287.21,578.09 289.18,579.06 291.15,578.96 293.12,582.84 295.09,578.55 297.06,579.12 299.03,574.41 301.00,582.04 302.97,574.68 304.94,581.94 306.91,576.23 308.88,573.83 310.85,578.06 312.82,583.34 314.79,579.98 316.76,574.91 318.73,574.73 320.70,582.22 322.67,579.04 324.64,575.16 326.61,574.85 328.58,583.16 330.55,577.31 332.52,574.78 334.48,573.28 336.45,582.11 338.42,577.29 340.39,577.39 342.36,571.66 344.33,583.13 346.30,578.64 348.27,577.71 350.24,579.22 352.21,581.84 354.18,576.28 356.15,573.34 358.12,575.10 360.09,582.30 362.06,576.31 364.03,574.07 366.00,578.12 367.97,582.17 369.94,580.96 371.91,577.38 373.88,577.93 375.85,582.75 377.82,579.57 379.79,575.65 381.76,577.59 383.73,582.08 385.70,579.61 387.67,580.63 389.64,573.67 391.61,576.07 393.58,577.56 395.55,575.78 397.52,582.25 399.48,574.71 401.45,581.66 403.42,580.00 405.39,577.70 407.36,577.57 409.33,582.28 411.30,580.38 413.27,575.04 415.24,576.98 417.21,582.39 419.18,579.16 421.15,575.82 423.12,573.18 425.09,582.94 427.06,576.56 429.03,578.35 431.00,577.34 432.97,581.95 434.94,578.03 436.91,578.99 438.88,573.51 440.85,582.11 442.82,579.47 444.79,577.38 446.76,573.64 448.73,582.21 450.70,574.94 452.67,575.45 454.64,573.85 456.61,582.74 458.58,577.05 460.55,575.22 462.52,575.22 464.48,582.15 466.45,578.34 468.42,574.31 470.39,575.08 472.36,582.80 474.33,580.49 476.30,575.88 478.27,575.45 480.24,583.08 482.21,578.13 484.18,573.62 486.15,577.94 488.12,583.30 490.09,582.12 492.06,581.64 494.03,577.39 496.00,582.82" fill="none" stroke="#f97316" stroke-width="1.8" stroke-opacity="0.45" stroke-linejoin="round" stroke-linecap="round"/>
<circle cx="106.00" cy="580.47" r="1.8" fill="#f97316" fill-opacity="0.55"/>
<circle cx="127.67" cy="576.77" r="1.8" fill="#f97316" fill-opacity="0.55"/>
<circle cx="149.33" cy="580.36" r="1.8" fill="#f97316" fill-opacity="0.55"/>
<circle cx="171.00" cy="583.05" r="1.8" fill="#f97316" fill-opacity="0.55"/>
<circle cx="192.67" cy="576.72" r="1.8" fill="#f97316" fill-opacity="0.55"/>
<circle cx="214.33" cy="581.73" r="1.8" fill="#f97316" fill-opacity="0.55"/>
<circle cx="236.00" cy="573.59" r="1.8" fill="#f97316" fill-opacity="0.55"/>
<circle cx="257.67" cy="575.21" r="1.8" fill="#f97316" fill-opacity="0.55"/>
<circle cx="279.33" cy="580.35" r="1.8" fill="#f97316" fill-opacity="0.55"/>
<circle cx="301.00" cy="582.04" r="1.8" fill="#f97316" fill-opacity="0.55"/>
<circle cx="322.67" cy="579.04" r="1.8" fill="#f97316" fill-opacity="0.55"/>
<circle cx="344.33" cy="583.13" r="1.8" fill="#f97316" fill-opacity="0.55"/>
<circle cx="366.00" cy="578.12" r="1.8" fill="#f97316" fill-opacity="0.55"/>
<circle cx="387.67" cy="580.63" r="1.8" fill="#f97316" fill-opacity="0.55"/>
<circle cx="409.33" cy="582.28" r="1.8" fill="#f97316" fill-opacity="0.55"/>
<circle cx="431.00" cy="577.34" r="1.8" fill="#f97316" fill-opacity="0.55"/>
<circle cx="452.67" cy="575.45" r="1.8" fill="#f97316" fill-opacity="0.55"/>
<circle cx="474.33" cy="580.49" r="1.8" fill="#f97316" fill-opacity="0.55"/>
<circle cx="496.00" cy="582.82" r="1.8" fill="#f97316" fill-opacity="0.55"/>
<text x="496" y="609" class="tick" text-anchor="end">Round sequence; higher is better</text>
<rect x="560" y="379" width="472" height="245" rx="8" fill="#ffffff" stroke="#dbe3ef"/>
<text x="578" y="407" class="label" font-weight="700">Observed cost / round</text>
<rect x="878" y="391" width="136" height="26" rx="13" fill="#fef3c7" stroke="#f59e0b" stroke-width="1.4"/>
<text x="946" y="409" class="tick" font-weight="800" text-anchor="middle" fill="#92400e">Average winner: OpenRouter</text>
<line x1="618" y1="584.00" x2="1008" y2="584.00" stroke="#e5e7eb"/>
<text x="610" y="588.00" class="tick" text-anchor="end">$0.0000</text>
<line x1="618" y1="531.67" x2="1008" y2="531.67" stroke="#e5e7eb"/>
<text x="610" y="535.67" class="tick" text-anchor="end">$0.0002</text>
<line x1="618" y1="479.33" x2="1008" y2="479.33" stroke="#e5e7eb"/>
<text x="610" y="483.33" class="tick" text-anchor="end">$0.0003</text>
<line x1="618" y1="427.00" x2="1008" y2="427.00" stroke="#e5e7eb"/>
<text x="610" y="431.00" class="tick" text-anchor="end">$0.0005</text>
<polyline points="618.00,488.44 619.97,474.27 621.94,485.42 623.91,504.72 625.88,496.88 627.85,479.09 629.82,477.58 631.79,503.81 633.76,486.63 635.73,467.94 637.70,495.97 639.67,510.75 641.64,514.06 643.61,461.91 645.58,495.37 647.55,500.19 649.52,493.26 651.48,476.98 653.45,487.53 655.42,505.32 657.39,528.23 659.36,488.74 661.33,548.13 663.30,551.44 665.27,477.58 667.24,480.00 669.21,503.21 671.18,506.83 673.15,499.59 675.12,484.22 677.09,489.94 679.06,505.62 681.03,506.52 683.00,474.57 684.97,492.66 686.94,506.52 688.91,497.78 690.88,472.46 692.85,505.02 694.82,506.22 696.79,505.62 698.76,466.73 700.73,540.29 702.70,551.14 704.67,478.79 706.64,476.68 708.61,500.19 710.58,502.00 712.55,506.22 714.52,481.20 716.48,503.81 718.45,483.61 720.42,499.59 722.39,496.88 724.36,506.52 726.33,475.78 728.30,501.10 730.27,504.11 732.24,495.37 734.21,488.14 736.18,493.56 738.15,524.01 740.12,526.72 742.09,498.39 744.06,500.19 746.03,505.92 748.00,480.60 749.97,480.00 751.94,504.11 753.91,503.81 755.88,470.65 757.85,478.19 759.82,498.08 761.79,500.80 763.76,495.37 765.73,502.30 767.70,505.62 769.67,500.50 771.64,514.06 773.61,508.33 775.58,497.48 777.55,505.32 779.52,514.06 781.48,512.86 783.45,511.65 785.42,500.50 787.39,491.15 789.36,484.82 791.33,498.99 793.30,496.88 795.27,484.22 797.24,479.09 799.21,499.29 801.18,502.91 803.15,497.18 805.12,486.03 807.09,472.46 809.06,503.81 811.03,521.00 813.00,507.13 814.97,523.41 816.94,510.44 818.91,501.40 820.88,496.88 822.85,504.11 824.82,453.47 826.79,486.03 828.76,507.73 830.73,505.02 832.70,471.86 834.67,494.77 836.64,497.78 838.61,526.72 840.58,471.25 842.55,545.71 844.52,525.52 846.48,487.83 848.45,473.06 850.42,498.99 852.39,503.81 854.36,506.22 856.33,486.33 858.30,504.11 860.27,500.19 862.24,493.56 864.21,473.67 866.18,502.61 868.15,504.11 870.12,477.89 872.09,482.41 874.06,495.97 876.03,526.12 878.00,510.75 879.97,488.14 881.94,501.70 883.91,498.69 885.88,506.52 887.85,443.82 889.82,498.08 891.79,492.05 893.76,499.29 895.73,483.31 897.70,495.07 899.67,498.39 901.64,484.52 903.61,489.34 905.58,509.54 907.55,507.13 909.52,464.02 911.48,506.22 913.45,487.23 915.42,497.78 917.39,498.69 919.36,503.81 921.33,475.78 923.30,502.61 925.27,502.61 927.24,506.83 929.21,476.98 931.18,505.32 933.15,500.80 935.12,500.50 937.09,518.28 939.06,499.89 941.03,527.93 943.00,523.71 944.97,498.08 946.94,503.21 948.91,504.72 950.88,503.51 952.85,472.16 954.82,481.20 956.79,505.32 958.76,476.98 960.73,454.37 962.70,505.62 964.67,505.32 966.64,506.83 968.61,476.08 970.58,505.32 972.55,524.91 974.52,515.57 976.48,485.12 978.45,504.41 980.42,502.61 982.39,495.67 984.36,470.65 986.33,499.89 988.30,493.26 990.27,504.41 992.24,470.05 994.21,499.89 996.18,504.41 998.15,472.46 1000.12,484.82 1002.09,516.77 1004.06,527.93 1006.03,503.81 1008.00,472.46" fill="none" stroke="#2563eb" stroke-width="1.8" stroke-opacity="0.45" stroke-linejoin="round" stroke-linecap="round"/>
<circle cx="618.00" cy="488.44" r="1.8" fill="#2563eb" fill-opacity="0.55"/>
<circle cx="639.67" cy="510.75" r="1.8" fill="#2563eb" fill-opacity="0.55"/>
<circle cx="661.33" cy="548.13" r="1.8" fill="#2563eb" fill-opacity="0.55"/>
<circle cx="683.00" cy="474.57" r="1.8" fill="#2563eb" fill-opacity="0.55"/>
<circle cx="704.67" cy="478.79" r="1.8" fill="#2563eb" fill-opacity="0.55"/>
<circle cx="726.33" cy="475.78" r="1.8" fill="#2563eb" fill-opacity="0.55"/>
<circle cx="748.00" cy="480.60" r="1.8" fill="#2563eb" fill-opacity="0.55"/>
<circle cx="769.67" cy="500.50" r="1.8" fill="#2563eb" fill-opacity="0.55"/>
<circle cx="791.33" cy="498.99" r="1.8" fill="#2563eb" fill-opacity="0.55"/>
<circle cx="813.00" cy="507.13" r="1.8" fill="#2563eb" fill-opacity="0.55"/>
<circle cx="834.67" cy="494.77" r="1.8" fill="#2563eb" fill-opacity="0.55"/>
<circle cx="856.33" cy="486.33" r="1.8" fill="#2563eb" fill-opacity="0.55"/>
<circle cx="878.00" cy="510.75" r="1.8" fill="#2563eb" fill-opacity="0.55"/>
<circle cx="899.67" cy="498.39" r="1.8" fill="#2563eb" fill-opacity="0.55"/>
<circle cx="921.33" cy="475.78" r="1.8" fill="#2563eb" fill-opacity="0.55"/>
<circle cx="943.00" cy="523.71" r="1.8" fill="#2563eb" fill-opacity="0.55"/>
<circle cx="964.67" cy="505.32" r="1.8" fill="#2563eb" fill-opacity="0.55"/>
<circle cx="986.33" cy="499.89" r="1.8" fill="#2563eb" fill-opacity="0.55"/>
<circle cx="1008.00" cy="472.46" r="1.8" fill="#2563eb" fill-opacity="0.55"/>
<polyline points="618.00,521.21 619.97,522.51 621.94,521.74 623.91,521.44 625.88,557.32 627.85,558.62 629.82,557.27 631.79,557.88 633.76,557.32 635.73,558.68 637.70,557.44 639.67,557.56 641.64,557.32 643.61,558.68 645.58,557.92 647.55,557.56 649.52,557.32 651.48,558.62 653.45,557.56 655.42,557.56 657.39,557.32 659.36,558.57 661.33,557.86 663.30,557.56 665.27,557.32 667.24,558.62 669.21,557.32 671.18,557.56 673.15,557.32 675.12,558.62 677.09,557.15 679.06,557.56 681.03,557.32 683.00,558.62 684.97,558.09 686.94,557.56 688.91,557.32 690.88,558.62 692.85,557.44 694.82,557.56 696.79,557.32 698.76,558.57 700.73,558.09 702.70,557.56 704.67,557.32 706.64,558.62 708.61,557.27 710.58,557.56 712.55,557.32 714.52,558.62 716.48,557.32 718.45,558.74 720.42,557.27 722.39,557.56 724.36,557.32 726.33,558.62 728.30,557.56 730.27,557.56 732.24,521.21 734.21,558.62 736.18,557.62 738.15,557.56 740.12,557.32 742.09,558.62 744.06,557.97 746.03,557.56 748.00,557.32 749.97,558.62 751.94,557.86 753.91,557.56 755.88,557.32 757.85,558.57 759.82,557.74 761.79,557.56 763.76,557.32 765.73,558.62 767.70,557.62 769.67,557.56 771.64,557.32 773.61,558.62 775.58,557.38 777.55,557.56 779.52,557.32 781.48,558.62 783.45,557.27 785.42,557.56 787.39,557.32 789.36,522.51 791.33,557.44 793.30,557.56 795.27,557.32 797.24,558.62 799.21,557.86 801.18,557.56 803.15,557.32 805.12,558.62 807.09,557.15 809.06,557.56 811.03,557.32 813.00,558.62 814.97,557.32 816.94,558.62 818.91,557.15 820.88,557.56 822.85,557.32 824.82,558.62 826.79,557.56 828.76,557.56 830.73,557.32 832.70,558.62 834.67,557.68 836.64,557.56 838.61,557.32 840.58,558.62 842.55,557.74 844.52,557.56 846.48,557.32 848.45,558.62 850.42,557.56 852.39,557.56 854.36,557.32 856.33,558.62 858.30,557.27 860.27,557.56 862.24,557.32 864.21,558.62 866.18,557.56 868.15,557.56 870.12,557.32 872.09,558.62 874.06,557.27 876.03,557.56 878.00,557.32 879.97,558.62 881.94,513.94 883.91,557.56 885.88,557.32 887.85,558.62 889.82,521.56 891.79,557.56 893.76,557.32 895.73,558.62 897.70,557.56 899.67,557.56 901.64,557.32 903.61,557.27 905.58,557.56 907.55,557.32 909.52,558.62 911.48,557.32 913.45,558.57 915.42,557.68 917.39,557.56 919.36,557.32 921.33,558.62 923.30,557.68 925.27,557.56 927.24,557.32 929.21,558.33 931.18,521.15 933.15,557.56 935.12,557.32 937.09,558.62 939.06,557.27 941.03,557.56 943.00,557.32 944.97,558.57 946.94,557.68 948.91,557.56 950.88,557.32 952.85,558.57 954.82,557.86 956.79,557.56 958.76,557.32 960.73,558.62 962.70,557.27 964.67,557.56 966.64,557.32 968.61,558.62 970.58,557.56 972.55,557.56 974.52,557.32 976.48,558.62 978.45,557.86 980.42,557.56 982.39,557.32 984.36,558.62 986.33,557.68 988.30,557.56 990.27,557.32 992.24,558.62 994.21,557.27 996.18,557.56 998.15,545.29 1000.12,558.68 1002.09,514.70 1004.06,520.44 1006.03,557.32 1008.00,558.62" fill="none" stroke="#f97316" stroke-width="3.8" stroke-opacity="1" stroke-linejoin="round" stroke-linecap="round"/>
<circle cx="618.00" cy="521.21" r="3.0" fill="#f97316" fill-opacity="1"/>
<circle cx="639.67" cy="557.56" r="3.0" fill="#f97316" fill-opacity="1"/>
<circle cx="661.33" cy="557.86" r="3.0" fill="#f97316" fill-opacity="1"/>
<circle cx="683.00" cy="558.62" r="3.0" fill="#f97316" fill-opacity="1"/>
<circle cx="704.67" cy="557.32" r="3.0" fill="#f97316" fill-opacity="1"/>
<circle cx="726.33" cy="558.62" r="3.0" fill="#f97316" fill-opacity="1"/>
<circle cx="748.00" cy="557.32" r="3.0" fill="#f97316" fill-opacity="1"/>
<circle cx="769.67" cy="557.56" r="3.0" fill="#f97316" fill-opacity="1"/>
<circle cx="791.33" cy="557.44" r="3.0" fill="#f97316" fill-opacity="1"/>
<circle cx="813.00" cy="558.62" r="3.0" fill="#f97316" fill-opacity="1"/>
<circle cx="834.67" cy="557.68" r="3.0" fill="#f97316" fill-opacity="1"/>
<circle cx="856.33" cy="558.62" r="3.0" fill="#f97316" fill-opacity="1"/>
<circle cx="878.00" cy="557.32" r="3.0" fill="#f97316" fill-opacity="1"/>
<circle cx="899.67" cy="557.56" r="3.0" fill="#f97316" fill-opacity="1"/>
<circle cx="921.33" cy="558.62" r="3.0" fill="#f97316" fill-opacity="1"/>
<circle cx="943.00" cy="557.32" r="3.0" fill="#f97316" fill-opacity="1"/>
<circle cx="964.67" cy="557.56" r="3.0" fill="#f97316" fill-opacity="1"/>
<circle cx="986.33" cy="557.68" r="3.0" fill="#f97316" fill-opacity="1"/>
<circle cx="1008.00" cy="558.62" r="3.0" fill="#f97316" fill-opacity="1"/>
<text x="1008" y="609" class="tick" text-anchor="end">Round sequence; lower is better</text>
<rect x="48" y="682" width="472" height="245" rx="8" fill="#ffffff" stroke="#dbe3ef"/>
<text x="66" y="710" class="label" font-weight="700">Token cache hit rate</text>
<rect x="366" y="694" width="136" height="26" rx="13" fill="#fef3c7" stroke="#f59e0b" stroke-width="1.4"/>
<text x="434" y="712" class="tick" font-weight="800" text-anchor="middle" fill="#92400e">Average winner: OpenRouter</text>
<line x1="106" y1="887.00" x2="496" y2="887.00" stroke="#e5e7eb"/>
<text x="98" y="891.00" class="tick" text-anchor="end">0%</text>
<line x1="106" y1="834.67" x2="496" y2="834.67" stroke="#e5e7eb"/>
<text x="98" y="838.67" class="tick" text-anchor="end">35%</text>
<line x1="106" y1="782.33" x2="496" y2="782.33" stroke="#e5e7eb"/>
<text x="98" y="786.33" class="tick" text-anchor="end">70%</text>
<line x1="106" y1="730.00" x2="496" y2="730.00" stroke="#e5e7eb"/>
<text x="98" y="734.00" class="tick" text-anchor="end">105%</text>
<polyline points="106.00,887.00 107.97,887.00 109.94,887.00 111.91,887.00 113.88,887.00 115.85,887.00 117.82,887.00 119.79,887.00 121.76,887.00 123.73,887.00 125.70,887.00 127.67,887.00 129.64,887.00 131.61,887.00 133.58,887.00 135.55,887.00 137.52,887.00 139.48,887.00 141.45,887.00 143.42,887.00 145.39,758.82 147.36,887.00 149.33,759.21 151.30,758.50 153.27,887.00 155.24,887.00 157.21,887.00 159.18,887.00 161.15,887.00 163.12,887.00 165.09,887.00 167.06,887.00 169.03,887.00 171.00,887.00 172.97,887.00 174.94,887.00 176.91,887.00 178.88,887.00 180.85,887.00 182.82,887.00 184.79,887.00 186.76,887.00 188.73,759.21 190.70,758.50 192.67,887.00 194.64,887.00 196.61,887.00 198.58,887.00 200.55,887.00 202.52,887.00 204.48,887.00 206.45,887.00 208.42,887.00 210.39,887.00 212.36,887.00 214.33,887.00 216.30,887.00 218.27,887.00 220.24,887.00 222.21,759.13 224.18,887.00 226.15,758.50 228.12,758.82 230.09,887.00 232.06,887.00 234.03,887.00 236.00,887.00 237.97,887.00 239.94,887.00 241.91,887.00 243.88,887.00 245.85,887.00 247.82,887.00 249.79,887.00 251.76,887.00 253.73,887.00 255.70,887.00 257.67,887.00 259.64,887.00 261.61,759.13 263.58,887.00 265.55,887.00 267.52,887.00 269.48,887.00 271.45,887.00 273.42,887.00 275.39,887.00 277.36,887.00 279.33,887.00 281.30,887.00 283.27,887.00 285.24,887.00 287.21,887.00 289.18,887.00 291.15,887.00 293.12,887.00 295.09,887.00 297.06,887.00 299.03,758.82 301.00,887.00 302.97,887.00 304.94,887.00 306.91,887.00 308.88,887.00 310.85,887.00 312.82,887.00 314.79,887.00 316.76,887.00 318.73,887.00 320.70,887.00 322.67,887.00 324.64,887.00 326.61,758.82 328.58,887.00 330.55,759.21 332.52,887.00 334.48,887.00 336.45,887.00 338.42,887.00 340.39,887.00 342.36,887.00 344.33,887.00 346.30,887.00 348.27,887.00 350.24,887.00 352.21,887.00 354.18,887.00 356.15,887.00 358.12,887.00 360.09,887.00 362.06,887.00 364.03,887.00 366.00,887.00 367.97,887.00 369.94,887.00 371.91,887.00 373.88,887.00 375.85,887.00 377.82,887.00 379.79,887.00 381.76,887.00 383.73,887.00 385.70,887.00 387.67,887.00 389.64,887.00 391.61,887.00 393.58,887.00 395.55,887.00 397.52,887.00 399.48,887.00 401.45,887.00 403.42,887.00 405.39,887.00 407.36,887.00 409.33,887.00 411.30,887.00 413.27,887.00 415.24,887.00 417.21,887.00 419.18,887.00 421.15,887.00 423.12,887.00 425.09,759.13 427.06,887.00 429.03,758.50 431.00,887.00 432.97,887.00 434.94,887.00 436.91,887.00 438.88,887.00 440.85,887.00 442.82,887.00 444.79,887.00 446.76,887.00 448.73,887.00 450.70,887.00 452.67,887.00 454.64,887.00 456.61,887.00 458.58,759.21 460.55,887.00 462.52,887.00 464.48,887.00 466.45,887.00 468.42,887.00 470.39,887.00 472.36,887.00 474.33,887.00 476.30,887.00 478.27,887.00 480.24,887.00 482.21,887.00 484.18,887.00 486.15,887.00 488.12,887.00 490.09,759.21 492.06,887.00 494.03,887.00 496.00,887.00" fill="none" stroke="#2563eb" stroke-width="1.8" stroke-opacity="0.45" stroke-linejoin="round" stroke-linecap="round"/>
<circle cx="106.00" cy="887.00" r="1.8" fill="#2563eb" fill-opacity="0.55"/>
<circle cx="127.67" cy="887.00" r="1.8" fill="#2563eb" fill-opacity="0.55"/>
<circle cx="149.33" cy="759.21" r="1.8" fill="#2563eb" fill-opacity="0.55"/>
<circle cx="171.00" cy="887.00" r="1.8" fill="#2563eb" fill-opacity="0.55"/>
<circle cx="192.67" cy="887.00" r="1.8" fill="#2563eb" fill-opacity="0.55"/>
<circle cx="214.33" cy="887.00" r="1.8" fill="#2563eb" fill-opacity="0.55"/>
<circle cx="236.00" cy="887.00" r="1.8" fill="#2563eb" fill-opacity="0.55"/>
<circle cx="257.67" cy="887.00" r="1.8" fill="#2563eb" fill-opacity="0.55"/>
<circle cx="279.33" cy="887.00" r="1.8" fill="#2563eb" fill-opacity="0.55"/>
<circle cx="301.00" cy="887.00" r="1.8" fill="#2563eb" fill-opacity="0.55"/>
<circle cx="322.67" cy="887.00" r="1.8" fill="#2563eb" fill-opacity="0.55"/>
<circle cx="344.33" cy="887.00" r="1.8" fill="#2563eb" fill-opacity="0.55"/>
<circle cx="366.00" cy="887.00" r="1.8" fill="#2563eb" fill-opacity="0.55"/>
<circle cx="387.67" cy="887.00" r="1.8" fill="#2563eb" fill-opacity="0.55"/>
<circle cx="409.33" cy="887.00" r="1.8" fill="#2563eb" fill-opacity="0.55"/>
<circle cx="431.00" cy="887.00" r="1.8" fill="#2563eb" fill-opacity="0.55"/>
<circle cx="452.67" cy="887.00" r="1.8" fill="#2563eb" fill-opacity="0.55"/>
<circle cx="474.33" cy="887.00" r="1.8" fill="#2563eb" fill-opacity="0.55"/>
<circle cx="496.00" cy="887.00" r="1.8" fill="#2563eb" fill-opacity="0.55"/>
<polyline points="106.00,747.16 107.97,887.00 109.94,747.59 111.91,746.82 113.88,747.16 115.85,747.50 117.82,747.59 119.79,746.82 121.76,747.16 123.73,747.50 125.70,747.59 127.67,746.82 129.64,747.16 131.61,747.50 133.58,747.59 135.55,746.82 137.52,747.16 139.48,747.50 141.45,747.59 143.42,746.82 145.39,747.16 147.36,747.50 149.33,747.59 151.30,746.82 153.27,747.16 155.24,747.50 157.21,747.59 159.18,746.82 161.15,747.16 163.12,747.50 165.09,747.59 167.06,746.82 169.03,747.16 171.00,747.50 172.97,747.59 174.94,746.82 176.91,747.16 178.88,747.50 180.85,747.59 182.82,746.82 184.79,747.16 186.76,747.50 188.73,747.59 190.70,746.82 192.67,747.16 194.64,747.50 196.61,747.59 198.58,746.82 200.55,747.16 202.52,747.50 204.48,747.16 206.45,747.50 208.42,747.59 210.39,746.82 212.36,747.16 214.33,747.50 216.30,747.59 218.27,746.82 220.24,887.00 222.21,747.50 224.18,747.59 226.15,746.82 228.12,747.16 230.09,747.50 232.06,747.59 234.03,746.82 236.00,747.16 237.97,747.50 239.94,747.59 241.91,746.82 243.88,747.16 245.85,747.50 247.82,747.59 249.79,746.82 251.76,747.16 253.73,747.50 255.70,747.59 257.67,746.82 259.64,747.16 261.61,747.50 263.58,747.59 265.55,746.82 267.52,747.16 269.48,747.50 271.45,747.59 273.42,746.82 275.39,747.16 277.36,747.50 279.33,747.59 281.30,746.82 283.27,747.16 285.24,747.50 287.21,747.59 289.18,746.82 291.15,747.16 293.12,747.50 295.09,747.59 297.06,746.82 299.03,747.16 301.00,747.50 302.97,747.16 304.94,747.50 306.91,747.59 308.88,746.82 310.85,747.16 312.82,747.50 314.79,747.59 316.76,746.82 318.73,747.16 320.70,747.50 322.67,747.59 324.64,746.82 326.61,747.16 328.58,747.50 330.55,747.59 332.52,746.82 334.48,747.16 336.45,747.50 338.42,747.59 340.39,746.82 342.36,747.16 344.33,747.50 346.30,747.59 348.27,746.82 350.24,747.16 352.21,747.50 354.18,747.59 356.15,746.82 358.12,747.16 360.09,747.50 362.06,747.59 364.03,746.82 366.00,747.16 367.97,747.50 369.94,887.00 371.91,746.82 373.88,747.16 375.85,747.50 377.82,887.00 379.79,746.82 381.76,747.16 383.73,747.50 385.70,747.59 387.67,746.82 389.64,747.16 391.61,747.59 393.58,746.82 395.55,747.16 397.52,747.50 399.48,747.16 401.45,747.50 403.42,747.59 405.39,746.82 407.36,747.16 409.33,747.50 411.30,747.59 413.27,746.82 415.24,747.16 417.21,747.50 419.18,887.00 421.15,746.82 423.12,747.16 425.09,747.50 427.06,747.59 429.03,746.82 431.00,747.16 432.97,747.50 434.94,747.59 436.91,746.82 438.88,747.16 440.85,747.50 442.82,747.59 444.79,746.82 446.76,747.16 448.73,747.50 450.70,747.59 452.67,746.82 454.64,747.16 456.61,747.50 458.58,747.59 460.55,746.82 462.52,747.16 464.48,747.50 466.45,747.59 468.42,746.82 470.39,747.16 472.36,747.50 474.33,747.59 476.30,746.82 478.27,747.16 480.24,747.50 482.21,747.59 484.18,746.82 486.15,793.78 488.12,747.50 490.09,747.59 492.06,887.00 494.03,747.16 496.00,747.50" fill="none" stroke="#f97316" stroke-width="3.8" stroke-opacity="1" stroke-linejoin="round" stroke-linecap="round"/>
<circle cx="106.00" cy="747.16" r="3.0" fill="#f97316" fill-opacity="1"/>
<circle cx="127.67" cy="746.82" r="3.0" fill="#f97316" fill-opacity="1"/>
<circle cx="149.33" cy="747.59" r="3.0" fill="#f97316" fill-opacity="1"/>
<circle cx="171.00" cy="747.50" r="3.0" fill="#f97316" fill-opacity="1"/>
<circle cx="192.67" cy="747.16" r="3.0" fill="#f97316" fill-opacity="1"/>
<circle cx="214.33" cy="747.50" r="3.0" fill="#f97316" fill-opacity="1"/>
<circle cx="236.00" cy="747.16" r="3.0" fill="#f97316" fill-opacity="1"/>
<circle cx="257.67" cy="746.82" r="3.0" fill="#f97316" fill-opacity="1"/>
<circle cx="279.33" cy="747.59" r="3.0" fill="#f97316" fill-opacity="1"/>
<circle cx="301.00" cy="747.50" r="3.0" fill="#f97316" fill-opacity="1"/>
<circle cx="322.67" cy="747.59" r="3.0" fill="#f97316" fill-opacity="1"/>
<circle cx="344.33" cy="747.50" r="3.0" fill="#f97316" fill-opacity="1"/>
<circle cx="366.00" cy="747.16" r="3.0" fill="#f97316" fill-opacity="1"/>
<circle cx="387.67" cy="746.82" r="3.0" fill="#f97316" fill-opacity="1"/>
<circle cx="409.33" cy="747.50" r="3.0" fill="#f97316" fill-opacity="1"/>
<circle cx="431.00" cy="747.16" r="3.0" fill="#f97316" fill-opacity="1"/>
<circle cx="452.67" cy="746.82" r="3.0" fill="#f97316" fill-opacity="1"/>
<circle cx="474.33" cy="747.59" r="3.0" fill="#f97316" fill-opacity="1"/>
<circle cx="496.00" cy="747.50" r="3.0" fill="#f97316" fill-opacity="1"/>
<text x="496" y="912" class="tick" text-anchor="end">Round sequence; higher is better</text>
<rect x="830" y="28" width="14" height="14" rx="3" fill="#2563eb"/>
<text x="852" y="40" class="label">Infron</text>
<rect x="830" y="52" width="14" height="14" rx="3" fill="#f97316"/>
<text x="852" y="64" class="label">OpenRouter</text>
</svg>