<svg xmlns="http://www.w3.org/2000/svg" width="1080" height="1000" viewBox="0 0 1080 1000"><style>text{font-family:-apple-system,BlinkMacSystemFont,'Segoe UI',sans-serif;fill:#111827}.title{font-size:22px;font-weight:700}.label{font-size:13px;fill:#374151}.tick{font-size:12px;fill:#6b7280}.value{font-size:12px;fill:#111827}</style><rect width="100%" height="100%" fill="#ffffff"/>
<text x="48" y="34" class="title">吞吐优先路由模式：指标生成过程对比曲线</text>
<text x="48" y="58" class="label">按 group/round 顺序绘制每轮指标；曲线展示汇总均值背后的波动过程。</text>
<rect x="48" y="76" width="472" height="245" rx="8" fill="#ffffff" stroke="#dbe3ef"/>
<text x="66" y="104" class="label" font-weight="700">端到端 E2E 时延 / 请求（含 reasoning）</text>
<rect x="366" y="88" width="136" height="26" rx="13" fill="#fef3c7" stroke="#f59e0b" stroke-width="1.4"/>
<text x="434" y="106" class="tick" font-weight="800" text-anchor="middle" fill="#92400e">均值胜出: OpenRouter</text>
<line x1="106" y1="281.00" x2="496" y2="281.00" stroke="#e5e7eb"/>
<text x="98" y="285.00" class="tick" text-anchor="end">0.0</text>
<line x1="106" y1="228.67" x2="496" y2="228.67" stroke="#e5e7eb"/>
<text x="98" y="232.67" class="tick" text-anchor="end">7843</text>
<line x1="106" y1="176.33" x2="496" y2="176.33" stroke="#e5e7eb"/>
<text x="98" y="180.33" class="tick" text-anchor="end">15686</text>
<line x1="106" y1="124.00" x2="496" y2="124.00" stroke="#e5e7eb"/>
<text x="98" y="128.00" class="tick" text-anchor="end">23529</text>
<polyline points="106.00,253.73 107.96,174.56 109.92,236.42 111.88,248.75 113.84,253.70 115.80,145.55 117.76,242.18 119.72,247.99 121.68,240.12 123.64,201.18 125.60,247.98 127.56,253.00 129.52,236.31 131.48,202.72 133.44,238.19 135.40,237.70 137.36,247.61 139.32,222.13 141.28,226.22 143.24,227.43 145.20,234.83 147.16,220.19 149.12,223.30 151.08,235.77 153.04,230.66 154.99,189.00 156.95,239.03 158.91,251.98 160.87,255.99 162.83,229.54 164.79,244.15 166.75,257.01 168.71,266.46 170.67,204.11 172.63,242.54 174.59,251.98 176.55,255.02 178.51,211.62 180.47,248.19 182.43,255.22 184.39,235.71 186.35,145.77 188.31,244.03 190.27,232.56 192.23,223.17 194.19,201.42 196.15,256.81 198.11,242.65 200.07,229.83 202.03,212.17 203.99,263.05 205.95,214.64 207.91,234.50 209.87,239.06 211.83,264.19 213.79,196.12 215.75,228.12 217.71,252.10 219.67,240.81 221.63,140.82 223.59,242.46 225.55,251.02 227.51,239.32 229.47,241.69 231.43,242.53 233.39,262.32 235.35,244.57 237.31,244.18 239.27,236.98 241.23,258.41 243.19,255.24 245.15,231.29 247.11,242.14 249.07,258.54 251.03,264.40 252.98,191.11 254.94,261.59 256.90,233.73 258.86,253.46 260.82,212.67 262.78,237.53 264.74,247.14 266.70,243.51 268.66,207.13 270.62,239.18 272.58,260.14 274.54,242.77 276.50,220.19 278.46,229.38 280.42,245.44 282.38,255.72 284.34,236.13 286.30,240.84 288.26,260.72 290.22,261.04 292.18,230.62 294.14,252.29 296.10,259.80 298.06,247.93 300.02,241.92 301.98,260.65 303.94,181.08 305.90,235.82 307.86,257.41 309.82,257.69 311.78,222.83 313.74,244.56 315.70,256.55 317.66,242.95 319.62,241.88 321.58,250.38 323.54,246.07 325.50,239.79 327.46,206.37 329.42,256.88 331.38,260.41 333.34,258.66 335.30,236.67 337.26,247.12 339.22,253.10 341.18,247.63 343.14,217.65 345.10,245.13 347.06,251.47 349.02,256.34 350.97,241.55 352.93,252.20 354.89,246.95 356.85,263.14 358.81,223.79 360.77,229.92 362.73,256.08 364.69,261.08 366.65,210.46 368.61,252.08 370.57,261.75 372.53,219.96 374.49,245.47 376.45,250.20 378.41,270.00 380.37,269.36 382.33,269.11 384.29,268.67 386.25,270.71 388.21,270.01 390.17,253.47 392.13,269.93 394.09,269.12 396.05,268.79 398.01,264.12 399.97,269.35 401.93,269.02 403.89,264.45 405.85,262.82 407.81,269.38 409.77,264.51 411.73,262.49 413.69,259.51 415.65,268.56 417.61,268.31 419.57,262.44 421.53,263.36 423.49,271.45 425.45,269.42 427.41,268.75 429.37,269.33 431.33,269.74 433.29,266.99 435.25,269.45 437.21,268.01 439.17,272.33 441.13,270.25 443.09,271.52 445.05,270.71 447.01,269.29 448.96,269.03 450.92,259.08 452.88,270.51 454.84,268.40 456.80,270.43 458.76,258.34 460.72,259.28 462.68,270.49 464.64,270.55 466.60,267.63 468.56,256.00 470.52,269.02 472.48,271.58 474.44,260.34 476.40,260.76 478.36,270.31 480.32,254.65 482.28,270.72 484.24,271.11 486.20,266.58 488.16,262.04 490.12,267.02 492.08,221.75 494.04,269.44 496.00,269.44" fill="none" stroke="#2563eb" stroke-width="1.8" stroke-opacity="0.45" stroke-linejoin="round" stroke-linecap="round"/>
<circle cx="106.00" cy="253.73" r="1.8" fill="#2563eb" fill-opacity="0.55"/>
<circle cx="127.56" cy="253.00" r="1.8" fill="#2563eb" fill-opacity="0.55"/>
<circle cx="149.12" cy="223.30" r="1.8" fill="#2563eb" fill-opacity="0.55"/>
<circle cx="170.67" cy="204.11" r="1.8" fill="#2563eb" fill-opacity="0.55"/>
<circle cx="192.23" cy="223.17" r="1.8" fill="#2563eb" fill-opacity="0.55"/>
<circle cx="213.79" cy="196.12" r="1.8" fill="#2563eb" fill-opacity="0.55"/>
<circle cx="235.35" cy="244.57" r="1.8" fill="#2563eb" fill-opacity="0.55"/>
<circle cx="256.90" cy="233.73" r="1.8" fill="#2563eb" fill-opacity="0.55"/>
<circle cx="278.46" cy="229.38" r="1.8" fill="#2563eb" fill-opacity="0.55"/>
<circle cx="300.02" cy="241.92" r="1.8" fill="#2563eb" fill-opacity="0.55"/>
<circle cx="321.58" cy="250.38" r="1.8" fill="#2563eb" fill-opacity="0.55"/>
<circle cx="343.14" cy="217.65" r="1.8" fill="#2563eb" fill-opacity="0.55"/>
<circle cx="364.69" cy="261.08" r="1.8" fill="#2563eb" fill-opacity="0.55"/>
<circle cx="386.25" cy="270.71" r="1.8" fill="#2563eb" fill-opacity="0.55"/>
<circle cx="407.81" cy="269.38" r="1.8" fill="#2563eb" fill-opacity="0.55"/>
<circle cx="429.37" cy="269.33" r="1.8" fill="#2563eb" fill-opacity="0.55"/>
<circle cx="450.92" cy="259.08" r="1.8" fill="#2563eb" fill-opacity="0.55"/>
<circle cx="472.48" cy="271.58" r="1.8" fill="#2563eb" fill-opacity="0.55"/>
<circle cx="494.04" cy="269.44" r="1.8" fill="#2563eb" fill-opacity="0.55"/>
<polyline points="106.00,264.31 107.96,266.63 109.92,261.46 111.88,258.87 113.84,264.02 115.80,265.38 117.76,263.24 119.72,263.11 121.68,265.11 123.64,266.77 125.60,256.82 127.56,259.01 129.52,265.30 131.48,267.47 133.44,259.97 135.40,259.60 137.36,266.71 139.32,266.88 141.28,258.67 143.24,258.53 145.20,265.13 147.16,266.89 149.12,261.49 151.08,259.97 153.04,266.65 154.99,264.84 156.95,258.64 158.91,259.45 160.87,266.84 162.83,265.17 164.79,267.22 166.75,260.92 168.71,266.65 170.67,264.28 172.63,265.11 174.59,259.71 176.55,262.37 178.51,267.52 180.47,257.45 182.43,256.15 184.39,268.75 186.35,268.94 188.31,259.07 190.27,258.71 192.23,268.27 194.19,267.14 196.15,261.40 198.11,260.96 200.07,268.63 202.03,264.91 203.99,266.91 205.95,266.65 207.91,259.11 209.87,260.09 211.83,267.92 213.79,269.00 215.75,256.07 217.71,265.70 219.67,267.27 221.63,263.34 223.59,259.42 225.55,262.32 227.51,266.02 229.47,268.29 231.43,258.18 233.39,260.74 235.35,265.69 237.31,266.60 239.27,263.81 241.23,262.86 243.19,263.74 245.15,268.70 247.11,259.66 249.07,262.44 251.03,265.11 252.98,267.18 254.94,257.53 256.90,265.73 258.86,268.38 260.82,266.15 262.78,261.27 264.74,263.40 266.70,268.11 268.66,265.08 270.62,259.36 272.58,258.50 274.54,266.71 276.50,263.68 278.46,261.91 280.42,265.00 282.38,267.79 284.34,266.00 286.30,260.15 288.26,266.29 290.22,265.13 292.18,264.67 294.14,257.46 296.10,255.52 298.06,266.69 300.02,264.67 301.98,265.69 303.94,266.62 305.90,263.27 307.86,261.89 309.82,264.97 311.78,266.23 313.74,267.50 315.70,264.53 317.66,266.54 319.62,265.62 321.58,263.59 323.54,261.13 325.50,267.08 327.46,265.22 329.42,254.92 331.38,269.24 333.34,267.77 335.30,265.23 337.26,265.86 339.22,259.33 341.18,264.24 343.14,266.40 345.10,257.87 347.06,260.51 349.02,263.46 350.97,268.66 352.93,265.97 354.89,261.21 356.85,264.22 358.81,267.07 360.77,261.20 362.73,257.05 364.69,265.62 366.65,244.99 368.61,256.50 370.57,260.47 372.53,266.86 374.49,266.33 376.45,267.43 378.41,259.02 380.37,265.36 382.33,267.16 384.29,261.58 386.25,253.57 388.21,265.71 390.17,265.21 392.13,260.98 394.09,263.38 396.05,266.95 398.01,262.96 399.97,265.71 401.93,262.93 403.89,259.87 405.85,259.58 407.81,265.74 409.77,264.67 411.73,257.81 413.69,264.38 415.65,267.40 417.61,267.79 419.57,263.02 421.53,255.52 423.49,264.61 425.45,263.47 427.41,262.42 429.37,261.20 431.33,265.14 433.29,269.65 435.25,258.97 437.21,261.11 439.17,266.67 441.13,260.33 443.09,261.57 445.05,257.30 447.01,265.87 448.96,265.48 450.92,261.33 452.88,256.55 454.84,263.58 456.80,265.93 458.76,261.68 460.72,229.80 462.68,266.43 464.64,265.99 466.60,258.78 468.56,261.24 470.52,266.54 472.48,267.48 474.44,259.31 476.40,258.73 478.36,266.08 480.32,267.76 482.28,242.02 484.24,259.30 486.20,266.70 488.16,265.46 490.12,258.69 492.08,255.50 494.04,266.28 496.00,265.62" fill="none" stroke="#f97316" stroke-width="3.8" stroke-opacity="1" stroke-linejoin="round" stroke-linecap="round"/>
<circle cx="106.00" cy="264.31" r="3.0" fill="#f97316" fill-opacity="1"/>
<circle cx="127.56" cy="259.01" r="3.0" fill="#f97316" fill-opacity="1"/>
<circle cx="149.12" cy="261.49" r="3.0" fill="#f97316" fill-opacity="1"/>
<circle cx="170.67" cy="264.28" r="3.0" fill="#f97316" fill-opacity="1"/>
<circle cx="192.23" cy="268.27" r="3.0" fill="#f97316" fill-opacity="1"/>
<circle cx="213.79" cy="269.00" r="3.0" fill="#f97316" fill-opacity="1"/>
<circle cx="235.35" cy="265.69" r="3.0" fill="#f97316" fill-opacity="1"/>
<circle cx="256.90" cy="265.73" r="3.0" fill="#f97316" fill-opacity="1"/>
<circle cx="278.46" cy="261.91" r="3.0" fill="#f97316" fill-opacity="1"/>
<circle cx="300.02" cy="264.67" r="3.0" fill="#f97316" fill-opacity="1"/>
<circle cx="321.58" cy="263.59" r="3.0" fill="#f97316" fill-opacity="1"/>
<circle cx="343.14" cy="266.40" r="3.0" fill="#f97316" fill-opacity="1"/>
<circle cx="364.69" cy="265.62" r="3.0" fill="#f97316" fill-opacity="1"/>
<circle cx="386.25" cy="253.57" r="3.0" fill="#f97316" fill-opacity="1"/>
<circle cx="407.81" cy="265.74" r="3.0" fill="#f97316" fill-opacity="1"/>
<circle cx="429.37" cy="261.20" r="3.0" fill="#f97316" fill-opacity="1"/>
<circle cx="450.92" cy="261.33" r="3.0" fill="#f97316" fill-opacity="1"/>
<circle cx="472.48" cy="267.48" r="3.0" fill="#f97316" fill-opacity="1"/>
<circle cx="494.04" cy="266.28" r="3.0" fill="#f97316" fill-opacity="1"/>
<text x="496" y="306" class="tick" text-anchor="end">Round 序列；越低越好</text>
<rect x="560" y="76" width="472" height="245" rx="8" fill="#ffffff" stroke="#dbe3ef"/>
<text x="578" y="104" class="label" font-weight="700">流式 TTFT / 首包响应</text>
<rect x="878" y="88" width="136" height="26" rx="13" fill="#fef3c7" stroke="#f59e0b" stroke-width="1.4"/>
<text x="946" y="106" class="tick" font-weight="800" text-anchor="middle" fill="#92400e">均值胜出: Infron</text>
<line x1="618" y1="281.00" x2="1008" y2="281.00" stroke="#e5e7eb"/>
<text x="610" y="285.00" class="tick" text-anchor="end">0.0</text>
<line x1="618" y1="228.67" x2="1008" y2="228.67" stroke="#e5e7eb"/>
<text x="610" y="232.67" class="tick" text-anchor="end">3174</text>
<line x1="618" y1="176.33" x2="1008" y2="176.33" stroke="#e5e7eb"/>
<text x="610" y="180.33" class="tick" text-anchor="end">6348</text>
<line x1="618" y1="124.00" x2="1008" y2="124.00" stroke="#e5e7eb"/>
<text x="610" y="128.00" class="tick" text-anchor="end">9521</text>
<polyline points="618.00,234.99 619.96,228.22 621.92,244.94 623.88,251.56 625.84,244.70 627.80,232.79 629.76,246.49 631.72,252.19 633.68,238.73 635.64,207.24 637.60,250.00 639.56,244.62 641.52,227.74 643.48,243.35 645.44,245.12 647.40,246.96 649.36,249.18 651.32,241.65 653.28,232.86 655.24,193.44 657.20,249.68 659.16,246.28 661.12,217.73 663.08,246.25 665.04,243.84 666.99,235.87 668.95,247.49 670.91,247.17 672.87,248.25 674.83,241.70 676.79,249.01 678.75,247.15 680.71,247.57 682.67,238.14 684.63,252.21 686.59,249.80 688.55,252.69 690.51,248.33 692.47,239.92 694.43,249.97 696.39,251.70 698.35,210.01 700.31,251.26 702.27,183.09 704.23,248.70 706.19,232.41 708.15,246.51 710.11,244.46 712.07,242.40 714.03,250.91 715.99,245.02 717.95,235.31 719.91,250.34 721.87,249.43 723.83,252.25 725.79,217.30 727.75,247.95 729.71,249.21 731.67,250.41 733.63,252.33 735.59,245.07 737.55,228.76 739.51,252.63 741.47,251.94 743.43,250.51 745.39,251.84 747.35,249.81 749.31,250.00 751.27,238.24 753.23,247.80 755.19,251.34 757.15,252.56 759.11,248.03 761.07,250.76 763.03,250.55 764.98,250.95 766.94,253.65 768.90,181.45 770.86,249.70 772.82,241.49 774.78,225.27 776.74,218.93 778.70,252.97 780.66,250.32 782.62,240.59 784.58,251.43 786.54,249.27 788.50,241.73 790.46,249.46 792.42,246.32 794.38,251.10 796.34,250.38 798.30,245.08 800.26,252.25 802.22,251.71 804.18,247.61 806.14,245.02 808.10,250.26 810.06,249.21 812.02,251.18 813.98,246.87 815.94,221.18 817.90,250.56 819.86,244.55 821.82,246.98 823.78,231.31 825.74,248.41 827.70,252.21 829.66,248.32 831.62,243.83 833.58,246.38 835.54,244.80 837.50,230.47 839.46,250.01 841.42,248.66 843.38,251.18 845.34,252.62 847.30,244.85 849.26,247.72 851.22,248.24 853.18,223.35 855.14,243.93 857.10,213.82 859.06,242.98 861.02,251.35 862.97,231.03 864.93,243.78 866.89,216.48 868.85,252.47 870.81,249.12 872.77,247.62 874.73,248.94 876.69,251.07 878.65,230.10 880.61,254.26 882.57,251.34 884.53,242.42 886.49,244.78 888.45,248.20 890.41,257.14 892.37,257.02 894.33,256.53 896.29,255.28 898.25,259.91 900.21,257.65 902.17,215.61 904.13,257.83 906.09,257.48 908.05,255.26 910.01,245.28 911.97,255.96 913.93,254.38 915.89,247.74 917.85,247.73 919.81,255.42 921.77,244.65 923.73,243.07 925.69,232.28 927.65,255.95 929.61,253.83 931.57,240.26 933.53,250.21 935.49,260.77 937.45,257.34 939.41,254.79 941.37,257.71 943.33,256.03 945.29,249.68 947.25,260.02 949.21,253.09 951.17,263.17 953.13,256.82 955.09,261.98 957.05,259.15 959.01,254.87 960.96,255.75 962.92,230.68 964.88,260.23 966.84,255.13 968.80,258.48 970.76,229.79 972.72,235.03 974.68,258.54 976.64,258.47 978.60,255.10 980.56,228.85 982.52,255.89 984.48,261.08 986.44,234.82 988.40,236.35 990.36,258.77 992.32,219.10 994.28,259.46 996.24,261.70 998.20,250.93 1000.16,241.46 1002.12,255.59 1004.08,140.82 1006.04,259.07 1008.00,258.44" fill="none" stroke="#2563eb" stroke-width="3.8" stroke-opacity="1" stroke-linejoin="round" stroke-linecap="round"/>
<circle cx="618.00" cy="234.99" r="3.0" fill="#2563eb" fill-opacity="1"/>
<circle cx="639.56" cy="244.62" r="3.0" fill="#2563eb" fill-opacity="1"/>
<circle cx="661.12" cy="217.73" r="3.0" fill="#2563eb" fill-opacity="1"/>
<circle cx="682.67" cy="238.14" r="3.0" fill="#2563eb" fill-opacity="1"/>
<circle cx="704.23" cy="248.70" r="3.0" fill="#2563eb" fill-opacity="1"/>
<circle cx="725.79" cy="217.30" r="3.0" fill="#2563eb" fill-opacity="1"/>
<circle cx="747.35" cy="249.81" r="3.0" fill="#2563eb" fill-opacity="1"/>
<circle cx="768.90" cy="181.45" r="3.0" fill="#2563eb" fill-opacity="1"/>
<circle cx="790.46" cy="249.46" r="3.0" fill="#2563eb" fill-opacity="1"/>
<circle cx="812.02" cy="251.18" r="3.0" fill="#2563eb" fill-opacity="1"/>
<circle cx="833.58" cy="246.38" r="3.0" fill="#2563eb" fill-opacity="1"/>
<circle cx="855.14" cy="243.93" r="3.0" fill="#2563eb" fill-opacity="1"/>
<circle cx="876.69" cy="251.07" r="3.0" fill="#2563eb" fill-opacity="1"/>
<circle cx="898.25" cy="259.91" r="3.0" fill="#2563eb" fill-opacity="1"/>
<circle cx="919.81" cy="255.42" r="3.0" fill="#2563eb" fill-opacity="1"/>
<circle cx="941.37" cy="257.71" r="3.0" fill="#2563eb" fill-opacity="1"/>
<circle cx="962.92" cy="230.68" r="3.0" fill="#2563eb" fill-opacity="1"/>
<circle cx="984.48" cy="261.08" r="3.0" fill="#2563eb" fill-opacity="1"/>
<circle cx="1006.04" cy="259.07" r="3.0" fill="#2563eb" fill-opacity="1"/>
<polyline points="618.00,245.90 619.96,246.82 621.92,236.74 623.88,229.72 625.84,241.57 627.80,244.14 629.76,242.10 631.72,239.89 633.68,245.95 635.64,247.20 637.60,226.03 639.56,230.95 641.52,244.17 643.48,248.55 645.44,233.21 647.40,232.19 649.36,249.91 651.32,247.59 653.28,226.28 655.24,230.02 657.20,247.49 659.16,247.29 661.12,236.82 663.08,232.25 665.04,249.67 666.99,243.33 668.95,236.16 670.91,234.13 672.87,247.56 674.83,243.14 676.79,249.78 678.75,236.06 680.71,250.72 682.67,248.05 684.63,246.25 686.59,233.83 688.55,238.32 690.51,249.94 692.47,225.38 694.43,224.42 696.39,253.05 698.35,252.60 700.31,231.90 702.27,229.14 704.23,253.10 706.19,249.56 708.15,236.60 710.11,233.62 712.07,254.56 714.03,242.55 715.99,250.05 717.95,246.65 719.91,229.19 721.87,235.80 723.83,251.38 725.79,252.19 727.75,221.83 729.71,245.81 731.67,250.34 733.63,237.99 735.59,231.15 737.55,238.76 739.51,247.46 741.47,250.37 743.43,227.16 745.39,232.80 747.35,246.39 749.31,246.47 751.27,241.01 753.23,237.50 755.19,241.05 757.15,251.62 759.11,233.36 761.07,237.15 763.03,248.74 764.98,249.41 766.94,226.83 768.90,246.11 770.86,252.76 772.82,245.35 774.78,235.64 776.74,240.19 778.70,252.57 780.66,243.75 782.62,230.51 784.58,228.46 786.54,250.89 788.50,240.02 790.46,237.07 792.42,244.23 794.38,252.25 796.34,248.09 798.30,235.23 800.26,246.03 802.22,245.65 804.18,241.72 806.14,226.55 808.10,221.31 810.06,250.16 812.02,242.08 813.98,246.96 815.94,246.73 817.90,238.88 819.86,237.43 821.82,245.22 823.78,246.01 825.74,249.58 827.70,244.21 829.66,250.01 831.62,244.15 833.58,240.20 835.54,237.99 837.50,249.30 839.46,243.19 841.42,219.22 843.38,254.04 845.34,251.66 847.30,243.25 849.26,247.37 851.22,230.39 853.18,242.46 855.14,245.92 857.10,229.38 859.06,233.29 861.02,242.91 862.97,251.51 864.93,245.44 866.89,236.98 868.85,243.01 870.81,249.48 872.77,236.76 874.73,229.36 876.69,245.28 878.65,193.52 880.61,227.67 882.57,232.31 884.53,249.88 886.49,247.10 888.45,249.31 890.41,229.79 892.37,245.24 894.33,248.46 896.29,235.93 898.25,218.64 900.21,246.29 902.17,245.30 904.13,235.25 906.09,242.00 908.05,250.00 910.01,237.91 911.97,246.40 913.93,238.09 915.89,233.27 917.85,230.29 919.81,246.27 921.77,245.46 923.73,226.10 925.69,242.35 927.65,251.14 929.61,249.23 931.57,241.89 933.53,219.73 935.49,244.04 937.45,241.24 939.41,239.26 941.37,236.21 943.33,246.50 945.29,253.86 947.25,231.01 949.21,236.72 951.17,248.98 953.13,244.87 955.09,236.22 957.05,225.86 959.01,247.15 960.96,243.91 962.92,236.32 964.88,225.09 966.84,241.50 968.80,246.15 970.76,239.32 972.72,158.50 974.68,248.85 976.64,245.30 978.60,227.60 980.56,234.47 982.52,248.59 984.48,248.59 986.44,228.97 988.40,229.86 990.36,247.55 992.32,249.00 994.28,188.11 996.24,229.07 998.20,249.15 1000.16,246.92 1002.12,228.27 1004.08,224.43 1006.04,248.46 1008.00,244.32" fill="none" stroke="#f97316" stroke-width="1.8" stroke-opacity="0.45" stroke-linejoin="round" stroke-linecap="round"/>
<circle cx="618.00" cy="245.90" r="1.8" fill="#f97316" fill-opacity="0.55"/>
<circle cx="639.56" cy="230.95" r="1.8" fill="#f97316" fill-opacity="0.55"/>
<circle cx="661.12" cy="236.82" r="1.8" fill="#f97316" fill-opacity="0.55"/>
<circle cx="682.67" cy="248.05" r="1.8" fill="#f97316" fill-opacity="0.55"/>
<circle cx="704.23" cy="253.10" r="1.8" fill="#f97316" fill-opacity="0.55"/>
<circle cx="725.79" cy="252.19" r="1.8" fill="#f97316" fill-opacity="0.55"/>
<circle cx="747.35" cy="246.39" r="1.8" fill="#f97316" fill-opacity="0.55"/>
<circle cx="768.90" cy="246.11" r="1.8" fill="#f97316" fill-opacity="0.55"/>
<circle cx="790.46" cy="237.07" r="1.8" fill="#f97316" fill-opacity="0.55"/>
<circle cx="812.02" cy="242.08" r="1.8" fill="#f97316" fill-opacity="0.55"/>
<circle cx="833.58" cy="240.20" r="1.8" fill="#f97316" fill-opacity="0.55"/>
<circle cx="855.14" cy="245.92" r="1.8" fill="#f97316" fill-opacity="0.55"/>
<circle cx="876.69" cy="245.28" r="1.8" fill="#f97316" fill-opacity="0.55"/>
<circle cx="898.25" cy="218.64" r="1.8" fill="#f97316" fill-opacity="0.55"/>
<circle cx="919.81" cy="246.27" r="1.8" fill="#f97316" fill-opacity="0.55"/>
<circle cx="941.37" cy="236.21" r="1.8" fill="#f97316" fill-opacity="0.55"/>
<circle cx="962.92" cy="236.32" r="1.8" fill="#f97316" fill-opacity="0.55"/>
<circle cx="984.48" cy="248.59" r="1.8" fill="#f97316" fill-opacity="0.55"/>
<circle cx="1006.04" cy="248.46" r="1.8" fill="#f97316" fill-opacity="0.55"/>
<text x="1008" y="306" class="tick" text-anchor="end">Round 序列；越低越好</text>
<rect x="48" y="379" width="472" height="245" rx="8" fill="#ffffff" stroke="#dbe3ef"/>
<text x="66" y="407" class="label" font-weight="700">响应吞吐量（含 reasoning）</text>
<rect x="366" y="391" width="136" height="26" rx="13" fill="#fef3c7" stroke="#f59e0b" stroke-width="1.4"/>
<text x="434" y="409" class="tick" font-weight="800" text-anchor="middle" fill="#92400e">均值胜出: Infron</text>
<line x1="106" y1="584.00" x2="496" y2="584.00" stroke="#e5e7eb"/>
<text x="98" y="588.00" class="tick" text-anchor="end">0.0</text>
<line x1="106" y1="531.67" x2="496" y2="531.67" stroke="#e5e7eb"/>
<text x="98" y="535.67" class="tick" text-anchor="end">34.9</text>
<line x1="106" y1="479.33" x2="496" y2="479.33" stroke="#e5e7eb"/>
<text x="98" y="483.33" class="tick" text-anchor="end">69.9</text>
<line x1="106" y1="427.00" x2="496" y2="427.00" stroke="#e5e7eb"/>
<text x="98" y="431.00" class="tick" text-anchor="end">105</text>
<polyline points="106.00,524.98 107.96,538.97 109.92,532.09 111.88,520.46 113.84,525.60 115.80,540.31 117.76,553.74 119.72,529.79 121.68,548.79 123.64,539.29 125.60,531.92 127.56,544.90 129.52,549.66 131.48,530.30 133.44,551.42 135.40,537.02 137.36,530.56 139.32,529.83 141.28,533.54 143.24,557.50 145.20,547.62 147.16,534.52 149.12,549.09 151.08,536.71 153.04,545.77 154.99,536.73 156.95,522.19 158.91,539.74 160.87,537.63 162.83,535.83 164.79,537.75 166.75,542.95 168.71,572.31 170.67,531.15 172.63,509.65 174.59,532.50 176.55,543.02 178.51,531.98 180.47,543.17 182.43,537.66 184.39,528.60 186.35,542.86 188.31,533.97 190.27,566.97 192.23,541.31 194.19,523.96 196.15,536.69 198.11,526.66 200.07,521.38 202.03,515.59 203.99,548.07 205.95,511.99 207.91,531.87 209.87,530.49 211.83,531.06 213.79,526.18 215.75,533.52 217.71,533.16 219.67,524.55 221.63,521.28 223.59,534.33 225.55,552.16 227.51,503.78 229.47,505.16 231.43,520.34 233.39,539.33 235.35,508.53 237.31,496.72 239.27,525.75 241.23,528.47 243.19,514.53 245.15,500.74 247.11,520.46 249.07,529.49 251.03,556.29 252.98,519.00 254.94,505.44 256.90,559.89 258.86,524.64 260.82,523.06 262.78,537.54 264.74,537.94 266.70,472.29 268.66,505.58 270.62,506.07 272.58,536.31 274.54,509.74 276.50,508.63 278.46,519.70 280.42,519.76 282.38,495.43 284.34,470.26 286.30,488.29 288.26,502.40 290.22,516.89 292.18,443.82 294.14,507.06 296.10,510.67 298.06,509.18 300.02,494.86 301.98,544.21 303.94,528.38 305.90,533.55 307.86,538.23 309.82,544.12 311.78,514.14 313.74,532.16 315.70,537.58 317.66,533.96 319.62,498.52 321.58,532.59 323.54,533.35 325.50,540.09 327.46,489.09 329.42,536.75 331.38,540.78 333.34,531.43 335.30,527.05 337.26,500.64 339.22,543.51 341.18,540.87 343.14,520.41 345.10,543.03 347.06,536.10 349.02,510.23 350.97,502.29 352.93,525.34 354.89,554.50 356.85,530.84 358.81,510.70 360.77,495.04 362.73,520.02 364.69,525.03 366.65,500.39 368.61,525.40 370.57,525.32 372.53,519.63 374.49,493.12 376.45,541.97 378.41,569.46 380.37,570.26 382.33,570.55 384.29,571.02 386.25,568.46 388.21,569.45 390.17,578.19 392.13,569.55 394.09,570.53 396.05,570.90 398.01,574.52 399.97,570.27 401.93,570.65 403.89,574.34 405.85,575.20 407.81,570.24 409.77,574.30 411.73,575.36 413.69,576.56 415.65,571.14 417.61,571.39 419.57,575.38 421.53,574.94 423.49,567.25 425.45,570.18 427.41,570.95 429.37,570.29 431.33,569.80 433.29,572.58 435.25,570.15 437.21,571.69 439.17,565.56 441.13,569.12 443.09,567.12 445.05,568.46 447.01,570.35 448.96,570.64 450.92,576.70 452.88,568.76 454.84,571.30 456.80,568.87 458.76,576.94 460.72,576.63 462.68,568.78 464.64,568.69 466.60,572.04 468.56,577.60 470.52,570.65 472.48,567.03 474.44,576.26 476.40,576.10 478.36,569.04 480.32,577.93 482.28,568.44 484.24,567.83 486.20,572.91 488.16,575.56 490.12,572.56 492.08,581.30 494.04,570.16 496.00,570.16" fill="none" stroke="#2563eb" stroke-width="3.8" stroke-opacity="1" stroke-linejoin="round" stroke-linecap="round"/>
<circle cx="106.00" cy="524.98" r="3.0" fill="#2563eb" fill-opacity="1"/>
<circle cx="127.56" cy="544.90" r="3.0" fill="#2563eb" fill-opacity="1"/>
<circle cx="149.12" cy="549.09" r="3.0" fill="#2563eb" fill-opacity="1"/>
<circle cx="170.67" cy="531.15" r="3.0" fill="#2563eb" fill-opacity="1"/>
<circle cx="192.23" cy="541.31" r="3.0" fill="#2563eb" fill-opacity="1"/>
<circle cx="213.79" cy="526.18" r="3.0" fill="#2563eb" fill-opacity="1"/>
<circle cx="235.35" cy="508.53" r="3.0" fill="#2563eb" fill-opacity="1"/>
<circle cx="256.90" cy="559.89" r="3.0" fill="#2563eb" fill-opacity="1"/>
<circle cx="278.46" cy="519.70" r="3.0" fill="#2563eb" fill-opacity="1"/>
<circle cx="300.02" cy="494.86" r="3.0" fill="#2563eb" fill-opacity="1"/>
<circle cx="321.58" cy="532.59" r="3.0" fill="#2563eb" fill-opacity="1"/>
<circle cx="343.14" cy="520.41" r="3.0" fill="#2563eb" fill-opacity="1"/>
<circle cx="364.69" cy="525.03" r="3.0" fill="#2563eb" fill-opacity="1"/>
<circle cx="386.25" cy="568.46" r="3.0" fill="#2563eb" fill-opacity="1"/>
<circle cx="407.81" cy="570.24" r="3.0" fill="#2563eb" fill-opacity="1"/>
<circle cx="429.37" cy="570.29" r="3.0" fill="#2563eb" fill-opacity="1"/>
<circle cx="450.92" cy="576.70" r="3.0" fill="#2563eb" fill-opacity="1"/>
<circle cx="472.48" cy="567.03" r="3.0" fill="#2563eb" fill-opacity="1"/>
<circle cx="494.04" cy="570.16" r="3.0" fill="#2563eb" fill-opacity="1"/>
<polyline points="106.00,574.42 107.96,581.22 109.92,576.33 111.88,576.77 113.84,574.58 115.80,580.80 117.76,576.40 119.72,575.06 121.68,573.94 123.64,581.54 125.60,578.62 127.56,576.73 129.52,573.81 131.48,581.41 133.44,577.11 135.40,576.53 137.36,572.80 139.32,581.17 141.28,578.18 143.24,576.88 145.20,573.92 147.16,581.87 149.12,578.88 151.08,576.39 153.04,572.85 154.99,578.43 156.95,577.74 158.91,576.58 160.87,572.71 162.83,582.11 164.79,576.02 166.75,576.03 168.71,572.85 170.67,581.61 172.63,578.02 174.59,576.49 176.55,575.41 178.51,576.96 180.47,579.76 182.43,577.56 184.39,570.94 186.35,580.68 188.31,578.76 190.27,576.82 192.23,571.44 194.19,580.39 196.15,578.14 198.11,576.02 200.07,571.07 202.03,581.82 203.99,572.65 205.95,580.52 207.91,577.38 209.87,576.35 211.83,571.78 213.79,581.92 215.75,578.99 217.71,573.55 219.67,572.35 221.63,582.87 223.59,577.28 225.55,575.44 227.51,573.32 229.47,582.43 231.43,578.96 233.39,576.11 235.35,573.55 237.31,582.61 239.27,578.77 241.23,575.18 243.19,574.73 245.15,581.97 247.11,578.15 249.07,575.38 251.03,573.93 252.98,580.38 254.94,578.89 256.90,573.53 258.86,571.32 260.82,581.98 262.78,578.43 264.74,574.91 266.70,571.59 268.66,578.35 270.62,579.61 272.58,576.89 274.54,572.80 276.50,580.54 278.46,578.24 280.42,574.00 282.38,571.90 284.34,578.00 286.30,576.33 288.26,573.13 290.22,573.92 292.18,581.86 294.14,577.21 296.10,577.72 298.06,572.83 300.02,581.86 301.98,573.55 303.94,581.91 305.90,579.77 307.86,575.63 309.82,574.02 311.78,581.63 313.74,576.59 315.70,574.29 317.66,572.94 319.62,581.72 321.58,577.40 323.54,575.95 325.50,572.51 327.46,581.78 329.42,579.78 331.38,570.40 333.34,571.91 335.30,582.10 337.26,576.41 339.22,576.62 341.18,574.46 343.14,582.29 345.10,577.95 347.06,576.19 349.02,574.88 350.97,581.98 352.93,579.34 354.89,575.92 356.85,574.47 358.81,581.85 360.77,577.94 362.73,577.32 364.69,573.60 366.65,583.17 368.61,579.10 370.57,576.21 372.53,572.69 374.49,577.53 376.45,577.00 378.41,576.72 380.37,573.78 382.33,580.75 384.29,578.34 386.25,578.17 388.21,573.54 390.17,581.47 392.13,577.01 394.09,574.92 396.05,572.62 398.01,582.61 399.97,573.54 401.93,578.74 403.89,579.51 405.85,576.53 407.81,573.52 409.77,578.18 411.73,579.47 413.69,574.38 415.65,572.24 417.61,581.35 419.57,579.27 421.53,577.72 423.49,574.24 425.45,581.72 427.41,577.01 429.37,575.92 431.33,573.91 433.29,581.80 435.25,577.87 437.21,575.96 439.17,572.84 441.13,582.31 443.09,576.54 445.05,577.25 447.01,573.43 448.96,581.75 450.92,578.66 452.88,577.46 454.84,574.82 456.80,578.03 458.76,576.76 460.72,580.88 462.68,573.02 464.64,581.67 466.60,580.85 468.56,575.90 470.52,572.94 472.48,582.15 474.44,579.39 476.40,576.82 478.36,573.28 480.32,581.74 482.28,580.79 484.24,576.63 486.20,572.81 488.16,577.89 490.12,580.19 492.08,577.73 494.04,573.14 496.00,582.05" fill="none" stroke="#f97316" stroke-width="1.8" stroke-opacity="0.45" stroke-linejoin="round" stroke-linecap="round"/>
<circle cx="106.00" cy="574.42" r="1.8" fill="#f97316" fill-opacity="0.55"/>
<circle cx="127.56" cy="576.73" r="1.8" fill="#f97316" fill-opacity="0.55"/>
<circle cx="149.12" cy="578.88" r="1.8" fill="#f97316" fill-opacity="0.55"/>
<circle cx="170.67" cy="581.61" r="1.8" fill="#f97316" fill-opacity="0.55"/>
<circle cx="192.23" cy="571.44" r="1.8" fill="#f97316" fill-opacity="0.55"/>
<circle cx="213.79" cy="581.92" r="1.8" fill="#f97316" fill-opacity="0.55"/>
<circle cx="235.35" cy="573.55" r="1.8" fill="#f97316" fill-opacity="0.55"/>
<circle cx="256.90" cy="573.53" r="1.8" fill="#f97316" fill-opacity="0.55"/>
<circle cx="278.46" cy="578.24" r="1.8" fill="#f97316" fill-opacity="0.55"/>
<circle cx="300.02" cy="581.86" r="1.8" fill="#f97316" fill-opacity="0.55"/>
<circle cx="321.58" cy="577.40" r="1.8" fill="#f97316" fill-opacity="0.55"/>
<circle cx="343.14" cy="582.29" r="1.8" fill="#f97316" fill-opacity="0.55"/>
<circle cx="364.69" cy="573.60" r="1.8" fill="#f97316" fill-opacity="0.55"/>
<circle cx="386.25" cy="578.17" r="1.8" fill="#f97316" fill-opacity="0.55"/>
<circle cx="407.81" cy="573.52" r="1.8" fill="#f97316" fill-opacity="0.55"/>
<circle cx="429.37" cy="575.92" r="1.8" fill="#f97316" fill-opacity="0.55"/>
<circle cx="450.92" cy="578.66" r="1.8" fill="#f97316" fill-opacity="0.55"/>
<circle cx="472.48" cy="582.15" r="1.8" fill="#f97316" fill-opacity="0.55"/>
<circle cx="494.04" cy="573.14" r="1.8" fill="#f97316" fill-opacity="0.55"/>
<text x="496" y="609" class="tick" text-anchor="end">Round 序列；越高越好</text>
<rect x="560" y="379" width="472" height="245" rx="8" fill="#ffffff" stroke="#dbe3ef"/>
<text x="578" y="407" class="label" font-weight="700">实际成本 / 轮</text>
<rect x="878" y="391" width="136" height="26" rx="13" fill="#fef3c7" stroke="#f59e0b" stroke-width="1.4"/>
<text x="946" y="409" class="tick" font-weight="800" text-anchor="middle" fill="#92400e">均值胜出: OpenRouter</text>
<line x1="618" y1="584.00" x2="1008" y2="584.00" stroke="#e5e7eb"/>
<text x="610" y="588.00" class="tick" text-anchor="end">$0.0000</text>
<line x1="618" y1="531.67" x2="1008" y2="531.67" stroke="#e5e7eb"/>
<text x="610" y="535.67" class="tick" text-anchor="end">$0.0002</text>
<line x1="618" y1="479.33" x2="1008" y2="479.33" stroke="#e5e7eb"/>
<text x="610" y="483.33" class="tick" text-anchor="end">$0.0003</text>
<line x1="618" y1="427.00" x2="1008" y2="427.00" stroke="#e5e7eb"/>
<text x="610" y="431.00" class="tick" text-anchor="end">$0.0005</text>
<polyline points="618.00,526.85 619.96,499.65 621.92,520.74 623.88,523.18 625.84,552.52 627.80,515.85 629.76,547.33 631.72,550.99 633.68,553.74 635.64,535.41 637.60,551.30 639.56,556.80 641.52,553.13 643.48,530.52 645.44,554.05 647.40,548.85 649.36,550.99 651.32,538.77 653.28,542.44 655.24,554.05 657.20,551.91 659.16,540.60 661.12,548.85 663.08,547.94 665.04,549.77 666.99,528.99 668.95,535.41 670.91,554.97 672.87,555.88 674.83,544.88 676.79,551.30 678.75,558.02 680.71,547.33 682.67,531.74 684.63,541.52 686.59,553.44 688.55,539.69 690.51,526.54 692.47,554.36 694.43,555.88 696.39,544.58 698.35,518.60 700.31,550.08 702.27,558.94 704.23,545.19 706.19,525.63 708.15,556.19 710.11,547.63 712.07,530.21 714.03,525.93 715.99,551.91 717.95,525.32 719.91,545.19 721.87,547.02 723.83,549.77 725.79,524.40 727.75,543.35 729.71,553.74 731.67,545.80 733.63,491.70 735.59,549.47 737.55,558.02 739.51,537.85 741.47,531.13 743.43,545.19 745.39,559.25 747.35,534.18 749.31,538.46 751.27,543.96 753.23,555.58 755.19,550.69 757.15,530.82 759.11,544.88 761.07,555.88 763.03,553.44 764.98,516.46 766.94,544.58 768.90,556.49 770.86,552.22 772.82,530.82 774.78,548.85 776.74,553.13 778.70,530.52 780.66,517.07 782.62,538.16 784.58,557.72 786.54,541.83 788.50,527.16 790.46,537.85 792.42,546.71 794.38,547.02 796.34,497.21 798.30,507.60 800.26,526.54 802.22,528.99 804.18,478.26 806.14,519.52 808.10,501.79 810.06,493.84 812.02,484.98 813.98,507.90 815.94,467.56 817.90,495.37 819.86,505.76 821.82,506.68 823.78,480.09 825.74,498.43 827.70,505.46 829.66,498.73 831.62,486.51 833.58,501.18 835.54,499.96 837.50,499.34 839.46,480.40 841.42,505.15 843.38,532.96 845.34,555.88 847.30,540.91 849.26,542.13 851.22,553.13 853.18,510.04 855.14,484.67 857.10,502.10 859.06,513.10 861.02,542.13 862.97,529.91 864.93,551.60 866.89,549.16 868.85,549.47 870.81,530.21 872.77,527.46 874.73,552.52 876.69,556.19 878.65,516.15 880.61,543.05 882.57,556.49 884.53,532.96 886.49,538.77 888.45,554.97 890.41,495.68 892.37,495.68 894.33,495.37 896.29,495.37 898.25,550.38 900.21,550.38 902.17,550.38 904.13,550.38 906.09,550.38 908.05,550.38 910.01,550.38 911.97,550.38 913.93,495.37 915.89,550.38 917.85,550.38 919.81,550.38 921.77,495.37 923.73,550.38 925.69,495.68 927.65,550.38 929.61,550.38 931.57,495.37 933.53,550.38 935.49,550.38 937.45,550.38 939.41,550.38 941.37,550.38 943.33,550.38 945.29,550.38 947.25,550.38 949.21,550.38 951.17,550.38 953.13,550.38 955.09,550.38 957.05,550.38 959.01,495.68 960.96,550.38 962.92,550.38 964.88,550.38 966.84,550.38 968.80,550.38 970.76,550.38 972.72,550.38 974.68,550.38 976.64,550.38 978.60,550.38 980.56,550.38 982.52,550.38 984.48,550.38 986.44,550.38 988.40,550.38 990.36,550.38 992.32,550.38 994.28,550.38 996.24,550.38 998.20,550.38 1000.16,550.38 1002.12,550.38 1004.08,550.38 1006.04,550.38 1008.00,550.38" fill="none" stroke="#2563eb" stroke-width="1.8" stroke-opacity="0.45" stroke-linejoin="round" stroke-linecap="round"/>
<circle cx="618.00" cy="526.85" r="1.8" fill="#2563eb" fill-opacity="0.55"/>
<circle cx="639.56" cy="556.80" r="1.8" fill="#2563eb" fill-opacity="0.55"/>
<circle cx="661.12" cy="548.85" r="1.8" fill="#2563eb" fill-opacity="0.55"/>
<circle cx="682.67" cy="531.74" r="1.8" fill="#2563eb" fill-opacity="0.55"/>
<circle cx="704.23" cy="545.19" r="1.8" fill="#2563eb" fill-opacity="0.55"/>
<circle cx="725.79" cy="524.40" r="1.8" fill="#2563eb" fill-opacity="0.55"/>
<circle cx="747.35" cy="534.18" r="1.8" fill="#2563eb" fill-opacity="0.55"/>
<circle cx="768.90" cy="556.49" r="1.8" fill="#2563eb" fill-opacity="0.55"/>
<circle cx="790.46" cy="537.85" r="1.8" fill="#2563eb" fill-opacity="0.55"/>
<circle cx="812.02" cy="484.98" r="1.8" fill="#2563eb" fill-opacity="0.55"/>
<circle cx="833.58" cy="501.18" r="1.8" fill="#2563eb" fill-opacity="0.55"/>
<circle cx="855.14" cy="484.67" r="1.8" fill="#2563eb" fill-opacity="0.55"/>
<circle cx="876.69" cy="556.19" r="1.8" fill="#2563eb" fill-opacity="0.55"/>
<circle cx="898.25" cy="550.38" r="1.8" fill="#2563eb" fill-opacity="0.55"/>
<circle cx="919.81" cy="550.38" r="1.8" fill="#2563eb" fill-opacity="0.55"/>
<circle cx="941.37" cy="550.38" r="1.8" fill="#2563eb" fill-opacity="0.55"/>
<circle cx="962.92" cy="550.38" r="1.8" fill="#2563eb" fill-opacity="0.55"/>
<circle cx="984.48" cy="550.38" r="1.8" fill="#2563eb" fill-opacity="0.55"/>
<circle cx="1006.04" cy="550.38" r="1.8" fill="#2563eb" fill-opacity="0.55"/>
<polyline points="618.00,443.82 619.96,498.85 621.92,496.97 623.88,497.54 625.84,547.54 627.80,549.01 629.76,497.21 631.72,547.86 633.68,547.54 635.64,549.26 637.60,547.62 639.56,547.86 641.52,547.54 643.48,549.26 645.44,547.37 647.40,547.86 649.36,547.54 651.32,549.17 653.28,547.62 655.24,547.86 657.20,547.54 659.16,549.34 661.12,548.11 663.08,547.86 665.04,547.54 666.99,548.35 668.95,547.45 670.91,547.86 672.87,497.21 674.83,549.34 676.79,547.95 678.75,547.86 680.71,547.54 682.67,549.17 684.63,548.19 686.59,547.86 688.55,547.54 690.51,548.27 692.47,548.11 694.43,547.86 696.39,547.54 698.35,498.85 700.31,547.86 702.27,547.86 704.23,547.54 706.19,549.01 708.15,547.86 710.11,547.86 712.07,550.31 714.03,549.26 715.99,547.54 717.95,549.01 719.91,547.37 721.87,547.86 723.83,547.54 725.79,549.42 727.75,547.70 729.71,497.54 731.67,547.54 733.63,549.50 735.59,547.37 737.55,497.54 739.51,497.21 741.47,549.50 743.43,547.86 745.39,547.86 747.35,547.54 749.31,549.50 751.27,548.27 753.23,547.86 755.19,547.54 757.15,549.42 759.11,547.70 761.07,547.86 763.03,547.54 764.98,549.01 766.94,547.78 768.90,547.86 770.86,547.54 772.82,549.34 774.78,547.95 776.74,547.86 778.70,547.54 780.66,548.35 782.62,548.19 784.58,547.86 786.54,547.54 788.50,548.85 790.46,547.95 792.42,547.86 794.38,547.54 796.34,548.35 798.30,547.13 800.26,547.86 802.22,547.54 804.18,549.26 806.14,547.13 808.10,547.86 810.06,547.54 812.02,549.26 813.98,547.54 815.94,549.34 817.90,548.52 819.86,547.86 821.82,547.54 823.78,549.26 825.74,548.11 827.70,547.86 829.66,547.54 831.62,549.26 833.58,547.86 835.54,547.86 837.50,547.54 839.46,549.26 841.42,547.95 843.38,547.86 845.34,547.54 847.30,549.34 849.26,547.86 851.22,547.86 853.18,547.54 855.14,549.42 857.10,547.45 859.06,547.86 861.02,547.54 862.97,549.42 864.93,548.60 866.89,547.86 868.85,547.54 870.81,549.34 872.77,547.78 874.73,547.86 876.69,547.54 878.65,549.34 880.61,547.78 882.57,547.86 884.53,547.54 886.49,548.27 888.45,548.19 890.41,547.86 892.37,547.54 894.33,549.09 896.29,547.95 898.25,547.86 900.21,547.54 902.17,549.17 904.13,547.45 906.09,547.86 908.05,547.54 910.01,549.42 911.97,547.54 913.93,548.27 915.89,548.19 917.85,547.86 919.81,547.54 921.77,548.27 923.73,548.03 925.69,547.86 927.65,547.54 929.61,549.26 931.57,548.35 933.53,547.86 935.49,547.54 937.45,549.17 939.41,547.62 941.37,547.86 943.33,547.54 945.29,549.42 947.25,547.54 949.21,547.86 951.17,547.54 953.13,549.26 955.09,547.37 957.05,547.86 959.01,547.54 960.96,549.26 962.92,548.03 964.88,547.86 966.84,547.54 968.80,548.35 970.76,547.45 972.72,547.86 974.68,547.54 976.64,549.26 978.60,548.60 980.56,547.86 982.52,547.54 984.48,549.42 986.44,548.11 988.40,547.86 990.36,547.54 992.32,549.34 994.28,547.70 996.24,547.86 998.20,547.54 1000.16,548.27 1002.12,548.35 1004.08,547.86 1006.04,547.54 1008.00,549.34" fill="none" stroke="#f97316" stroke-width="3.8" stroke-opacity="1" stroke-linejoin="round" stroke-linecap="round"/>
<circle cx="618.00" cy="443.82" r="3.0" fill="#f97316" fill-opacity="1"/>
<circle cx="639.56" cy="547.86" r="3.0" fill="#f97316" fill-opacity="1"/>
<circle cx="661.12" cy="548.11" r="3.0" fill="#f97316" fill-opacity="1"/>
<circle cx="682.67" cy="549.17" r="3.0" fill="#f97316" fill-opacity="1"/>
<circle cx="704.23" cy="547.54" r="3.0" fill="#f97316" fill-opacity="1"/>
<circle cx="725.79" cy="549.42" r="3.0" fill="#f97316" fill-opacity="1"/>
<circle cx="747.35" cy="547.54" r="3.0" fill="#f97316" fill-opacity="1"/>
<circle cx="768.90" cy="547.86" r="3.0" fill="#f97316" fill-opacity="1"/>
<circle cx="790.46" cy="547.95" r="3.0" fill="#f97316" fill-opacity="1"/>
<circle cx="812.02" cy="549.26" r="3.0" fill="#f97316" fill-opacity="1"/>
<circle cx="833.58" cy="547.86" r="3.0" fill="#f97316" fill-opacity="1"/>
<circle cx="855.14" cy="549.42" r="3.0" fill="#f97316" fill-opacity="1"/>
<circle cx="876.69" cy="547.54" r="3.0" fill="#f97316" fill-opacity="1"/>
<circle cx="898.25" cy="547.86" r="3.0" fill="#f97316" fill-opacity="1"/>
<circle cx="919.81" cy="547.54" r="3.0" fill="#f97316" fill-opacity="1"/>
<circle cx="941.37" cy="547.86" r="3.0" fill="#f97316" fill-opacity="1"/>
<circle cx="962.92" cy="548.03" r="3.0" fill="#f97316" fill-opacity="1"/>
<circle cx="984.48" cy="549.42" r="3.0" fill="#f97316" fill-opacity="1"/>
<circle cx="1006.04" cy="547.54" r="3.0" fill="#f97316" fill-opacity="1"/>
<text x="1008" y="609" class="tick" text-anchor="end">Round 序列；越低越好</text>
<rect x="48" y="682" width="472" height="245" rx="8" fill="#ffffff" stroke="#dbe3ef"/>
<text x="66" y="710" class="label" font-weight="700">Token 级缓存命中率</text>
<rect x="366" y="694" width="136" height="26" rx="13" fill="#fef3c7" stroke="#f59e0b" stroke-width="1.4"/>
<text x="434" y="712" class="tick" font-weight="800" text-anchor="middle" fill="#92400e">均值胜出: OpenRouter</text>
<line x1="106" y1="887.00" x2="496" y2="887.00" stroke="#e5e7eb"/>
<text x="98" y="891.00" class="tick" text-anchor="end">0%</text>
<line x1="106" y1="834.67" x2="496" y2="834.67" stroke="#e5e7eb"/>
<text x="98" y="838.67" class="tick" text-anchor="end">37%</text>
<line x1="106" y1="782.33" x2="496" y2="782.33" stroke="#e5e7eb"/>
<text x="98" y="786.33" class="tick" text-anchor="end">75%</text>
<line x1="106" y1="730.00" x2="496" y2="730.00" stroke="#e5e7eb"/>
<text x="98" y="734.00" class="tick" text-anchor="end">112%</text>
<polyline points="106.00,755.79 107.96,756.11 109.92,756.19 111.88,755.47 113.84,755.79 115.80,756.11 117.76,756.19 119.72,755.47 121.68,755.79 123.64,756.11 125.60,756.19 127.56,755.47 129.52,755.79 131.48,756.11 133.44,756.19 135.40,755.47 137.36,755.79 139.32,756.11 141.28,756.19 143.24,755.47 145.20,755.79 147.16,756.11 149.12,756.19 151.08,755.47 153.04,755.79 154.99,756.11 156.95,756.19 158.91,755.47 160.87,755.79 162.83,756.11 164.79,756.19 166.75,755.47 168.71,799.53 170.67,756.11 172.63,756.19 174.59,755.47 176.55,799.53 178.51,756.11 180.47,756.19 182.43,755.47 184.39,755.79 186.35,756.11 188.31,756.19 190.27,755.47 192.23,755.79 194.19,756.11 196.15,756.19 198.11,755.47 200.07,799.53 202.03,756.11 203.99,755.79 205.95,756.11 207.91,756.19 209.87,755.47 211.83,799.53 213.79,756.11 215.75,756.19 217.71,755.47 219.67,755.79 221.63,756.11 223.59,756.19 225.55,755.47 227.51,755.79 229.47,799.74 231.43,756.19 233.39,755.47 235.35,799.53 237.31,756.11 239.27,756.19 241.23,755.47 243.19,755.79 245.15,756.11 247.11,756.19 249.07,755.47 251.03,799.53 252.98,756.11 254.94,756.19 256.90,755.47 258.86,755.79 260.82,756.11 262.78,756.19 264.74,755.47 266.70,755.79 268.66,756.11 270.62,756.19 272.58,755.47 274.54,755.79 276.50,756.11 278.46,756.19 280.42,755.47 282.38,755.79 284.34,887.00 286.30,887.00 288.26,887.00 290.22,887.00 292.18,887.00 294.14,887.00 296.10,887.00 298.06,887.00 300.02,887.00 301.98,887.00 303.94,887.00 305.90,887.00 307.86,887.00 309.82,887.00 311.78,887.00 313.74,887.00 315.70,887.00 317.66,887.00 319.62,887.00 321.58,887.00 323.54,887.00 325.50,887.00 327.46,756.11 329.42,887.00 331.38,755.47 333.34,755.79 335.30,756.11 337.26,756.19 339.22,755.47 341.18,755.79 343.14,756.11 345.10,799.79 347.06,755.47 349.02,755.79 350.97,756.11 352.93,756.19 354.89,799.31 356.85,755.79 358.81,756.11 360.77,756.19 362.73,755.47 364.69,755.79 366.65,756.11 368.61,799.79 370.57,755.47 372.53,755.79 374.49,756.11 376.45,756.19 378.41,746.82 380.37,746.82 382.33,746.82 384.29,746.82 386.25,746.82 388.21,746.82 390.17,746.82 392.13,746.82 394.09,746.82 396.05,746.82 398.01,746.82 399.97,746.82 401.93,887.00 403.89,746.82 405.85,746.82 407.81,746.82 409.77,887.00 411.73,746.82 413.69,887.00 415.65,746.82 417.61,746.82 419.57,887.00 421.53,746.82 423.49,746.82 425.45,746.82 427.41,746.82 429.37,746.82 431.33,746.82 433.29,746.82 435.25,746.82 437.21,746.82 439.17,746.82 441.13,746.82 443.09,746.82 445.05,746.82 447.01,887.00 448.96,746.82 450.92,746.82 452.88,746.82 454.84,746.82 456.80,746.82 458.76,746.82 460.72,746.82 462.68,746.82 464.64,746.82 466.60,746.82 468.56,746.82 470.52,746.82 472.48,746.82 474.44,746.82 476.40,746.82 478.36,746.82 480.32,746.82 482.28,746.82 484.24,746.82 486.20,746.82 488.16,746.82 490.12,746.82 492.08,746.82 494.04,746.82 496.00,746.82" fill="none" stroke="#2563eb" stroke-width="1.8" stroke-opacity="0.45" stroke-linejoin="round" stroke-linecap="round"/>
<circle cx="106.00" cy="755.79" r="1.8" fill="#2563eb" fill-opacity="0.55"/>
<circle cx="127.56" cy="755.47" r="1.8" fill="#2563eb" fill-opacity="0.55"/>
<circle cx="149.12" cy="756.19" r="1.8" fill="#2563eb" fill-opacity="0.55"/>
<circle cx="170.67" cy="756.11" r="1.8" fill="#2563eb" fill-opacity="0.55"/>
<circle cx="192.23" cy="755.79" r="1.8" fill="#2563eb" fill-opacity="0.55"/>
<circle cx="213.79" cy="756.11" r="1.8" fill="#2563eb" fill-opacity="0.55"/>
<circle cx="235.35" cy="799.53" r="1.8" fill="#2563eb" fill-opacity="0.55"/>
<circle cx="256.90" cy="755.47" r="1.8" fill="#2563eb" fill-opacity="0.55"/>
<circle cx="278.46" cy="756.19" r="1.8" fill="#2563eb" fill-opacity="0.55"/>
<circle cx="300.02" cy="887.00" r="1.8" fill="#2563eb" fill-opacity="0.55"/>
<circle cx="321.58" cy="887.00" r="1.8" fill="#2563eb" fill-opacity="0.55"/>
<circle cx="343.14" cy="756.11" r="1.8" fill="#2563eb" fill-opacity="0.55"/>
<circle cx="364.69" cy="755.79" r="1.8" fill="#2563eb" fill-opacity="0.55"/>
<circle cx="386.25" cy="746.82" r="1.8" fill="#2563eb" fill-opacity="0.55"/>
<circle cx="407.81" cy="746.82" r="1.8" fill="#2563eb" fill-opacity="0.55"/>
<circle cx="429.37" cy="746.82" r="1.8" fill="#2563eb" fill-opacity="0.55"/>
<circle cx="450.92" cy="746.82" r="1.8" fill="#2563eb" fill-opacity="0.55"/>
<circle cx="472.48" cy="746.82" r="1.8" fill="#2563eb" fill-opacity="0.55"/>
<circle cx="494.04" cy="746.82" r="1.8" fill="#2563eb" fill-opacity="0.55"/>
<polyline points="106.00,887.00 107.96,756.11 109.92,756.19 111.88,755.47 113.84,755.79 115.80,756.11 117.76,756.19 119.72,755.47 121.68,755.79 123.64,756.11 125.60,756.19 127.56,755.47 129.52,755.79 131.48,756.11 133.44,756.19 135.40,755.47 137.36,755.79 139.32,756.11 141.28,756.19 143.24,755.47 145.20,755.79 147.16,756.11 149.12,756.19 151.08,755.47 153.04,755.79 154.99,756.11 156.95,756.19 158.91,755.47 160.87,887.00 162.83,756.11 164.79,756.19 166.75,755.47 168.71,755.79 170.67,756.11 172.63,756.19 174.59,755.47 176.55,755.79 178.51,756.11 180.47,756.19 182.43,755.47 184.39,755.79 186.35,887.00 188.31,756.19 190.27,755.47 192.23,755.79 194.19,756.11 196.15,756.19 198.11,755.47 200.07,746.82 202.03,756.11 203.99,755.79 205.95,756.11 207.91,756.19 209.87,755.47 211.83,755.79 213.79,756.11 215.75,756.19 217.71,755.47 219.67,755.79 221.63,756.11 223.59,756.19 225.55,887.00 227.51,755.79 229.47,756.11 231.43,756.19 233.39,755.47 235.35,755.79 237.31,756.11 239.27,756.19 241.23,755.47 243.19,755.79 245.15,756.11 247.11,756.19 249.07,755.47 251.03,755.79 252.98,756.11 254.94,756.19 256.90,755.47 258.86,755.79 260.82,756.11 262.78,756.19 264.74,755.47 266.70,755.79 268.66,756.11 270.62,756.19 272.58,755.47 274.54,755.79 276.50,756.11 278.46,756.19 280.42,755.47 282.38,755.79 284.34,756.11 286.30,756.19 288.26,755.47 290.22,755.79 292.18,756.11 294.14,756.19 296.10,755.47 298.06,755.79 300.02,756.11 301.98,755.79 303.94,756.11 305.90,756.19 307.86,755.47 309.82,755.79 311.78,756.11 313.74,756.19 315.70,755.47 317.66,755.79 319.62,756.11 321.58,756.19 323.54,755.47 325.50,755.79 327.46,756.11 329.42,756.19 331.38,755.47 333.34,755.79 335.30,756.11 337.26,756.19 339.22,755.47 341.18,755.79 343.14,756.11 345.10,756.19 347.06,755.47 349.02,755.79 350.97,756.11 352.93,756.19 354.89,755.47 356.85,755.79 358.81,756.11 360.77,756.19 362.73,755.47 364.69,755.79 366.65,756.11 368.61,756.19 370.57,755.47 372.53,755.79 374.49,756.11 376.45,756.19 378.41,755.47 380.37,755.79 382.33,756.11 384.29,756.19 386.25,755.47 388.21,755.79 390.17,756.11 392.13,756.19 394.09,755.47 396.05,755.79 398.01,756.11 399.97,755.79 401.93,756.11 403.89,756.19 405.85,755.47 407.81,755.79 409.77,756.11 411.73,756.19 413.69,755.47 415.65,755.79 417.61,756.11 419.57,756.19 421.53,755.47 423.49,755.79 425.45,756.11 427.41,756.19 429.37,755.47 431.33,755.79 433.29,756.11 435.25,756.19 437.21,755.47 439.17,755.79 441.13,756.11 443.09,756.19 445.05,755.47 447.01,755.79 448.96,756.11 450.92,756.19 452.88,755.47 454.84,755.79 456.80,756.11 458.76,756.19 460.72,755.47 462.68,755.79 464.64,756.11 466.60,756.19 468.56,755.47 470.52,755.79 472.48,756.11 474.44,756.19 476.40,755.47 478.36,755.79 480.32,756.11 482.28,756.19 484.24,755.47 486.20,755.79 488.16,756.11 490.12,756.19 492.08,755.47 494.04,755.79 496.00,756.11" fill="none" stroke="#f97316" stroke-width="3.8" stroke-opacity="1" stroke-linejoin="round" stroke-linecap="round"/>
<circle cx="106.00" cy="887.00" r="3.0" fill="#f97316" fill-opacity="1"/>
<circle cx="127.56" cy="755.47" r="3.0" fill="#f97316" fill-opacity="1"/>
<circle cx="149.12" cy="756.19" r="3.0" fill="#f97316" fill-opacity="1"/>
<circle cx="170.67" cy="756.11" r="3.0" fill="#f97316" fill-opacity="1"/>
<circle cx="192.23" cy="755.79" r="3.0" fill="#f97316" fill-opacity="1"/>
<circle cx="213.79" cy="756.11" r="3.0" fill="#f97316" fill-opacity="1"/>
<circle cx="235.35" cy="755.79" r="3.0" fill="#f97316" fill-opacity="1"/>
<circle cx="256.90" cy="755.47" r="3.0" fill="#f97316" fill-opacity="1"/>
<circle cx="278.46" cy="756.19" r="3.0" fill="#f97316" fill-opacity="1"/>
<circle cx="300.02" cy="756.11" r="3.0" fill="#f97316" fill-opacity="1"/>
<circle cx="321.58" cy="756.19" r="3.0" fill="#f97316" fill-opacity="1"/>
<circle cx="343.14" cy="756.11" r="3.0" fill="#f97316" fill-opacity="1"/>
<circle cx="364.69" cy="755.79" r="3.0" fill="#f97316" fill-opacity="1"/>
<circle cx="386.25" cy="755.47" r="3.0" fill="#f97316" fill-opacity="1"/>
<circle cx="407.81" cy="755.79" r="3.0" fill="#f97316" fill-opacity="1"/>
<circle cx="429.37" cy="755.47" r="3.0" fill="#f97316" fill-opacity="1"/>
<circle cx="450.92" cy="756.19" r="3.0" fill="#f97316" fill-opacity="1"/>
<circle cx="472.48" cy="756.11" r="3.0" fill="#f97316" fill-opacity="1"/>
<circle cx="494.04" cy="755.79" r="3.0" fill="#f97316" fill-opacity="1"/>
<text x="496" y="912" class="tick" text-anchor="end">Round 序列；越高越好</text>
<rect x="830" y="28" width="14" height="14" rx="3" fill="#2563eb"/>
<text x="852" y="40" class="label">Infron</text>
<rect x="830" y="52" width="14" height="14" rx="3" fill="#f97316"/>
<text x="852" y="64" class="label">OpenRouter</text>
</svg>