<svg xmlns="http://www.w3.org/2000/svg" width="1080" height="1000" viewBox="0 0 1080 1000"><style>text{font-family:-apple-system,BlinkMacSystemFont,'Segoe UI',sans-serif;fill:#111827}.title{font-size:22px;font-weight:700}.label{font-size:13px;fill:#374151}.tick{font-size:12px;fill:#6b7280}.value{font-size:12px;fill:#111827}</style><rect width="100%" height="100%" fill="#ffffff"/>
<text x="48" y="34" class="title">TTFT First Routing Mode:Metric-generation Comparison Curves</text>
<text x="48" y="58" class="label">Metrics are plotted by group/round sequence; curves show the variation behind aggregate means.</text>
<rect x="48" y="76" width="472" height="245" rx="8" fill="#ffffff" stroke="#dbe3ef"/>
<text x="66" y="104" class="label" font-weight="700">E2E Latency / request (incl. reasoning)</text>
<rect x="366" y="88" width="136" height="26" rx="13" fill="#fef3c7" stroke="#f59e0b" stroke-width="1.4"/>
<text x="434" y="106" class="tick" font-weight="800" text-anchor="middle" fill="#92400e">Average winner: OpenRouter</text>
<line x1="106" y1="281.00" x2="496" y2="281.00" stroke="#e5e7eb"/>
<text x="98" y="285.00" class="tick" text-anchor="end">0.0</text>
<line x1="106" y1="228.67" x2="496" y2="228.67" stroke="#e5e7eb"/>
<text x="98" y="232.67" class="tick" text-anchor="end">10903</text>
<line x1="106" y1="176.33" x2="496" y2="176.33" stroke="#e5e7eb"/>
<text x="98" y="180.33" class="tick" text-anchor="end">21807</text>
<line x1="106" y1="124.00" x2="496" y2="124.00" stroke="#e5e7eb"/>
<text x="98" y="128.00" class="tick" text-anchor="end">32710</text>
<polyline points="106.00,271.01 107.98,268.79 109.96,272.33 111.94,270.13 113.92,270.68 115.90,271.59 117.88,272.86 119.86,266.37 121.84,271.42 123.82,271.41 125.80,267.95 127.78,270.79 129.76,272.05 131.74,271.55 133.72,270.92 135.70,266.89 137.68,268.92 139.65,269.59 141.63,271.86 143.61,271.54 145.59,272.87 147.57,271.04 149.55,272.78 151.53,273.88 153.51,272.68 155.49,252.05 157.47,266.41 159.45,272.69 161.43,274.04 163.41,269.80 165.39,269.94 167.37,266.72 169.35,273.36 171.33,269.27 173.31,272.75 175.29,268.19 177.27,266.26 179.25,262.99 181.23,251.72 183.21,266.65 185.19,266.11 187.17,238.08 189.15,250.12 191.13,264.59 193.11,246.52 195.09,225.47 197.07,249.54 199.05,262.36 201.03,230.50 203.01,224.74 204.98,252.35 206.96,216.80 208.94,238.36 210.92,257.11 212.90,254.26 214.88,232.55 216.86,239.22 218.84,268.51 220.82,219.88 222.80,243.60 224.78,262.50 226.76,260.64 228.74,262.20 230.72,260.62 232.70,265.73 234.68,261.15 236.66,264.64 238.64,260.00 240.62,265.26 242.60,266.69 244.58,260.18 246.56,264.05 248.54,266.24 250.52,273.40 252.50,259.37 254.48,264.34 256.46,259.16 258.44,233.66 260.42,261.52 262.40,271.99 264.38,258.32 266.36,265.37 268.34,271.30 270.31,266.80 272.29,264.44 274.27,267.13 276.25,264.06 278.23,264.36 280.21,265.21 282.19,261.64 284.17,265.69 286.15,265.48 288.13,261.92 290.11,266.04 292.09,263.70 294.07,272.56 296.05,266.69 298.03,259.67 300.01,265.51 301.99,273.36 303.97,266.84 305.95,264.80 307.93,267.11 309.91,266.27 311.89,255.12 313.87,265.27 315.85,260.96 317.83,254.93 319.81,266.57 321.79,271.20 323.77,265.47 325.75,263.83 327.73,263.98 329.71,261.28 331.69,265.49 333.66,258.44 335.64,265.85 337.62,271.63 339.60,260.11 341.58,263.00 343.56,249.99 345.54,261.04 347.52,265.62 349.50,252.81 351.48,266.81 353.46,260.66 355.44,271.82 357.42,254.48 359.40,257.82 361.38,267.48 363.36,266.85 365.34,273.28 367.32,258.50 369.30,264.62 371.28,259.86 373.26,271.30 375.24,266.59 377.22,256.41 379.20,272.36 381.18,256.38 383.16,260.09 385.14,266.60 387.12,265.87 389.10,259.24 391.08,259.74 393.06,260.99 395.04,260.83 397.02,260.98 398.99,243.80 400.97,266.83 402.95,240.39 404.93,266.87 406.91,267.43 408.89,254.39 410.87,260.71 412.85,265.42 414.83,259.96 416.81,261.20 418.79,264.22 420.77,256.26 422.75,263.47 424.73,259.52 426.71,258.61 428.69,266.71 430.67,272.95 432.65,253.22 434.63,264.86 436.61,266.55 438.59,267.05 440.57,264.88 442.55,271.03 444.53,259.50 446.51,267.58 448.49,260.82 450.47,265.78 452.45,265.09 454.43,272.30 456.41,265.63 458.39,247.45 460.37,266.54 462.35,256.71 464.32,140.82 466.30,152.00 468.28,262.03 470.26,272.87 472.24,151.92 474.22,175.76 476.20,260.64 478.18,234.74 480.16,227.37 482.14,241.74 484.12,266.44 486.10,265.81 488.08,230.89 490.06,196.36 492.04,263.27 494.02,247.59 496.00,232.91" fill="none" stroke="#2563eb" stroke-width="1.8" stroke-opacity="0.45" stroke-linejoin="round" stroke-linecap="round"/>
<circle cx="106.00" cy="271.01" r="1.8" fill="#2563eb" fill-opacity="0.55"/>
<circle cx="127.78" cy="270.79" r="1.8" fill="#2563eb" fill-opacity="0.55"/>
<circle cx="149.55" cy="272.78" r="1.8" fill="#2563eb" fill-opacity="0.55"/>
<circle cx="171.33" cy="269.27" r="1.8" fill="#2563eb" fill-opacity="0.55"/>
<circle cx="193.11" cy="246.52" r="1.8" fill="#2563eb" fill-opacity="0.55"/>
<circle cx="214.88" cy="232.55" r="1.8" fill="#2563eb" fill-opacity="0.55"/>
<circle cx="236.66" cy="264.64" r="1.8" fill="#2563eb" fill-opacity="0.55"/>
<circle cx="258.44" cy="233.66" r="1.8" fill="#2563eb" fill-opacity="0.55"/>
<circle cx="280.21" cy="265.21" r="1.8" fill="#2563eb" fill-opacity="0.55"/>
<circle cx="301.99" cy="273.36" r="1.8" fill="#2563eb" fill-opacity="0.55"/>
<circle cx="323.77" cy="265.47" r="1.8" fill="#2563eb" fill-opacity="0.55"/>
<circle cx="345.54" cy="261.04" r="1.8" fill="#2563eb" fill-opacity="0.55"/>
<circle cx="367.32" cy="258.50" r="1.8" fill="#2563eb" fill-opacity="0.55"/>
<circle cx="389.10" cy="259.24" r="1.8" fill="#2563eb" fill-opacity="0.55"/>
<circle cx="410.87" cy="260.71" r="1.8" fill="#2563eb" fill-opacity="0.55"/>
<circle cx="432.65" cy="253.22" r="1.8" fill="#2563eb" fill-opacity="0.55"/>
<circle cx="454.43" cy="272.30" r="1.8" fill="#2563eb" fill-opacity="0.55"/>
<circle cx="476.20" cy="260.64" r="1.8" fill="#2563eb" fill-opacity="0.55"/>
<polyline points="106.00,269.82 107.98,258.12 109.96,264.69 111.94,257.08 113.92,264.84 115.90,263.87 117.88,262.44 119.86,265.18 121.84,264.69 123.82,271.35 125.80,265.86 127.78,258.83 129.76,264.64 131.74,260.64 133.72,272.41 135.70,245.59 137.68,253.15 139.65,238.40 141.63,249.24 143.61,263.13 145.59,264.27 147.57,261.59 149.55,263.29 151.53,259.09 153.51,257.47 155.49,253.69 157.47,258.80 159.45,270.98 161.43,265.17 163.41,262.86 165.39,263.06 167.37,262.00 169.35,265.29 171.33,265.67 173.31,264.96 175.29,265.15 177.27,261.31 179.25,266.44 181.23,254.58 183.21,264.27 185.19,254.21 187.17,261.27 189.15,263.74 191.13,258.19 193.11,263.75 195.09,264.27 197.07,255.14 199.05,262.82 201.03,247.55 203.01,266.80 204.98,255.64 206.96,261.42 208.94,251.26 210.92,258.32 212.90,264.82 214.88,263.37 216.86,267.79 218.84,270.44 220.82,260.76 222.80,266.01 224.78,269.46 226.76,266.64 228.74,267.77 230.72,271.66 232.70,261.35 234.68,265.78 236.66,270.47 238.64,271.43 240.62,272.41 242.60,271.45 244.58,271.49 246.56,271.99 248.54,269.42 250.52,268.10 252.50,266.40 254.48,272.61 256.46,267.51 258.44,270.49 260.42,270.50 262.40,270.87 264.38,270.07 266.36,265.63 268.34,268.71 270.31,269.10 272.29,268.39 274.27,268.55 276.25,270.98 278.23,271.93 280.21,268.99 282.19,271.97 284.17,271.06 286.15,271.93 288.13,265.85 290.11,272.18 292.09,269.21 294.07,266.33 296.05,268.95 298.03,269.05 300.01,270.48 301.99,265.61 303.97,261.55 305.95,270.53 307.93,268.95 309.91,262.54 311.89,269.04 313.87,270.30 315.85,271.26 317.83,269.69 319.81,271.08 321.79,271.68 323.77,270.60 325.75,270.27 327.73,272.17 329.71,271.89 331.69,269.44 333.66,269.16 335.64,271.85 337.62,269.48 339.60,271.25 341.58,271.74 343.56,269.54 345.54,273.56 347.52,272.21 349.50,270.99 351.48,271.84 353.46,272.53 355.44,271.75 357.42,272.65 359.40,271.24 361.38,271.07 363.36,270.06 365.34,269.55 367.32,271.44 369.30,272.10 371.28,270.70 373.26,271.28 375.24,271.62 377.22,273.49 379.20,258.16 381.18,263.33 383.16,263.65 385.14,264.31 387.12,268.92 389.10,269.87 391.08,270.75 393.06,271.79 395.04,271.16 397.02,269.03 398.99,271.77 400.97,271.52 402.95,272.19 404.93,270.45 406.91,271.60 408.89,270.80 410.87,269.14 412.85,272.07 414.83,270.87 416.81,272.42 418.79,272.62 420.77,272.82 422.75,270.10 424.73,270.35 426.71,272.71 428.69,270.59 430.67,271.40 432.65,270.10 434.63,271.41 436.61,271.86 438.59,269.93 440.57,271.29 442.55,271.83 444.53,270.66 446.51,272.63 448.49,271.85 450.47,271.96 452.45,268.08 454.43,269.74 456.41,272.41 458.39,272.87 460.37,271.17 462.35,266.04 464.32,273.09 466.30,268.75 468.28,269.02 470.26,272.62 472.24,271.99 474.22,272.19 476.20,272.59 478.18,270.97 480.16,271.08 482.14,271.89 484.12,271.14 486.10,270.77 488.08,272.23 490.06,269.36 492.04,267.37 494.02,270.92 496.00,271.47" fill="none" stroke="#f97316" stroke-width="3.8" stroke-opacity="1" stroke-linejoin="round" stroke-linecap="round"/>
<circle cx="106.00" cy="269.82" r="3.0" fill="#f97316" fill-opacity="1"/>
<circle cx="127.78" cy="258.83" r="3.0" fill="#f97316" fill-opacity="1"/>
<circle cx="149.55" cy="263.29" r="3.0" fill="#f97316" fill-opacity="1"/>
<circle cx="171.33" cy="265.67" r="3.0" fill="#f97316" fill-opacity="1"/>
<circle cx="193.11" cy="263.75" r="3.0" fill="#f97316" fill-opacity="1"/>
<circle cx="214.88" cy="263.37" r="3.0" fill="#f97316" fill-opacity="1"/>
<circle cx="236.66" cy="270.47" r="3.0" fill="#f97316" fill-opacity="1"/>
<circle cx="258.44" cy="270.49" r="3.0" fill="#f97316" fill-opacity="1"/>
<circle cx="280.21" cy="268.99" r="3.0" fill="#f97316" fill-opacity="1"/>
<circle cx="301.99" cy="265.61" r="3.0" fill="#f97316" fill-opacity="1"/>
<circle cx="323.77" cy="270.60" r="3.0" fill="#f97316" fill-opacity="1"/>
<circle cx="345.54" cy="273.56" r="3.0" fill="#f97316" fill-opacity="1"/>
<circle cx="367.32" cy="271.44" r="3.0" fill="#f97316" fill-opacity="1"/>
<circle cx="389.10" cy="269.87" r="3.0" fill="#f97316" fill-opacity="1"/>
<circle cx="410.87" cy="269.14" r="3.0" fill="#f97316" fill-opacity="1"/>
<circle cx="432.65" cy="270.10" r="3.0" fill="#f97316" fill-opacity="1"/>
<circle cx="454.43" cy="269.74" r="3.0" fill="#f97316" fill-opacity="1"/>
<circle cx="476.20" cy="272.59" r="3.0" fill="#f97316" fill-opacity="1"/>
<text x="496" y="306" class="tick" text-anchor="end">Round sequence; lower is better</text>
<rect x="560" y="76" width="472" height="245" rx="8" fill="#ffffff" stroke="#dbe3ef"/>
<text x="578" y="104" class="label" font-weight="700">Streaming TTFT / first byte</text>
<rect x="878" y="88" width="136" height="26" rx="13" fill="#fef3c7" stroke="#f59e0b" stroke-width="1.4"/>
<text x="946" y="106" class="tick" font-weight="800" text-anchor="middle" fill="#92400e">Average winner: OpenRouter</text>
<line x1="618" y1="281.00" x2="1008" y2="281.00" stroke="#e5e7eb"/>
<text x="610" y="285.00" class="tick" text-anchor="end">0.0</text>
<line x1="618" y1="228.67" x2="1008" y2="228.67" stroke="#e5e7eb"/>
<text x="610" y="232.67" class="tick" text-anchor="end">10760</text>
<line x1="618" y1="176.33" x2="1008" y2="176.33" stroke="#e5e7eb"/>
<text x="610" y="180.33" class="tick" text-anchor="end">21520</text>
<line x1="618" y1="124.00" x2="1008" y2="124.00" stroke="#e5e7eb"/>
<text x="610" y="128.00" class="tick" text-anchor="end">32280</text>
<polyline points="618.00,272.03 619.98,269.50 621.96,273.95 623.94,271.43 625.92,272.85 627.90,273.90 629.88,274.14 631.86,267.34 633.84,272.53 635.82,272.48 637.80,268.91 639.78,271.47 641.76,273.68 643.74,272.35 645.72,274.15 647.70,268.38 649.68,271.55 651.65,271.70 653.63,272.57 655.61,272.90 657.59,273.74 659.57,272.30 661.55,273.68 663.53,274.90 665.51,273.98 667.49,254.20 669.47,268.57 671.45,274.14 673.43,274.80 675.41,271.14 677.39,272.25 679.37,270.33 681.35,274.10 683.33,270.81 685.31,273.93 687.29,269.72 689.27,270.37 691.25,272.41 693.23,270.01 695.21,270.05 697.19,269.73 699.17,264.84 701.15,270.40 703.13,265.08 705.11,263.86 707.09,264.09 709.07,260.81 711.05,262.96 713.03,262.27 715.01,257.51 716.98,260.96 718.96,265.01 720.94,258.37 722.92,259.37 724.90,263.72 726.88,270.39 728.86,257.65 730.84,269.11 732.82,255.13 734.80,259.50 736.78,268.05 738.76,261.96 740.74,263.48 742.72,261.54 744.70,267.58 746.68,261.96 748.66,266.55 750.64,261.23 752.62,266.28 754.60,267.54 756.58,260.80 758.56,265.68 760.54,267.71 762.52,274.28 764.50,260.53 766.48,267.53 768.46,260.30 770.44,246.53 772.42,262.31 774.40,272.83 776.38,261.63 778.36,267.73 780.34,272.71 782.31,267.95 784.29,265.21 786.27,268.05 788.25,267.03 790.23,266.10 792.21,266.15 794.19,263.69 796.17,266.19 798.15,266.69 800.13,263.15 802.11,268.79 804.09,264.23 806.07,273.71 808.05,267.89 810.03,260.51 812.01,266.44 813.99,274.32 815.97,267.97 817.95,266.06 819.93,267.92 821.91,267.96 823.89,256.78 825.87,266.66 827.85,262.04 829.83,256.67 831.81,267.36 833.79,272.18 835.77,265.99 837.75,265.33 839.73,265.64 841.71,262.11 843.69,266.39 845.66,260.17 847.64,267.13 849.62,272.57 851.60,261.34 853.58,264.17 855.56,250.73 857.54,261.80 859.52,267.38 861.50,254.51 863.48,267.17 865.46,262.09 867.44,272.42 869.42,255.32 871.40,258.52 873.38,268.07 875.36,267.77 877.34,274.08 879.32,259.50 881.30,266.58 883.28,261.21 885.26,272.90 887.24,267.61 889.22,257.26 891.20,273.37 893.18,258.96 895.16,262.20 897.14,267.57 899.12,267.00 901.10,262.72 903.08,261.14 905.06,263.20 907.04,261.82 909.02,261.82 910.99,245.83 912.97,268.27 914.95,242.42 916.93,268.02 918.91,268.57 920.89,255.92 922.87,262.25 924.85,266.83 926.83,261.32 928.81,262.41 930.79,265.15 932.77,258.13 934.75,265.07 936.73,260.37 938.71,259.50 940.69,268.26 942.67,273.78 944.65,254.22 946.63,266.11 948.61,267.79 950.59,268.00 952.57,266.47 954.55,271.89 956.53,260.52 958.51,268.84 960.49,262.26 962.47,266.63 964.45,266.54 966.43,274.11 968.41,266.18 970.39,248.60 972.37,267.37 974.35,259.94 976.32,140.82 978.30,152.62 980.28,262.81 982.26,274.19 984.24,158.67 986.22,176.85 988.20,263.43 990.18,252.89 992.16,263.85 994.14,263.37 996.12,267.08 998.10,268.61 1000.08,257.12 1002.06,250.34 1004.04,263.71 1006.02,257.40 1008.00,261.34" fill="none" stroke="#2563eb" stroke-width="1.8" stroke-opacity="0.45" stroke-linejoin="round" stroke-linecap="round"/>
<circle cx="618.00" cy="272.03" r="1.8" fill="#2563eb" fill-opacity="0.55"/>
<circle cx="639.78" cy="271.47" r="1.8" fill="#2563eb" fill-opacity="0.55"/>
<circle cx="661.55" cy="273.68" r="1.8" fill="#2563eb" fill-opacity="0.55"/>
<circle cx="683.33" cy="270.81" r="1.8" fill="#2563eb" fill-opacity="0.55"/>
<circle cx="705.11" cy="263.86" r="1.8" fill="#2563eb" fill-opacity="0.55"/>
<circle cx="726.88" cy="270.39" r="1.8" fill="#2563eb" fill-opacity="0.55"/>
<circle cx="748.66" cy="266.55" r="1.8" fill="#2563eb" fill-opacity="0.55"/>
<circle cx="770.44" cy="246.53" r="1.8" fill="#2563eb" fill-opacity="0.55"/>
<circle cx="792.21" cy="266.15" r="1.8" fill="#2563eb" fill-opacity="0.55"/>
<circle cx="813.99" cy="274.32" r="1.8" fill="#2563eb" fill-opacity="0.55"/>
<circle cx="835.77" cy="265.99" r="1.8" fill="#2563eb" fill-opacity="0.55"/>
<circle cx="857.54" cy="261.80" r="1.8" fill="#2563eb" fill-opacity="0.55"/>
<circle cx="879.32" cy="259.50" r="1.8" fill="#2563eb" fill-opacity="0.55"/>
<circle cx="901.10" cy="262.72" r="1.8" fill="#2563eb" fill-opacity="0.55"/>
<circle cx="922.87" cy="262.25" r="1.8" fill="#2563eb" fill-opacity="0.55"/>
<circle cx="944.65" cy="254.22" r="1.8" fill="#2563eb" fill-opacity="0.55"/>
<circle cx="966.43" cy="274.11" r="1.8" fill="#2563eb" fill-opacity="0.55"/>
<circle cx="988.20" cy="263.43" r="1.8" fill="#2563eb" fill-opacity="0.55"/>
<polyline points="618.00,270.74 619.98,258.74 621.96,265.30 623.94,257.71 625.92,266.08 627.90,264.72 629.88,263.34 631.86,266.68 633.84,265.65 635.82,271.64 637.80,266.75 639.78,260.12 641.76,266.14 643.74,260.74 645.72,273.41 647.70,247.23 649.68,253.57 651.65,240.06 653.63,251.44 655.61,263.87 657.59,265.32 659.57,264.04 661.55,264.72 663.53,260.51 665.51,258.60 667.49,253.67 669.47,259.74 671.45,271.89 673.43,266.46 675.41,263.66 677.39,263.21 679.37,264.51 681.35,265.49 683.33,265.70 685.31,266.28 687.29,266.17 689.27,261.71 691.25,266.48 693.23,255.72 695.21,265.73 697.19,257.53 699.17,263.87 701.15,265.18 703.13,259.33 705.11,264.25 707.09,265.60 709.07,256.00 711.05,263.85 713.03,248.52 715.01,267.06 716.98,256.53 718.96,261.90 720.94,251.74 722.92,260.64 724.90,265.49 726.88,263.45 728.86,267.95 730.84,271.76 732.82,262.72 734.80,266.14 736.78,270.64 738.76,267.94 740.74,271.50 742.72,271.69 744.70,264.61 746.68,266.48 748.66,272.80 750.64,272.10 752.62,273.08 754.60,272.84 756.58,272.63 758.56,272.18 760.54,271.13 762.52,270.14 764.50,268.35 766.48,273.54 768.46,271.41 770.44,272.33 772.42,273.03 774.40,273.39 776.38,271.03 778.36,269.41 780.34,269.72 782.31,269.08 784.29,272.46 786.27,270.20 788.25,272.27 790.23,272.68 792.21,271.77 794.19,272.86 796.17,272.39 798.15,271.97 800.13,267.83 802.11,273.43 804.09,270.37 806.07,266.26 808.05,270.92 810.03,269.84 812.01,271.82 813.99,267.15 815.97,264.51 817.95,271.45 819.93,271.74 821.91,269.72 823.89,270.78 825.87,272.54 827.85,272.50 829.83,270.67 831.81,272.16 833.79,272.52 835.77,272.41 837.75,271.38 839.73,273.32 841.71,272.03 843.69,271.11 845.66,270.47 847.64,272.86 849.62,270.42 851.60,272.08 853.58,272.96 855.56,272.29 857.54,273.59 859.52,273.54 861.50,272.96 863.48,273.37 865.46,272.76 867.44,271.95 869.42,273.45 871.40,272.49 873.38,271.10 875.36,270.79 877.34,272.35 879.32,272.89 881.30,272.34 883.28,271.87 885.26,272.14 887.24,272.93 889.22,273.78 891.20,259.77 893.18,264.34 895.16,263.59 897.14,264.82 899.12,271.24 901.10,270.54 903.08,272.26 905.06,271.93 907.04,272.90 909.02,270.05 910.99,272.93 912.97,272.13 914.95,273.68 916.93,270.64 918.91,272.58 920.89,271.82 922.87,270.43 924.85,272.31 926.83,272.32 928.81,273.59 930.79,273.28 932.77,273.05 934.75,271.18 936.73,271.09 938.71,273.88 940.69,270.73 942.67,273.29 944.65,271.20 946.63,272.91 948.61,272.00 950.59,270.76 952.57,272.44 954.55,273.67 956.53,270.88 958.51,274.08 960.49,272.89 962.47,271.94 964.45,272.19 966.43,270.38 968.41,272.51 970.39,273.95 972.37,272.23 974.35,267.58 976.32,273.28 978.30,269.68 980.28,270.57 982.26,273.80 984.24,272.02 986.22,273.30 988.20,274.35 990.18,272.71 992.16,272.01 994.14,272.84 996.12,273.26 998.10,272.02 1000.08,272.36 1002.06,270.58 1004.04,268.43 1006.02,271.66 1008.00,271.66" fill="none" stroke="#f97316" stroke-width="3.8" stroke-opacity="1" stroke-linejoin="round" stroke-linecap="round"/>
<circle cx="618.00" cy="270.74" r="3.0" fill="#f97316" fill-opacity="1"/>
<circle cx="639.78" cy="260.12" r="3.0" fill="#f97316" fill-opacity="1"/>
<circle cx="661.55" cy="264.72" r="3.0" fill="#f97316" fill-opacity="1"/>
<circle cx="683.33" cy="265.70" r="3.0" fill="#f97316" fill-opacity="1"/>
<circle cx="705.11" cy="264.25" r="3.0" fill="#f97316" fill-opacity="1"/>
<circle cx="726.88" cy="263.45" r="3.0" fill="#f97316" fill-opacity="1"/>
<circle cx="748.66" cy="272.80" r="3.0" fill="#f97316" fill-opacity="1"/>
<circle cx="770.44" cy="272.33" r="3.0" fill="#f97316" fill-opacity="1"/>
<circle cx="792.21" cy="271.77" r="3.0" fill="#f97316" fill-opacity="1"/>
<circle cx="813.99" cy="267.15" r="3.0" fill="#f97316" fill-opacity="1"/>
<circle cx="835.77" cy="272.41" r="3.0" fill="#f97316" fill-opacity="1"/>
<circle cx="857.54" cy="273.59" r="3.0" fill="#f97316" fill-opacity="1"/>
<circle cx="879.32" cy="272.89" r="3.0" fill="#f97316" fill-opacity="1"/>
<circle cx="901.10" cy="270.54" r="3.0" fill="#f97316" fill-opacity="1"/>
<circle cx="922.87" cy="270.43" r="3.0" fill="#f97316" fill-opacity="1"/>
<circle cx="944.65" cy="271.20" r="3.0" fill="#f97316" fill-opacity="1"/>
<circle cx="966.43" cy="270.38" r="3.0" fill="#f97316" fill-opacity="1"/>
<circle cx="988.20" cy="274.35" r="3.0" fill="#f97316" fill-opacity="1"/>
<text x="1008" y="306" class="tick" text-anchor="end">Round sequence; lower is better</text>
<rect x="48" y="379" width="472" height="245" rx="8" fill="#ffffff" stroke="#dbe3ef"/>
<text x="66" y="407" class="label" font-weight="700">Response throughput (incl. reasoning)</text>
<rect x="366" y="391" width="136" height="26" rx="13" fill="#fef3c7" stroke="#f59e0b" stroke-width="1.4"/>
<text x="434" y="409" class="tick" font-weight="800" text-anchor="middle" fill="#92400e">Average winner: Infron</text>
<line x1="106" y1="584.00" x2="496" y2="584.00" stroke="#e5e7eb"/>
<text x="98" y="588.00" class="tick" text-anchor="end">0.0</text>
<line x1="106" y1="531.67" x2="496" y2="531.67" stroke="#e5e7eb"/>
<text x="98" y="535.67" class="tick" text-anchor="end">24.1</text>
<line x1="106" y1="479.33" x2="496" y2="479.33" stroke="#e5e7eb"/>
<text x="98" y="483.33" class="tick" text-anchor="end">48.2</text>
<line x1="106" y1="427.00" x2="496" y2="427.00" stroke="#e5e7eb"/>
<text x="98" y="431.00" class="tick" text-anchor="end">72.2</text>
<polyline points="106.00,567.29 107.98,570.33 109.96,564.74 111.94,568.65 113.92,567.82 115.90,566.25 117.88,563.50 119.86,572.59 121.84,566.57 123.82,566.59 125.80,571.21 127.78,567.65 129.76,565.35 131.74,566.33 133.72,567.43 135.70,572.17 137.68,570.18 139.65,569.37 141.63,565.73 143.61,566.35 145.59,563.48 147.57,567.25 149.55,563.70 151.53,560.54 153.51,563.94 155.49,578.23 157.47,572.56 159.45,563.91 161.43,560.01 163.41,569.10 165.39,568.90 167.37,572.31 169.35,562.15 171.33,569.77 173.31,563.78 175.29,570.97 177.27,478.57 179.25,443.82 181.23,458.75 183.21,505.11 185.19,539.14 187.17,489.31 189.15,499.04 191.13,573.19 193.11,531.20 195.09,491.29 197.07,534.43 199.05,574.49 201.03,519.64 203.01,503.70 204.98,543.40 206.96,470.65 208.94,504.35 210.92,550.16 212.90,544.21 214.88,506.49 216.86,531.31 218.84,569.80 220.82,523.91 222.80,540.34 224.78,574.98 226.76,575.80 228.74,575.12 230.72,575.81 232.70,573.07 234.68,575.59 236.66,573.80 238.64,576.05 240.62,573.39 242.60,572.34 244.58,575.98 246.56,574.15 248.54,572.69 250.52,562.04 252.50,576.28 254.48,573.98 256.46,576.36 258.44,580.47 260.42,575.43 262.40,565.48 264.38,576.64 266.36,573.32 268.34,566.79 270.31,572.24 272.29,573.92 274.27,571.97 276.25,574.15 278.23,573.97 280.21,573.43 282.19,575.38 284.17,573.10 286.15,573.24 288.13,575.25 290.11,572.84 292.09,574.35 294.07,564.22 296.05,572.33 298.03,576.17 300.01,573.22 301.99,562.16 303.97,572.21 305.95,573.70 307.93,571.98 309.91,572.67 311.89,577.55 313.87,573.39 315.85,575.67 317.83,577.60 319.81,572.44 321.79,566.97 323.77,573.25 325.75,574.28 327.73,574.19 329.71,575.54 331.69,573.24 333.66,576.60 335.64,572.98 337.62,566.18 339.60,576.01 341.58,574.72 343.56,578.62 345.54,575.64 347.52,573.14 349.50,578.08 351.48,572.23 353.46,575.79 355.44,565.81 357.42,577.70 359.40,576.80 361.38,571.66 363.36,572.20 365.34,562.39 367.32,576.58 369.30,573.81 371.28,576.10 373.26,566.79 375.24,572.42 377.22,577.21 379.20,564.68 381.18,577.22 383.16,576.02 385.14,572.40 387.12,572.97 389.10,576.33 391.08,576.15 393.06,575.66 395.04,575.72 397.02,575.66 398.99,579.51 400.97,572.22 402.95,579.89 404.93,572.18 406.91,571.70 408.89,577.73 410.87,575.77 412.85,573.29 414.83,576.06 416.81,575.57 418.79,574.05 420.77,577.25 422.75,574.48 424.73,576.23 426.71,576.54 428.69,572.32 430.67,563.25 432.65,577.99 434.63,573.66 436.61,572.45 438.59,572.03 440.57,573.65 442.55,567.26 444.53,576.24 446.51,571.56 448.49,575.73 450.47,573.03 452.45,573.51 454.43,564.82 456.41,573.14 458.39,579.03 460.37,572.45 462.35,577.13 464.32,582.81 466.30,578.58 468.28,575.20 470.26,563.46 472.24,564.76 474.22,577.66 476.20,529.43 478.18,522.65 480.16,455.22 482.14,532.98 484.12,571.82 486.10,553.08 488.08,496.25 490.06,555.28 492.04,574.00 494.02,545.90 496.00,454.81" fill="none" stroke="#2563eb" stroke-width="3.8" stroke-opacity="1" stroke-linejoin="round" stroke-linecap="round"/>
<circle cx="106.00" cy="567.29" r="3.0" fill="#2563eb" fill-opacity="1"/>
<circle cx="127.78" cy="567.65" r="3.0" fill="#2563eb" fill-opacity="1"/>
<circle cx="149.55" cy="563.70" r="3.0" fill="#2563eb" fill-opacity="1"/>
<circle cx="171.33" cy="569.77" r="3.0" fill="#2563eb" fill-opacity="1"/>
<circle cx="193.11" cy="531.20" r="3.0" fill="#2563eb" fill-opacity="1"/>
<circle cx="214.88" cy="506.49" r="3.0" fill="#2563eb" fill-opacity="1"/>
<circle cx="236.66" cy="573.80" r="3.0" fill="#2563eb" fill-opacity="1"/>
<circle cx="258.44" cy="580.47" r="3.0" fill="#2563eb" fill-opacity="1"/>
<circle cx="280.21" cy="573.43" r="3.0" fill="#2563eb" fill-opacity="1"/>
<circle cx="301.99" cy="562.16" r="3.0" fill="#2563eb" fill-opacity="1"/>
<circle cx="323.77" cy="573.25" r="3.0" fill="#2563eb" fill-opacity="1"/>
<circle cx="345.54" cy="575.64" r="3.0" fill="#2563eb" fill-opacity="1"/>
<circle cx="367.32" cy="576.58" r="3.0" fill="#2563eb" fill-opacity="1"/>
<circle cx="389.10" cy="576.33" r="3.0" fill="#2563eb" fill-opacity="1"/>
<circle cx="410.87" cy="575.77" r="3.0" fill="#2563eb" fill-opacity="1"/>
<circle cx="432.65" cy="577.99" r="3.0" fill="#2563eb" fill-opacity="1"/>
<circle cx="454.43" cy="564.82" r="3.0" fill="#2563eb" fill-opacity="1"/>
<circle cx="476.20" cy="529.43" r="3.0" fill="#2563eb" fill-opacity="1"/>
<polyline points="106.00,569.06 107.98,582.18 109.96,574.41 111.94,577.02 113.92,573.67 115.90,581.56 117.88,575.57 119.86,573.45 121.84,573.76 123.82,579.68 125.80,573.67 127.78,576.47 129.76,573.80 131.74,581.95 133.72,565.79 135.70,579.29 137.68,578.01 139.65,583.02 141.63,579.40 143.61,574.66 145.59,574.02 147.57,581.85 149.55,574.87 151.53,576.38 153.51,576.91 155.49,582.47 157.47,577.42 159.45,567.34 161.43,573.46 163.41,581.70 165.39,576.15 167.37,575.21 169.35,573.37 171.33,581.28 173.31,575.22 175.29,573.47 177.27,575.52 179.25,581.13 181.23,578.08 183.21,574.02 185.19,577.77 187.17,581.88 189.15,574.93 191.13,576.68 193.11,574.32 195.09,581.51 197.07,577.95 199.05,574.82 201.03,579.01 203.01,581.06 204.98,577.42 206.96,581.87 208.94,578.74 210.92,576.64 212.90,573.69 214.88,581.63 216.86,572.15 218.84,568.19 220.82,575.75 222.80,581.22 224.78,570.44 226.76,572.37 228.74,571.38 230.72,579.53 232.70,577.63 234.68,573.03 236.66,568.15 238.64,579.64 240.62,567.60 242.60,566.51 244.58,566.44 246.56,579.37 248.54,570.49 250.52,571.06 252.50,572.57 254.48,579.02 256.46,572.40 258.44,568.12 260.42,568.11 262.40,579.88 264.38,569.69 266.36,573.14 268.34,570.42 270.31,580.49 272.29,571.59 274.27,570.60 276.25,567.35 278.23,579.40 280.21,572.27 282.19,565.52 284.17,567.21 286.15,579.40 288.13,573.67 290.11,565.08 292.09,569.85 294.07,581.15 296.05,572.31 298.03,570.03 300.01,568.13 301.99,581.29 303.97,575.42 305.95,580.01 307.93,573.61 309.91,574.96 311.89,570.04 313.87,580.10 315.85,571.14 317.83,569.24 319.81,567.17 321.79,579.52 323.77,571.96 325.75,568.44 327.73,565.10 329.71,579.42 331.69,571.82 333.66,569.90 335.64,565.75 337.62,580.38 339.60,568.49 341.58,565.98 343.56,569.44 345.54,578.39 347.52,566.19 349.50,567.32 351.48,565.77 353.46,579.07 355.44,568.78 357.42,564.01 359.40,566.89 361.38,579.80 363.36,569.70 365.34,569.42 367.32,566.54 369.30,579.31 371.28,568.80 373.26,566.83 375.24,566.20 377.22,578.44 379.20,577.15 381.18,574.55 383.16,574.38 385.14,581.50 387.12,572.34 389.10,569.01 391.08,567.71 393.06,579.47 395.04,568.09 397.02,570.05 398.99,565.92 400.97,579.60 402.95,565.06 404.93,580.04 406.91,567.36 408.89,567.64 410.87,569.93 412.85,579.33 414.83,568.55 416.81,564.55 418.79,564.08 420.77,578.90 422.75,570.12 424.73,568.33 426.71,563.85 428.69,579.99 430.67,567.69 432.65,568.69 434.63,566.59 436.61,579.43 438.59,569.87 440.57,566.81 442.55,565.80 444.53,579.96 446.51,564.06 448.49,565.76 450.47,579.38 452.45,571.89 454.43,569.17 456.41,579.14 458.39,568.61 460.37,567.02 462.35,572.84 464.32,578.72 466.30,572.51 468.28,570.07 470.26,564.09 472.24,579.37 474.22,566.23 476.20,564.16 478.18,567.35 480.16,579.79 482.14,566.81 484.12,567.08 486.10,567.68 488.08,579.24 490.06,570.56 492.04,571.75 494.02,567.44 496.00,579.62" fill="none" stroke="#f97316" stroke-width="1.8" stroke-opacity="0.45" stroke-linejoin="round" stroke-linecap="round"/>
<circle cx="106.00" cy="569.06" r="1.8" fill="#f97316" fill-opacity="0.55"/>
<circle cx="127.78" cy="576.47" r="1.8" fill="#f97316" fill-opacity="0.55"/>
<circle cx="149.55" cy="574.87" r="1.8" fill="#f97316" fill-opacity="0.55"/>
<circle cx="171.33" cy="581.28" r="1.8" fill="#f97316" fill-opacity="0.55"/>
<circle cx="193.11" cy="574.32" r="1.8" fill="#f97316" fill-opacity="0.55"/>
<circle cx="214.88" cy="581.63" r="1.8" fill="#f97316" fill-opacity="0.55"/>
<circle cx="236.66" cy="568.15" r="1.8" fill="#f97316" fill-opacity="0.55"/>
<circle cx="258.44" cy="568.12" r="1.8" fill="#f97316" fill-opacity="0.55"/>
<circle cx="280.21" cy="572.27" r="1.8" fill="#f97316" fill-opacity="0.55"/>
<circle cx="301.99" cy="581.29" r="1.8" fill="#f97316" fill-opacity="0.55"/>
<circle cx="323.77" cy="571.96" r="1.8" fill="#f97316" fill-opacity="0.55"/>
<circle cx="345.54" cy="578.39" r="1.8" fill="#f97316" fill-opacity="0.55"/>
<circle cx="367.32" cy="566.54" r="1.8" fill="#f97316" fill-opacity="0.55"/>
<circle cx="389.10" cy="569.01" r="1.8" fill="#f97316" fill-opacity="0.55"/>
<circle cx="410.87" cy="569.93" r="1.8" fill="#f97316" fill-opacity="0.55"/>
<circle cx="432.65" cy="568.69" r="1.8" fill="#f97316" fill-opacity="0.55"/>
<circle cx="454.43" cy="569.17" r="1.8" fill="#f97316" fill-opacity="0.55"/>
<circle cx="476.20" cy="564.16" r="1.8" fill="#f97316" fill-opacity="0.55"/>
<text x="496" y="609" class="tick" text-anchor="end">Round sequence; higher is better</text>
<rect x="560" y="379" width="472" height="245" rx="8" fill="#ffffff" stroke="#dbe3ef"/>
<text x="578" y="407" class="label" font-weight="700">Observed cost / round</text>
<rect x="878" y="391" width="136" height="26" rx="13" fill="#fef3c7" stroke="#f59e0b" stroke-width="1.4"/>
<text x="946" y="409" class="tick" font-weight="800" text-anchor="middle" fill="#92400e">Average winner: Infron</text>
<line x1="618" y1="584.00" x2="1008" y2="584.00" stroke="#e5e7eb"/>
<text x="610" y="588.00" class="tick" text-anchor="end">$0.0000</text>
<line x1="618" y1="531.67" x2="1008" y2="531.67" stroke="#e5e7eb"/>
<text x="610" y="535.67" class="tick" text-anchor="end">$0.0002</text>
<line x1="618" y1="479.33" x2="1008" y2="479.33" stroke="#e5e7eb"/>
<text x="610" y="483.33" class="tick" text-anchor="end">$0.0004</text>
<line x1="618" y1="427.00" x2="1008" y2="427.00" stroke="#e5e7eb"/>
<text x="610" y="431.00" class="tick" text-anchor="end">$0.0005</text>
<polyline points="618.00,551.16 619.98,551.16 621.96,551.16 623.94,551.16 625.92,551.16 627.90,551.16 629.88,551.16 631.86,551.16 633.84,551.16 635.82,551.16 637.80,551.16 639.78,497.72 641.76,551.16 643.74,497.43 645.72,551.16 647.70,551.16 649.68,551.16 651.65,551.16 653.63,551.16 655.61,551.16 657.59,551.16 659.57,551.16 661.55,551.16 663.53,551.16 665.51,551.16 667.49,551.16 669.47,497.43 671.45,551.16 673.43,497.72 675.41,551.16 677.39,551.16 679.37,551.16 681.35,551.16 683.33,551.16 685.31,551.16 687.29,551.16 689.27,522.20 691.25,514.44 693.23,487.28 695.21,507.58 697.19,510.86 699.17,483.99 701.15,495.34 703.13,515.34 705.11,501.90 707.09,475.63 709.07,503.99 711.05,515.34 713.03,490.86 715.01,480.71 716.98,506.98 718.96,458.92 720.94,512.35 722.92,533.25 724.90,507.87 726.88,486.68 728.86,498.92 730.84,515.34 732.82,487.28 734.80,521.31 736.78,551.16 738.76,551.16 740.74,551.16 742.72,551.16 744.70,551.16 746.68,551.16 748.66,551.16 750.64,551.16 752.62,551.16 754.60,551.16 756.58,551.16 758.56,551.16 760.54,551.16 762.52,551.16 764.50,551.16 766.48,551.16 768.46,551.16 770.44,551.16 772.42,551.16 774.40,551.16 776.38,551.16 778.36,551.16 780.34,551.16 782.31,551.16 784.29,551.16 786.27,551.16 788.25,551.16 790.23,551.16 792.21,551.16 794.19,551.16 796.17,551.16 798.15,551.16 800.13,551.16 802.11,551.16 804.09,551.16 806.07,551.16 808.05,551.16 810.03,551.16 812.01,551.16 813.99,551.16 815.97,551.16 817.95,551.16 819.93,551.16 821.91,551.16 823.89,551.16 825.87,551.16 827.85,551.16 829.83,551.16 831.81,551.16 833.79,551.16 835.77,551.16 837.75,551.16 839.73,551.16 841.71,551.16 843.69,551.16 845.66,551.16 847.64,551.16 849.62,551.16 851.60,551.16 853.58,551.16 855.56,551.16 857.54,551.16 859.52,551.16 861.50,551.16 863.48,551.16 865.46,551.16 867.44,551.16 869.42,551.16 871.40,551.16 873.38,551.16 875.36,551.16 877.34,551.16 879.32,551.16 881.30,551.16 883.28,551.16 885.26,551.16 887.24,551.16 889.22,551.16 891.20,551.16 893.18,551.16 895.16,551.16 897.14,551.16 899.12,551.16 901.10,551.16 903.08,551.16 905.06,551.16 907.04,551.16 909.02,551.16 910.99,551.16 912.97,551.16 914.95,551.16 916.93,551.16 918.91,551.16 920.89,551.16 922.87,551.16 924.85,551.16 926.83,551.16 928.81,551.16 930.79,551.16 932.77,551.16 934.75,551.16 936.73,551.16 938.71,551.16 940.69,551.16 942.67,551.16 944.65,551.16 946.63,551.16 948.61,551.16 950.59,551.16 952.57,551.16 954.55,551.16 956.53,551.16 958.51,551.16 960.49,551.16 962.47,551.16 964.45,551.16 966.43,551.16 968.41,551.16 970.39,551.16 972.37,551.16 974.35,551.16 976.32,551.16 978.30,551.76 980.28,551.16 982.26,551.16 984.24,537.73 986.22,552.06 988.20,530.86 990.18,494.14 992.16,484.59 994.14,500.41 996.12,515.34 998.10,512.65 1000.08,481.31 1002.06,496.83 1004.04,515.34 1006.02,506.08 1008.00,489.96" fill="none" stroke="#2563eb" stroke-width="3.8" stroke-opacity="1" stroke-linejoin="round" stroke-linecap="round"/>
<circle cx="618.00" cy="551.16" r="3.0" fill="#2563eb" fill-opacity="1"/>
<circle cx="639.78" cy="497.72" r="3.0" fill="#2563eb" fill-opacity="1"/>
<circle cx="661.55" cy="551.16" r="3.0" fill="#2563eb" fill-opacity="1"/>
<circle cx="683.33" cy="551.16" r="3.0" fill="#2563eb" fill-opacity="1"/>
<circle cx="705.11" cy="501.90" r="3.0" fill="#2563eb" fill-opacity="1"/>
<circle cx="726.88" cy="486.68" r="3.0" fill="#2563eb" fill-opacity="1"/>
<circle cx="748.66" cy="551.16" r="3.0" fill="#2563eb" fill-opacity="1"/>
<circle cx="770.44" cy="551.16" r="3.0" fill="#2563eb" fill-opacity="1"/>
<circle cx="792.21" cy="551.16" r="3.0" fill="#2563eb" fill-opacity="1"/>
<circle cx="813.99" cy="551.16" r="3.0" fill="#2563eb" fill-opacity="1"/>
<circle cx="835.77" cy="551.16" r="3.0" fill="#2563eb" fill-opacity="1"/>
<circle cx="857.54" cy="551.16" r="3.0" fill="#2563eb" fill-opacity="1"/>
<circle cx="879.32" cy="551.16" r="3.0" fill="#2563eb" fill-opacity="1"/>
<circle cx="901.10" cy="551.16" r="3.0" fill="#2563eb" fill-opacity="1"/>
<circle cx="922.87" cy="551.16" r="3.0" fill="#2563eb" fill-opacity="1"/>
<circle cx="944.65" cy="551.16" r="3.0" fill="#2563eb" fill-opacity="1"/>
<circle cx="966.43" cy="551.16" r="3.0" fill="#2563eb" fill-opacity="1"/>
<circle cx="988.20" cy="530.86" r="3.0" fill="#2563eb" fill-opacity="1"/>
<polyline points="618.00,495.43 619.98,497.10 621.96,495.18 623.94,495.76 625.92,495.43 627.90,497.10 629.88,443.82 631.86,547.12 633.84,495.43 635.82,497.10 637.80,495.18 639.78,495.76 641.76,495.43 643.74,497.10 645.72,546.54 647.70,495.76 649.68,495.43 651.65,497.10 653.63,495.35 655.61,547.12 657.59,546.79 659.57,548.46 661.55,495.09 663.53,495.76 665.51,495.43 667.49,445.74 669.47,495.35 671.45,495.76 673.43,495.43 675.41,497.10 677.39,495.43 679.37,444.41 681.35,495.43 683.33,497.10 685.31,495.43 687.29,547.12 689.27,495.43 691.25,497.10 693.23,495.18 695.21,495.76 697.19,495.43 699.17,497.10 701.15,546.54 703.13,495.76 705.11,546.79 707.09,497.10 709.07,495.18 711.05,547.12 713.03,495.43 715.01,548.46 716.98,546.79 718.96,548.46 720.94,546.54 722.92,547.12 724.90,546.79 726.88,548.46 728.86,546.54 730.84,547.12 732.82,546.79 734.80,548.46 736.78,546.54 738.76,547.12 740.74,546.79 742.72,548.46 744.70,547.04 746.68,547.12 748.66,546.79 750.64,548.46 752.62,495.43 754.60,495.76 756.58,495.43 758.56,497.10 760.54,546.54 762.52,495.76 764.50,546.79 766.48,548.46 768.46,546.54 770.44,547.12 772.42,546.79 774.40,548.46 776.38,546.54 778.36,547.12 780.34,546.79 782.31,548.46 784.29,546.54 786.27,495.76 788.25,546.79 790.23,548.46 792.21,546.79 794.19,495.76 796.17,495.43 798.15,497.10 800.13,495.18 802.11,547.12 804.09,546.79 806.07,548.46 808.05,546.79 810.03,547.12 812.01,546.79 813.99,548.46 815.97,546.79 817.95,548.46 819.93,547.04 821.91,547.12 823.89,546.79 825.87,548.46 827.85,547.04 829.83,547.12 831.81,546.79 833.79,548.46 835.77,547.04 837.75,547.12 839.73,546.79 841.71,548.46 843.69,546.79 845.66,547.12 847.64,546.79 849.62,548.46 851.60,546.62 853.58,547.12 855.56,546.79 857.54,548.46 859.52,546.54 861.50,547.12 863.48,546.79 865.46,548.46 867.44,546.79 869.42,495.76 871.40,495.43 873.38,548.46 875.36,546.54 877.34,547.12 879.32,546.79 881.30,548.46 883.28,546.54 885.26,547.12 887.24,546.79 889.22,548.46 891.20,546.54 893.18,547.12 895.16,546.79 897.14,548.46 899.12,546.79 901.10,547.12 903.08,546.79 905.06,548.46 907.04,495.18 909.02,547.12 910.99,546.79 912.97,548.46 914.95,546.79 916.93,548.46 918.91,546.54 920.89,547.12 922.87,546.79 924.85,548.46 926.83,546.54 928.81,547.12 930.79,546.79 932.77,548.46 934.75,546.62 936.73,547.12 938.71,546.79 940.69,548.46 942.67,546.54 944.65,547.12 946.63,546.79 948.61,548.46 950.59,546.54 952.57,547.12 954.55,546.79 956.53,548.46 958.51,547.12 960.49,546.79 962.47,548.46 964.45,546.54 966.43,495.76 968.41,548.46 970.39,547.04 972.37,547.12 974.35,546.79 976.32,548.46 978.30,546.79 980.28,547.12 982.26,546.79 984.24,548.46 986.22,546.54 988.20,547.12 990.18,546.79 992.16,445.74 994.14,495.18 996.12,547.12 998.10,546.79 1000.08,548.46 1002.06,546.54 1004.04,547.12 1006.02,546.79 1008.00,548.46" fill="none" stroke="#f97316" stroke-width="1.8" stroke-opacity="0.45" stroke-linejoin="round" stroke-linecap="round"/>
<circle cx="618.00" cy="495.43" r="1.8" fill="#f97316" fill-opacity="0.55"/>
<circle cx="639.78" cy="495.76" r="1.8" fill="#f97316" fill-opacity="0.55"/>
<circle cx="661.55" cy="495.09" r="1.8" fill="#f97316" fill-opacity="0.55"/>
<circle cx="683.33" cy="497.10" r="1.8" fill="#f97316" fill-opacity="0.55"/>
<circle cx="705.11" cy="546.79" r="1.8" fill="#f97316" fill-opacity="0.55"/>
<circle cx="726.88" cy="548.46" r="1.8" fill="#f97316" fill-opacity="0.55"/>
<circle cx="748.66" cy="546.79" r="1.8" fill="#f97316" fill-opacity="0.55"/>
<circle cx="770.44" cy="547.12" r="1.8" fill="#f97316" fill-opacity="0.55"/>
<circle cx="792.21" cy="546.79" r="1.8" fill="#f97316" fill-opacity="0.55"/>
<circle cx="813.99" cy="548.46" r="1.8" fill="#f97316" fill-opacity="0.55"/>
<circle cx="835.77" cy="547.04" r="1.8" fill="#f97316" fill-opacity="0.55"/>
<circle cx="857.54" cy="548.46" r="1.8" fill="#f97316" fill-opacity="0.55"/>
<circle cx="879.32" cy="546.79" r="1.8" fill="#f97316" fill-opacity="0.55"/>
<circle cx="901.10" cy="547.12" r="1.8" fill="#f97316" fill-opacity="0.55"/>
<circle cx="922.87" cy="546.79" r="1.8" fill="#f97316" fill-opacity="0.55"/>
<circle cx="944.65" cy="547.12" r="1.8" fill="#f97316" fill-opacity="0.55"/>
<circle cx="966.43" cy="495.76" r="1.8" fill="#f97316" fill-opacity="0.55"/>
<circle cx="988.20" cy="547.12" r="1.8" fill="#f97316" fill-opacity="0.55"/>
<text x="1008" y="609" class="tick" text-anchor="end">Round sequence; lower is better</text>
<rect x="48" y="682" width="472" height="245" rx="8" fill="#ffffff" stroke="#dbe3ef"/>
<text x="66" y="710" class="label" font-weight="700">Token cache hit rate</text>
<rect x="366" y="694" width="136" height="26" rx="13" fill="#fef3c7" stroke="#f59e0b" stroke-width="1.4"/>
<text x="434" y="712" class="tick" font-weight="800" text-anchor="middle" fill="#92400e">Average winner: Infron</text>
<line x1="106" y1="887.00" x2="496" y2="887.00" stroke="#e5e7eb"/>
<text x="98" y="891.00" class="tick" text-anchor="end">0%</text>
<line x1="106" y1="834.67" x2="496" y2="834.67" stroke="#e5e7eb"/>
<text x="98" y="838.67" class="tick" text-anchor="end">37%</text>
<line x1="106" y1="782.33" x2="496" y2="782.33" stroke="#e5e7eb"/>
<text x="98" y="786.33" class="tick" text-anchor="end">75%</text>
<line x1="106" y1="730.00" x2="496" y2="730.00" stroke="#e5e7eb"/>
<text x="98" y="734.00" class="tick" text-anchor="end">112%</text>
<polyline points="106.00,746.82 107.98,746.82 109.96,746.82 111.94,746.82 113.92,746.82 115.90,746.82 117.88,746.82 119.86,746.82 121.84,746.82 123.82,746.82 125.80,746.82 127.78,887.00 129.76,746.82 131.74,746.82 133.72,746.82 135.70,746.82 137.68,746.82 139.65,746.82 141.63,746.82 143.61,746.82 145.59,746.82 147.57,746.82 149.55,746.82 151.53,746.82 153.51,746.82 155.49,746.82 157.47,887.00 159.45,746.82 161.43,746.82 163.41,746.82 165.39,746.82 167.37,746.82 169.35,746.82 171.33,746.82 173.31,746.82 175.29,746.82 177.27,887.00 179.25,887.00 181.23,887.00 183.21,887.00 185.19,887.00 187.17,887.00 189.15,887.00 191.13,887.00 193.11,887.00 195.09,887.00 197.07,887.00 199.05,887.00 201.03,887.00 203.01,887.00 204.98,887.00 206.96,887.00 208.94,887.00 210.92,887.00 212.90,887.00 214.88,887.00 216.86,887.00 218.84,887.00 220.82,887.00 222.80,746.82 224.78,746.82 226.76,746.82 228.74,746.82 230.72,746.82 232.70,746.82 234.68,746.82 236.66,746.82 238.64,746.82 240.62,746.82 242.60,746.82 244.58,746.82 246.56,746.82 248.54,746.82 250.52,746.82 252.50,746.82 254.48,746.82 256.46,746.82 258.44,746.82 260.42,746.82 262.40,746.82 264.38,746.82 266.36,746.82 268.34,746.82 270.31,746.82 272.29,746.82 274.27,746.82 276.25,746.82 278.23,746.82 280.21,746.82 282.19,746.82 284.17,746.82 286.15,746.82 288.13,746.82 290.11,746.82 292.09,746.82 294.07,746.82 296.05,746.82 298.03,746.82 300.01,746.82 301.99,746.82 303.97,746.82 305.95,746.82 307.93,746.82 309.91,746.82 311.89,746.82 313.87,746.82 315.85,746.82 317.83,746.82 319.81,746.82 321.79,746.82 323.77,746.82 325.75,746.82 327.73,746.82 329.71,746.82 331.69,746.82 333.66,746.82 335.64,746.82 337.62,746.82 339.60,746.82 341.58,746.82 343.56,746.82 345.54,746.82 347.52,746.82 349.50,746.82 351.48,746.82 353.46,746.82 355.44,746.82 357.42,746.82 359.40,746.82 361.38,746.82 363.36,746.82 365.34,746.82 367.32,746.82 369.30,746.82 371.28,746.82 373.26,746.82 375.24,746.82 377.22,746.82 379.20,746.82 381.18,746.82 383.16,746.82 385.14,746.82 387.12,746.82 389.10,746.82 391.08,746.82 393.06,746.82 395.04,746.82 397.02,746.82 398.99,746.82 400.97,746.82 402.95,746.82 404.93,746.82 406.91,746.82 408.89,746.82 410.87,746.82 412.85,746.82 414.83,746.82 416.81,746.82 418.79,746.82 420.77,746.82 422.75,746.82 424.73,746.82 426.71,746.82 428.69,746.82 430.67,746.82 432.65,746.82 434.63,746.82 436.61,746.82 438.59,746.82 440.57,746.82 442.55,746.82 444.53,746.82 446.51,746.82 448.49,746.82 450.47,746.82 452.45,746.82 454.43,746.82 456.41,746.82 458.39,746.82 460.37,746.82 462.35,746.82 464.32,746.82 466.30,767.09 468.28,746.82 470.26,746.82 472.24,767.02 474.22,767.09 476.20,887.00 478.18,887.00 480.16,887.00 482.14,887.00 484.12,887.00 486.10,887.00 488.08,887.00 490.06,887.00 492.04,887.00 494.02,887.00 496.00,767.02" fill="none" stroke="#2563eb" stroke-width="3.8" stroke-opacity="1" stroke-linejoin="round" stroke-linecap="round"/>
<circle cx="106.00" cy="746.82" r="3.0" fill="#2563eb" fill-opacity="1"/>
<circle cx="127.78" cy="887.00" r="3.0" fill="#2563eb" fill-opacity="1"/>
<circle cx="149.55" cy="746.82" r="3.0" fill="#2563eb" fill-opacity="1"/>
<circle cx="171.33" cy="746.82" r="3.0" fill="#2563eb" fill-opacity="1"/>
<circle cx="193.11" cy="887.00" r="3.0" fill="#2563eb" fill-opacity="1"/>
<circle cx="214.88" cy="887.00" r="3.0" fill="#2563eb" fill-opacity="1"/>
<circle cx="236.66" cy="746.82" r="3.0" fill="#2563eb" fill-opacity="1"/>
<circle cx="258.44" cy="746.82" r="3.0" fill="#2563eb" fill-opacity="1"/>
<circle cx="280.21" cy="746.82" r="3.0" fill="#2563eb" fill-opacity="1"/>
<circle cx="301.99" cy="746.82" r="3.0" fill="#2563eb" fill-opacity="1"/>
<circle cx="323.77" cy="746.82" r="3.0" fill="#2563eb" fill-opacity="1"/>
<circle cx="345.54" cy="746.82" r="3.0" fill="#2563eb" fill-opacity="1"/>
<circle cx="367.32" cy="746.82" r="3.0" fill="#2563eb" fill-opacity="1"/>
<circle cx="389.10" cy="746.82" r="3.0" fill="#2563eb" fill-opacity="1"/>
<circle cx="410.87" cy="746.82" r="3.0" fill="#2563eb" fill-opacity="1"/>
<circle cx="432.65" cy="746.82" r="3.0" fill="#2563eb" fill-opacity="1"/>
<circle cx="454.43" cy="746.82" r="3.0" fill="#2563eb" fill-opacity="1"/>
<circle cx="476.20" cy="887.00" r="3.0" fill="#2563eb" fill-opacity="1"/>
<polyline points="106.00,755.79 107.98,756.11 109.96,756.19 111.94,755.47 113.92,755.79 115.90,756.11 117.88,887.00 119.86,755.47 121.84,887.00 123.82,887.00 125.80,887.00 127.78,755.47 129.76,755.79 131.74,756.11 133.72,756.19 135.70,755.47 137.68,887.00 139.65,756.11 141.63,756.19 143.61,755.47 145.59,755.79 147.57,756.11 149.55,887.00 151.53,755.47 153.51,755.79 155.49,887.00 157.47,887.00 159.45,755.47 161.43,755.79 163.41,887.00 165.39,756.19 167.37,887.00 169.35,755.79 171.33,756.11 173.31,756.19 175.29,755.47 177.27,755.79 179.25,887.00 181.23,756.19 183.21,887.00 185.19,755.79 187.17,756.11 189.15,756.19 191.13,887.00 193.11,755.79 195.09,887.00 197.07,887.00 199.05,755.47 201.03,755.79 203.01,756.11 204.98,755.79 206.96,756.11 208.94,756.19 210.92,755.47 212.90,755.79 214.88,756.11 216.86,756.19 218.84,755.47 220.82,755.79 222.80,756.11 224.78,756.19 226.76,755.47 228.74,755.79 230.72,756.11 232.70,756.19 234.68,755.47 236.66,755.79 238.64,756.11 240.62,887.00 242.60,755.47 244.58,755.79 246.56,756.11 248.54,756.19 250.52,887.00 252.50,755.79 254.48,756.11 256.46,756.19 258.44,755.47 260.42,755.79 262.40,756.11 264.38,756.19 266.36,755.47 268.34,755.79 270.31,756.11 272.29,756.19 274.27,887.00 276.25,755.79 278.23,756.11 280.21,756.19 282.19,887.00 284.17,887.00 286.15,887.00 288.13,756.19 290.11,755.47 292.09,755.79 294.07,756.11 296.05,756.19 298.03,755.47 300.01,755.79 301.99,756.11 303.97,755.79 305.95,756.11 307.93,756.19 309.91,755.47 311.89,755.79 313.87,756.11 315.85,756.19 317.83,755.47 319.81,755.79 321.79,756.11 323.77,756.19 325.75,755.47 327.73,755.79 329.71,756.11 331.69,756.19 333.66,755.47 335.64,755.79 337.62,756.11 339.60,756.19 341.58,755.47 343.56,755.79 345.54,756.11 347.52,756.19 349.50,755.47 351.48,755.79 353.46,756.11 355.44,756.19 357.42,887.00 359.40,887.00 361.38,756.11 363.36,756.19 365.34,755.47 367.32,755.79 369.30,756.11 371.28,756.19 373.26,755.47 375.24,755.79 377.22,756.11 379.20,756.19 381.18,755.47 383.16,755.79 385.14,756.11 387.12,756.19 389.10,755.47 391.08,755.79 393.06,756.11 395.04,887.00 397.02,755.47 398.99,755.79 400.97,756.11 402.95,755.79 404.93,756.11 406.91,756.19 408.89,755.47 410.87,755.79 412.85,756.11 414.83,756.19 416.81,755.47 418.79,755.79 420.77,756.11 422.75,756.19 424.73,755.47 426.71,755.79 428.69,756.11 430.67,756.19 432.65,755.47 434.63,755.79 436.61,756.11 438.59,756.19 440.57,755.47 442.55,755.79 444.53,756.11 446.51,755.47 448.49,755.79 450.47,756.11 452.45,756.19 454.43,887.00 456.41,756.11 458.39,756.19 460.37,755.47 462.35,755.79 464.32,756.11 466.30,756.19 468.28,755.47 470.26,755.79 472.24,756.11 474.22,756.19 476.20,755.47 478.18,755.79 480.16,887.00 482.14,756.19 484.12,755.47 486.10,755.79 488.08,756.11 490.06,756.19 492.04,755.47 494.02,755.79 496.00,756.11" fill="none" stroke="#f97316" stroke-width="1.8" stroke-opacity="0.45" stroke-linejoin="round" stroke-linecap="round"/>
<circle cx="106.00" cy="755.79" r="1.8" fill="#f97316" fill-opacity="0.55"/>
<circle cx="127.78" cy="755.47" r="1.8" fill="#f97316" fill-opacity="0.55"/>
<circle cx="149.55" cy="887.00" r="1.8" fill="#f97316" fill-opacity="0.55"/>
<circle cx="171.33" cy="756.11" r="1.8" fill="#f97316" fill-opacity="0.55"/>
<circle cx="193.11" cy="755.79" r="1.8" fill="#f97316" fill-opacity="0.55"/>
<circle cx="214.88" cy="756.11" r="1.8" fill="#f97316" fill-opacity="0.55"/>
<circle cx="236.66" cy="755.79" r="1.8" fill="#f97316" fill-opacity="0.55"/>
<circle cx="258.44" cy="755.47" r="1.8" fill="#f97316" fill-opacity="0.55"/>
<circle cx="280.21" cy="756.19" r="1.8" fill="#f97316" fill-opacity="0.55"/>
<circle cx="301.99" cy="756.11" r="1.8" fill="#f97316" fill-opacity="0.55"/>
<circle cx="323.77" cy="756.19" r="1.8" fill="#f97316" fill-opacity="0.55"/>
<circle cx="345.54" cy="756.11" r="1.8" fill="#f97316" fill-opacity="0.55"/>
<circle cx="367.32" cy="755.79" r="1.8" fill="#f97316" fill-opacity="0.55"/>
<circle cx="389.10" cy="755.47" r="1.8" fill="#f97316" fill-opacity="0.55"/>
<circle cx="410.87" cy="755.79" r="1.8" fill="#f97316" fill-opacity="0.55"/>
<circle cx="432.65" cy="755.47" r="1.8" fill="#f97316" fill-opacity="0.55"/>
<circle cx="454.43" cy="887.00" r="1.8" fill="#f97316" fill-opacity="0.55"/>
<circle cx="476.20" cy="755.47" r="1.8" fill="#f97316" fill-opacity="0.55"/>
<text x="496" y="912" class="tick" text-anchor="end">Round sequence; higher is better</text>
<rect x="830" y="28" width="14" height="14" rx="3" fill="#2563eb"/>
<text x="852" y="40" class="label">Infron</text>
<rect x="830" y="52" width="14" height="14" rx="3" fill="#f97316"/>
<text x="852" y="64" class="label">OpenRouter</text>
</svg>