<svg xmlns="http://www.w3.org/2000/svg" width="1080" height="360" viewBox="0 0 1080 360"><style>text{font-family:-apple-system,BlinkMacSystemFont,'Segoe UI',sans-serif;fill:#111827}.title{font-size:22px;font-weight:700}.label{font-size:13px;fill:#374151}.tick{font-size:12px;fill:#6b7280}.value{font-size:12px;fill:#111827}</style><rect width="100%" height="100%" fill="#ffffff"/>
<text x="48" y="34" class="title">A/B Pairing and Controlled-Variable Filtering</text>
<text x="48" y="58" class="label">Keep only paired samples where first/second prompt tokens are exactly equal on both A/B sides.</text>
<rect x="70" y="95" width="270" height="118" rx="8" fill="#eff6ff" stroke="#93c5fd"/>
<text x="205" y="128" class="label" font-weight="700" text-anchor="middle">Infron pair</text>
<text x="205" y="158" class="tick" text-anchor="middle">first.prompt_tokens = A1</text>
<text x="205" y="184" class="tick" text-anchor="middle">second.prompt_tokens = A2</text>
<rect x="70" y="230" width="270" height="64" rx="8" fill="#f8fafc" stroke="#cbd5e1"/>
<text x="205" y="268" class="label" text-anchor="middle">HTTP 200 + usage.prompt_tokens &gt; 0</text>
<rect x="410" y="95" width="270" height="118" rx="8" fill="#fff7ed" stroke="#fdba74"/>
<text x="545" y="128" class="label" font-weight="700" text-anchor="middle">OpenRouter pair</text>
<text x="545" y="158" class="tick" text-anchor="middle">first.prompt_tokens = B1</text>
<text x="545" y="184" class="tick" text-anchor="middle">second.prompt_tokens = B2</text>
<rect x="410" y="230" width="270" height="64" rx="8" fill="#f8fafc" stroke="#cbd5e1"/>
<text x="545" y="268" class="label" text-anchor="middle">HTTP 200 + usage.prompt_tokens &gt; 0</text>
<path d="M680,154 L760,154" stroke="#64748b" stroke-width="2" fill="none"/><path d="M752,149 L760,154 L752,159" stroke="#64748b" stroke-width="2" fill="none"/>
<rect x="760" y="105" width="250" height="98" rx="8" fill="#f0fdf4" stroke="#86efac"/>
<text x="885" y="138" class="label" font-weight="700" text-anchor="middle">Included</text>
<text x="885" y="166" class="tick" text-anchor="middle">(A1, A2) == (B1, B2)</text>
<text x="885" y="190" class="tick" text-anchor="middle">Otherwise drop pair</text>
<text x="70" y="330" class="label">This filter avoids confounding from tokenization, server-side wrapping, and abnormal usage reporting.</text>
</svg>