<svg xmlns="http://www.w3.org/2000/svg" width="1120" height="700" viewBox="0 0 1120 700"><style>text{font-family:-apple-system,BlinkMacSystemFont,'Segoe UI',sans-serif;fill:#111827}.title{font-size:22px;font-weight:700}.label{font-size:13px;fill:#374151}.tick{font-size:12px;fill:#6b7280}.value{font-size:12px;fill:#111827}</style><rect width="100%" height="100%" fill="#ffffff"/>
<text x="48" y="38" class="title">Conclusion Overview: Core Metrics and Routing-Mode Winners</text>
<text x="48" y="64" class="label">Based on strict A/B paired samples; each cell shows the better platform under the same routing sort.</text>
<rect x="48" y="96" width="196" height="118" rx="10" fill="#f8fafc" stroke="#dbe3ef"/>
<text x="66" y="124" class="label" font-weight="800">Cache hit rate</text>
<text x="66" y="148" class="value" font-size="11" font-weight="800" fill="#2563eb">Infron wins 3/3</text>
<text x="66" y="168" class="value" font-size="11" font-weight="800" fill="#2563eb">Max edge 181.90%</text>
<text x="66" y="200" class="tick">Higher is better</text>
<rect x="259" y="96" width="196" height="118" rx="10" fill="#f8fafc" stroke="#dbe3ef"/>
<text x="277" y="124" class="label" font-weight="800">Observed cost</text>
<text x="277" y="148" class="value" font-size="11" font-weight="800" fill="#2563eb">Infron wins 2/3</text>
<text x="277" y="168" class="value" font-size="11" font-weight="800" fill="#2563eb">Max edge 85.23%</text>
<text x="277" y="200" class="tick">Lower is better</text>
<rect x="470" y="96" width="196" height="118" rx="10" fill="#f8fafc" stroke="#dbe3ef"/>
<text x="488" y="124" class="label" font-weight="800">Throughput</text>
<text x="488" y="148" class="value" font-size="11" font-weight="800" fill="#f97316">OpenRouter wins 3/3</text>
<text x="488" y="168" class="value" font-size="11" font-weight="800" fill="#f97316">Max edge 75.62%</text>
<text x="488" y="200" class="tick">Higher is better</text>
<rect x="681" y="96" width="196" height="118" rx="10" fill="#f8fafc" stroke="#dbe3ef"/>
<text x="699" y="124" class="label" font-weight="800">Latency</text>
<text x="699" y="148" class="value" font-size="11" font-weight="800" fill="#f97316">OpenRouter wins 2/3</text>
<text x="699" y="168" class="value" font-size="11" font-weight="800" fill="#f97316">Max edge 59.13%</text>
<text x="699" y="200" class="tick">Lower is better</text>
<rect x="892" y="96" width="196" height="118" rx="10" fill="#f8fafc" stroke="#dbe3ef"/>
<text x="910" y="124" class="label" font-weight="800">TTFT</text>
<text x="910" y="148" class="value" font-size="11" font-weight="800" fill="#f97316">OpenRouter wins 2/3</text>
<text x="910" y="168" class="value" font-size="11" font-weight="800" fill="#f97316">Max edge 54.10%</text>
<text x="910" y="200" class="tick">Lower is better</text>
<rect x="72" y="284" width="150" height="58" fill="#eef2ff" stroke="#c7d2fe"/>
<text x="147.0" y="320" class="label" font-weight="800" text-anchor="middle">Routing mode</text>
<rect x="222" y="284" width="170" height="58" fill="#eef2ff" stroke="#c7d2fe"/>
<text x="307.0" y="320" class="label" font-weight="800" text-anchor="middle">Cache hit</text>
<rect x="392" y="284" width="170" height="58" fill="#eef2ff" stroke="#c7d2fe"/>
<text x="477.0" y="320" class="label" font-weight="800" text-anchor="middle">Cost</text>
<rect x="562" y="284" width="170" height="58" fill="#eef2ff" stroke="#c7d2fe"/>
<text x="647.0" y="320" class="label" font-weight="800" text-anchor="middle">Throughput</text>
<rect x="732" y="284" width="170" height="58" fill="#eef2ff" stroke="#c7d2fe"/>
<text x="817.0" y="320" class="label" font-weight="800" text-anchor="middle">Latency</text>
<rect x="902" y="284" width="170" height="58" fill="#eef2ff" stroke="#c7d2fe"/>
<text x="987.0" y="320" class="label" font-weight="800" text-anchor="middle">TTFT</text>
<rect x="72" y="342" width="150" height="58" fill="#ffffff" stroke="#e5e7eb"/>
<text x="90" y="377" class="label" font-weight="800">Throughput First</text>
<rect x="222" y="342" width="170" height="58" fill="#eff6ff" stroke="#93c5fd"/>
<text x="307.0" y="367" class="label" font-weight="900" text-anchor="middle" fill="#2563eb">Infron</text>
<text x="307.0" y="386" class="tick" font-weight="800" text-anchor="middle" fill="#2563eb">37.39% higher</text>
<rect x="392" y="342" width="170" height="58" fill="#fff7ed" stroke="#fdba74"/>
<text x="477.0" y="367" class="label" font-weight="900" text-anchor="middle" fill="#f97316">OpenRouter</text>
<text x="477.0" y="386" class="tick" font-weight="800" text-anchor="middle" fill="#f97316">15.22% lower</text>
<rect x="562" y="342" width="170" height="58" fill="#fff7ed" stroke="#fdba74"/>
<text x="647.0" y="367" class="label" font-weight="900" text-anchor="middle" fill="#f97316">OpenRouter</text>
<text x="647.0" y="386" class="tick" font-weight="800" text-anchor="middle" fill="#f97316">9.70% higher</text>
<rect x="732" y="342" width="170" height="58" fill="#fff7ed" stroke="#fdba74"/>
<text x="817.0" y="367" class="label" font-weight="900" text-anchor="middle" fill="#f97316">OpenRouter</text>
<text x="817.0" y="386" class="tick" font-weight="800" text-anchor="middle" fill="#f97316">59.13% lower</text>
<rect x="902" y="342" width="170" height="58" fill="#fff7ed" stroke="#fdba74"/>
<text x="987.0" y="367" class="label" font-weight="900" text-anchor="middle" fill="#f97316">OpenRouter</text>
<text x="987.0" y="386" class="tick" font-weight="800" text-anchor="middle" fill="#f97316">54.10% lower</text>
<rect x="72" y="400" width="150" height="58" fill="#ffffff" stroke="#e5e7eb"/>
<text x="90" y="435" class="label" font-weight="800">Price First</text>
<rect x="222" y="400" width="170" height="58" fill="#eff6ff" stroke="#93c5fd"/>
<text x="307.0" y="425" class="label" font-weight="900" text-anchor="middle" fill="#2563eb">Infron</text>
<text x="307.0" y="444" class="tick" font-weight="800" text-anchor="middle" fill="#2563eb">8.85% higher</text>
<rect x="392" y="400" width="170" height="58" fill="#eff6ff" stroke="#93c5fd"/>
<text x="477.0" y="425" class="label" font-weight="900" text-anchor="middle" fill="#2563eb">Infron</text>
<text x="477.0" y="444" class="tick" font-weight="800" text-anchor="middle" fill="#2563eb">4.01% lower</text>
<rect x="562" y="400" width="170" height="58" fill="#fff7ed" stroke="#fdba74"/>
<text x="647.0" y="425" class="label" font-weight="900" text-anchor="middle" fill="#f97316">OpenRouter</text>
<text x="647.0" y="444" class="tick" font-weight="800" text-anchor="middle" fill="#f97316">42.72% higher</text>
<rect x="732" y="400" width="170" height="58" fill="#fff7ed" stroke="#fdba74"/>
<text x="817.0" y="425" class="label" font-weight="900" text-anchor="middle" fill="#f97316">OpenRouter</text>
<text x="817.0" y="444" class="tick" font-weight="800" text-anchor="middle" fill="#f97316">37.15% lower</text>
<rect x="902" y="400" width="170" height="58" fill="#fff7ed" stroke="#fdba74"/>
<text x="987.0" y="425" class="label" font-weight="900" text-anchor="middle" fill="#f97316">OpenRouter</text>
<text x="987.0" y="444" class="tick" font-weight="800" text-anchor="middle" fill="#f97316">41.06% lower</text>
<rect x="72" y="458" width="150" height="58" fill="#ffffff" stroke="#e5e7eb"/>
<text x="90" y="493" class="label" font-weight="800">Latency First</text>
<rect x="222" y="458" width="170" height="58" fill="#eff6ff" stroke="#93c5fd"/>
<text x="307.0" y="483" class="label" font-weight="900" text-anchor="middle" fill="#2563eb">Infron</text>
<text x="307.0" y="502" class="tick" font-weight="800" text-anchor="middle" fill="#2563eb">181.90% higher</text>
<rect x="392" y="458" width="170" height="58" fill="#eff6ff" stroke="#93c5fd"/>
<text x="477.0" y="483" class="label" font-weight="900" text-anchor="middle" fill="#2563eb">Infron</text>
<text x="477.0" y="502" class="tick" font-weight="800" text-anchor="middle" fill="#2563eb">85.23% lower</text>
<rect x="562" y="458" width="170" height="58" fill="#fff7ed" stroke="#fdba74"/>
<text x="647.0" y="483" class="label" font-weight="900" text-anchor="middle" fill="#f97316">OpenRouter</text>
<text x="647.0" y="502" class="tick" font-weight="800" text-anchor="middle" fill="#f97316">75.62% higher</text>
<rect x="732" y="458" width="170" height="58" fill="#eff6ff" stroke="#93c5fd"/>
<text x="817.0" y="483" class="label" font-weight="900" text-anchor="middle" fill="#2563eb">Infron</text>
<text x="817.0" y="502" class="tick" font-weight="800" text-anchor="middle" fill="#2563eb">59.72% lower</text>
<rect x="902" y="458" width="170" height="58" fill="#eff6ff" stroke="#93c5fd"/>
<text x="987.0" y="483" class="label" font-weight="900" text-anchor="middle" fill="#2563eb">Infron</text>
<text x="987.0" y="502" class="tick" font-weight="800" text-anchor="middle" fill="#2563eb">55.81% lower</text>
<text x="72" y="600" class="label">How to read: each row shows winners for one routing mode; higher is better for cache and throughput; lower is better for cost, latency, and TTFT.</text>
<rect x="820" y="618" width="14" height="14" rx="3" fill="#2563eb"/>
<text x="842" y="630" class="label">Infron</text>
<rect x="820" y="642" width="14" height="14" rx="3" fill="#f97316"/>
<text x="842" y="654" class="label">OpenRouter</text>
</svg>