<svg xmlns="http://www.w3.org/2000/svg" width="1120" height="520" viewBox="0 0 1120 520"><style>text{font-family:-apple-system,BlinkMacSystemFont,'Segoe UI',sans-serif;fill:#111827}.title{font-size:22px;font-weight:700}.label{font-size:13px;fill:#374151}.tick{font-size:12px;fill:#6b7280}.value{font-size:12px;fill:#111827}</style><rect width="100%" height="100%" fill="#ffffff"/>
<text x="48" y="36" class="title">Infron 多 服务商 路由与缓存控制面</text>
<text x="48" y="62" class="label">OpenAI 兼容 API 将请求规范化后，在健康、成本、吞吐、端到端E2E时延和缓存亲和性之间做路由决策。</text>
<rect x="48" y="120" width="170" height="78" rx="8" fill="#eff6ff" stroke="#93c5fd" stroke-width="1.5"/>
<text x="133.0" y="151" class="label" font-weight="800" text-anchor="middle">Client / SDK</text>
<text x="133.0" y="176" class="tick" text-anchor="middle">chat.completions</text>
<rect x="282" y="88" width="210" height="78" rx="8" fill="#f8fafc" stroke="#cbd5e1" stroke-width="1.5"/>
<text x="387.0" y="119" class="label" font-weight="800" text-anchor="middle">API Gateway</text>
<text x="387.0" y="144" class="tick" text-anchor="middle">auth / 响应头 / usage</text>
<rect x="282" y="202" width="210" height="92" rx="8" fill="#f8fafc" stroke="#cbd5e1" stroke-width="1.5"/>
<text x="387.0" y="233" class="label" font-weight="800" text-anchor="middle">Request Normalizer</text>
<text x="387.0" y="258" class="tick" text-anchor="middle">model / 提示词 / sort</text>
<rect x="562" y="88" width="230" height="92" rx="8" fill="#fff7ed" stroke="#fdba74" stroke-width="1.5"/>
<text x="677.0" y="119" class="label" font-weight="800" text-anchor="middle">路由策略引擎</text>
<text x="677.0" y="144" class="tick" text-anchor="middle">sort + health + cost</text>
<rect x="562" y="216" width="230" height="92" rx="8" fill="#fefce8" stroke="#fde047" stroke-width="1.5"/>
<text x="677.0" y="247" class="label" font-weight="800" text-anchor="middle">缓存亲和性 Layer</text>
<text x="677.0" y="272" class="tick" text-anchor="middle">prefix hash / stick key</text>
<rect x="862" y="76" width="190" height="70" rx="8" fill="#f0fdf4" stroke="#86efac" stroke-width="1.5"/>
<text x="957.0" y="107" class="label" font-weight="800" text-anchor="middle">服务商 A</text>
<text x="957.0" y="132" class="tick" text-anchor="middle">缓存域 A</text>
<rect x="862" y="176" width="190" height="70" rx="8" fill="#f0fdf4" stroke="#86efac" stroke-width="1.5"/>
<text x="957.0" y="207" class="label" font-weight="800" text-anchor="middle">服务商 B</text>
<text x="957.0" y="232" class="tick" text-anchor="middle">缓存域 B</text>
<rect x="862" y="276" width="190" height="70" rx="8" fill="#f0fdf4" stroke="#86efac" stroke-width="1.5"/>
<text x="957.0" y="307" class="label" font-weight="800" text-anchor="middle">服务商 C</text>
<text x="957.0" y="332" class="tick" text-anchor="middle">缓存域 C</text>
<rect x="562" y="368" width="230" height="70" rx="8" fill="#f8fafc" stroke="#cbd5e1" stroke-width="1.5"/>
<text x="677.0" y="399" class="label" font-weight="800" text-anchor="middle">Telemetry</text>
<text x="677.0" y="424" class="tick" text-anchor="middle">usage / cost / 服务商</text>
<path d="M218,158 L282,127" stroke="#64748b" stroke-width="2" fill="none"/><path d="M274,122 L282,127 L274,132" stroke="#64748b" stroke-width="2" fill="none"/>
<path d="M218,158 L282,248" stroke="#64748b" stroke-width="2" fill="none"/><path d="M274,243 L282,248 L274,253" stroke="#64748b" stroke-width="2" fill="none"/>
<path d="M492,127 L562,134" stroke="#64748b" stroke-width="2" fill="none"/><path d="M554,129 L562,134 L554,139" stroke="#64748b" stroke-width="2" fill="none"/>
<path d="M492,248 L562,262" stroke="#64748b" stroke-width="2" fill="none"/><path d="M554,257 L562,262 L554,267" stroke="#64748b" stroke-width="2" fill="none"/>
<path d="M792,134 L862,111" stroke="#64748b" stroke-width="2" fill="none"/><path d="M854,106 L862,111 L854,116" stroke="#64748b" stroke-width="2" fill="none"/>
<path d="M792,262 L862,211" stroke="#64748b" stroke-width="2" fill="none"/><path d="M854,206 L862,211 L854,216" stroke="#64748b" stroke-width="2" fill="none"/>
<path d="M792,262 L862,311" stroke="#64748b" stroke-width="2" fill="none"/><path d="M854,306 L862,311 L854,316" stroke="#64748b" stroke-width="2" fill="none"/>
<path d="M980,346 L792,403" stroke="#64748b" stroke-width="2" fill="none"/><path d="M784,398 L792,403 L784,408" stroke="#64748b" stroke-width="2" fill="none"/>
<text x="48" y="470" class="label">核心点：缓存状态通常位于具体 服务商/缓存域 内；路由稳定性会直接影响 缓存读取 tokens。</text>
</svg>