<svg xmlns="http://www.w3.org/2000/svg" width="1080" height="1000" viewBox="0 0 1080 1000"><style>text{font-family:-apple-system,BlinkMacSystemFont,'Segoe UI',sans-serif;fill:#111827}.title{font-size:22px;font-weight:700}.label{font-size:13px;fill:#374151}.tick{font-size:12px;fill:#6b7280}.value{font-size:12px;fill:#111827}</style><rect width="100%" height="100%" fill="#ffffff"/>
<text x="48" y="34" class="title">Latency First Routing Mode: Metric Generation Curves</text>
<text x="48" y="58" class="label">Metrics are plotted by group/round order to show variation behind aggregate means.</text>
<rect x="48" y="76" width="472" height="245" rx="8" fill="#ffffff" stroke="#dbe3ef"/>
<text x="66" y="104" class="label" font-weight="700">E2E latency / request (incl. reasoning)</text>
<rect x="366" y="88" width="136" height="26" rx="13" fill="#fef3c7" stroke="#f59e0b" stroke-width="1.4"/>
<text x="434" y="106" class="tick" font-weight="800" text-anchor="middle" fill="#92400e">Mean winner: Infron</text>
<line x1="106" y1="281.00" x2="496" y2="281.00" stroke="#e5e7eb"/>
<text x="98" y="285.00" class="tick" text-anchor="end">0.0</text>
<line x1="106" y1="228.67" x2="496" y2="228.67" stroke="#e5e7eb"/>
<text x="98" y="232.67" class="tick" text-anchor="end">5157</text>
<line x1="106" y1="176.33" x2="496" y2="176.33" stroke="#e5e7eb"/>
<text x="98" y="180.33" class="tick" text-anchor="end">10313</text>
<line x1="106" y1="124.00" x2="496" y2="124.00" stroke="#e5e7eb"/>
<text x="98" y="128.00" class="tick" text-anchor="end">15470</text>
<polyline points="106.00,261.44 109.61,263.10 113.22,262.97 116.83,261.75 120.44,263.60 124.06,262.27 127.67,264.00 131.28,259.64 134.89,256.41 138.50,263.14 142.11,263.40 145.72,262.13 149.33,262.92 152.94,260.92 156.56,262.24 160.17,263.52 163.78,262.57 167.39,262.29 171.00,263.30 174.61,263.37 178.22,263.43 181.83,263.75 185.44,261.14 189.06,262.79 192.67,262.07 196.28,264.02 199.89,262.41 203.50,262.53 207.11,257.82 210.72,264.67 214.33,262.30 217.94,258.33 221.56,262.63 225.17,263.78 228.78,259.68 232.39,264.28 236.00,261.78 239.61,260.41 243.22,261.68 246.83,263.65 250.44,263.60 254.06,262.53 257.67,262.66 261.28,262.52 264.89,263.03 268.50,263.98 272.11,259.30 275.72,264.37 279.33,264.27 282.94,264.25 286.56,261.64 290.17,264.27 293.78,257.77 297.39,262.44 301.00,257.55 304.61,257.02 308.22,255.96 311.83,258.17 315.44,263.17 319.06,262.23 322.67,261.93 326.28,262.08 329.89,262.18 333.50,258.09 337.11,264.08 340.72,262.11 344.33,262.80 347.94,264.35 351.56,261.28 355.17,264.30 358.78,263.69 362.39,262.92 366.00,262.96 369.61,260.95 373.22,262.14 376.83,255.36 380.44,260.76 384.06,263.10 387.67,263.68 391.28,260.93 394.89,261.84 398.50,262.05 402.11,263.84 405.72,261.74 409.33,262.42 412.94,264.35 416.56,260.98 420.17,262.58 423.78,264.05 427.39,263.86 431.00,262.59 434.61,262.07 438.22,262.84 441.83,263.01 445.44,263.51 449.06,264.77 452.67,262.59 456.28,263.35 459.89,262.02 463.50,264.10 467.11,262.66 470.72,263.41 474.33,263.96 477.94,261.77 481.56,264.52 485.17,263.37 488.78,262.39 492.39,263.23 496.00,262.80" fill="none" stroke="#2563eb" stroke-width="3.8" stroke-opacity="1" stroke-linejoin="round" stroke-linecap="round"/>
<circle cx="106.00" cy="261.44" r="3.0" fill="#2563eb" fill-opacity="1"/>
<circle cx="127.67" cy="264.00" r="3.0" fill="#2563eb" fill-opacity="1"/>
<circle cx="149.33" cy="262.92" r="3.0" fill="#2563eb" fill-opacity="1"/>
<circle cx="171.00" cy="263.30" r="3.0" fill="#2563eb" fill-opacity="1"/>
<circle cx="192.67" cy="262.07" r="3.0" fill="#2563eb" fill-opacity="1"/>
<circle cx="214.33" cy="262.30" r="3.0" fill="#2563eb" fill-opacity="1"/>
<circle cx="236.00" cy="261.78" r="3.0" fill="#2563eb" fill-opacity="1"/>
<circle cx="257.67" cy="262.66" r="3.0" fill="#2563eb" fill-opacity="1"/>
<circle cx="279.33" cy="264.27" r="3.0" fill="#2563eb" fill-opacity="1"/>
<circle cx="301.00" cy="257.55" r="3.0" fill="#2563eb" fill-opacity="1"/>
<circle cx="322.67" cy="261.93" r="3.0" fill="#2563eb" fill-opacity="1"/>
<circle cx="344.33" cy="262.80" r="3.0" fill="#2563eb" fill-opacity="1"/>
<circle cx="366.00" cy="262.96" r="3.0" fill="#2563eb" fill-opacity="1"/>
<circle cx="387.67" cy="263.68" r="3.0" fill="#2563eb" fill-opacity="1"/>
<circle cx="409.33" cy="262.42" r="3.0" fill="#2563eb" fill-opacity="1"/>
<circle cx="431.00" cy="262.59" r="3.0" fill="#2563eb" fill-opacity="1"/>
<circle cx="452.67" cy="262.59" r="3.0" fill="#2563eb" fill-opacity="1"/>
<circle cx="474.33" cy="263.96" r="3.0" fill="#2563eb" fill-opacity="1"/>
<circle cx="496.00" cy="262.80" r="3.0" fill="#2563eb" fill-opacity="1"/>
<polyline points="106.00,158.32 109.61,267.71 113.22,265.96 116.83,237.51 120.44,270.78 124.06,173.51 127.67,188.07 131.28,270.37 134.89,206.78 138.50,269.74 142.11,207.01 145.72,231.58 149.33,269.05 152.94,266.99 156.56,202.02 160.17,268.95 163.78,266.78 167.39,177.88 171.00,267.23 174.61,211.10 178.22,268.95 181.83,199.01 185.44,266.93 189.06,230.62 192.67,269.90 196.28,201.13 199.89,268.24 203.50,269.83 207.11,259.20 210.72,268.70 214.33,194.86 217.94,265.96 221.56,268.33 225.17,163.90 228.78,261.83 232.39,267.17 236.00,208.44 239.61,269.28 243.22,267.26 246.83,152.00 250.44,199.09 254.06,270.32 257.67,236.25 261.28,268.34 264.89,222.20 268.50,270.55 272.11,180.82 275.72,179.14 279.33,265.19 282.94,217.91 286.56,219.31 290.17,267.37 293.78,208.49 297.39,267.69 301.00,173.51 304.61,268.58 308.22,242.17 311.83,175.88 315.44,159.47 319.06,269.70 322.67,264.74 326.28,168.87 329.89,182.03 333.50,267.73 337.11,264.24 340.72,267.27 344.33,144.02 347.94,268.60 351.56,269.42 355.17,245.61 358.78,250.72 362.39,267.42 366.00,260.31 369.61,184.32 373.22,269.29 376.83,201.92 380.44,267.40 384.06,238.66 387.67,205.58 391.28,243.72 394.89,262.91 398.50,224.42 402.11,226.12 405.72,256.91 409.33,238.93 412.94,245.68 416.56,206.55 420.17,219.27 423.78,266.55 427.39,140.82 431.00,238.23 434.61,202.43 438.22,269.29 441.83,161.54 445.44,265.74 449.06,251.31 452.67,263.82 456.28,259.84 459.89,233.61 463.50,269.57 467.11,262.33 470.72,180.78 474.33,143.37 477.94,269.96 481.56,266.25 485.17,268.13 488.78,175.99 492.39,268.45 496.00,223.23" fill="none" stroke="#f97316" stroke-width="1.8" stroke-opacity="0.45" stroke-linejoin="round" stroke-linecap="round"/>
<circle cx="106.00" cy="158.32" r="1.8" fill="#f97316" fill-opacity="0.55"/>
<circle cx="127.67" cy="188.07" r="1.8" fill="#f97316" fill-opacity="0.55"/>
<circle cx="149.33" cy="269.05" r="1.8" fill="#f97316" fill-opacity="0.55"/>
<circle cx="171.00" cy="267.23" r="1.8" fill="#f97316" fill-opacity="0.55"/>
<circle cx="192.67" cy="269.90" r="1.8" fill="#f97316" fill-opacity="0.55"/>
<circle cx="214.33" cy="194.86" r="1.8" fill="#f97316" fill-opacity="0.55"/>
<circle cx="236.00" cy="208.44" r="1.8" fill="#f97316" fill-opacity="0.55"/>
<circle cx="257.67" cy="236.25" r="1.8" fill="#f97316" fill-opacity="0.55"/>
<circle cx="279.33" cy="265.19" r="1.8" fill="#f97316" fill-opacity="0.55"/>
<circle cx="301.00" cy="173.51" r="1.8" fill="#f97316" fill-opacity="0.55"/>
<circle cx="322.67" cy="264.74" r="1.8" fill="#f97316" fill-opacity="0.55"/>
<circle cx="344.33" cy="144.02" r="1.8" fill="#f97316" fill-opacity="0.55"/>
<circle cx="366.00" cy="260.31" r="1.8" fill="#f97316" fill-opacity="0.55"/>
<circle cx="387.67" cy="205.58" r="1.8" fill="#f97316" fill-opacity="0.55"/>
<circle cx="409.33" cy="238.93" r="1.8" fill="#f97316" fill-opacity="0.55"/>
<circle cx="431.00" cy="238.23" r="1.8" fill="#f97316" fill-opacity="0.55"/>
<circle cx="452.67" cy="263.82" r="1.8" fill="#f97316" fill-opacity="0.55"/>
<circle cx="474.33" cy="143.37" r="1.8" fill="#f97316" fill-opacity="0.55"/>
<circle cx="496.00" cy="223.23" r="1.8" fill="#f97316" fill-opacity="0.55"/>
<text x="496" y="306" class="tick" text-anchor="end">Round sequence; lower is better</text>
<rect x="560" y="76" width="472" height="245" rx="8" fill="#ffffff" stroke="#dbe3ef"/>
<text x="578" y="104" class="label" font-weight="700">Streaming TTFT / first response</text>
<rect x="878" y="88" width="136" height="26" rx="13" fill="#fef3c7" stroke="#f59e0b" stroke-width="1.4"/>
<text x="946" y="106" class="tick" font-weight="800" text-anchor="middle" fill="#92400e">Mean winner: Infron</text>
<line x1="618" y1="281.00" x2="1008" y2="281.00" stroke="#e5e7eb"/>
<text x="610" y="285.00" class="tick" text-anchor="end">0.0</text>
<line x1="618" y1="228.67" x2="1008" y2="228.67" stroke="#e5e7eb"/>
<text x="610" y="232.67" class="tick" text-anchor="end">4160</text>
<line x1="618" y1="176.33" x2="1008" y2="176.33" stroke="#e5e7eb"/>
<text x="610" y="180.33" class="tick" text-anchor="end">8319</text>
<line x1="618" y1="124.00" x2="1008" y2="124.00" stroke="#e5e7eb"/>
<text x="610" y="128.00" class="tick" text-anchor="end">12479</text>
<polyline points="618.00,260.46 621.61,262.86 625.22,262.53 628.83,261.54 632.44,263.04 636.06,262.21 639.67,263.61 643.28,258.41 646.89,255.87 650.50,262.46 654.11,263.25 657.72,261.39 661.33,261.86 664.94,261.92 668.56,261.51 672.17,263.50 675.78,262.68 679.39,261.15 683.00,262.56 686.61,262.67 690.22,262.71 693.83,263.15 697.44,259.32 701.06,261.78 704.67,261.24 708.28,263.18 711.89,261.71 715.50,262.21 719.11,256.51 722.72,264.52 726.33,261.74 729.94,256.45 733.56,262.60 737.17,262.84 740.78,259.02 744.39,263.53 748.00,262.58 751.61,259.58 755.22,261.07 758.83,262.78 762.44,262.82 766.06,262.37 769.67,261.70 773.28,262.09 776.89,262.16 780.50,263.34 784.11,259.56 787.72,263.75 791.33,263.72 794.94,264.03 798.56,260.59 802.17,263.65 805.78,257.85 809.39,261.41 813.00,256.19 816.61,254.77 820.22,254.78 823.83,257.98 827.44,262.07 831.06,262.13 834.67,261.71 838.28,261.14 841.89,261.49 845.50,256.17 849.11,263.22 852.72,261.65 856.33,262.32 859.94,263.98 863.56,260.84 867.17,263.75 870.78,263.36 874.39,262.11 878.00,262.32 881.61,261.32 885.22,261.69 888.83,253.13 892.44,260.29 896.06,263.38 899.67,262.69 903.28,260.23 906.89,262.52 910.50,261.27 914.11,262.85 917.72,260.57 921.33,261.83 924.94,263.59 928.56,262.53 932.17,261.82 935.78,263.51 939.39,263.45 943.00,262.03 946.61,261.04 950.22,261.79 953.83,262.29 957.44,262.82 961.06,264.00 964.67,261.92 968.28,262.77 971.89,262.45 975.50,263.53 979.11,263.23 982.72,263.83 986.33,263.58 989.94,261.20 993.56,263.92 997.17,263.06 1000.78,261.56 1004.39,262.64 1008.00,263.00" fill="none" stroke="#2563eb" stroke-width="3.8" stroke-opacity="1" stroke-linejoin="round" stroke-linecap="round"/>
<circle cx="618.00" cy="260.46" r="3.0" fill="#2563eb" fill-opacity="1"/>
<circle cx="639.67" cy="263.61" r="3.0" fill="#2563eb" fill-opacity="1"/>
<circle cx="661.33" cy="261.86" r="3.0" fill="#2563eb" fill-opacity="1"/>
<circle cx="683.00" cy="262.56" r="3.0" fill="#2563eb" fill-opacity="1"/>
<circle cx="704.67" cy="261.24" r="3.0" fill="#2563eb" fill-opacity="1"/>
<circle cx="726.33" cy="261.74" r="3.0" fill="#2563eb" fill-opacity="1"/>
<circle cx="748.00" cy="262.58" r="3.0" fill="#2563eb" fill-opacity="1"/>
<circle cx="769.67" cy="261.70" r="3.0" fill="#2563eb" fill-opacity="1"/>
<circle cx="791.33" cy="263.72" r="3.0" fill="#2563eb" fill-opacity="1"/>
<circle cx="813.00" cy="256.19" r="3.0" fill="#2563eb" fill-opacity="1"/>
<circle cx="834.67" cy="261.71" r="3.0" fill="#2563eb" fill-opacity="1"/>
<circle cx="856.33" cy="262.32" r="3.0" fill="#2563eb" fill-opacity="1"/>
<circle cx="878.00" cy="262.32" r="3.0" fill="#2563eb" fill-opacity="1"/>
<circle cx="899.67" cy="262.69" r="3.0" fill="#2563eb" fill-opacity="1"/>
<circle cx="921.33" cy="261.83" r="3.0" fill="#2563eb" fill-opacity="1"/>
<circle cx="943.00" cy="262.03" r="3.0" fill="#2563eb" fill-opacity="1"/>
<circle cx="964.67" cy="261.92" r="3.0" fill="#2563eb" fill-opacity="1"/>
<circle cx="986.33" cy="263.58" r="3.0" fill="#2563eb" fill-opacity="1"/>
<circle cx="1008.00" cy="263.00" r="3.0" fill="#2563eb" fill-opacity="1"/>
<polyline points="618.00,146.43 621.61,268.72 625.22,263.81 628.83,232.49 632.44,270.27 636.06,174.81 639.67,206.03 643.28,269.40 646.89,190.83 650.50,270.46 654.11,218.65 657.72,231.91 661.33,268.71 664.94,266.85 668.56,207.84 672.17,266.84 675.78,266.89 679.39,178.51 683.00,268.18 686.61,205.99 690.22,268.76 693.83,180.97 697.44,268.45 701.06,236.84 704.67,269.34 708.28,211.36 711.89,267.91 715.50,267.31 719.11,258.86 722.72,268.25 726.33,215.80 729.94,267.93 733.56,269.84 737.17,226.65 740.78,264.56 744.39,266.59 748.00,215.01 751.61,269.31 755.22,268.68 758.83,169.48 762.44,208.87 766.06,269.62 769.67,238.53 773.28,268.41 776.89,236.47 780.50,271.00 784.11,173.94 787.72,177.60 791.33,264.81 794.94,232.91 798.56,243.59 802.17,266.11 805.78,207.09 809.39,267.57 813.00,185.95 816.61,268.24 820.22,245.32 823.83,181.79 827.44,165.52 831.06,268.61 834.67,268.42 838.28,176.25 841.89,194.18 845.50,267.78 849.11,262.43 852.72,265.19 856.33,163.25 859.94,268.70 863.56,269.38 867.17,240.05 870.78,257.25 874.39,268.18 878.00,257.52 881.61,172.05 885.22,268.36 888.83,187.45 892.44,268.44 896.06,256.16 899.67,190.29 903.28,255.56 906.89,265.73 910.50,232.70 914.11,221.70 917.72,256.72 921.33,249.70 924.94,261.52 928.56,211.80 932.17,235.57 935.78,268.09 939.39,140.82 943.00,231.66 946.61,189.17 950.22,268.12 953.83,176.61 957.44,264.70 961.06,255.41 964.67,264.03 968.28,266.69 971.89,249.45 975.50,269.51 979.11,264.98 982.72,175.96 986.33,149.32 989.94,269.58 993.56,264.56 997.17,267.80 1000.78,193.12 1004.39,267.84 1008.00,224.31" fill="none" stroke="#f97316" stroke-width="1.8" stroke-opacity="0.45" stroke-linejoin="round" stroke-linecap="round"/>
<circle cx="618.00" cy="146.43" r="1.8" fill="#f97316" fill-opacity="0.55"/>
<circle cx="639.67" cy="206.03" r="1.8" fill="#f97316" fill-opacity="0.55"/>
<circle cx="661.33" cy="268.71" r="1.8" fill="#f97316" fill-opacity="0.55"/>
<circle cx="683.00" cy="268.18" r="1.8" fill="#f97316" fill-opacity="0.55"/>
<circle cx="704.67" cy="269.34" r="1.8" fill="#f97316" fill-opacity="0.55"/>
<circle cx="726.33" cy="215.80" r="1.8" fill="#f97316" fill-opacity="0.55"/>
<circle cx="748.00" cy="215.01" r="1.8" fill="#f97316" fill-opacity="0.55"/>
<circle cx="769.67" cy="238.53" r="1.8" fill="#f97316" fill-opacity="0.55"/>
<circle cx="791.33" cy="264.81" r="1.8" fill="#f97316" fill-opacity="0.55"/>
<circle cx="813.00" cy="185.95" r="1.8" fill="#f97316" fill-opacity="0.55"/>
<circle cx="834.67" cy="268.42" r="1.8" fill="#f97316" fill-opacity="0.55"/>
<circle cx="856.33" cy="163.25" r="1.8" fill="#f97316" fill-opacity="0.55"/>
<circle cx="878.00" cy="257.52" r="1.8" fill="#f97316" fill-opacity="0.55"/>
<circle cx="899.67" cy="190.29" r="1.8" fill="#f97316" fill-opacity="0.55"/>
<circle cx="921.33" cy="249.70" r="1.8" fill="#f97316" fill-opacity="0.55"/>
<circle cx="943.00" cy="231.66" r="1.8" fill="#f97316" fill-opacity="0.55"/>
<circle cx="964.67" cy="264.03" r="1.8" fill="#f97316" fill-opacity="0.55"/>
<circle cx="986.33" cy="149.32" r="1.8" fill="#f97316" fill-opacity="0.55"/>
<circle cx="1008.00" cy="224.31" r="1.8" fill="#f97316" fill-opacity="0.55"/>
<text x="1008" y="306" class="tick" text-anchor="end">Round sequence; lower is better</text>
<rect x="48" y="379" width="472" height="245" rx="8" fill="#ffffff" stroke="#dbe3ef"/>
<text x="66" y="407" class="label" font-weight="700">Response throughput (incl. reasoning)</text>
<rect x="366" y="391" width="136" height="26" rx="13" fill="#fef3c7" stroke="#f59e0b" stroke-width="1.4"/>
<text x="434" y="409" class="tick" font-weight="800" text-anchor="middle" fill="#92400e">Mean winner: OpenRouter</text>
<line x1="106" y1="584.00" x2="496" y2="584.00" stroke="#e5e7eb"/>
<text x="98" y="588.00" class="tick" text-anchor="end">0.0</text>
<line x1="106" y1="531.67" x2="496" y2="531.67" stroke="#e5e7eb"/>
<text x="98" y="535.67" class="tick" text-anchor="end">19.1</text>
<line x1="106" y1="479.33" x2="496" y2="479.33" stroke="#e5e7eb"/>
<text x="98" y="483.33" class="tick" text-anchor="end">38.3</text>
<line x1="106" y1="427.00" x2="496" y2="427.00" stroke="#e5e7eb"/>
<text x="98" y="431.00" class="tick" text-anchor="end">57.4</text>
<polyline points="106.00,561.29 109.61,559.19 113.22,559.37 116.83,560.93 120.44,558.48 124.06,560.29 127.67,557.87 131.28,563.21 134.89,565.94 138.50,559.13 142.11,558.77 145.72,560.47 149.33,559.43 152.94,561.88 156.56,560.32 160.17,558.58 163.78,559.90 167.39,560.26 171.00,558.91 174.61,558.81 178.22,558.72 181.83,558.26 185.44,561.64 189.06,559.60 192.67,560.53 196.28,557.84 199.89,560.11 203.50,559.95 207.11,564.84 210.72,556.81 214.33,560.25 217.94,564.41 221.56,559.82 225.17,558.21 228.78,563.17 232.39,557.44 236.00,560.89 239.61,562.43 243.22,561.01 246.83,558.41 250.44,558.48 254.06,559.95 257.67,559.78 261.28,559.97 264.89,559.29 268.50,557.91 272.11,563.53 275.72,557.29 279.33,557.45 282.94,557.49 286.56,561.05 290.17,557.45 293.78,564.88 297.39,560.07 301.00,565.06 304.61,565.47 308.22,566.26 311.83,564.54 315.44,559.10 319.06,560.34 322.67,560.71 326.28,560.53 329.89,560.40 333.50,564.61 337.11,557.74 340.72,560.48 344.33,559.60 347.94,557.33 351.56,561.48 355.17,557.40 358.78,558.35 362.39,559.44 366.00,559.38 369.61,561.84 373.22,560.46 376.83,566.68 380.44,562.06 384.06,559.18 387.67,558.35 391.28,561.87 394.89,560.81 398.50,560.57 402.11,558.12 405.72,560.94 409.33,560.10 412.94,557.32 416.56,561.82 420.17,559.89 423.78,557.80 427.39,558.09 431.00,559.88 434.61,560.54 438.22,559.54 441.83,559.31 445.44,558.61 449.06,556.64 452.67,559.87 456.28,558.84 459.89,560.60 463.50,557.71 467.11,559.78 470.72,558.75 474.33,557.94 477.94,560.91 481.56,557.06 485.17,558.80 488.78,560.14 492.39,559.00 496.00,559.60" fill="none" stroke="#2563eb" stroke-width="1.8" stroke-opacity="0.45" stroke-linejoin="round" stroke-linecap="round"/>
<circle cx="106.00" cy="561.29" r="1.8" fill="#2563eb" fill-opacity="0.55"/>
<circle cx="127.67" cy="557.87" r="1.8" fill="#2563eb" fill-opacity="0.55"/>
<circle cx="149.33" cy="559.43" r="1.8" fill="#2563eb" fill-opacity="0.55"/>
<circle cx="171.00" cy="558.91" r="1.8" fill="#2563eb" fill-opacity="0.55"/>
<circle cx="192.67" cy="560.53" r="1.8" fill="#2563eb" fill-opacity="0.55"/>
<circle cx="214.33" cy="560.25" r="1.8" fill="#2563eb" fill-opacity="0.55"/>
<circle cx="236.00" cy="560.89" r="1.8" fill="#2563eb" fill-opacity="0.55"/>
<circle cx="257.67" cy="559.78" r="1.8" fill="#2563eb" fill-opacity="0.55"/>
<circle cx="279.33" cy="557.45" r="1.8" fill="#2563eb" fill-opacity="0.55"/>
<circle cx="301.00" cy="565.06" r="1.8" fill="#2563eb" fill-opacity="0.55"/>
<circle cx="322.67" cy="560.71" r="1.8" fill="#2563eb" fill-opacity="0.55"/>
<circle cx="344.33" cy="559.60" r="1.8" fill="#2563eb" fill-opacity="0.55"/>
<circle cx="366.00" cy="559.38" r="1.8" fill="#2563eb" fill-opacity="0.55"/>
<circle cx="387.67" cy="558.35" r="1.8" fill="#2563eb" fill-opacity="0.55"/>
<circle cx="409.33" cy="560.10" r="1.8" fill="#2563eb" fill-opacity="0.55"/>
<circle cx="431.00" cy="559.88" r="1.8" fill="#2563eb" fill-opacity="0.55"/>
<circle cx="452.67" cy="559.87" r="1.8" fill="#2563eb" fill-opacity="0.55"/>
<circle cx="474.33" cy="557.94" r="1.8" fill="#2563eb" fill-opacity="0.55"/>
<circle cx="496.00" cy="559.60" r="1.8" fill="#2563eb" fill-opacity="0.55"/>
<polyline points="106.00,580.38 109.61,550.58 113.22,554.46 116.83,573.79 120.44,540.54 124.06,541.13 127.67,515.30 131.28,542.23 134.89,578.02 138.50,544.56 142.11,527.72 145.72,575.01 149.33,546.83 152.94,552.29 156.56,529.17 160.17,547.15 163.78,552.76 167.39,579.69 171.00,551.73 174.61,577.65 178.22,547.15 181.83,580.61 185.44,552.43 189.06,516.51 192.67,543.98 196.28,511.53 199.89,549.20 203.50,574.06 207.11,571.27 210.72,547.88 214.33,498.60 217.94,554.48 221.56,548.95 225.17,460.49 228.78,564.45 232.39,551.89 236.00,562.38 239.61,549.66 243.22,551.68 246.83,515.68 250.44,521.31 254.06,542.42 257.67,558.88 261.28,548.91 264.89,488.40 268.50,541.51 272.11,558.37 275.72,548.85 279.33,555.91 282.94,537.80 286.56,443.82 290.17,551.42 293.78,557.77 297.39,550.63 301.00,508.85 304.61,548.25 308.22,523.24 311.83,558.12 315.44,543.80 319.06,544.70 322.67,556.68 326.28,508.62 329.89,537.02 333.50,550.53 337.11,557.50 340.72,551.65 344.33,532.83 347.94,548.18 351.56,545.64 355.17,571.45 358.78,569.33 362.39,551.29 366.00,562.53 369.61,579.41 373.22,546.07 376.83,578.38 380.44,551.34 384.06,465.67 387.67,582.53 391.28,572.09 394.89,559.45 398.50,530.77 402.11,575.91 405.72,565.56 409.33,518.68 412.94,571.43 416.56,525.64 420.17,504.19 423.78,553.27 427.39,569.84 431.00,573.62 434.61,579.23 438.22,546.06 441.83,533.34 445.44,554.89 449.06,505.46 452.67,564.61 456.28,563.01 459.89,476.22 463.50,545.16 467.11,560.21 470.72,565.86 474.33,546.69 477.94,543.76 481.56,553.89 485.17,549.50 488.78,531.13 492.39,548.62 496.00,544.12" fill="none" stroke="#f97316" stroke-width="3.8" stroke-opacity="1" stroke-linejoin="round" stroke-linecap="round"/>
<circle cx="106.00" cy="580.38" r="3.0" fill="#f97316" fill-opacity="1"/>
<circle cx="127.67" cy="515.30" r="3.0" fill="#f97316" fill-opacity="1"/>
<circle cx="149.33" cy="546.83" r="3.0" fill="#f97316" fill-opacity="1"/>
<circle cx="171.00" cy="551.73" r="3.0" fill="#f97316" fill-opacity="1"/>
<circle cx="192.67" cy="543.98" r="3.0" fill="#f97316" fill-opacity="1"/>
<circle cx="214.33" cy="498.60" r="3.0" fill="#f97316" fill-opacity="1"/>
<circle cx="236.00" cy="562.38" r="3.0" fill="#f97316" fill-opacity="1"/>
<circle cx="257.67" cy="558.88" r="3.0" fill="#f97316" fill-opacity="1"/>
<circle cx="279.33" cy="555.91" r="3.0" fill="#f97316" fill-opacity="1"/>
<circle cx="301.00" cy="508.85" r="3.0" fill="#f97316" fill-opacity="1"/>
<circle cx="322.67" cy="556.68" r="3.0" fill="#f97316" fill-opacity="1"/>
<circle cx="344.33" cy="532.83" r="3.0" fill="#f97316" fill-opacity="1"/>
<circle cx="366.00" cy="562.53" r="3.0" fill="#f97316" fill-opacity="1"/>
<circle cx="387.67" cy="582.53" r="3.0" fill="#f97316" fill-opacity="1"/>
<circle cx="409.33" cy="518.68" r="3.0" fill="#f97316" fill-opacity="1"/>
<circle cx="431.00" cy="573.62" r="3.0" fill="#f97316" fill-opacity="1"/>
<circle cx="452.67" cy="564.61" r="3.0" fill="#f97316" fill-opacity="1"/>
<circle cx="474.33" cy="546.69" r="3.0" fill="#f97316" fill-opacity="1"/>
<circle cx="496.00" cy="544.12" r="3.0" fill="#f97316" fill-opacity="1"/>
<text x="496" y="609" class="tick" text-anchor="end">Round sequence; higher is better</text>
<rect x="560" y="379" width="472" height="245" rx="8" fill="#ffffff" stroke="#dbe3ef"/>
<text x="578" y="407" class="label" font-weight="700">Observed cost / round</text>
<rect x="878" y="391" width="136" height="26" rx="13" fill="#fef3c7" stroke="#f59e0b" stroke-width="1.4"/>
<text x="946" y="409" class="tick" font-weight="800" text-anchor="middle" fill="#92400e">Mean winner: Infron</text>
<line x1="618" y1="584.00" x2="1008" y2="584.00" stroke="#e5e7eb"/>
<text x="610" y="588.00" class="tick" text-anchor="end">$0.0000</text>
<line x1="618" y1="531.67" x2="1008" y2="531.67" stroke="#e5e7eb"/>
<text x="610" y="535.67" class="tick" text-anchor="end">$0.0002</text>
<line x1="618" y1="479.33" x2="1008" y2="479.33" stroke="#e5e7eb"/>
<text x="610" y="483.33" class="tick" text-anchor="end">$0.0004</text>
<line x1="618" y1="427.00" x2="1008" y2="427.00" stroke="#e5e7eb"/>
<text x="610" y="431.00" class="tick" text-anchor="end">$0.0005</text>
<polyline points="618.00,506.63 621.61,507.23 625.22,570.26 628.83,569.66 632.44,570.26 636.06,569.66 639.67,569.66 643.28,570.26 646.89,569.66 650.50,570.26 654.11,569.66 657.72,569.66 661.33,570.26 664.94,569.66 668.56,569.66 672.17,570.26 675.78,569.66 679.39,569.66 683.00,570.26 686.61,569.66 690.22,570.26 693.83,569.66 697.44,570.26 701.06,569.66 704.67,570.26 708.28,569.66 711.89,570.26 715.50,569.66 719.11,569.66 722.72,570.26 726.33,569.66 729.94,570.26 733.56,570.26 737.17,569.66 740.78,569.66 744.39,570.26 748.00,569.66 751.61,569.66 755.22,570.26 758.83,569.66 762.44,569.66 766.06,570.26 769.67,569.66 773.28,570.26 776.89,569.66 780.50,570.26 784.11,569.66 787.72,569.66 791.33,570.26 794.94,569.66 798.56,569.66 802.17,570.26 805.78,569.66 809.39,570.26 813.00,569.66 816.61,570.26 820.22,569.66 823.83,569.66 827.44,569.66 831.06,570.26 834.67,570.26 838.28,569.66 841.89,569.66 845.50,570.26 849.11,570.26 852.72,569.66 856.33,569.66 859.94,570.26 863.56,570.26 867.17,569.66 870.78,570.26 874.39,570.26 878.00,570.26 881.61,569.66 885.22,570.26 888.83,569.66 892.44,570.26 896.06,569.66 899.67,569.66 903.28,570.26 906.89,569.66 910.50,569.66 914.11,569.66 917.72,570.26 921.33,569.66 924.94,570.26 928.56,569.66 932.17,569.66 935.78,570.26 939.39,569.66 943.00,569.66 946.61,569.66 950.22,570.26 953.83,569.66 957.44,570.26 961.06,569.66 964.67,569.66 968.28,570.26 971.89,569.66 975.50,570.26 979.11,570.26 982.72,569.66 986.33,569.66 989.94,570.26 993.56,570.26 997.17,570.26 1000.78,569.66 1004.39,570.26 1008.00,569.66" fill="none" stroke="#2563eb" stroke-width="3.8" stroke-opacity="1" stroke-linejoin="round" stroke-linecap="round"/>
<circle cx="618.00" cy="506.63" r="3.0" fill="#2563eb" fill-opacity="1"/>
<circle cx="639.67" cy="569.66" r="3.0" fill="#2563eb" fill-opacity="1"/>
<circle cx="661.33" cy="570.26" r="3.0" fill="#2563eb" fill-opacity="1"/>
<circle cx="683.00" cy="570.26" r="3.0" fill="#2563eb" fill-opacity="1"/>
<circle cx="704.67" cy="570.26" r="3.0" fill="#2563eb" fill-opacity="1"/>
<circle cx="726.33" cy="569.66" r="3.0" fill="#2563eb" fill-opacity="1"/>
<circle cx="748.00" cy="569.66" r="3.0" fill="#2563eb" fill-opacity="1"/>
<circle cx="769.67" cy="569.66" r="3.0" fill="#2563eb" fill-opacity="1"/>
<circle cx="791.33" cy="570.26" r="3.0" fill="#2563eb" fill-opacity="1"/>
<circle cx="813.00" cy="569.66" r="3.0" fill="#2563eb" fill-opacity="1"/>
<circle cx="834.67" cy="570.26" r="3.0" fill="#2563eb" fill-opacity="1"/>
<circle cx="856.33" cy="569.66" r="3.0" fill="#2563eb" fill-opacity="1"/>
<circle cx="878.00" cy="570.26" r="3.0" fill="#2563eb" fill-opacity="1"/>
<circle cx="899.67" cy="569.66" r="3.0" fill="#2563eb" fill-opacity="1"/>
<circle cx="921.33" cy="569.66" r="3.0" fill="#2563eb" fill-opacity="1"/>
<circle cx="943.00" cy="569.66" r="3.0" fill="#2563eb" fill-opacity="1"/>
<circle cx="964.67" cy="569.66" r="3.0" fill="#2563eb" fill-opacity="1"/>
<circle cx="986.33" cy="569.66" r="3.0" fill="#2563eb" fill-opacity="1"/>
<circle cx="1008.00" cy="569.66" r="3.0" fill="#2563eb" fill-opacity="1"/>
<polyline points="618.00,500.42 621.61,444.32 625.22,444.32 628.83,557.57 632.44,444.32 636.06,471.28 639.67,493.45 643.28,444.32 646.89,443.99 650.50,444.32 654.11,473.16 657.72,557.28 661.33,444.32 664.94,443.99 668.56,505.15 672.17,444.32 675.78,443.99 679.39,557.28 683.00,444.32 686.61,557.28 690.22,444.32 693.83,501.50 697.44,444.32 701.06,541.88 704.67,444.32 708.28,522.86 711.89,444.32 715.50,445.66 719.11,501.50 722.72,444.32 726.33,525.19 729.94,444.32 733.56,444.32 737.17,492.24 740.78,443.99 744.39,444.32 748.00,549.84 751.61,443.82 755.22,444.32 758.83,519.05 762.44,534.50 766.06,444.32 769.67,551.42 773.28,444.32 776.89,532.51 780.50,444.32 784.11,536.68 787.72,505.27 791.33,444.32 794.94,541.18 798.56,516.77 802.17,444.32 805.78,548.44 809.39,444.32 813.00,519.40 816.61,444.32 820.22,546.51 823.83,544.98 827.44,532.58 831.06,444.32 834.67,444.32 838.28,464.03 841.89,536.55 845.50,444.32 849.11,444.32 852.72,443.99 856.33,523.62 859.94,444.32 863.56,444.32 867.17,557.28 870.78,444.32 874.39,444.32 878.00,444.32 881.61,443.99 885.22,444.32 888.83,443.99 892.44,444.32 896.06,532.34 899.67,445.66 903.28,444.32 906.89,443.99 910.50,510.71 914.11,557.33 917.72,444.32 921.33,544.57 924.94,444.32 928.56,538.13 932.17,532.40 935.78,444.32 939.39,539.14 943.00,557.33 946.61,443.99 950.22,444.32 953.83,530.70 957.44,444.32 961.06,480.90 964.67,444.24 968.28,444.32 971.89,522.98 975.50,444.32 979.11,444.32 982.72,548.79 986.33,531.52 989.94,444.32 993.56,444.32 997.17,444.32 1000.78,520.82 1004.39,444.32 1008.00,546.74" fill="none" stroke="#f97316" stroke-width="1.8" stroke-opacity="0.45" stroke-linejoin="round" stroke-linecap="round"/>
<circle cx="618.00" cy="500.42" r="1.8" fill="#f97316" fill-opacity="0.55"/>
<circle cx="639.67" cy="493.45" r="1.8" fill="#f97316" fill-opacity="0.55"/>
<circle cx="661.33" cy="444.32" r="1.8" fill="#f97316" fill-opacity="0.55"/>
<circle cx="683.00" cy="444.32" r="1.8" fill="#f97316" fill-opacity="0.55"/>
<circle cx="704.67" cy="444.32" r="1.8" fill="#f97316" fill-opacity="0.55"/>
<circle cx="726.33" cy="525.19" r="1.8" fill="#f97316" fill-opacity="0.55"/>
<circle cx="748.00" cy="549.84" r="1.8" fill="#f97316" fill-opacity="0.55"/>
<circle cx="769.67" cy="551.42" r="1.8" fill="#f97316" fill-opacity="0.55"/>
<circle cx="791.33" cy="444.32" r="1.8" fill="#f97316" fill-opacity="0.55"/>
<circle cx="813.00" cy="519.40" r="1.8" fill="#f97316" fill-opacity="0.55"/>
<circle cx="834.67" cy="444.32" r="1.8" fill="#f97316" fill-opacity="0.55"/>
<circle cx="856.33" cy="523.62" r="1.8" fill="#f97316" fill-opacity="0.55"/>
<circle cx="878.00" cy="444.32" r="1.8" fill="#f97316" fill-opacity="0.55"/>
<circle cx="899.67" cy="445.66" r="1.8" fill="#f97316" fill-opacity="0.55"/>
<circle cx="921.33" cy="544.57" r="1.8" fill="#f97316" fill-opacity="0.55"/>
<circle cx="943.00" cy="557.33" r="1.8" fill="#f97316" fill-opacity="0.55"/>
<circle cx="964.67" cy="444.24" r="1.8" fill="#f97316" fill-opacity="0.55"/>
<circle cx="986.33" cy="531.52" r="1.8" fill="#f97316" fill-opacity="0.55"/>
<circle cx="1008.00" cy="546.74" r="1.8" fill="#f97316" fill-opacity="0.55"/>
<text x="1008" y="609" class="tick" text-anchor="end">Round sequence; lower is better</text>
<rect x="48" y="682" width="472" height="245" rx="8" fill="#ffffff" stroke="#dbe3ef"/>
<text x="66" y="710" class="label" font-weight="700">Token Cache Hit Rate</text>
<rect x="366" y="694" width="136" height="26" rx="13" fill="#fef3c7" stroke="#f59e0b" stroke-width="1.4"/>
<text x="434" y="712" class="tick" font-weight="800" text-anchor="middle" fill="#92400e">Mean winner: Infron</text>
<line x1="106" y1="887.00" x2="496" y2="887.00" stroke="#e5e7eb"/>
<text x="98" y="891.00" class="tick" text-anchor="end">0%</text>
<line x1="106" y1="834.67" x2="496" y2="834.67" stroke="#e5e7eb"/>
<text x="98" y="838.67" class="tick" text-anchor="end">35%</text>
<line x1="106" y1="782.33" x2="496" y2="782.33" stroke="#e5e7eb"/>
<text x="98" y="786.33" class="tick" text-anchor="end">70%</text>
<line x1="106" y1="730.00" x2="496" y2="730.00" stroke="#e5e7eb"/>
<text x="98" y="734.00" class="tick" text-anchor="end">105%</text>
<polyline points="106.00,747.59 109.61,746.82 113.22,746.82 116.83,747.16 120.44,746.82 124.06,747.16 127.67,747.59 131.28,746.82 134.89,747.16 138.50,746.82 142.11,747.16 145.72,747.59 149.33,746.82 152.94,747.16 156.56,747.50 160.17,746.82 163.78,747.16 167.39,747.59 171.00,746.82 174.61,747.59 178.22,746.82 181.83,747.50 185.44,746.82 189.06,747.50 192.67,746.82 196.28,747.50 199.89,746.82 203.50,747.50 207.11,747.50 210.72,746.82 214.33,747.50 217.94,746.82 221.56,746.82 225.17,747.50 228.78,747.59 232.39,746.82 236.00,747.16 239.61,747.59 243.22,746.82 246.83,747.50 250.44,747.59 254.06,746.82 257.67,747.59 261.28,746.82 264.89,747.50 268.50,746.82 272.11,747.16 275.72,747.59 279.33,746.82 282.94,747.16 286.56,747.50 290.17,746.82 293.78,747.16 297.39,746.82 301.00,747.16 304.61,746.82 308.22,747.16 311.83,747.16 315.44,747.59 319.06,746.82 322.67,746.82 326.28,747.50 329.89,747.59 333.50,746.82 337.11,746.82 340.72,747.16 344.33,747.59 347.94,746.82 351.56,746.82 355.17,747.59 358.78,746.82 362.39,746.82 366.00,746.82 369.61,747.16 373.22,746.82 376.83,747.16 380.44,746.82 384.06,747.16 387.67,747.50 391.28,746.82 394.89,747.16 398.50,747.50 402.11,747.50 405.72,746.82 409.33,747.59 412.94,746.82 416.56,747.16 420.17,747.59 423.78,746.82 427.39,747.16 431.00,747.50 434.61,747.59 438.22,746.82 441.83,747.50 445.44,746.82 449.06,747.50 452.67,747.59 456.28,746.82 459.89,747.16 463.50,746.82 467.11,746.82 470.72,747.16 474.33,747.59 477.94,746.82 481.56,746.82 485.17,746.82 488.78,747.59 492.39,746.82 496.00,747.16" fill="none" stroke="#2563eb" stroke-width="3.8" stroke-opacity="1" stroke-linejoin="round" stroke-linecap="round"/>
<circle cx="106.00" cy="747.59" r="3.0" fill="#2563eb" fill-opacity="1"/>
<circle cx="127.67" cy="747.59" r="3.0" fill="#2563eb" fill-opacity="1"/>
<circle cx="149.33" cy="746.82" r="3.0" fill="#2563eb" fill-opacity="1"/>
<circle cx="171.00" cy="746.82" r="3.0" fill="#2563eb" fill-opacity="1"/>
<circle cx="192.67" cy="746.82" r="3.0" fill="#2563eb" fill-opacity="1"/>
<circle cx="214.33" cy="747.50" r="3.0" fill="#2563eb" fill-opacity="1"/>
<circle cx="236.00" cy="747.16" r="3.0" fill="#2563eb" fill-opacity="1"/>
<circle cx="257.67" cy="747.59" r="3.0" fill="#2563eb" fill-opacity="1"/>
<circle cx="279.33" cy="746.82" r="3.0" fill="#2563eb" fill-opacity="1"/>
<circle cx="301.00" cy="747.16" r="3.0" fill="#2563eb" fill-opacity="1"/>
<circle cx="322.67" cy="746.82" r="3.0" fill="#2563eb" fill-opacity="1"/>
<circle cx="344.33" cy="747.59" r="3.0" fill="#2563eb" fill-opacity="1"/>
<circle cx="366.00" cy="746.82" r="3.0" fill="#2563eb" fill-opacity="1"/>
<circle cx="387.67" cy="747.50" r="3.0" fill="#2563eb" fill-opacity="1"/>
<circle cx="409.33" cy="747.59" r="3.0" fill="#2563eb" fill-opacity="1"/>
<circle cx="431.00" cy="747.50" r="3.0" fill="#2563eb" fill-opacity="1"/>
<circle cx="452.67" cy="747.59" r="3.0" fill="#2563eb" fill-opacity="1"/>
<circle cx="474.33" cy="747.59" r="3.0" fill="#2563eb" fill-opacity="1"/>
<circle cx="496.00" cy="747.16" r="3.0" fill="#2563eb" fill-opacity="1"/>
<polyline points="106.00,747.59 109.61,887.00 113.22,887.00 116.83,747.16 120.44,887.00 124.06,887.00 127.67,759.21 131.28,887.00 134.89,887.00 138.50,887.00 142.11,793.78 145.72,747.59 149.33,887.00 152.94,887.00 156.56,887.00 160.17,887.00 163.78,887.00 167.39,747.59 171.00,887.00 174.61,747.59 178.22,887.00 181.83,887.00 185.44,887.00 189.06,759.13 192.67,887.00 196.28,747.50 199.89,887.00 203.50,887.00 207.11,887.00 210.72,887.00 214.33,759.13 217.94,887.00 221.56,887.00 225.17,759.13 228.78,887.00 232.39,887.00 236.00,747.16 239.61,887.00 243.22,887.00 246.83,759.13 250.44,759.21 254.06,887.00 257.67,747.59 261.28,887.00 264.89,759.13 268.50,887.00 272.11,793.78 275.72,759.21 279.33,887.00 282.94,758.82 286.56,759.13 290.17,887.00 293.78,758.82 297.39,887.00 301.00,758.82 304.61,887.00 308.22,747.16 311.83,747.16 315.44,759.21 319.06,887.00 322.67,887.00 326.28,887.00 329.89,759.21 333.50,887.00 337.11,887.00 340.72,887.00 344.33,759.21 347.94,887.00 351.56,887.00 355.17,747.59 358.78,887.00 362.39,887.00 366.00,887.00 369.61,887.00 373.22,887.00 376.83,887.00 380.44,887.00 384.06,758.82 387.67,887.00 391.28,887.00 394.89,887.00 398.50,887.00 402.11,747.50 405.72,887.00 409.33,759.21 412.94,887.00 416.56,758.82 420.17,759.21 423.78,887.00 427.39,793.78 431.00,747.50 434.61,887.00 438.22,887.00 441.83,759.13 445.44,887.00 449.06,794.00 452.67,887.00 456.28,887.00 459.89,758.82 463.50,887.00 467.11,887.00 470.72,758.82 474.33,759.21 477.94,887.00 481.56,887.00 485.17,887.00 488.78,759.21 492.39,887.00 496.00,747.16" fill="none" stroke="#f97316" stroke-width="1.8" stroke-opacity="0.45" stroke-linejoin="round" stroke-linecap="round"/>
<circle cx="106.00" cy="747.59" r="1.8" fill="#f97316" fill-opacity="0.55"/>
<circle cx="127.67" cy="759.21" r="1.8" fill="#f97316" fill-opacity="0.55"/>
<circle cx="149.33" cy="887.00" r="1.8" fill="#f97316" fill-opacity="0.55"/>
<circle cx="171.00" cy="887.00" r="1.8" fill="#f97316" fill-opacity="0.55"/>
<circle cx="192.67" cy="887.00" r="1.8" fill="#f97316" fill-opacity="0.55"/>
<circle cx="214.33" cy="759.13" r="1.8" fill="#f97316" fill-opacity="0.55"/>
<circle cx="236.00" cy="747.16" r="1.8" fill="#f97316" fill-opacity="0.55"/>
<circle cx="257.67" cy="747.59" r="1.8" fill="#f97316" fill-opacity="0.55"/>
<circle cx="279.33" cy="887.00" r="1.8" fill="#f97316" fill-opacity="0.55"/>
<circle cx="301.00" cy="758.82" r="1.8" fill="#f97316" fill-opacity="0.55"/>
<circle cx="322.67" cy="887.00" r="1.8" fill="#f97316" fill-opacity="0.55"/>
<circle cx="344.33" cy="759.21" r="1.8" fill="#f97316" fill-opacity="0.55"/>
<circle cx="366.00" cy="887.00" r="1.8" fill="#f97316" fill-opacity="0.55"/>
<circle cx="387.67" cy="887.00" r="1.8" fill="#f97316" fill-opacity="0.55"/>
<circle cx="409.33" cy="759.21" r="1.8" fill="#f97316" fill-opacity="0.55"/>
<circle cx="431.00" cy="747.50" r="1.8" fill="#f97316" fill-opacity="0.55"/>
<circle cx="452.67" cy="887.00" r="1.8" fill="#f97316" fill-opacity="0.55"/>
<circle cx="474.33" cy="759.21" r="1.8" fill="#f97316" fill-opacity="0.55"/>
<circle cx="496.00" cy="747.16" r="1.8" fill="#f97316" fill-opacity="0.55"/>
<text x="496" y="912" class="tick" text-anchor="end">Round sequence; higher is better</text>
<rect x="830" y="28" width="14" height="14" rx="3" fill="#2563eb"/>
<text x="852" y="40" class="label">Infron</text>
<rect x="830" y="52" width="14" height="14" rx="3" fill="#f97316"/>
<text x="852" y="64" class="label">OpenRouter</text>
</svg>