<svg xmlns="http://www.w3.org/2000/svg" width="1080" height="1000" viewBox="0 0 1080 1000"><style>text{font-family:-apple-system,BlinkMacSystemFont,'Segoe UI',sans-serif;fill:#111827}.title{font-size:22px;font-weight:700}.label{font-size:13px;fill:#374151}.tick{font-size:12px;fill:#6b7280}.value{font-size:12px;fill:#111827}</style><rect width="100%" height="100%" fill="#ffffff"/>
<text x="48" y="34" class="title">Price First Routing Mode: Metric Generation Curves</text>
<text x="48" y="58" class="label">Metrics are plotted by group/round order to show variation behind aggregate means.</text>
<rect x="48" y="76" width="472" height="245" rx="8" fill="#ffffff" stroke="#dbe3ef"/>
<text x="66" y="104" class="label" font-weight="700">E2E latency / request (incl. reasoning)</text>
<rect x="366" y="88" width="136" height="26" rx="13" fill="#fef3c7" stroke="#f59e0b" stroke-width="1.4"/>
<text x="434" y="106" class="tick" font-weight="800" text-anchor="middle" fill="#92400e">Mean winner: OpenRouter</text>
<line x1="106" y1="281.00" x2="496" y2="281.00" stroke="#e5e7eb"/>
<text x="98" y="285.00" class="tick" text-anchor="end">0.0</text>
<line x1="106" y1="228.67" x2="496" y2="228.67" stroke="#e5e7eb"/>
<text x="98" y="232.67" class="tick" text-anchor="end">10709</text>
<line x1="106" y1="176.33" x2="496" y2="176.33" stroke="#e5e7eb"/>
<text x="98" y="180.33" class="tick" text-anchor="end">21417</text>
<line x1="106" y1="124.00" x2="496" y2="124.00" stroke="#e5e7eb"/>
<text x="98" y="128.00" class="tick" text-anchor="end">32126</text>
<polyline points="106.00,228.33 113.22,222.59 120.44,255.80 127.67,266.23 134.89,213.92 142.11,240.13 149.33,246.87 156.56,256.72 163.78,226.35 171.00,243.82 178.22,206.88 185.44,257.13 192.67,243.25 199.89,236.36 207.11,222.85 214.33,174.93 221.56,140.82 228.78,238.08 236.00,261.04 243.22,240.13 250.44,187.74 257.67,259.55 264.89,246.17 272.11,227.98 279.33,252.08 286.56,263.52 293.78,256.00 301.00,263.64 308.22,251.54 315.44,255.61 322.67,238.64 329.89,250.60 337.11,261.11 344.33,241.59 351.56,244.19 358.78,241.94 366.00,235.25 373.22,238.86 380.44,233.11 387.67,245.85 394.89,146.87 402.11,228.52 409.33,253.36 416.56,254.49 423.78,249.95 431.00,221.61 438.22,259.68 445.44,259.76 452.67,253.93 459.89,203.34 467.11,235.31 474.33,243.33 481.56,248.64 488.78,249.77 496.00,263.18" fill="none" stroke="#2563eb" stroke-width="1.8" stroke-opacity="0.45" stroke-linejoin="round" stroke-linecap="round"/>
<circle cx="106.00" cy="228.33" r="1.8" fill="#2563eb" fill-opacity="0.55"/>
<circle cx="127.67" cy="266.23" r="1.8" fill="#2563eb" fill-opacity="0.55"/>
<circle cx="149.33" cy="246.87" r="1.8" fill="#2563eb" fill-opacity="0.55"/>
<circle cx="171.00" cy="243.82" r="1.8" fill="#2563eb" fill-opacity="0.55"/>
<circle cx="192.67" cy="243.25" r="1.8" fill="#2563eb" fill-opacity="0.55"/>
<circle cx="214.33" cy="174.93" r="1.8" fill="#2563eb" fill-opacity="0.55"/>
<circle cx="236.00" cy="261.04" r="1.8" fill="#2563eb" fill-opacity="0.55"/>
<circle cx="257.67" cy="259.55" r="1.8" fill="#2563eb" fill-opacity="0.55"/>
<circle cx="279.33" cy="252.08" r="1.8" fill="#2563eb" fill-opacity="0.55"/>
<circle cx="301.00" cy="263.64" r="1.8" fill="#2563eb" fill-opacity="0.55"/>
<circle cx="322.67" cy="238.64" r="1.8" fill="#2563eb" fill-opacity="0.55"/>
<circle cx="344.33" cy="241.59" r="1.8" fill="#2563eb" fill-opacity="0.55"/>
<circle cx="366.00" cy="235.25" r="1.8" fill="#2563eb" fill-opacity="0.55"/>
<circle cx="387.67" cy="245.85" r="1.8" fill="#2563eb" fill-opacity="0.55"/>
<circle cx="409.33" cy="253.36" r="1.8" fill="#2563eb" fill-opacity="0.55"/>
<circle cx="431.00" cy="221.61" r="1.8" fill="#2563eb" fill-opacity="0.55"/>
<circle cx="452.67" cy="253.93" r="1.8" fill="#2563eb" fill-opacity="0.55"/>
<circle cx="474.33" cy="243.33" r="1.8" fill="#2563eb" fill-opacity="0.55"/>
<circle cx="496.00" cy="263.18" r="1.8" fill="#2563eb" fill-opacity="0.55"/>
<polyline points="106.00,246.50 113.22,218.59 120.44,248.25 127.67,270.62 134.89,234.79 142.11,274.99 149.33,257.02 156.56,274.88 163.78,274.32 171.00,264.84 178.22,276.06 185.44,273.93 192.67,237.95 199.89,228.89 207.11,221.85 214.33,244.30 221.56,252.13 228.78,265.09 236.00,275.40 243.22,248.05 250.44,242.80 257.67,274.99 264.89,274.24 272.11,275.03 279.33,230.96 286.56,242.39 293.78,255.89 301.00,239.41 308.22,275.33 315.44,251.28 322.67,272.73 329.89,260.39 337.11,251.39 344.33,245.57 351.56,239.54 358.78,270.42 366.00,246.43 373.22,232.51 380.44,275.49 387.67,245.36 394.89,261.45 402.11,275.70 409.33,253.93 416.56,260.59 423.78,225.16 431.00,253.36 438.22,258.66 445.44,264.65 452.67,253.23 459.89,242.53 467.11,246.46 474.33,231.44 481.56,242.16 488.78,244.42 496.00,263.63" fill="none" stroke="#f97316" stroke-width="3.8" stroke-opacity="1" stroke-linejoin="round" stroke-linecap="round"/>
<circle cx="106.00" cy="246.50" r="3.0" fill="#f97316" fill-opacity="1"/>
<circle cx="127.67" cy="270.62" r="3.0" fill="#f97316" fill-opacity="1"/>
<circle cx="149.33" cy="257.02" r="3.0" fill="#f97316" fill-opacity="1"/>
<circle cx="171.00" cy="264.84" r="3.0" fill="#f97316" fill-opacity="1"/>
<circle cx="192.67" cy="237.95" r="3.0" fill="#f97316" fill-opacity="1"/>
<circle cx="214.33" cy="244.30" r="3.0" fill="#f97316" fill-opacity="1"/>
<circle cx="236.00" cy="275.40" r="3.0" fill="#f97316" fill-opacity="1"/>
<circle cx="257.67" cy="274.99" r="3.0" fill="#f97316" fill-opacity="1"/>
<circle cx="279.33" cy="230.96" r="3.0" fill="#f97316" fill-opacity="1"/>
<circle cx="301.00" cy="239.41" r="3.0" fill="#f97316" fill-opacity="1"/>
<circle cx="322.67" cy="272.73" r="3.0" fill="#f97316" fill-opacity="1"/>
<circle cx="344.33" cy="245.57" r="3.0" fill="#f97316" fill-opacity="1"/>
<circle cx="366.00" cy="246.43" r="3.0" fill="#f97316" fill-opacity="1"/>
<circle cx="387.67" cy="245.36" r="3.0" fill="#f97316" fill-opacity="1"/>
<circle cx="409.33" cy="253.93" r="3.0" fill="#f97316" fill-opacity="1"/>
<circle cx="431.00" cy="253.36" r="3.0" fill="#f97316" fill-opacity="1"/>
<circle cx="452.67" cy="253.23" r="3.0" fill="#f97316" fill-opacity="1"/>
<circle cx="474.33" cy="231.44" r="3.0" fill="#f97316" fill-opacity="1"/>
<circle cx="496.00" cy="263.63" r="3.0" fill="#f97316" fill-opacity="1"/>
<text x="496" y="306" class="tick" text-anchor="end">Round sequence; lower is better</text>
<rect x="560" y="76" width="472" height="245" rx="8" fill="#ffffff" stroke="#dbe3ef"/>
<text x="578" y="104" class="label" font-weight="700">Streaming TTFT / first response</text>
<rect x="878" y="88" width="136" height="26" rx="13" fill="#fef3c7" stroke="#f59e0b" stroke-width="1.4"/>
<text x="946" y="106" class="tick" font-weight="800" text-anchor="middle" fill="#92400e">Mean winner: OpenRouter</text>
<line x1="618" y1="281.00" x2="1008" y2="281.00" stroke="#e5e7eb"/>
<text x="610" y="285.00" class="tick" text-anchor="end">0.0</text>
<line x1="618" y1="228.67" x2="1008" y2="228.67" stroke="#e5e7eb"/>
<text x="610" y="232.67" class="tick" text-anchor="end">9215</text>
<line x1="618" y1="176.33" x2="1008" y2="176.33" stroke="#e5e7eb"/>
<text x="610" y="180.33" class="tick" text-anchor="end">18429</text>
<line x1="618" y1="124.00" x2="1008" y2="124.00" stroke="#e5e7eb"/>
<text x="610" y="128.00" class="tick" text-anchor="end">27644</text>
<polyline points="618.00,239.94 625.22,233.86 632.44,265.15 639.67,267.56 646.89,235.35 654.11,240.32 661.33,251.01 668.56,257.29 675.78,227.63 683.00,243.91 690.22,211.94 697.44,258.81 704.67,245.49 711.89,252.00 719.11,252.10 726.33,165.39 733.56,141.79 740.78,248.10 748.00,270.23 755.22,250.55 762.44,208.73 769.67,261.97 776.89,247.37 784.11,240.68 791.33,258.46 798.56,266.05 805.78,260.70 813.00,263.36 820.22,254.56 827.44,261.96 834.67,238.98 841.89,259.21 849.11,263.31 856.33,260.43 863.56,246.87 870.78,245.92 878.00,254.65 885.22,255.78 892.44,239.50 899.67,247.59 906.89,140.82 914.11,228.91 921.33,263.82 928.56,255.90 935.78,264.04 943.00,231.00 950.22,260.60 957.44,264.96 964.67,260.35 971.89,213.84 979.11,237.31 986.33,248.02 993.56,253.69 1000.78,266.96 1008.00,265.07" fill="none" stroke="#2563eb" stroke-width="1.8" stroke-opacity="0.45" stroke-linejoin="round" stroke-linecap="round"/>
<circle cx="618.00" cy="239.94" r="1.8" fill="#2563eb" fill-opacity="0.55"/>
<circle cx="639.67" cy="267.56" r="1.8" fill="#2563eb" fill-opacity="0.55"/>
<circle cx="661.33" cy="251.01" r="1.8" fill="#2563eb" fill-opacity="0.55"/>
<circle cx="683.00" cy="243.91" r="1.8" fill="#2563eb" fill-opacity="0.55"/>
<circle cx="704.67" cy="245.49" r="1.8" fill="#2563eb" fill-opacity="0.55"/>
<circle cx="726.33" cy="165.39" r="1.8" fill="#2563eb" fill-opacity="0.55"/>
<circle cx="748.00" cy="270.23" r="1.8" fill="#2563eb" fill-opacity="0.55"/>
<circle cx="769.67" cy="261.97" r="1.8" fill="#2563eb" fill-opacity="0.55"/>
<circle cx="791.33" cy="258.46" r="1.8" fill="#2563eb" fill-opacity="0.55"/>
<circle cx="813.00" cy="263.36" r="1.8" fill="#2563eb" fill-opacity="0.55"/>
<circle cx="834.67" cy="238.98" r="1.8" fill="#2563eb" fill-opacity="0.55"/>
<circle cx="856.33" cy="260.43" r="1.8" fill="#2563eb" fill-opacity="0.55"/>
<circle cx="878.00" cy="254.65" r="1.8" fill="#2563eb" fill-opacity="0.55"/>
<circle cx="899.67" cy="247.59" r="1.8" fill="#2563eb" fill-opacity="0.55"/>
<circle cx="921.33" cy="263.82" r="1.8" fill="#2563eb" fill-opacity="0.55"/>
<circle cx="943.00" cy="231.00" r="1.8" fill="#2563eb" fill-opacity="0.55"/>
<circle cx="964.67" cy="260.35" r="1.8" fill="#2563eb" fill-opacity="0.55"/>
<circle cx="986.33" cy="248.02" r="1.8" fill="#2563eb" fill-opacity="0.55"/>
<circle cx="1008.00" cy="265.07" r="1.8" fill="#2563eb" fill-opacity="0.55"/>
<polyline points="618.00,250.57 625.22,238.73 632.44,250.00 639.67,270.03 646.89,254.17 654.11,274.67 661.33,265.35 668.56,274.83 675.78,275.59 683.00,271.83 690.22,276.06 697.44,274.17 704.67,242.87 711.89,226.76 719.11,235.51 726.33,247.78 733.56,265.02 740.78,266.91 748.00,274.99 755.22,263.45 762.44,261.65 769.67,274.61 776.89,276.31 784.11,275.60 791.33,234.15 798.56,245.70 805.78,267.55 813.00,238.55 820.22,275.09 827.44,257.41 834.67,272.74 841.89,264.02 849.11,254.96 856.33,264.98 863.56,247.94 870.78,269.14 878.00,254.27 885.22,252.50 892.44,275.80 899.67,258.17 906.89,269.30 914.11,275.73 921.33,262.08 928.56,261.89 935.78,235.61 943.00,255.28 950.22,259.97 957.44,266.62 964.67,260.91 971.89,253.32 979.11,261.47 986.33,230.47 993.56,243.34 1000.78,249.38 1008.00,267.26" fill="none" stroke="#f97316" stroke-width="3.8" stroke-opacity="1" stroke-linejoin="round" stroke-linecap="round"/>
<circle cx="618.00" cy="250.57" r="3.0" fill="#f97316" fill-opacity="1"/>
<circle cx="639.67" cy="270.03" r="3.0" fill="#f97316" fill-opacity="1"/>
<circle cx="661.33" cy="265.35" r="3.0" fill="#f97316" fill-opacity="1"/>
<circle cx="683.00" cy="271.83" r="3.0" fill="#f97316" fill-opacity="1"/>
<circle cx="704.67" cy="242.87" r="3.0" fill="#f97316" fill-opacity="1"/>
<circle cx="726.33" cy="247.78" r="3.0" fill="#f97316" fill-opacity="1"/>
<circle cx="748.00" cy="274.99" r="3.0" fill="#f97316" fill-opacity="1"/>
<circle cx="769.67" cy="274.61" r="3.0" fill="#f97316" fill-opacity="1"/>
<circle cx="791.33" cy="234.15" r="3.0" fill="#f97316" fill-opacity="1"/>
<circle cx="813.00" cy="238.55" r="3.0" fill="#f97316" fill-opacity="1"/>
<circle cx="834.67" cy="272.74" r="3.0" fill="#f97316" fill-opacity="1"/>
<circle cx="856.33" cy="264.98" r="3.0" fill="#f97316" fill-opacity="1"/>
<circle cx="878.00" cy="254.27" r="3.0" fill="#f97316" fill-opacity="1"/>
<circle cx="899.67" cy="258.17" r="3.0" fill="#f97316" fill-opacity="1"/>
<circle cx="921.33" cy="262.08" r="3.0" fill="#f97316" fill-opacity="1"/>
<circle cx="943.00" cy="255.28" r="3.0" fill="#f97316" fill-opacity="1"/>
<circle cx="964.67" cy="260.91" r="3.0" fill="#f97316" fill-opacity="1"/>
<circle cx="986.33" cy="230.47" r="3.0" fill="#f97316" fill-opacity="1"/>
<circle cx="1008.00" cy="267.26" r="3.0" fill="#f97316" fill-opacity="1"/>
<text x="1008" y="306" class="tick" text-anchor="end">Round sequence; lower is better</text>
<rect x="48" y="379" width="472" height="245" rx="8" fill="#ffffff" stroke="#dbe3ef"/>
<text x="66" y="407" class="label" font-weight="700">Response throughput (incl. reasoning)</text>
<rect x="366" y="391" width="136" height="26" rx="13" fill="#fef3c7" stroke="#f59e0b" stroke-width="1.4"/>
<text x="434" y="409" class="tick" font-weight="800" text-anchor="middle" fill="#92400e">Mean winner: OpenRouter</text>
<line x1="106" y1="584.00" x2="496" y2="584.00" stroke="#e5e7eb"/>
<text x="98" y="588.00" class="tick" text-anchor="end">0.0</text>
<line x1="106" y1="531.67" x2="496" y2="531.67" stroke="#e5e7eb"/>
<text x="98" y="535.67" class="tick" text-anchor="end">28.4</text>
<line x1="106" y1="479.33" x2="496" y2="479.33" stroke="#e5e7eb"/>
<text x="98" y="483.33" class="tick" text-anchor="end">56.8</text>
<line x1="106" y1="427.00" x2="496" y2="427.00" stroke="#e5e7eb"/>
<text x="98" y="431.00" class="tick" text-anchor="end">85.3</text>
<polyline points="106.00,528.13 113.22,541.87 120.44,471.17 127.67,574.25 134.89,494.86 142.11,580.48 149.33,579.78 156.56,578.07 163.78,570.99 171.00,580.13 178.22,563.54 185.44,557.98 192.67,540.02 199.89,546.81 207.11,515.76 214.33,582.64 221.56,555.24 228.78,534.52 236.00,471.49 243.22,477.98 250.44,543.67 257.67,568.27 264.89,579.87 272.11,545.47 279.33,521.29 286.56,500.61 293.78,504.45 301.00,575.71 308.22,571.02 315.44,495.22 322.67,580.60 329.89,503.78 337.11,529.94 344.33,481.12 351.56,532.90 358.78,559.12 366.00,493.13 373.22,503.39 380.44,543.97 387.67,556.09 394.89,578.40 402.11,581.26 409.33,501.15 416.56,559.73 423.78,484.75 431.00,560.97 438.22,539.26 445.44,518.54 452.67,498.40 459.89,523.86 467.11,548.84 474.33,551.27 481.56,530.75 488.78,443.82 496.00,557.24" fill="none" stroke="#2563eb" stroke-width="1.8" stroke-opacity="0.45" stroke-linejoin="round" stroke-linecap="round"/>
<circle cx="106.00" cy="528.13" r="1.8" fill="#2563eb" fill-opacity="0.55"/>
<circle cx="127.67" cy="574.25" r="1.8" fill="#2563eb" fill-opacity="0.55"/>
<circle cx="149.33" cy="579.78" r="1.8" fill="#2563eb" fill-opacity="0.55"/>
<circle cx="171.00" cy="580.13" r="1.8" fill="#2563eb" fill-opacity="0.55"/>
<circle cx="192.67" cy="540.02" r="1.8" fill="#2563eb" fill-opacity="0.55"/>
<circle cx="214.33" cy="582.64" r="1.8" fill="#2563eb" fill-opacity="0.55"/>
<circle cx="236.00" cy="471.49" r="1.8" fill="#2563eb" fill-opacity="0.55"/>
<circle cx="257.67" cy="568.27" r="1.8" fill="#2563eb" fill-opacity="0.55"/>
<circle cx="279.33" cy="521.29" r="1.8" fill="#2563eb" fill-opacity="0.55"/>
<circle cx="301.00" cy="575.71" r="1.8" fill="#2563eb" fill-opacity="0.55"/>
<circle cx="322.67" cy="580.60" r="1.8" fill="#2563eb" fill-opacity="0.55"/>
<circle cx="344.33" cy="481.12" r="1.8" fill="#2563eb" fill-opacity="0.55"/>
<circle cx="366.00" cy="493.13" r="1.8" fill="#2563eb" fill-opacity="0.55"/>
<circle cx="387.67" cy="556.09" r="1.8" fill="#2563eb" fill-opacity="0.55"/>
<circle cx="409.33" cy="501.15" r="1.8" fill="#2563eb" fill-opacity="0.55"/>
<circle cx="431.00" cy="560.97" r="1.8" fill="#2563eb" fill-opacity="0.55"/>
<circle cx="452.67" cy="498.40" r="1.8" fill="#2563eb" fill-opacity="0.55"/>
<circle cx="474.33" cy="551.27" r="1.8" fill="#2563eb" fill-opacity="0.55"/>
<circle cx="496.00" cy="557.24" r="1.8" fill="#2563eb" fill-opacity="0.55"/>
<polyline points="106.00,551.79 113.22,523.73 120.44,541.96 127.67,570.13 134.89,526.55 142.11,560.06 149.33,522.08 156.56,560.49 163.78,562.43 171.00,511.87 178.22,554.83 185.44,563.64 192.67,533.31 199.89,581.24 207.11,514.55 214.33,537.66 221.56,466.18 228.78,520.92 236.00,558.30 243.22,463.16 250.44,470.68 257.67,560.04 264.89,562.70 272.11,559.90 279.33,548.93 286.56,528.41 293.78,451.73 301.00,580.54 308.22,558.60 315.44,488.93 322.67,566.58 329.89,489.04 337.11,531.26 344.33,456.49 351.56,504.67 358.78,570.39 366.00,544.56 373.22,495.48 380.44,557.85 387.67,486.04 394.89,488.26 402.11,556.82 409.33,511.70 416.56,519.61 423.78,528.73 431.00,548.35 438.22,534.87 445.44,513.56 452.67,514.34 459.89,497.46 467.11,499.32 474.33,559.40 481.56,544.73 488.78,537.02 496.00,546.44" fill="none" stroke="#f97316" stroke-width="3.8" stroke-opacity="1" stroke-linejoin="round" stroke-linecap="round"/>
<circle cx="106.00" cy="551.79" r="3.0" fill="#f97316" fill-opacity="1"/>
<circle cx="127.67" cy="570.13" r="3.0" fill="#f97316" fill-opacity="1"/>
<circle cx="149.33" cy="522.08" r="3.0" fill="#f97316" fill-opacity="1"/>
<circle cx="171.00" cy="511.87" r="3.0" fill="#f97316" fill-opacity="1"/>
<circle cx="192.67" cy="533.31" r="3.0" fill="#f97316" fill-opacity="1"/>
<circle cx="214.33" cy="537.66" r="3.0" fill="#f97316" fill-opacity="1"/>
<circle cx="236.00" cy="558.30" r="3.0" fill="#f97316" fill-opacity="1"/>
<circle cx="257.67" cy="560.04" r="3.0" fill="#f97316" fill-opacity="1"/>
<circle cx="279.33" cy="548.93" r="3.0" fill="#f97316" fill-opacity="1"/>
<circle cx="301.00" cy="580.54" r="3.0" fill="#f97316" fill-opacity="1"/>
<circle cx="322.67" cy="566.58" r="3.0" fill="#f97316" fill-opacity="1"/>
<circle cx="344.33" cy="456.49" r="3.0" fill="#f97316" fill-opacity="1"/>
<circle cx="366.00" cy="544.56" r="3.0" fill="#f97316" fill-opacity="1"/>
<circle cx="387.67" cy="486.04" r="3.0" fill="#f97316" fill-opacity="1"/>
<circle cx="409.33" cy="511.70" r="3.0" fill="#f97316" fill-opacity="1"/>
<circle cx="431.00" cy="548.35" r="3.0" fill="#f97316" fill-opacity="1"/>
<circle cx="452.67" cy="514.34" r="3.0" fill="#f97316" fill-opacity="1"/>
<circle cx="474.33" cy="559.40" r="3.0" fill="#f97316" fill-opacity="1"/>
<circle cx="496.00" cy="546.44" r="3.0" fill="#f97316" fill-opacity="1"/>
<text x="496" y="609" class="tick" text-anchor="end">Round sequence; higher is better</text>
<rect x="560" y="379" width="472" height="245" rx="8" fill="#ffffff" stroke="#dbe3ef"/>
<text x="578" y="407" class="label" font-weight="700">Observed cost / round</text>
<rect x="878" y="391" width="136" height="26" rx="13" fill="#fef3c7" stroke="#f59e0b" stroke-width="1.4"/>
<text x="946" y="409" class="tick" font-weight="800" text-anchor="middle" fill="#92400e">Mean winner: Infron</text>
<line x1="618" y1="584.00" x2="1008" y2="584.00" stroke="#e5e7eb"/>
<text x="610" y="588.00" class="tick" text-anchor="end">$0.0000</text>
<line x1="618" y1="531.67" x2="1008" y2="531.67" stroke="#e5e7eb"/>
<text x="610" y="535.67" class="tick" text-anchor="end">$0.0002</text>
<line x1="618" y1="479.33" x2="1008" y2="479.33" stroke="#e5e7eb"/>
<text x="610" y="483.33" class="tick" text-anchor="end">$0.0003</text>
<line x1="618" y1="427.00" x2="1008" y2="427.00" stroke="#e5e7eb"/>
<text x="610" y="431.00" class="tick" text-anchor="end">$0.0005</text>
<polyline points="618.00,443.82 625.22,487.12 632.44,518.89 639.67,557.21 646.89,471.23 654.11,557.21 661.33,556.59 668.56,519.52 675.78,512.04 683.00,518.89 690.22,532.29 697.44,512.66 704.67,522.94 711.89,523.57 719.11,500.83 726.33,556.59 733.56,503.01 740.78,529.17 748.00,487.74 755.22,498.65 762.44,494.29 769.67,541.95 776.89,557.21 784.11,518.27 791.33,530.11 798.56,537.90 805.78,531.04 813.00,556.59 820.22,550.67 827.44,526.99 834.67,557.21 841.89,524.50 849.11,540.39 856.33,502.70 863.56,531.98 870.78,542.88 878.00,464.38 885.22,499.58 892.44,492.11 899.67,544.44 906.89,545.06 914.11,557.21 921.33,514.85 928.56,549.11 935.78,503.63 943.00,536.03 950.22,545.06 957.44,539.14 964.67,524.19 971.89,493.97 979.11,536.34 986.33,541.32 993.56,534.78 1000.78,495.53 1008.00,549.42" fill="none" stroke="#2563eb" stroke-width="3.8" stroke-opacity="1" stroke-linejoin="round" stroke-linecap="round"/>
<circle cx="618.00" cy="443.82" r="3.0" fill="#2563eb" fill-opacity="1"/>
<circle cx="639.67" cy="557.21" r="3.0" fill="#2563eb" fill-opacity="1"/>
<circle cx="661.33" cy="556.59" r="3.0" fill="#2563eb" fill-opacity="1"/>
<circle cx="683.00" cy="518.89" r="3.0" fill="#2563eb" fill-opacity="1"/>
<circle cx="704.67" cy="522.94" r="3.0" fill="#2563eb" fill-opacity="1"/>
<circle cx="726.33" cy="556.59" r="3.0" fill="#2563eb" fill-opacity="1"/>
<circle cx="748.00" cy="487.74" r="3.0" fill="#2563eb" fill-opacity="1"/>
<circle cx="769.67" cy="541.95" r="3.0" fill="#2563eb" fill-opacity="1"/>
<circle cx="791.33" cy="530.11" r="3.0" fill="#2563eb" fill-opacity="1"/>
<circle cx="813.00" cy="556.59" r="3.0" fill="#2563eb" fill-opacity="1"/>
<circle cx="834.67" cy="557.21" r="3.0" fill="#2563eb" fill-opacity="1"/>
<circle cx="856.33" cy="502.70" r="3.0" fill="#2563eb" fill-opacity="1"/>
<circle cx="878.00" cy="464.38" r="3.0" fill="#2563eb" fill-opacity="1"/>
<circle cx="899.67" cy="544.44" r="3.0" fill="#2563eb" fill-opacity="1"/>
<circle cx="921.33" cy="514.85" r="3.0" fill="#2563eb" fill-opacity="1"/>
<circle cx="943.00" cy="536.03" r="3.0" fill="#2563eb" fill-opacity="1"/>
<circle cx="964.67" cy="524.19" r="3.0" fill="#2563eb" fill-opacity="1"/>
<circle cx="986.33" cy="541.32" r="3.0" fill="#2563eb" fill-opacity="1"/>
<circle cx="1008.00" cy="549.42" r="3.0" fill="#2563eb" fill-opacity="1"/>
<polyline points="618.00,505.74 625.22,503.47 632.44,538.36 639.67,537.64 646.89,506.57 654.11,518.21 661.33,525.80 668.56,515.39 675.78,518.18 683.00,505.31 690.22,520.19 697.44,556.84 704.67,525.15 711.89,556.54 719.11,489.44 726.33,529.09 733.56,510.95 740.78,540.84 748.00,518.18 755.22,503.07 762.44,474.01 769.67,519.80 776.89,518.21 784.11,514.26 791.33,530.64 798.56,528.23 805.78,509.46 813.00,557.12 820.22,519.02 827.44,519.01 834.67,520.21 841.89,518.35 849.11,533.27 856.33,495.81 863.56,512.72 870.78,515.78 878.00,536.26 885.22,496.27 892.44,519.82 899.67,509.97 906.89,526.46 914.11,519.80 921.33,518.87 928.56,506.60 935.78,512.88 943.00,544.19 950.22,542.70 957.44,542.00 964.67,528.75 971.89,511.93 979.11,514.77 986.33,528.93 993.56,534.06 1000.78,531.19 1008.00,546.67" fill="none" stroke="#f97316" stroke-width="1.8" stroke-opacity="0.45" stroke-linejoin="round" stroke-linecap="round"/>
<circle cx="618.00" cy="505.74" r="1.8" fill="#f97316" fill-opacity="0.55"/>
<circle cx="639.67" cy="537.64" r="1.8" fill="#f97316" fill-opacity="0.55"/>
<circle cx="661.33" cy="525.80" r="1.8" fill="#f97316" fill-opacity="0.55"/>
<circle cx="683.00" cy="505.31" r="1.8" fill="#f97316" fill-opacity="0.55"/>
<circle cx="704.67" cy="525.15" r="1.8" fill="#f97316" fill-opacity="0.55"/>
<circle cx="726.33" cy="529.09" r="1.8" fill="#f97316" fill-opacity="0.55"/>
<circle cx="748.00" cy="518.18" r="1.8" fill="#f97316" fill-opacity="0.55"/>
<circle cx="769.67" cy="519.80" r="1.8" fill="#f97316" fill-opacity="0.55"/>
<circle cx="791.33" cy="530.64" r="1.8" fill="#f97316" fill-opacity="0.55"/>
<circle cx="813.00" cy="557.12" r="1.8" fill="#f97316" fill-opacity="0.55"/>
<circle cx="834.67" cy="520.21" r="1.8" fill="#f97316" fill-opacity="0.55"/>
<circle cx="856.33" cy="495.81" r="1.8" fill="#f97316" fill-opacity="0.55"/>
<circle cx="878.00" cy="536.26" r="1.8" fill="#f97316" fill-opacity="0.55"/>
<circle cx="899.67" cy="509.97" r="1.8" fill="#f97316" fill-opacity="0.55"/>
<circle cx="921.33" cy="518.87" r="1.8" fill="#f97316" fill-opacity="0.55"/>
<circle cx="943.00" cy="544.19" r="1.8" fill="#f97316" fill-opacity="0.55"/>
<circle cx="964.67" cy="528.75" r="1.8" fill="#f97316" fill-opacity="0.55"/>
<circle cx="986.33" cy="528.93" r="1.8" fill="#f97316" fill-opacity="0.55"/>
<circle cx="1008.00" cy="546.67" r="1.8" fill="#f97316" fill-opacity="0.55"/>
<text x="1008" y="609" class="tick" text-anchor="end">Round sequence; lower is better</text>
<rect x="48" y="682" width="472" height="245" rx="8" fill="#ffffff" stroke="#dbe3ef"/>
<text x="66" y="710" class="label" font-weight="700">Token Cache Hit Rate</text>
<rect x="366" y="694" width="136" height="26" rx="13" fill="#fef3c7" stroke="#f59e0b" stroke-width="1.4"/>
<text x="434" y="712" class="tick" font-weight="800" text-anchor="middle" fill="#92400e">Mean winner: Infron</text>
<line x1="106" y1="887.00" x2="496" y2="887.00" stroke="#e5e7eb"/>
<text x="98" y="891.00" class="tick" text-anchor="end">0%</text>
<line x1="106" y1="834.67" x2="496" y2="834.67" stroke="#e5e7eb"/>
<text x="98" y="838.67" class="tick" text-anchor="end">35%</text>
<line x1="106" y1="782.33" x2="496" y2="782.33" stroke="#e5e7eb"/>
<text x="98" y="786.33" class="tick" text-anchor="end">70%</text>
<line x1="106" y1="730.00" x2="496" y2="730.00" stroke="#e5e7eb"/>
<text x="98" y="734.00" class="tick" text-anchor="end">105%</text>
<polyline points="106.00,887.00 113.22,747.50 120.44,749.01 127.67,746.82 134.89,759.13 142.11,746.82 149.33,747.16 156.56,887.00 163.78,887.00 171.00,747.59 178.22,758.50 185.44,887.00 192.67,748.60 199.89,794.00 207.11,748.93 214.33,747.16 221.56,748.93 228.78,747.59 236.00,758.50 243.22,748.93 250.44,748.93 257.67,793.55 264.89,746.82 272.11,794.00 279.33,749.01 286.56,748.60 293.78,748.93 301.00,747.16 308.22,746.82 315.44,748.60 322.67,746.82 329.89,748.60 337.11,759.21 344.33,748.93 351.56,748.60 358.78,746.82 366.00,748.60 373.22,794.00 380.44,758.50 387.67,748.60 394.89,759.21 402.11,746.82 409.33,748.60 416.56,749.01 423.78,748.60 431.00,759.21 438.22,748.26 445.44,748.93 452.67,758.50 459.89,748.93 467.11,747.59 474.33,747.59 481.56,748.60 488.78,759.13 496.00,758.50" fill="none" stroke="#2563eb" stroke-width="3.8" stroke-opacity="1" stroke-linejoin="round" stroke-linecap="round"/>
<circle cx="106.00" cy="887.00" r="3.0" fill="#2563eb" fill-opacity="1"/>
<circle cx="127.67" cy="746.82" r="3.0" fill="#2563eb" fill-opacity="1"/>
<circle cx="149.33" cy="747.16" r="3.0" fill="#2563eb" fill-opacity="1"/>
<circle cx="171.00" cy="747.59" r="3.0" fill="#2563eb" fill-opacity="1"/>
<circle cx="192.67" cy="748.60" r="3.0" fill="#2563eb" fill-opacity="1"/>
<circle cx="214.33" cy="747.16" r="3.0" fill="#2563eb" fill-opacity="1"/>
<circle cx="236.00" cy="758.50" r="3.0" fill="#2563eb" fill-opacity="1"/>
<circle cx="257.67" cy="793.55" r="3.0" fill="#2563eb" fill-opacity="1"/>
<circle cx="279.33" cy="749.01" r="3.0" fill="#2563eb" fill-opacity="1"/>
<circle cx="301.00" cy="747.16" r="3.0" fill="#2563eb" fill-opacity="1"/>
<circle cx="322.67" cy="746.82" r="3.0" fill="#2563eb" fill-opacity="1"/>
<circle cx="344.33" cy="748.93" r="3.0" fill="#2563eb" fill-opacity="1"/>
<circle cx="366.00" cy="748.60" r="3.0" fill="#2563eb" fill-opacity="1"/>
<circle cx="387.67" cy="748.60" r="3.0" fill="#2563eb" fill-opacity="1"/>
<circle cx="409.33" cy="748.60" r="3.0" fill="#2563eb" fill-opacity="1"/>
<circle cx="431.00" cy="759.21" r="3.0" fill="#2563eb" fill-opacity="1"/>
<circle cx="452.67" cy="758.50" r="3.0" fill="#2563eb" fill-opacity="1"/>
<circle cx="474.33" cy="747.59" r="3.0" fill="#2563eb" fill-opacity="1"/>
<circle cx="496.00" cy="758.50" r="3.0" fill="#2563eb" fill-opacity="1"/>
<polyline points="106.00,887.00 113.22,759.13 120.44,749.01 127.67,818.28 134.89,759.13 142.11,812.26 149.33,793.78 156.56,822.75 163.78,821.29 171.00,747.59 178.22,816.82 185.44,747.59 192.67,748.60 199.89,747.50 207.11,748.93 214.33,758.82 221.56,748.93 228.78,759.21 236.00,821.29 243.22,748.93 250.44,794.95 257.67,816.82 264.89,825.76 272.11,827.24 279.33,749.01 286.56,748.60 293.78,748.93 301.00,747.16 308.22,815.27 315.44,748.60 322.67,818.28 329.89,794.73 337.11,759.21 344.33,748.93 351.56,748.60 358.78,825.76 366.00,748.60 373.22,759.13 380.44,812.26 387.67,748.60 394.89,759.21 402.11,813.81 409.33,748.60 416.56,749.01 423.78,748.60 431.00,747.59 438.22,748.26 445.44,748.93 452.67,758.50 459.89,748.93 467.11,759.21 474.33,747.59 481.56,748.60 488.78,759.13 496.00,758.50" fill="none" stroke="#f97316" stroke-width="1.8" stroke-opacity="0.45" stroke-linejoin="round" stroke-linecap="round"/>
<circle cx="106.00" cy="887.00" r="1.8" fill="#f97316" fill-opacity="0.55"/>
<circle cx="127.67" cy="818.28" r="1.8" fill="#f97316" fill-opacity="0.55"/>
<circle cx="149.33" cy="793.78" r="1.8" fill="#f97316" fill-opacity="0.55"/>
<circle cx="171.00" cy="747.59" r="1.8" fill="#f97316" fill-opacity="0.55"/>
<circle cx="192.67" cy="748.60" r="1.8" fill="#f97316" fill-opacity="0.55"/>
<circle cx="214.33" cy="758.82" r="1.8" fill="#f97316" fill-opacity="0.55"/>
<circle cx="236.00" cy="821.29" r="1.8" fill="#f97316" fill-opacity="0.55"/>
<circle cx="257.67" cy="816.82" r="1.8" fill="#f97316" fill-opacity="0.55"/>
<circle cx="279.33" cy="749.01" r="1.8" fill="#f97316" fill-opacity="0.55"/>
<circle cx="301.00" cy="747.16" r="1.8" fill="#f97316" fill-opacity="0.55"/>
<circle cx="322.67" cy="818.28" r="1.8" fill="#f97316" fill-opacity="0.55"/>
<circle cx="344.33" cy="748.93" r="1.8" fill="#f97316" fill-opacity="0.55"/>
<circle cx="366.00" cy="748.60" r="1.8" fill="#f97316" fill-opacity="0.55"/>
<circle cx="387.67" cy="748.60" r="1.8" fill="#f97316" fill-opacity="0.55"/>
<circle cx="409.33" cy="748.60" r="1.8" fill="#f97316" fill-opacity="0.55"/>
<circle cx="431.00" cy="747.59" r="1.8" fill="#f97316" fill-opacity="0.55"/>
<circle cx="452.67" cy="758.50" r="1.8" fill="#f97316" fill-opacity="0.55"/>
<circle cx="474.33" cy="747.59" r="1.8" fill="#f97316" fill-opacity="0.55"/>
<circle cx="496.00" cy="758.50" r="1.8" fill="#f97316" fill-opacity="0.55"/>
<text x="496" y="912" class="tick" text-anchor="end">Round sequence; higher is better</text>
<rect x="830" y="28" width="14" height="14" rx="3" fill="#2563eb"/>
<text x="852" y="40" class="label">Infron</text>
<rect x="830" y="52" width="14" height="14" rx="3" fill="#f97316"/>
<text x="852" y="64" class="label">OpenRouter</text>
</svg>