<svg xmlns="http://www.w3.org/2000/svg" width="1080" height="1000" viewBox="0 0 1080 1000"><style>text{font-family:-apple-system,BlinkMacSystemFont,'Segoe UI',sans-serif;fill:#111827}.title{font-size:22px;font-weight:700}.label{font-size:13px;fill:#374151}.tick{font-size:12px;fill:#6b7280}.value{font-size:12px;fill:#111827}</style><rect width="100%" height="100%" fill="#ffffff"/>
<text x="48" y="34" class="title">Throughput First 路由模式：指标生成过程对比曲线</text>
<text x="48" y="58" class="label">按 group/round 顺序绘制每轮指标；曲线展示汇总均值背后的波动过程。</text>
<rect x="48" y="76" width="472" height="245" rx="8" fill="#ffffff" stroke="#dbe3ef"/>
<text x="66" y="104" class="label" font-weight="700">Latency / 请求（含 reasoning）</text>
<rect x="366" y="88" width="136" height="26" rx="13" fill="#fef3c7" stroke="#f59e0b" stroke-width="1.4"/>
<text x="434" y="106" class="tick" font-weight="800" text-anchor="middle" fill="#92400e">均值胜出: OpenRouter</text>
<line x1="106" y1="281.00" x2="496" y2="281.00" stroke="#e5e7eb"/>
<text x="98" y="285.00" class="tick" text-anchor="end">0.0</text>
<line x1="106" y1="228.67" x2="496" y2="228.67" stroke="#e5e7eb"/>
<text x="98" y="232.67" class="tick" text-anchor="end">7358</text>
<line x1="106" y1="176.33" x2="496" y2="176.33" stroke="#e5e7eb"/>
<text x="98" y="180.33" class="tick" text-anchor="end">14716</text>
<line x1="106" y1="124.00" x2="496" y2="124.00" stroke="#e5e7eb"/>
<text x="98" y="128.00" class="tick" text-anchor="end">22074</text>
<polyline points="106.00,216.01 107.96,228.60 109.92,236.49 111.88,254.21 113.84,237.79 115.80,212.83 117.76,243.76 119.72,254.04 121.68,249.81 123.64,226.77 125.60,251.03 127.56,246.92 129.52,236.73 131.48,212.48 133.44,240.17 135.40,258.99 137.36,247.34 139.32,228.87 141.28,238.80 143.24,248.64 145.20,253.54 147.16,221.85 149.12,218.88 151.08,251.88 153.04,237.04 154.99,226.46 156.95,208.02 158.91,254.26 160.87,231.80 162.83,193.85 164.79,241.85 166.75,219.65 168.71,224.74 170.67,218.25 172.63,245.50 174.59,240.01 176.55,238.80 178.51,168.95 180.47,227.12 182.43,217.48 184.39,217.42 186.35,233.03 188.31,234.10 190.27,248.23 192.23,237.98 194.19,148.96 196.15,242.28 198.11,246.99 200.07,197.80 202.03,218.50 203.99,190.74 205.95,207.80 207.91,205.52 209.87,165.27 211.83,221.93 213.79,165.73 215.75,202.73 217.71,192.58 219.67,205.39 221.63,186.82 223.59,221.84 225.55,231.41 227.51,211.98 229.47,218.26 231.43,242.83 233.39,243.50 235.35,199.86 237.31,220.91 239.27,241.32 241.23,247.76 243.19,236.69 245.15,169.44 247.11,243.51 249.07,255.26 251.03,203.68 252.98,213.54 254.94,229.98 256.90,243.50 258.86,235.29 260.82,185.22 262.78,250.49 264.74,253.74 266.70,196.14 268.66,182.15 270.62,232.94 272.58,187.89 274.54,239.65 276.50,226.63 278.46,221.87 280.42,228.64 282.38,236.05 284.34,220.89 286.30,215.33 288.26,228.59 290.22,234.33 292.18,166.94 294.14,220.89 296.10,216.92 298.06,236.65 300.02,140.82 301.98,222.93 303.94,204.09 305.90,210.12 307.86,233.24 309.82,237.49 311.78,187.81 313.74,220.39 315.70,232.63 317.66,238.19 319.62,233.67 321.58,216.71 323.54,248.66 325.50,219.82 327.46,221.97 329.42,227.79 331.38,245.39 333.34,237.21 335.30,223.11 337.26,249.78 339.22,237.70 341.18,248.30 343.14,218.58 345.10,242.85 347.06,224.13 349.02,222.73 350.97,213.42 352.93,236.72 354.89,238.55 356.85,235.18 358.81,229.41 360.77,252.70 362.73,258.23 364.69,258.35 366.65,225.47 368.61,237.26 370.57,257.48 372.53,246.83 374.49,222.43 376.45,230.89 378.41,254.94 380.37,238.41 382.33,231.04 384.29,197.77 386.25,239.06 388.21,226.45 390.17,221.93 392.13,238.90 394.09,252.17 396.05,228.69 398.01,195.90 399.97,244.23 401.93,231.48 403.89,252.88 405.85,257.30 407.81,246.37 409.77,240.14 411.73,249.20 413.69,263.92 415.65,248.40 417.61,230.86 419.57,239.66 421.53,246.61 423.49,234.74 425.45,210.89 427.41,225.32 429.37,234.57 431.33,238.06 433.29,179.56 435.25,251.99 437.21,257.23 439.17,249.91 441.13,228.59 443.09,247.28 445.05,259.13 447.01,234.67 448.96,222.34 450.92,240.03 452.88,245.83 454.84,249.74 456.80,223.54 458.76,238.47 460.72,239.03 462.68,226.60 464.64,228.48 466.60,234.23 468.56,231.87 470.52,175.13 472.48,217.51 474.44,218.00 476.40,240.47 478.36,246.28 480.32,229.26 482.28,230.17 484.24,255.33 486.20,231.15 488.16,236.00 490.12,239.28 492.08,252.21 494.04,247.71 496.00,197.47" fill="none" stroke="#2563eb" stroke-width="1.8" stroke-opacity="0.45" stroke-linejoin="round" stroke-linecap="round"/>
<circle cx="106.00" cy="216.01" r="1.8" fill="#2563eb" fill-opacity="0.55"/>
<circle cx="127.56" cy="246.92" r="1.8" fill="#2563eb" fill-opacity="0.55"/>
<circle cx="149.12" cy="218.88" r="1.8" fill="#2563eb" fill-opacity="0.55"/>
<circle cx="170.67" cy="218.25" r="1.8" fill="#2563eb" fill-opacity="0.55"/>
<circle cx="192.23" cy="237.98" r="1.8" fill="#2563eb" fill-opacity="0.55"/>
<circle cx="213.79" cy="165.73" r="1.8" fill="#2563eb" fill-opacity="0.55"/>
<circle cx="235.35" cy="199.86" r="1.8" fill="#2563eb" fill-opacity="0.55"/>
<circle cx="256.90" cy="243.50" r="1.8" fill="#2563eb" fill-opacity="0.55"/>
<circle cx="278.46" cy="221.87" r="1.8" fill="#2563eb" fill-opacity="0.55"/>
<circle cx="300.02" cy="140.82" r="1.8" fill="#2563eb" fill-opacity="0.55"/>
<circle cx="321.58" cy="216.71" r="1.8" fill="#2563eb" fill-opacity="0.55"/>
<circle cx="343.14" cy="218.58" r="1.8" fill="#2563eb" fill-opacity="0.55"/>
<circle cx="364.69" cy="258.35" r="1.8" fill="#2563eb" fill-opacity="0.55"/>
<circle cx="386.25" cy="239.06" r="1.8" fill="#2563eb" fill-opacity="0.55"/>
<circle cx="407.81" cy="246.37" r="1.8" fill="#2563eb" fill-opacity="0.55"/>
<circle cx="429.37" cy="234.57" r="1.8" fill="#2563eb" fill-opacity="0.55"/>
<circle cx="450.92" cy="240.03" r="1.8" fill="#2563eb" fill-opacity="0.55"/>
<circle cx="472.48" cy="217.51" r="1.8" fill="#2563eb" fill-opacity="0.55"/>
<circle cx="494.04" cy="247.71" r="1.8" fill="#2563eb" fill-opacity="0.55"/>
<polyline points="106.00,270.15 107.96,272.78 109.92,274.30 111.88,274.11 113.84,273.09 115.80,244.33 117.76,273.06 119.72,272.33 121.68,272.91 123.64,273.81 125.60,274.24 127.56,272.14 129.52,274.70 131.48,274.48 133.44,274.78 135.40,273.39 137.36,272.83 139.32,274.37 141.28,272.47 143.24,271.92 145.20,272.60 147.16,272.27 149.12,272.24 151.08,273.12 153.04,273.90 154.99,270.73 156.95,271.64 158.91,272.97 160.87,249.61 162.83,273.58 164.79,272.83 166.75,273.10 168.71,273.46 170.67,220.27 172.63,272.62 174.59,271.27 176.55,271.47 178.51,251.60 180.47,274.87 182.43,273.08 184.39,273.15 186.35,212.30 188.31,273.94 190.27,273.81 192.23,273.73 194.19,237.40 196.15,273.31 198.11,273.21 200.07,271.37 202.03,223.84 203.99,274.00 205.95,230.57 207.91,264.36 209.87,273.23 211.83,273.39 213.79,241.75 215.75,274.26 217.71,274.45 219.67,273.96 221.63,243.95 223.59,272.28 225.55,272.05 227.51,272.11 229.47,254.99 231.43,261.44 233.39,273.66 235.35,273.57 237.31,258.91 239.27,263.40 241.23,272.95 243.19,274.26 245.15,270.77 247.11,253.96 249.07,271.90 251.03,272.12 252.98,257.58 254.94,259.19 256.90,271.93 258.86,270.45 260.82,239.37 262.78,248.06 264.74,273.95 266.70,273.39 268.66,249.78 270.62,238.34 272.58,261.55 274.54,269.37 276.50,226.07 278.46,246.63 280.42,272.13 282.38,269.67 284.34,244.67 286.30,263.30 288.26,265.59 290.22,264.09 292.18,226.08 294.14,257.59 296.10,233.71 298.06,219.85 300.02,262.42 301.98,224.12 303.94,256.35 305.90,195.12 307.86,274.25 309.82,233.39 311.78,189.50 313.74,254.17 315.70,246.71 317.66,263.88 319.62,262.94 321.58,231.89 323.54,264.88 325.50,264.39 327.46,270.39 329.42,252.68 331.38,265.23 333.34,271.15 335.30,252.26 337.26,259.56 339.22,265.95 341.18,265.13 343.14,233.92 345.10,259.31 347.06,267.49 349.02,252.00 350.97,242.79 352.93,249.29 354.89,267.30 356.85,247.82 358.81,221.75 360.77,255.29 362.73,267.05 364.69,266.56 366.65,251.08 368.61,255.83 370.57,265.65 372.53,233.58 374.49,238.13 376.45,253.74 378.41,271.37 380.37,266.64 382.33,254.30 384.29,270.38 386.25,267.65 388.21,264.73 390.17,264.20 392.13,273.65 394.09,265.48 396.05,221.17 398.01,230.10 399.97,264.86 401.93,209.83 403.89,273.02 405.85,253.18 407.81,247.68 409.77,243.51 411.73,271.92 413.69,261.28 415.65,258.47 417.61,242.80 419.57,272.84 421.53,268.99 423.49,272.48 425.45,241.06 427.41,273.23 429.37,264.81 431.33,246.87 433.29,267.09 435.25,273.92 437.21,254.29 439.17,255.43 441.13,249.17 443.09,272.14 445.05,264.52 447.01,262.81 448.96,224.92 450.92,272.71 452.88,259.70 454.84,268.77 456.80,273.32 458.76,266.67 460.72,268.02 462.68,267.56 464.64,248.64 466.60,270.87 468.56,263.94 470.52,268.03 472.48,236.36 474.44,272.27 476.40,267.09 478.36,251.63 480.32,231.03 482.28,272.73 484.24,265.63 486.20,181.34 488.16,243.88 490.12,273.51 492.08,262.96 494.04,259.26 496.00,237.50" fill="none" stroke="#f97316" stroke-width="3.8" stroke-opacity="1" stroke-linejoin="round" stroke-linecap="round"/>
<circle cx="106.00" cy="270.15" r="3.0" fill="#f97316" fill-opacity="1"/>
<circle cx="127.56" cy="272.14" r="3.0" fill="#f97316" fill-opacity="1"/>
<circle cx="149.12" cy="272.24" r="3.0" fill="#f97316" fill-opacity="1"/>
<circle cx="170.67" cy="220.27" r="3.0" fill="#f97316" fill-opacity="1"/>
<circle cx="192.23" cy="273.73" r="3.0" fill="#f97316" fill-opacity="1"/>
<circle cx="213.79" cy="241.75" r="3.0" fill="#f97316" fill-opacity="1"/>
<circle cx="235.35" cy="273.57" r="3.0" fill="#f97316" fill-opacity="1"/>
<circle cx="256.90" cy="271.93" r="3.0" fill="#f97316" fill-opacity="1"/>
<circle cx="278.46" cy="246.63" r="3.0" fill="#f97316" fill-opacity="1"/>
<circle cx="300.02" cy="262.42" r="3.0" fill="#f97316" fill-opacity="1"/>
<circle cx="321.58" cy="231.89" r="3.0" fill="#f97316" fill-opacity="1"/>
<circle cx="343.14" cy="233.92" r="3.0" fill="#f97316" fill-opacity="1"/>
<circle cx="364.69" cy="266.56" r="3.0" fill="#f97316" fill-opacity="1"/>
<circle cx="386.25" cy="267.65" r="3.0" fill="#f97316" fill-opacity="1"/>
<circle cx="407.81" cy="247.68" r="3.0" fill="#f97316" fill-opacity="1"/>
<circle cx="429.37" cy="264.81" r="3.0" fill="#f97316" fill-opacity="1"/>
<circle cx="450.92" cy="272.71" r="3.0" fill="#f97316" fill-opacity="1"/>
<circle cx="472.48" cy="236.36" r="3.0" fill="#f97316" fill-opacity="1"/>
<circle cx="494.04" cy="259.26" r="3.0" fill="#f97316" fill-opacity="1"/>
<text x="496" y="306" class="tick" text-anchor="end">Round 序列；越低越好</text>
<rect x="560" y="76" width="472" height="245" rx="8" fill="#ffffff" stroke="#dbe3ef"/>
<text x="578" y="104" class="label" font-weight="700">TTFT / 首包响应</text>
<rect x="878" y="88" width="136" height="26" rx="13" fill="#fef3c7" stroke="#f59e0b" stroke-width="1.4"/>
<text x="946" y="106" class="tick" font-weight="800" text-anchor="middle" fill="#92400e">均值胜出: OpenRouter</text>
<line x1="618" y1="281.00" x2="1008" y2="281.00" stroke="#e5e7eb"/>
<text x="610" y="285.00" class="tick" text-anchor="end">0.0</text>
<line x1="618" y1="228.67" x2="1008" y2="228.67" stroke="#e5e7eb"/>
<text x="610" y="232.67" class="tick" text-anchor="end">4875</text>
<line x1="618" y1="176.33" x2="1008" y2="176.33" stroke="#e5e7eb"/>
<text x="610" y="180.33" class="tick" text-anchor="end">9749</text>
<line x1="618" y1="124.00" x2="1008" y2="124.00" stroke="#e5e7eb"/>
<text x="610" y="128.00" class="tick" text-anchor="end">14624</text>
<polyline points="618.00,258.72 619.96,258.29 621.92,260.15 623.88,256.11 625.84,255.91 627.80,258.03 629.76,260.12 631.72,254.85 633.68,257.43 635.64,257.83 637.60,258.88 639.56,261.73 641.52,262.18 643.48,253.02 645.44,253.66 647.40,260.87 649.36,256.93 651.32,250.92 653.28,257.30 655.24,253.61 657.20,260.18 659.16,250.79 661.12,231.87 663.08,255.18 665.04,252.29 666.99,260.17 668.95,215.89 670.91,256.72 672.87,225.55 674.83,228.46 676.79,256.44 678.75,222.69 680.71,215.53 682.67,219.45 684.63,242.29 686.59,247.17 688.55,243.25 690.51,214.73 692.47,243.05 694.43,207.07 696.39,220.13 698.35,261.51 700.31,243.23 702.27,264.68 704.23,236.36 706.19,208.46 708.15,241.41 710.11,246.96 712.07,166.34 714.03,245.75 715.99,175.63 717.95,246.16 719.91,217.77 721.87,140.82 723.83,213.58 725.79,185.68 727.75,195.86 729.71,179.91 731.67,184.65 733.63,207.25 735.59,248.98 737.55,245.80 739.51,229.77 741.47,256.99 743.43,250.70 745.39,249.82 747.35,253.60 749.31,246.57 751.27,256.69 753.23,257.42 755.19,260.09 757.15,197.55 759.11,251.25 761.07,259.71 763.03,219.04 764.98,256.41 766.94,236.84 768.90,258.45 770.86,226.24 772.82,233.38 774.78,261.27 776.74,260.48 778.70,186.92 780.66,187.35 782.62,256.52 784.58,161.76 786.54,250.80 788.50,256.61 790.46,249.87 792.42,230.78 794.38,251.63 796.34,244.96 798.30,230.42 800.26,216.81 802.22,235.49 804.18,182.49 806.14,240.02 808.10,232.20 810.06,242.59 812.02,235.89 813.98,214.55 815.94,229.47 817.90,228.52 819.86,222.56 821.82,244.07 823.78,250.22 825.74,241.71 827.70,240.16 829.66,244.17 831.62,257.10 833.58,259.91 835.54,257.90 837.50,258.77 839.46,252.67 841.42,245.08 843.38,255.90 845.34,251.98 847.30,246.08 849.26,262.18 851.22,251.88 853.18,262.35 855.14,241.14 857.10,258.26 859.06,232.01 861.02,232.70 862.97,235.86 864.93,245.31 866.89,246.03 868.85,238.13 870.81,259.98 872.77,261.62 874.73,260.82 876.69,259.51 878.65,248.33 880.61,247.59 882.57,263.08 884.53,261.62 886.49,248.66 888.45,256.29 890.41,251.94 892.37,253.73 894.33,258.46 896.29,260.28 898.25,234.28 900.21,249.17 902.17,244.73 904.13,254.68 906.09,260.23 908.05,261.86 910.01,261.00 911.97,254.09 913.93,261.70 915.89,256.41 917.85,263.86 919.81,259.87 921.77,261.72 923.73,258.80 925.69,262.71 927.65,257.68 929.61,257.55 931.57,258.82 933.53,261.51 935.49,234.59 937.45,257.32 939.41,256.97 941.37,242.07 943.33,251.57 945.29,254.72 947.25,257.23 949.21,258.57 951.17,260.71 953.13,254.80 955.09,253.18 957.05,256.92 959.01,258.34 960.96,260.66 962.92,257.33 964.88,261.50 966.84,259.61 968.80,246.38 970.76,243.65 972.72,241.80 974.68,255.36 976.64,233.66 978.60,247.85 980.56,235.90 982.52,228.33 984.48,252.93 986.44,258.04 988.40,254.39 990.36,261.44 992.32,262.18 994.28,240.16 996.24,262.21 998.20,258.10 1000.16,241.52 1002.12,244.74 1004.08,260.21 1006.04,259.50 1008.00,213.80" fill="none" stroke="#2563eb" stroke-width="1.8" stroke-opacity="0.45" stroke-linejoin="round" stroke-linecap="round"/>
<circle cx="618.00" cy="258.72" r="1.8" fill="#2563eb" fill-opacity="0.55"/>
<circle cx="639.56" cy="261.73" r="1.8" fill="#2563eb" fill-opacity="0.55"/>
<circle cx="661.12" cy="231.87" r="1.8" fill="#2563eb" fill-opacity="0.55"/>
<circle cx="682.67" cy="219.45" r="1.8" fill="#2563eb" fill-opacity="0.55"/>
<circle cx="704.23" cy="236.36" r="1.8" fill="#2563eb" fill-opacity="0.55"/>
<circle cx="725.79" cy="185.68" r="1.8" fill="#2563eb" fill-opacity="0.55"/>
<circle cx="747.35" cy="253.60" r="1.8" fill="#2563eb" fill-opacity="0.55"/>
<circle cx="768.90" cy="258.45" r="1.8" fill="#2563eb" fill-opacity="0.55"/>
<circle cx="790.46" cy="249.87" r="1.8" fill="#2563eb" fill-opacity="0.55"/>
<circle cx="812.02" cy="235.89" r="1.8" fill="#2563eb" fill-opacity="0.55"/>
<circle cx="833.58" cy="259.91" r="1.8" fill="#2563eb" fill-opacity="0.55"/>
<circle cx="855.14" cy="241.14" r="1.8" fill="#2563eb" fill-opacity="0.55"/>
<circle cx="876.69" cy="259.51" r="1.8" fill="#2563eb" fill-opacity="0.55"/>
<circle cx="898.25" cy="234.28" r="1.8" fill="#2563eb" fill-opacity="0.55"/>
<circle cx="919.81" cy="259.87" r="1.8" fill="#2563eb" fill-opacity="0.55"/>
<circle cx="941.37" cy="242.07" r="1.8" fill="#2563eb" fill-opacity="0.55"/>
<circle cx="962.92" cy="257.33" r="1.8" fill="#2563eb" fill-opacity="0.55"/>
<circle cx="984.48" cy="252.93" r="1.8" fill="#2563eb" fill-opacity="0.55"/>
<circle cx="1006.04" cy="259.50" r="1.8" fill="#2563eb" fill-opacity="0.55"/>
<polyline points="618.00,266.59 619.96,270.38 621.92,272.24 623.88,272.12 625.84,270.41 627.80,270.06 629.76,271.21 631.72,270.87 633.68,270.23 635.64,271.47 637.60,271.86 639.56,271.37 641.52,273.28 643.48,272.46 645.44,272.65 647.40,270.75 649.36,269.98 651.32,271.89 653.28,269.33 655.24,271.45 657.20,270.33 659.16,272.00 661.12,269.09 663.08,270.30 665.04,271.37 666.99,271.93 668.95,270.70 670.91,272.01 672.87,265.58 674.83,271.70 676.79,272.75 678.75,272.24 680.71,271.24 682.67,266.80 684.63,270.98 686.59,269.83 688.55,268.31 690.51,270.65 692.47,273.08 694.43,271.60 696.39,270.82 698.35,268.77 700.31,271.37 702.27,271.82 704.23,272.61 706.19,266.73 708.15,271.66 710.11,272.35 712.07,267.79 714.03,268.03 715.99,272.32 717.95,267.98 719.91,258.33 721.87,270.68 723.83,270.88 725.79,268.16 727.75,272.34 729.71,272.53 731.67,272.23 733.63,266.63 735.59,269.39 737.55,268.58 739.51,271.42 741.47,268.79 743.43,269.43 745.39,272.13 747.35,271.73 749.31,268.81 751.27,265.07 753.23,270.47 755.19,272.37 757.15,268.84 759.11,266.71 761.07,270.76 763.03,271.70 764.98,268.49 766.94,268.69 768.90,268.93 770.86,266.66 772.82,220.87 774.78,266.97 776.74,272.08 778.70,271.30 780.66,268.67 782.62,226.64 784.58,253.18 786.54,265.75 788.50,269.85 790.46,265.74 792.42,269.15 794.38,268.07 796.34,267.56 798.30,261.42 800.26,261.31 802.22,268.93 804.18,266.27 806.14,267.15 808.10,212.40 810.06,191.25 812.02,254.19 813.98,198.67 815.94,265.53 817.90,153.52 819.86,272.41 821.82,232.39 823.78,246.67 825.74,265.70 827.70,237.85 829.66,258.03 831.62,264.57 833.58,210.86 835.54,264.00 837.50,266.30 839.46,269.11 841.42,269.31 843.38,259.00 845.34,269.78 847.30,264.74 849.26,264.96 851.22,261.14 853.18,269.99 855.14,245.50 857.10,266.17 859.06,265.86 861.02,267.26 862.97,256.06 864.93,269.87 866.89,269.13 868.85,266.84 870.81,268.96 872.77,268.27 874.73,270.30 876.69,263.42 878.65,268.95 880.61,251.78 882.57,268.74 884.53,266.13 886.49,268.15 888.45,268.76 890.41,270.65 892.37,270.54 894.33,266.33 896.29,270.24 898.25,268.34 900.21,260.73 902.17,267.82 904.13,271.35 906.09,264.17 908.05,203.68 910.01,268.40 911.97,267.69 913.93,218.22 915.89,270.29 917.85,242.79 919.81,237.25 921.77,268.80 923.73,269.02 925.69,265.11 927.65,249.59 929.61,264.55 931.57,269.96 933.53,266.02 935.49,270.42 937.45,262.51 939.41,270.02 941.37,259.29 943.33,264.20 945.29,263.82 947.25,271.93 949.21,254.10 951.17,269.49 953.13,267.33 955.09,269.94 957.05,269.17 959.01,257.45 960.96,266.38 962.92,270.43 964.88,269.28 966.84,266.72 968.80,270.97 970.76,265.91 972.72,263.78 974.68,265.08 976.64,254.46 978.60,267.18 980.56,268.86 982.52,265.50 984.48,240.29 986.44,269.48 988.40,265.87 990.36,265.90 992.32,258.88 994.28,270.44 996.24,265.29 998.20,268.43 1000.16,261.18 1002.12,271.01 1004.08,268.19 1006.04,269.08 1008.00,266.78" fill="none" stroke="#f97316" stroke-width="3.8" stroke-opacity="1" stroke-linejoin="round" stroke-linecap="round"/>
<circle cx="618.00" cy="266.59" r="3.0" fill="#f97316" fill-opacity="1"/>
<circle cx="639.56" cy="271.37" r="3.0" fill="#f97316" fill-opacity="1"/>
<circle cx="661.12" cy="269.09" r="3.0" fill="#f97316" fill-opacity="1"/>
<circle cx="682.67" cy="266.80" r="3.0" fill="#f97316" fill-opacity="1"/>
<circle cx="704.23" cy="272.61" r="3.0" fill="#f97316" fill-opacity="1"/>
<circle cx="725.79" cy="268.16" r="3.0" fill="#f97316" fill-opacity="1"/>
<circle cx="747.35" cy="271.73" r="3.0" fill="#f97316" fill-opacity="1"/>
<circle cx="768.90" cy="268.93" r="3.0" fill="#f97316" fill-opacity="1"/>
<circle cx="790.46" cy="265.74" r="3.0" fill="#f97316" fill-opacity="1"/>
<circle cx="812.02" cy="254.19" r="3.0" fill="#f97316" fill-opacity="1"/>
<circle cx="833.58" cy="210.86" r="3.0" fill="#f97316" fill-opacity="1"/>
<circle cx="855.14" cy="245.50" r="3.0" fill="#f97316" fill-opacity="1"/>
<circle cx="876.69" cy="263.42" r="3.0" fill="#f97316" fill-opacity="1"/>
<circle cx="898.25" cy="268.34" r="3.0" fill="#f97316" fill-opacity="1"/>
<circle cx="919.81" cy="237.25" r="3.0" fill="#f97316" fill-opacity="1"/>
<circle cx="941.37" cy="259.29" r="3.0" fill="#f97316" fill-opacity="1"/>
<circle cx="962.92" cy="270.43" r="3.0" fill="#f97316" fill-opacity="1"/>
<circle cx="984.48" cy="240.29" r="3.0" fill="#f97316" fill-opacity="1"/>
<circle cx="1006.04" cy="269.08" r="3.0" fill="#f97316" fill-opacity="1"/>
<text x="1008" y="306" class="tick" text-anchor="end">Round 序列；越低越好</text>
<rect x="48" y="379" width="472" height="245" rx="8" fill="#ffffff" stroke="#dbe3ef"/>
<text x="66" y="407" class="label" font-weight="700">Response Throughput（含 reasoning）</text>
<rect x="366" y="391" width="136" height="26" rx="13" fill="#fef3c7" stroke="#f59e0b" stroke-width="1.4"/>
<text x="434" y="409" class="tick" font-weight="800" text-anchor="middle" fill="#92400e">均值胜出: Infron</text>
<line x1="106" y1="584.00" x2="496" y2="584.00" stroke="#e5e7eb"/>
<text x="98" y="588.00" class="tick" text-anchor="end">0.0</text>
<line x1="106" y1="531.67" x2="496" y2="531.67" stroke="#e5e7eb"/>
<text x="98" y="535.67" class="tick" text-anchor="end">34.9</text>
<line x1="106" y1="479.33" x2="496" y2="479.33" stroke="#e5e7eb"/>
<text x="98" y="483.33" class="tick" text-anchor="end">69.8</text>
<line x1="106" y1="427.00" x2="496" y2="427.00" stroke="#e5e7eb"/>
<text x="98" y="431.00" class="tick" text-anchor="end">105</text>
<polyline points="106.00,506.42 107.96,512.50 109.92,523.29 111.88,533.47 113.84,519.50 115.80,509.26 117.76,527.47 119.72,535.17 121.68,528.46 123.64,514.61 125.60,537.23 127.56,512.53 129.52,515.98 131.48,505.98 133.44,530.48 135.40,542.59 137.36,528.27 139.32,520.91 141.28,513.90 143.24,540.68 145.20,535.28 147.16,510.11 149.12,542.05 151.08,528.17 153.04,516.22 154.99,510.61 156.95,539.23 158.91,525.20 160.87,551.07 162.83,527.92 164.79,524.23 166.75,551.25 168.71,550.08 170.67,537.29 172.63,541.51 174.59,549.68 176.55,534.62 178.51,526.68 180.47,530.78 182.43,562.44 184.39,537.98 186.35,497.34 188.31,536.73 190.27,528.86 192.23,544.98 194.19,522.56 196.15,546.01 198.11,545.44 200.07,570.68 202.03,525.33 203.99,557.07 205.95,508.20 207.91,544.03 209.87,569.72 211.83,549.35 213.79,535.31 215.75,550.63 217.71,568.87 219.67,565.81 221.63,539.29 223.59,504.27 225.55,551.44 227.51,527.09 229.47,520.71 231.43,520.19 233.39,533.12 235.35,500.18 237.31,524.75 239.27,521.41 241.23,537.65 243.19,508.45 245.15,532.12 247.11,536.94 249.07,530.99 251.03,537.20 252.98,517.56 254.94,545.45 256.90,516.92 258.86,559.86 260.82,513.10 262.78,521.99 264.74,540.21 266.70,562.08 268.66,537.47 270.62,526.89 272.58,569.12 274.54,538.76 276.50,483.82 278.46,527.03 280.42,550.31 282.38,531.47 284.34,506.24 286.30,541.64 288.26,558.88 290.22,554.65 292.18,546.85 294.14,544.46 296.10,551.48 298.06,537.13 300.02,514.04 301.98,553.90 303.94,507.14 305.90,539.26 307.86,561.23 309.82,538.55 311.78,514.45 313.74,531.42 315.70,525.38 317.66,532.08 319.62,501.00 321.58,518.51 323.54,517.74 325.50,491.04 327.46,519.53 329.42,536.32 331.38,542.24 333.34,517.31 335.30,526.00 337.26,538.93 339.22,543.14 341.18,513.27 343.14,520.72 345.10,527.98 347.06,550.54 349.02,527.38 350.97,522.33 352.93,545.84 354.89,552.11 356.85,544.22 358.81,524.39 360.77,529.01 362.73,536.25 364.69,538.59 366.65,522.95 368.61,537.21 370.57,517.39 372.53,503.21 374.49,510.92 376.45,517.42 378.41,548.82 380.37,522.30 382.33,510.71 384.29,509.46 386.25,551.08 388.21,518.34 390.17,525.53 392.13,525.00 394.09,520.03 396.05,500.35 398.01,513.35 399.97,521.66 401.93,496.61 403.89,537.94 405.85,524.85 407.81,527.36 409.77,496.08 411.73,535.40 413.69,536.87 415.65,524.17 417.61,501.72 419.57,525.59 421.53,527.74 423.49,529.15 425.45,492.40 427.41,530.21 429.37,549.34 431.33,515.86 433.29,498.78 435.25,519.89 437.21,528.39 439.17,496.22 441.13,506.52 443.09,536.11 445.05,540.37 447.01,515.32 448.96,509.59 450.92,540.55 452.88,524.59 454.84,524.50 456.80,511.74 458.76,539.89 460.72,549.84 462.68,513.76 464.64,528.59 466.60,544.11 468.56,545.38 470.52,525.15 472.48,504.59 474.44,529.44 476.40,541.79 478.36,521.98 480.32,495.00 482.28,547.41 484.24,532.50 486.20,522.74 488.16,516.38 490.12,526.13 492.08,526.24 494.04,523.01 496.00,531.10" fill="none" stroke="#2563eb" stroke-width="3.8" stroke-opacity="1" stroke-linejoin="round" stroke-linecap="round"/>
<circle cx="106.00" cy="506.42" r="3.0" fill="#2563eb" fill-opacity="1"/>
<circle cx="127.56" cy="512.53" r="3.0" fill="#2563eb" fill-opacity="1"/>
<circle cx="149.12" cy="542.05" r="3.0" fill="#2563eb" fill-opacity="1"/>
<circle cx="170.67" cy="537.29" r="3.0" fill="#2563eb" fill-opacity="1"/>
<circle cx="192.23" cy="544.98" r="3.0" fill="#2563eb" fill-opacity="1"/>
<circle cx="213.79" cy="535.31" r="3.0" fill="#2563eb" fill-opacity="1"/>
<circle cx="235.35" cy="500.18" r="3.0" fill="#2563eb" fill-opacity="1"/>
<circle cx="256.90" cy="516.92" r="3.0" fill="#2563eb" fill-opacity="1"/>
<circle cx="278.46" cy="527.03" r="3.0" fill="#2563eb" fill-opacity="1"/>
<circle cx="300.02" cy="514.04" r="3.0" fill="#2563eb" fill-opacity="1"/>
<circle cx="321.58" cy="518.51" r="3.0" fill="#2563eb" fill-opacity="1"/>
<circle cx="343.14" cy="520.72" r="3.0" fill="#2563eb" fill-opacity="1"/>
<circle cx="364.69" cy="538.59" r="3.0" fill="#2563eb" fill-opacity="1"/>
<circle cx="386.25" cy="551.08" r="3.0" fill="#2563eb" fill-opacity="1"/>
<circle cx="407.81" cy="527.36" r="3.0" fill="#2563eb" fill-opacity="1"/>
<circle cx="429.37" cy="549.34" r="3.0" fill="#2563eb" fill-opacity="1"/>
<circle cx="450.92" cy="540.55" r="3.0" fill="#2563eb" fill-opacity="1"/>
<circle cx="472.48" cy="504.59" r="3.0" fill="#2563eb" fill-opacity="1"/>
<circle cx="494.04" cy="523.01" r="3.0" fill="#2563eb" fill-opacity="1"/>
<polyline points="106.00,568.27 107.96,563.26 109.92,558.55 111.88,559.26 113.84,562.45 115.80,500.87 117.76,562.52 119.72,564.32 121.68,562.91 123.64,560.29 125.60,558.78 127.56,564.74 129.52,556.91 131.48,557.86 133.44,556.60 135.40,561.60 137.36,563.14 139.32,558.28 141.28,564.01 143.24,565.21 145.20,563.70 147.16,564.45 149.12,564.54 151.08,562.34 153.04,559.98 154.99,567.39 156.95,565.78 158.91,562.77 160.87,505.72 162.83,561.03 164.79,563.14 166.75,562.42 168.71,561.39 170.67,495.27 172.63,563.64 174.59,566.47 176.55,566.10 178.51,493.52 180.47,556.16 182.43,562.46 184.39,562.26 186.35,477.09 188.31,559.85 190.27,560.28 192.23,560.54 194.19,489.15 196.15,561.82 198.11,562.10 200.07,566.30 202.03,469.68 203.99,559.63 205.95,474.84 207.91,573.75 209.87,562.04 211.83,561.60 213.79,483.38 215.75,558.71 217.71,557.97 219.67,559.78 221.63,487.04 223.59,564.43 225.55,564.95 227.51,564.81 229.47,519.04 231.43,488.34 233.39,560.77 235.35,561.04 237.31,501.24 239.27,526.17 241.23,562.80 243.19,558.68 245.15,567.32 247.11,525.26 249.07,565.25 251.03,564.79 252.98,510.26 254.94,508.98 256.90,565.19 258.86,567.83 260.82,579.90 262.78,510.05 264.74,559.80 266.70,561.57 268.66,473.72 270.62,568.63 272.58,575.23 274.54,569.33 276.50,477.08 278.46,506.47 280.42,564.78 282.38,568.94 284.34,484.24 286.30,549.07 288.26,572.93 290.22,512.43 292.18,485.31 294.14,511.15 296.10,580.39 298.06,581.21 300.02,574.82 301.98,581.00 303.94,505.52 305.90,582.01 307.86,558.73 309.82,580.42 311.78,533.27 313.74,532.15 315.70,564.11 317.66,574.04 319.62,535.02 321.58,580.53 323.54,530.12 325.50,506.66 327.46,567.92 329.42,512.29 331.38,573.19 333.34,566.69 335.30,507.42 337.26,507.94 339.22,572.67 341.18,488.63 343.14,509.40 345.10,526.00 347.06,571.37 349.02,470.78 350.97,514.81 352.93,503.31 354.89,488.30 356.85,480.72 358.81,491.35 360.77,501.92 362.73,498.04 364.69,572.19 366.65,471.07 368.61,553.51 370.57,502.74 372.53,497.68 374.49,500.09 376.45,482.73 378.41,535.30 380.37,480.11 382.33,518.12 384.29,567.93 386.25,527.29 388.21,573.52 390.17,504.36 392.13,560.79 394.09,531.12 396.05,568.59 398.01,485.68 399.97,526.20 401.93,532.93 403.89,562.63 405.85,577.87 407.81,558.25 409.77,488.17 411.73,565.21 413.69,501.32 415.65,576.43 417.61,461.21 419.57,563.11 421.53,569.80 423.49,563.99 425.45,489.52 427.41,562.05 429.37,573.47 431.33,493.12 433.29,571.74 435.25,559.91 437.21,546.49 439.17,491.24 441.13,451.89 443.09,564.75 445.05,471.16 447.01,561.14 448.96,443.82 450.92,563.42 452.88,471.13 454.84,570.05 456.80,561.80 458.76,572.10 460.72,551.97 462.68,571.31 464.64,520.59 466.60,567.16 468.56,504.95 470.52,570.85 472.48,526.21 474.44,564.47 476.40,521.53 478.36,459.16 480.32,461.45 482.28,563.39 484.24,545.51 486.20,482.28 488.16,484.22 490.12,561.23 492.08,488.58 494.04,516.58 496.00,484.14" fill="none" stroke="#f97316" stroke-width="1.8" stroke-opacity="0.45" stroke-linejoin="round" stroke-linecap="round"/>
<circle cx="106.00" cy="568.27" r="1.8" fill="#f97316" fill-opacity="0.55"/>
<circle cx="127.56" cy="564.74" r="1.8" fill="#f97316" fill-opacity="0.55"/>
<circle cx="149.12" cy="564.54" r="1.8" fill="#f97316" fill-opacity="0.55"/>
<circle cx="170.67" cy="495.27" r="1.8" fill="#f97316" fill-opacity="0.55"/>
<circle cx="192.23" cy="560.54" r="1.8" fill="#f97316" fill-opacity="0.55"/>
<circle cx="213.79" cy="483.38" r="1.8" fill="#f97316" fill-opacity="0.55"/>
<circle cx="235.35" cy="561.04" r="1.8" fill="#f97316" fill-opacity="0.55"/>
<circle cx="256.90" cy="565.19" r="1.8" fill="#f97316" fill-opacity="0.55"/>
<circle cx="278.46" cy="506.47" r="1.8" fill="#f97316" fill-opacity="0.55"/>
<circle cx="300.02" cy="574.82" r="1.8" fill="#f97316" fill-opacity="0.55"/>
<circle cx="321.58" cy="580.53" r="1.8" fill="#f97316" fill-opacity="0.55"/>
<circle cx="343.14" cy="509.40" r="1.8" fill="#f97316" fill-opacity="0.55"/>
<circle cx="364.69" cy="572.19" r="1.8" fill="#f97316" fill-opacity="0.55"/>
<circle cx="386.25" cy="527.29" r="1.8" fill="#f97316" fill-opacity="0.55"/>
<circle cx="407.81" cy="558.25" r="1.8" fill="#f97316" fill-opacity="0.55"/>
<circle cx="429.37" cy="573.47" r="1.8" fill="#f97316" fill-opacity="0.55"/>
<circle cx="450.92" cy="563.42" r="1.8" fill="#f97316" fill-opacity="0.55"/>
<circle cx="472.48" cy="526.21" r="1.8" fill="#f97316" fill-opacity="0.55"/>
<circle cx="494.04" cy="516.58" r="1.8" fill="#f97316" fill-opacity="0.55"/>
<text x="496" y="609" class="tick" text-anchor="end">Round 序列；越高越好</text>
<rect x="560" y="379" width="472" height="245" rx="8" fill="#ffffff" stroke="#dbe3ef"/>
<text x="578" y="407" class="label" font-weight="700">Actual Cost / 轮</text>
<rect x="878" y="391" width="136" height="26" rx="13" fill="#fef3c7" stroke="#f59e0b" stroke-width="1.4"/>
<text x="946" y="409" class="tick" font-weight="800" text-anchor="middle" fill="#92400e">均值胜出: OpenRouter</text>
<line x1="618" y1="584.00" x2="1008" y2="584.00" stroke="#e5e7eb"/>
<text x="610" y="588.00" class="tick" text-anchor="end">$0.0000</text>
<line x1="618" y1="531.67" x2="1008" y2="531.67" stroke="#e5e7eb"/>
<text x="610" y="535.67" class="tick" text-anchor="end">$0.0002</text>
<line x1="618" y1="479.33" x2="1008" y2="479.33" stroke="#e5e7eb"/>
<text x="610" y="483.33" class="tick" text-anchor="end">$0.0005</text>
<line x1="618" y1="427.00" x2="1008" y2="427.00" stroke="#e5e7eb"/>
<text x="610" y="431.00" class="tick" text-anchor="end">$0.0007</text>
<polyline points="618.00,486.68 619.96,501.63 621.92,488.69 623.88,504.98 625.84,487.79 627.80,461.01 629.76,532.88 631.72,542.71 633.68,537.57 635.64,513.91 637.60,541.14 639.56,529.76 641.52,522.84 643.48,495.61 645.44,531.99 647.40,547.17 649.36,536.01 651.32,506.99 653.28,510.56 655.24,541.81 657.20,542.26 659.16,506.77 661.12,527.08 663.08,538.91 665.04,523.29 666.99,511.01 668.95,519.49 670.91,539.80 672.87,538.91 674.83,488.46 676.79,530.21 678.75,534.67 680.71,535.56 682.67,523.29 684.63,539.80 686.59,541.59 688.55,533.55 690.51,483.11 692.47,524.18 694.43,542.04 696.39,523.96 698.35,509.22 700.31,531.54 702.27,536.90 704.23,538.24 706.19,463.46 708.15,540.25 710.11,542.71 712.07,544.71 714.03,515.03 715.99,529.54 717.95,493.15 719.91,522.39 721.87,538.69 723.83,534.00 725.79,492.48 727.75,514.80 729.71,542.48 731.67,541.81 733.63,508.55 735.59,502.75 737.55,539.13 739.51,512.12 741.47,511.46 743.43,516.59 745.39,535.79 747.35,479.09 749.31,503.64 751.27,515.92 753.23,540.03 755.19,519.04 757.15,490.47 759.11,536.90 761.07,542.04 763.03,515.92 764.98,493.15 766.94,534.45 768.90,528.87 770.86,544.94 772.82,478.87 774.78,535.34 776.74,544.04 778.70,536.01 780.66,504.31 782.62,525.52 784.58,541.81 786.54,536.01 788.50,494.27 790.46,518.38 792.42,537.57 794.38,530.43 796.34,503.20 798.30,525.07 800.26,542.71 802.22,541.81 804.18,508.33 806.14,529.76 808.10,533.78 810.06,533.55 812.02,443.82 813.98,537.35 815.94,488.91 817.90,520.61 819.86,545.16 821.82,534.67 823.78,482.44 825.74,520.38 827.70,525.07 829.66,531.99 831.62,511.90 833.58,508.55 835.54,533.11 837.50,491.81 839.46,513.24 841.42,527.97 843.38,540.70 845.34,523.73 847.30,506.10 849.26,540.92 851.22,524.85 853.18,530.88 855.14,511.68 857.10,532.44 859.06,535.79 861.02,519.49 862.97,509.22 864.93,537.79 866.89,542.04 868.85,536.46 870.81,521.72 872.77,539.36 874.73,545.38 876.69,545.61 878.65,518.15 880.61,533.55 882.57,539.80 884.53,525.52 886.49,507.88 888.45,518.60 890.41,547.17 892.37,527.30 894.33,515.03 896.29,485.79 898.25,541.81 900.21,516.14 902.17,517.48 904.13,528.64 906.09,536.46 908.05,506.99 910.01,487.79 911.97,531.10 913.93,507.21 915.89,542.26 917.85,541.59 919.81,534.89 921.77,515.70 923.73,539.36 925.69,548.51 927.65,534.89 929.61,509.67 931.57,529.54 933.53,535.34 935.49,528.20 937.45,483.11 939.41,522.84 941.37,539.36 943.33,523.96 945.29,457.44 947.25,535.79 949.21,542.48 951.17,526.19 953.13,510.34 955.09,538.69 957.05,546.95 959.01,520.83 960.96,506.99 962.92,536.68 964.88,533.78 966.84,536.01 968.80,509.22 970.76,535.56 972.72,541.37 974.68,513.24 976.64,511.23 978.60,535.79 980.56,535.79 982.52,485.56 984.48,499.18 986.44,517.48 988.40,538.02 990.36,532.88 992.32,504.09 994.28,535.79 996.24,542.71 998.20,522.39 1000.16,522.17 1002.12,529.54 1004.08,538.69 1006.04,534.22 1008.00,506.10" fill="none" stroke="#2563eb" stroke-width="1.8" stroke-opacity="0.45" stroke-linejoin="round" stroke-linecap="round"/>
<circle cx="618.00" cy="486.68" r="1.8" fill="#2563eb" fill-opacity="0.55"/>
<circle cx="639.56" cy="529.76" r="1.8" fill="#2563eb" fill-opacity="0.55"/>
<circle cx="661.12" cy="527.08" r="1.8" fill="#2563eb" fill-opacity="0.55"/>
<circle cx="682.67" cy="523.29" r="1.8" fill="#2563eb" fill-opacity="0.55"/>
<circle cx="704.23" cy="538.24" r="1.8" fill="#2563eb" fill-opacity="0.55"/>
<circle cx="725.79" cy="492.48" r="1.8" fill="#2563eb" fill-opacity="0.55"/>
<circle cx="747.35" cy="479.09" r="1.8" fill="#2563eb" fill-opacity="0.55"/>
<circle cx="768.90" cy="528.87" r="1.8" fill="#2563eb" fill-opacity="0.55"/>
<circle cx="790.46" cy="518.38" r="1.8" fill="#2563eb" fill-opacity="0.55"/>
<circle cx="812.02" cy="443.82" r="1.8" fill="#2563eb" fill-opacity="0.55"/>
<circle cx="833.58" cy="508.55" r="1.8" fill="#2563eb" fill-opacity="0.55"/>
<circle cx="855.14" cy="511.68" r="1.8" fill="#2563eb" fill-opacity="0.55"/>
<circle cx="876.69" cy="545.61" r="1.8" fill="#2563eb" fill-opacity="0.55"/>
<circle cx="898.25" cy="541.81" r="1.8" fill="#2563eb" fill-opacity="0.55"/>
<circle cx="919.81" cy="534.89" r="1.8" fill="#2563eb" fill-opacity="0.55"/>
<circle cx="941.37" cy="539.36" r="1.8" fill="#2563eb" fill-opacity="0.55"/>
<circle cx="962.92" cy="536.68" r="1.8" fill="#2563eb" fill-opacity="0.55"/>
<circle cx="984.48" cy="499.18" r="1.8" fill="#2563eb" fill-opacity="0.55"/>
<circle cx="1006.04" cy="534.22" r="1.8" fill="#2563eb" fill-opacity="0.55"/>
<polyline points="618.00,537.31 619.96,535.77 621.92,536.60 623.88,537.72 625.84,534.43 627.80,514.49 629.76,534.28 631.72,534.26 633.68,533.86 635.64,536.63 637.60,534.86 639.56,537.14 641.52,537.01 643.48,534.89 645.44,536.30 647.40,536.86 649.36,538.47 651.32,536.63 653.28,536.90 655.24,534.82 657.20,535.57 659.16,536.63 661.12,538.34 663.08,536.86 665.04,537.03 666.99,537.21 668.95,538.62 670.91,536.86 672.87,532.09 674.83,536.05 676.79,536.30 678.75,535.14 680.71,535.59 682.67,499.20 684.63,536.32 686.59,537.42 688.55,533.56 690.51,493.12 692.47,535.72 694.43,536.57 696.39,536.45 698.35,477.41 700.31,536.90 702.27,535.42 704.23,536.17 706.19,513.15 708.15,537.46 710.11,534.56 712.07,537.89 714.03,486.44 715.99,538.19 717.95,497.89 719.91,537.46 721.87,536.28 723.83,537.03 725.79,515.23 727.75,537.18 729.71,535.98 731.67,535.29 733.63,519.21 735.59,535.14 737.55,538.29 739.51,538.77 741.47,540.41 743.43,538.33 745.39,538.29 747.35,535.29 749.31,538.86 751.27,511.35 753.23,537.42 755.19,537.59 757.15,557.33 759.11,492.84 761.07,536.86 763.03,535.01 764.98,539.99 766.94,540.94 768.90,537.42 770.86,535.29 772.82,557.33 774.78,532.03 776.74,538.29 778.70,537.89 780.66,520.87 782.62,551.87 784.58,533.98 786.54,509.08 788.50,481.64 790.46,529.48 792.42,537.14 794.38,535.59 796.34,518.85 798.30,552.28 800.26,511.57 802.22,536.30 804.18,498.84 806.14,540.17 808.10,521.32 810.06,521.09 812.02,557.33 813.98,521.09 815.94,537.68 817.90,557.27 819.86,535.70 821.82,557.57 823.78,471.03 825.74,543.67 827.70,539.94 829.66,557.57 831.62,549.37 833.58,557.27 835.54,477.07 837.50,545.16 839.46,557.33 841.42,536.55 843.38,521.32 845.34,511.10 847.30,534.71 849.26,504.52 851.22,557.80 853.18,542.60 855.14,520.10 857.10,545.16 859.06,557.80 861.02,522.89 862.97,529.78 864.93,518.51 866.89,545.10 868.85,521.29 870.81,498.07 872.77,535.66 874.73,546.34 876.69,557.57 878.65,521.59 880.61,550.62 882.57,545.81 884.53,477.39 886.49,519.15 888.45,517.06 890.41,517.60 892.37,542.84 894.33,539.63 896.29,547.95 898.25,551.27 900.21,557.57 902.17,544.33 904.13,537.18 906.09,550.56 908.05,537.03 910.01,503.48 911.97,549.08 913.93,518.74 915.89,536.30 917.85,557.80 919.81,549.91 921.77,519.21 923.73,535.74 925.69,529.38 927.65,546.14 929.61,470.50 931.57,537.46 933.53,557.80 935.49,537.01 937.45,480.71 939.41,536.02 941.37,557.80 943.33,515.80 945.29,520.85 947.25,536.60 949.21,548.54 951.17,533.04 953.13,512.38 955.09,536.88 957.05,538.98 959.01,542.67 960.96,471.65 962.92,536.60 964.88,532.93 966.84,557.57 968.80,537.49 970.76,536.90 972.72,555.07 974.68,557.57 976.64,536.37 978.60,539.20 980.56,544.68 982.52,557.57 984.48,530.49 986.44,536.88 988.40,546.99 990.36,518.62 992.32,491.01 994.28,534.86 996.24,553.11 998.20,446.54 1000.16,517.96 1002.12,536.02 1004.08,540.53 1006.04,543.14 1008.00,510.84" fill="none" stroke="#f97316" stroke-width="3.8" stroke-opacity="1" stroke-linejoin="round" stroke-linecap="round"/>
<circle cx="618.00" cy="537.31" r="3.0" fill="#f97316" fill-opacity="1"/>
<circle cx="639.56" cy="537.14" r="3.0" fill="#f97316" fill-opacity="1"/>
<circle cx="661.12" cy="538.34" r="3.0" fill="#f97316" fill-opacity="1"/>
<circle cx="682.67" cy="499.20" r="3.0" fill="#f97316" fill-opacity="1"/>
<circle cx="704.23" cy="536.17" r="3.0" fill="#f97316" fill-opacity="1"/>
<circle cx="725.79" cy="515.23" r="3.0" fill="#f97316" fill-opacity="1"/>
<circle cx="747.35" cy="535.29" r="3.0" fill="#f97316" fill-opacity="1"/>
<circle cx="768.90" cy="537.42" r="3.0" fill="#f97316" fill-opacity="1"/>
<circle cx="790.46" cy="529.48" r="3.0" fill="#f97316" fill-opacity="1"/>
<circle cx="812.02" cy="557.33" r="3.0" fill="#f97316" fill-opacity="1"/>
<circle cx="833.58" cy="557.27" r="3.0" fill="#f97316" fill-opacity="1"/>
<circle cx="855.14" cy="520.10" r="3.0" fill="#f97316" fill-opacity="1"/>
<circle cx="876.69" cy="557.57" r="3.0" fill="#f97316" fill-opacity="1"/>
<circle cx="898.25" cy="551.27" r="3.0" fill="#f97316" fill-opacity="1"/>
<circle cx="919.81" cy="549.91" r="3.0" fill="#f97316" fill-opacity="1"/>
<circle cx="941.37" cy="557.80" r="3.0" fill="#f97316" fill-opacity="1"/>
<circle cx="962.92" cy="536.60" r="3.0" fill="#f97316" fill-opacity="1"/>
<circle cx="984.48" cy="530.49" r="3.0" fill="#f97316" fill-opacity="1"/>
<circle cx="1006.04" cy="543.14" r="3.0" fill="#f97316" fill-opacity="1"/>
<text x="1008" y="609" class="tick" text-anchor="end">Round 序列；越低越好</text>
<rect x="48" y="682" width="472" height="245" rx="8" fill="#ffffff" stroke="#dbe3ef"/>
<text x="66" y="710" class="label" font-weight="700">Token Cache Hit Rate</text>
<rect x="366" y="694" width="136" height="26" rx="13" fill="#fef3c7" stroke="#f59e0b" stroke-width="1.4"/>
<text x="434" y="712" class="tick" font-weight="800" text-anchor="middle" fill="#92400e">均值胜出: Infron</text>
<line x1="106" y1="887.00" x2="496" y2="887.00" stroke="#e5e7eb"/>
<text x="98" y="891.00" class="tick" text-anchor="end">0%</text>
<line x1="106" y1="834.67" x2="496" y2="834.67" stroke="#e5e7eb"/>
<text x="98" y="838.67" class="tick" text-anchor="end">35%</text>
<line x1="106" y1="782.33" x2="496" y2="782.33" stroke="#e5e7eb"/>
<text x="98" y="786.33" class="tick" text-anchor="end">70%</text>
<line x1="106" y1="730.00" x2="496" y2="730.00" stroke="#e5e7eb"/>
<text x="98" y="734.00" class="tick" text-anchor="end">105%</text>
<polyline points="106.00,747.16 107.96,747.50 109.92,747.59 111.88,746.82 113.84,747.16 115.80,747.50 117.76,747.59 119.72,746.82 121.68,747.16 123.64,747.50 125.60,747.59 127.56,746.82 129.52,747.16 131.48,747.50 133.44,747.59 135.40,746.82 137.36,747.16 139.32,747.50 141.28,747.59 143.24,746.82 145.20,747.16 147.16,747.50 149.12,747.59 151.08,746.82 153.04,747.16 154.99,747.50 156.95,747.59 158.91,746.82 160.87,747.16 162.83,794.00 164.79,747.59 166.75,746.82 168.71,747.16 170.67,747.50 172.63,747.59 174.59,746.82 176.55,747.16 178.51,747.50 180.47,747.59 182.43,746.82 184.39,747.16 186.35,747.50 188.31,747.59 190.27,746.82 192.23,747.16 194.19,747.50 196.15,747.59 198.11,746.82 200.07,747.16 202.03,747.50 203.99,747.16 205.95,747.50 207.91,747.59 209.87,746.82 211.83,747.16 213.79,747.50 215.75,794.06 217.71,746.82 219.67,747.16 221.63,747.50 223.59,747.59 225.55,746.82 227.51,747.16 229.47,747.50 231.43,794.06 233.39,746.82 235.35,747.16 237.31,747.50 239.27,747.59 241.23,746.82 243.19,747.16 245.15,747.50 247.11,747.59 249.07,746.82 251.03,747.16 252.98,794.00 254.94,747.59 256.90,746.82 258.86,747.16 260.82,747.50 262.78,747.59 264.74,746.82 266.70,747.16 268.66,747.50 270.62,747.59 272.58,746.82 274.54,747.16 276.50,747.50 278.46,747.59 280.42,746.82 282.38,747.16 284.34,747.50 286.30,747.59 288.26,746.82 290.22,747.16 292.18,747.50 294.14,747.59 296.10,746.82 298.06,747.16 300.02,747.50 301.98,747.16 303.94,747.50 305.90,747.59 307.86,746.82 309.82,747.16 311.78,747.50 313.74,747.59 315.70,746.82 317.66,747.16 319.62,747.50 321.58,747.59 323.54,746.82 325.50,747.16 327.46,747.50 329.42,747.59 331.38,746.82 333.34,747.16 335.30,794.00 337.26,747.59 339.22,793.55 341.18,747.16 343.14,747.50 345.10,747.59 347.06,746.82 349.02,747.16 350.97,747.50 352.93,747.59 354.89,746.82 356.85,747.16 358.81,747.50 360.77,747.59 362.73,746.82 364.69,747.16 366.65,747.50 368.61,747.59 370.57,746.82 372.53,747.16 374.49,747.50 376.45,747.59 378.41,746.82 380.37,747.16 382.33,747.50 384.29,747.59 386.25,746.82 388.21,747.16 390.17,747.50 392.13,747.59 394.09,746.82 396.05,747.16 398.01,747.50 399.97,747.16 401.93,747.50 403.89,747.59 405.85,746.82 407.81,747.16 409.77,747.50 411.73,747.59 413.69,746.82 415.65,747.16 417.61,747.50 419.57,747.59 421.53,746.82 423.49,747.16 425.45,747.50 427.41,747.59 429.37,746.82 431.33,747.16 433.29,747.50 435.25,747.59 437.21,746.82 439.17,747.16 441.13,747.50 443.09,747.59 445.05,746.82 447.01,747.16 448.96,747.50 450.92,747.59 452.88,746.82 454.84,747.16 456.80,747.50 458.76,747.59 460.72,746.82 462.68,747.16 464.64,794.00 466.60,747.59 468.56,746.82 470.52,747.16 472.48,747.50 474.44,747.59 476.40,746.82 478.36,747.16 480.32,747.50 482.28,747.59 484.24,746.82 486.20,747.16 488.16,747.50 490.12,747.59 492.08,746.82 494.04,747.16 496.00,747.50" fill="none" stroke="#2563eb" stroke-width="3.8" stroke-opacity="1" stroke-linejoin="round" stroke-linecap="round"/>
<circle cx="106.00" cy="747.16" r="3.0" fill="#2563eb" fill-opacity="1"/>
<circle cx="127.56" cy="746.82" r="3.0" fill="#2563eb" fill-opacity="1"/>
<circle cx="149.12" cy="747.59" r="3.0" fill="#2563eb" fill-opacity="1"/>
<circle cx="170.67" cy="747.50" r="3.0" fill="#2563eb" fill-opacity="1"/>
<circle cx="192.23" cy="747.16" r="3.0" fill="#2563eb" fill-opacity="1"/>
<circle cx="213.79" cy="747.50" r="3.0" fill="#2563eb" fill-opacity="1"/>
<circle cx="235.35" cy="747.16" r="3.0" fill="#2563eb" fill-opacity="1"/>
<circle cx="256.90" cy="746.82" r="3.0" fill="#2563eb" fill-opacity="1"/>
<circle cx="278.46" cy="747.59" r="3.0" fill="#2563eb" fill-opacity="1"/>
<circle cx="300.02" cy="747.50" r="3.0" fill="#2563eb" fill-opacity="1"/>
<circle cx="321.58" cy="747.59" r="3.0" fill="#2563eb" fill-opacity="1"/>
<circle cx="343.14" cy="747.50" r="3.0" fill="#2563eb" fill-opacity="1"/>
<circle cx="364.69" cy="747.16" r="3.0" fill="#2563eb" fill-opacity="1"/>
<circle cx="386.25" cy="746.82" r="3.0" fill="#2563eb" fill-opacity="1"/>
<circle cx="407.81" cy="747.16" r="3.0" fill="#2563eb" fill-opacity="1"/>
<circle cx="429.37" cy="746.82" r="3.0" fill="#2563eb" fill-opacity="1"/>
<circle cx="450.92" cy="747.59" r="3.0" fill="#2563eb" fill-opacity="1"/>
<circle cx="472.48" cy="747.50" r="3.0" fill="#2563eb" fill-opacity="1"/>
<circle cx="494.04" cy="747.16" r="3.0" fill="#2563eb" fill-opacity="1"/>
<polyline points="106.00,819.81 107.96,824.24 109.92,818.29 111.88,812.26 113.84,824.27 115.80,747.50 117.76,825.73 119.72,825.76 121.68,827.28 123.64,824.24 125.60,827.28 127.56,813.81 129.52,819.81 131.48,827.24 133.44,815.30 135.40,822.75 137.36,816.81 139.32,822.79 141.28,819.74 143.24,824.30 145.20,816.81 147.16,821.25 149.12,813.75 151.08,822.75 153.04,813.80 154.99,819.79 156.95,812.30 158.91,815.27 160.87,747.16 162.83,822.79 164.79,827.28 166.75,819.74 168.71,818.26 170.67,747.50 172.63,825.73 174.59,816.82 176.55,827.28 178.51,887.00 180.47,827.28 182.43,819.74 184.39,827.28 186.35,747.50 188.31,819.74 190.27,822.75 192.23,825.73 194.19,747.50 196.15,815.30 198.11,827.22 200.07,812.26 202.03,747.50 203.99,812.26 205.95,747.50 207.91,818.29 209.87,821.29 211.83,824.27 213.79,747.50 215.75,821.29 217.71,821.29 219.67,824.27 221.63,747.50 223.59,827.28 225.55,818.28 227.51,812.26 229.47,747.50 231.43,747.59 233.39,812.26 235.35,818.26 237.31,747.50 239.27,887.00 241.23,821.29 243.19,819.81 245.15,747.50 247.11,794.06 249.07,819.74 251.03,824.27 252.98,747.50 254.94,747.59 256.90,818.28 258.86,819.81 260.82,747.50 262.78,747.59 264.74,818.28 266.70,816.81 268.66,747.50 270.62,747.59 272.58,827.22 274.54,887.00 276.50,747.50 278.46,747.59 280.42,812.26 282.38,825.73 284.34,747.50 286.30,747.59 288.26,887.00 290.22,747.16 292.18,747.50 294.14,747.59 296.10,746.82 298.06,747.16 300.02,747.50 301.98,747.16 303.94,747.50 305.90,747.59 307.86,821.29 309.82,747.16 311.78,887.00 313.74,747.59 315.70,793.55 317.66,747.16 319.62,747.50 321.58,747.59 323.54,887.00 325.50,747.16 327.46,747.50 329.42,747.59 331.38,746.82 333.34,887.00 335.30,747.50 337.26,747.59 339.22,746.82 341.18,747.16 343.14,747.50 345.10,747.59 347.06,746.82 349.02,747.16 350.97,747.50 352.93,747.59 354.89,746.82 356.85,747.16 358.81,747.50 360.77,747.59 362.73,746.82 364.69,747.16 366.65,747.50 368.61,747.59 370.57,746.82 372.53,747.16 374.49,747.50 376.45,824.28 378.41,887.00 380.37,747.16 382.33,747.50 384.29,813.75 386.25,746.82 388.21,747.16 390.17,747.50 392.13,819.74 394.09,746.82 396.05,793.78 398.01,747.50 399.97,747.16 401.93,747.50 403.89,824.28 405.85,746.82 407.81,747.16 409.77,747.50 411.73,816.75 413.69,793.55 415.65,824.27 417.61,887.00 419.57,815.30 421.53,746.82 423.49,819.81 425.45,747.50 427.41,825.73 429.37,746.82 431.33,747.16 433.29,887.00 435.25,825.73 437.21,746.82 439.17,747.16 441.13,747.50 443.09,812.30 445.05,746.82 447.01,793.78 448.96,747.50 450.92,816.75 452.88,746.82 454.84,747.16 456.80,816.80 458.76,819.74 460.72,746.82 462.68,747.16 464.64,747.50 466.60,812.30 468.56,746.82 470.52,747.16 472.48,747.50 474.44,812.30 476.40,758.50 478.36,747.16 480.32,747.50 482.28,825.73 484.24,746.82 486.20,747.16 488.16,747.50 490.12,813.75 492.08,746.82 494.04,747.16 496.00,747.50" fill="none" stroke="#f97316" stroke-width="1.8" stroke-opacity="0.45" stroke-linejoin="round" stroke-linecap="round"/>
<circle cx="106.00" cy="819.81" r="1.8" fill="#f97316" fill-opacity="0.55"/>
<circle cx="127.56" cy="813.81" r="1.8" fill="#f97316" fill-opacity="0.55"/>
<circle cx="149.12" cy="813.75" r="1.8" fill="#f97316" fill-opacity="0.55"/>
<circle cx="170.67" cy="747.50" r="1.8" fill="#f97316" fill-opacity="0.55"/>
<circle cx="192.23" cy="825.73" r="1.8" fill="#f97316" fill-opacity="0.55"/>
<circle cx="213.79" cy="747.50" r="1.8" fill="#f97316" fill-opacity="0.55"/>
<circle cx="235.35" cy="818.26" r="1.8" fill="#f97316" fill-opacity="0.55"/>
<circle cx="256.90" cy="818.28" r="1.8" fill="#f97316" fill-opacity="0.55"/>
<circle cx="278.46" cy="747.59" r="1.8" fill="#f97316" fill-opacity="0.55"/>
<circle cx="300.02" cy="747.50" r="1.8" fill="#f97316" fill-opacity="0.55"/>
<circle cx="321.58" cy="747.59" r="1.8" fill="#f97316" fill-opacity="0.55"/>
<circle cx="343.14" cy="747.50" r="1.8" fill="#f97316" fill-opacity="0.55"/>
<circle cx="364.69" cy="747.16" r="1.8" fill="#f97316" fill-opacity="0.55"/>
<circle cx="386.25" cy="746.82" r="1.8" fill="#f97316" fill-opacity="0.55"/>
<circle cx="407.81" cy="747.16" r="1.8" fill="#f97316" fill-opacity="0.55"/>
<circle cx="429.37" cy="746.82" r="1.8" fill="#f97316" fill-opacity="0.55"/>
<circle cx="450.92" cy="816.75" r="1.8" fill="#f97316" fill-opacity="0.55"/>
<circle cx="472.48" cy="747.50" r="1.8" fill="#f97316" fill-opacity="0.55"/>
<circle cx="494.04" cy="747.16" r="1.8" fill="#f97316" fill-opacity="0.55"/>
<text x="496" y="912" class="tick" text-anchor="end">Round 序列；越高越好</text>
<rect x="830" y="28" width="14" height="14" rx="3" fill="#2563eb"/>
<text x="852" y="40" class="label">Infron</text>
<rect x="830" y="52" width="14" height="14" rx="3" fill="#f97316"/>
<text x="852" y="64" class="label">OpenRouter</text>
</svg>